<?xml version="1.0" encoding="utf-8" standalone="no"?>
<!DOCTYPE svg PUBLIC "-//W3C//DTD SVG 1.1//EN"
  "http://www.w3.org/Graphics/SVG/1.1/DTD/svg11.dtd">
<svg xmlns:xlink="http://www.w3.org/1999/xlink" width="1080pt" height="576pt" viewBox="0 0 1080 576" xmlns="http://www.w3.org/2000/svg" version="1.1">
 <metadata>
  <rdf:RDF xmlns:dc="http://purl.org/dc/elements/1.1/" xmlns:cc="http://creativecommons.org/ns#" xmlns:rdf="http://www.w3.org/1999/02/22-rdf-syntax-ns#">
   <cc:Work>
    <dc:type rdf:resource="http://purl.org/dc/dcmitype/StillImage"/>
    <dc:date>2024-12-09T10:35:54.605297</dc:date>
    <dc:format>image/svg+xml</dc:format>
    <dc:creator>
     <cc:Agent>
      <dc:title>Matplotlib v3.5.2, https://matplotlib.org/</dc:title>
     </cc:Agent>
    </dc:creator>
   </cc:Work>
  </rdf:RDF>
 </metadata>
 <defs>
  <style type="text/css">*{stroke-linejoin: round; stroke-linecap: butt}</style>
 </defs>
 <g id="figure_1">
  <g id="patch_1">
   <path d="M 0 576 
L 1080 576 
L 1080 0 
L 0 0 
z
" style="fill: #ffffff"/>
  </g>
  <g id="axes_1">
   <g id="patch_2">
    <path d="M 135 394.971429 
L 972 394.971429 
L 972 69.12 
L 135 69.12 
z
" style="fill: #ffffff"/>
   </g>
   <g id="matplotlib.axis_1">
    <g id="xtick_1">
     <g id="line2d_1">
      <defs>
       <path id="m7e9f665410" d="M 0 0 
L 0 3.5 
" style="stroke: #000000; stroke-width: 0.8"/>
      </defs>
      <g>
       <use xlink:href="#m7e9f665410" x="135" y="394.971429" style="stroke: #000000; stroke-width: 0.8"/>
      </g>
     </g>
     <g id="text_1">
      <!-- 0 -->
      <g transform="translate(131.81875 409.569866)scale(0.1 -0.1)">
       <defs>
        <path id="DejaVuSans-30" d="M 2034 4250 
Q 1547 4250 1301 3770 
Q 1056 3291 1056 2328 
Q 1056 1369 1301 889 
Q 1547 409 2034 409 
Q 2525 409 2770 889 
Q 3016 1369 3016 2328 
Q 3016 3291 2770 3770 
Q 2525 4250 2034 4250 
z
M 2034 4750 
Q 2819 4750 3233 4129 
Q 3647 3509 3647 2328 
Q 3647 1150 3233 529 
Q 2819 -91 2034 -91 
Q 1250 -91 836 529 
Q 422 1150 422 2328 
Q 422 3509 836 4129 
Q 1250 4750 2034 4750 
z
" transform="scale(0.015625)"/>
       </defs>
       <use xlink:href="#DejaVuSans-30"/>
      </g>
     </g>
    </g>
    <g id="xtick_2">
     <g id="line2d_2">
      <g>
       <use xlink:href="#m7e9f665410" x="302.4" y="394.971429" style="stroke: #000000; stroke-width: 0.8"/>
      </g>
     </g>
     <g id="text_2">
      <!-- 1 -->
      <g transform="translate(299.21875 409.569866)scale(0.1 -0.1)">
       <defs>
        <path id="DejaVuSans-31" d="M 794 531 
L 1825 531 
L 1825 4091 
L 703 3866 
L 703 4441 
L 1819 4666 
L 2450 4666 
L 2450 531 
L 3481 531 
L 3481 0 
L 794 0 
L 794 531 
z
" transform="scale(0.015625)"/>
       </defs>
       <use xlink:href="#DejaVuSans-31"/>
      </g>
     </g>
    </g>
    <g id="xtick_3">
     <g id="line2d_3">
      <g>
       <use xlink:href="#m7e9f665410" x="469.8" y="394.971429" style="stroke: #000000; stroke-width: 0.8"/>
      </g>
     </g>
     <g id="text_3">
      <!-- 2 -->
      <g transform="translate(466.61875 409.569866)scale(0.1 -0.1)">
       <defs>
        <path id="DejaVuSans-32" d="M 1228 531 
L 3431 531 
L 3431 0 
L 469 0 
L 469 531 
Q 828 903 1448 1529 
Q 2069 2156 2228 2338 
Q 2531 2678 2651 2914 
Q 2772 3150 2772 3378 
Q 2772 3750 2511 3984 
Q 2250 4219 1831 4219 
Q 1534 4219 1204 4116 
Q 875 4013 500 3803 
L 500 4441 
Q 881 4594 1212 4672 
Q 1544 4750 1819 4750 
Q 2544 4750 2975 4387 
Q 3406 4025 3406 3419 
Q 3406 3131 3298 2873 
Q 3191 2616 2906 2266 
Q 2828 2175 2409 1742 
Q 1991 1309 1228 531 
z
" transform="scale(0.015625)"/>
       </defs>
       <use xlink:href="#DejaVuSans-32"/>
      </g>
     </g>
    </g>
    <g id="xtick_4">
     <g id="line2d_4">
      <g>
       <use xlink:href="#m7e9f665410" x="637.2" y="394.971429" style="stroke: #000000; stroke-width: 0.8"/>
      </g>
     </g>
     <g id="text_4">
      <!-- 3 -->
      <g transform="translate(634.01875 409.569866)scale(0.1 -0.1)">
       <defs>
        <path id="DejaVuSans-33" d="M 2597 2516 
Q 3050 2419 3304 2112 
Q 3559 1806 3559 1356 
Q 3559 666 3084 287 
Q 2609 -91 1734 -91 
Q 1441 -91 1130 -33 
Q 819 25 488 141 
L 488 750 
Q 750 597 1062 519 
Q 1375 441 1716 441 
Q 2309 441 2620 675 
Q 2931 909 2931 1356 
Q 2931 1769 2642 2001 
Q 2353 2234 1838 2234 
L 1294 2234 
L 1294 2753 
L 1863 2753 
Q 2328 2753 2575 2939 
Q 2822 3125 2822 3475 
Q 2822 3834 2567 4026 
Q 2313 4219 1838 4219 
Q 1578 4219 1281 4162 
Q 984 4106 628 3988 
L 628 4550 
Q 988 4650 1302 4700 
Q 1616 4750 1894 4750 
Q 2613 4750 3031 4423 
Q 3450 4097 3450 3541 
Q 3450 3153 3228 2886 
Q 3006 2619 2597 2516 
z
" transform="scale(0.015625)"/>
       </defs>
       <use xlink:href="#DejaVuSans-33"/>
      </g>
     </g>
    </g>
    <g id="xtick_5">
     <g id="line2d_5">
      <g>
       <use xlink:href="#m7e9f665410" x="804.6" y="394.971429" style="stroke: #000000; stroke-width: 0.8"/>
      </g>
     </g>
     <g id="text_5">
      <!-- 4 -->
      <g transform="translate(801.41875 409.569866)scale(0.1 -0.1)">
       <defs>
        <path id="DejaVuSans-34" d="M 2419 4116 
L 825 1625 
L 2419 1625 
L 2419 4116 
z
M 2253 4666 
L 3047 4666 
L 3047 1625 
L 3713 1625 
L 3713 1100 
L 3047 1100 
L 3047 0 
L 2419 0 
L 2419 1100 
L 313 1100 
L 313 1709 
L 2253 4666 
z
" transform="scale(0.015625)"/>
       </defs>
       <use xlink:href="#DejaVuSans-34"/>
      </g>
     </g>
    </g>
    <g id="xtick_6">
     <g id="line2d_6">
      <g>
       <use xlink:href="#m7e9f665410" x="972" y="394.971429" style="stroke: #000000; stroke-width: 0.8"/>
      </g>
     </g>
     <g id="text_6">
      <!-- 5 -->
      <g transform="translate(968.81875 409.569866)scale(0.1 -0.1)">
       <defs>
        <path id="DejaVuSans-35" d="M 691 4666 
L 3169 4666 
L 3169 4134 
L 1269 4134 
L 1269 2991 
Q 1406 3038 1543 3061 
Q 1681 3084 1819 3084 
Q 2600 3084 3056 2656 
Q 3513 2228 3513 1497 
Q 3513 744 3044 326 
Q 2575 -91 1722 -91 
Q 1428 -91 1123 -41 
Q 819 9 494 109 
L 494 744 
Q 775 591 1075 516 
Q 1375 441 1709 441 
Q 2250 441 2565 725 
Q 2881 1009 2881 1497 
Q 2881 1984 2565 2268 
Q 2250 2553 1709 2553 
Q 1456 2553 1204 2497 
Q 953 2441 691 2322 
L 691 4666 
z
" transform="scale(0.015625)"/>
       </defs>
       <use xlink:href="#DejaVuSans-35"/>
      </g>
     </g>
    </g>
   </g>
   <g id="matplotlib.axis_2">
    <g id="ytick_1">
     <g id="line2d_7">
      <defs>
       <path id="m6ecb7e69c2" d="M 0 0 
L -3.5 0 
" style="stroke: #000000; stroke-width: 0.8"/>
      </defs>
      <g>
       <use xlink:href="#m6ecb7e69c2" x="135" y="394.971429" style="stroke: #000000; stroke-width: 0.8"/>
      </g>
     </g>
     <g id="text_7">
      <!-- 0 -->
      <g transform="translate(121.6375 398.770647)scale(0.1 -0.1)">
       <use xlink:href="#DejaVuSans-30"/>
      </g>
     </g>
    </g>
    <g id="ytick_2">
     <g id="line2d_8">
      <g>
       <use xlink:href="#m6ecb7e69c2" x="135" y="329.801143" style="stroke: #000000; stroke-width: 0.8"/>
      </g>
     </g>
     <g id="text_8">
      <!-- 20 -->
      <g transform="translate(115.275 333.600362)scale(0.1 -0.1)">
       <use xlink:href="#DejaVuSans-32"/>
       <use xlink:href="#DejaVuSans-30" x="63.623047"/>
      </g>
     </g>
    </g>
    <g id="ytick_3">
     <g id="line2d_9">
      <g>
       <use xlink:href="#m6ecb7e69c2" x="135" y="264.630857" style="stroke: #000000; stroke-width: 0.8"/>
      </g>
     </g>
     <g id="text_9">
      <!-- 40 -->
      <g transform="translate(115.275 268.430076)scale(0.1 -0.1)">
       <use xlink:href="#DejaVuSans-34"/>
       <use xlink:href="#DejaVuSans-30" x="63.623047"/>
      </g>
     </g>
    </g>
    <g id="ytick_4">
     <g id="line2d_10">
      <g>
       <use xlink:href="#m6ecb7e69c2" x="135" y="199.460571" style="stroke: #000000; stroke-width: 0.8"/>
      </g>
     </g>
     <g id="text_10">
      <!-- 60 -->
      <g transform="translate(115.275 203.25979)scale(0.1 -0.1)">
       <defs>
        <path id="DejaVuSans-36" d="M 2113 2584 
Q 1688 2584 1439 2293 
Q 1191 2003 1191 1497 
Q 1191 994 1439 701 
Q 1688 409 2113 409 
Q 2538 409 2786 701 
Q 3034 994 3034 1497 
Q 3034 2003 2786 2293 
Q 2538 2584 2113 2584 
z
M 3366 4563 
L 3366 3988 
Q 3128 4100 2886 4159 
Q 2644 4219 2406 4219 
Q 1781 4219 1451 3797 
Q 1122 3375 1075 2522 
Q 1259 2794 1537 2939 
Q 1816 3084 2150 3084 
Q 2853 3084 3261 2657 
Q 3669 2231 3669 1497 
Q 3669 778 3244 343 
Q 2819 -91 2113 -91 
Q 1303 -91 875 529 
Q 447 1150 447 2328 
Q 447 3434 972 4092 
Q 1497 4750 2381 4750 
Q 2619 4750 2861 4703 
Q 3103 4656 3366 4563 
z
" transform="scale(0.015625)"/>
       </defs>
       <use xlink:href="#DejaVuSans-36"/>
       <use xlink:href="#DejaVuSans-30" x="63.623047"/>
      </g>
     </g>
    </g>
    <g id="ytick_5">
     <g id="line2d_11">
      <g>
       <use xlink:href="#m6ecb7e69c2" x="135" y="134.290286" style="stroke: #000000; stroke-width: 0.8"/>
      </g>
     </g>
     <g id="text_11">
      <!-- 80 -->
      <g transform="translate(115.275 138.089504)scale(0.1 -0.1)">
       <defs>
        <path id="DejaVuSans-38" d="M 2034 2216 
Q 1584 2216 1326 1975 
Q 1069 1734 1069 1313 
Q 1069 891 1326 650 
Q 1584 409 2034 409 
Q 2484 409 2743 651 
Q 3003 894 3003 1313 
Q 3003 1734 2745 1975 
Q 2488 2216 2034 2216 
z
M 1403 2484 
Q 997 2584 770 2862 
Q 544 3141 544 3541 
Q 544 4100 942 4425 
Q 1341 4750 2034 4750 
Q 2731 4750 3128 4425 
Q 3525 4100 3525 3541 
Q 3525 3141 3298 2862 
Q 3072 2584 2669 2484 
Q 3125 2378 3379 2068 
Q 3634 1759 3634 1313 
Q 3634 634 3220 271 
Q 2806 -91 2034 -91 
Q 1263 -91 848 271 
Q 434 634 434 1313 
Q 434 1759 690 2068 
Q 947 2378 1403 2484 
z
M 1172 3481 
Q 1172 3119 1398 2916 
Q 1625 2713 2034 2713 
Q 2441 2713 2670 2916 
Q 2900 3119 2900 3481 
Q 2900 3844 2670 4047 
Q 2441 4250 2034 4250 
Q 1625 4250 1398 4047 
Q 1172 3844 1172 3481 
z
" transform="scale(0.015625)"/>
       </defs>
       <use xlink:href="#DejaVuSans-38"/>
       <use xlink:href="#DejaVuSans-30" x="63.623047"/>
      </g>
     </g>
    </g>
    <g id="ytick_6">
     <g id="line2d_12">
      <g>
       <use xlink:href="#m6ecb7e69c2" x="135" y="69.12" style="stroke: #000000; stroke-width: 0.8"/>
      </g>
     </g>
     <g id="text_12">
      <!-- 100 -->
      <g transform="translate(108.9125 72.919219)scale(0.1 -0.1)">
       <use xlink:href="#DejaVuSans-31"/>
       <use xlink:href="#DejaVuSans-30" x="63.623047"/>
       <use xlink:href="#DejaVuSans-30" x="127.246094"/>
      </g>
     </g>
    </g>
   </g>
   <g id="line2d_13">
    <path d="M 135 394.971429 
L 143.37 381.833099 
L 151.74 369.085791 
L 160.11 356.247245 
L 168.48 343.47061 
L 176.85 330.817799 
L 185.22 318.360499 
L 193.59 306.000955 
L 201.96 293.944452 
L 210.33 282.174698 
L 218.7 270.649333 
L 227.07 259.166329 
L 235.44 247.878835 
L 243.81 236.900901 
L 252.18 226.496464 
L 260.55 216.26473 
L 268.92 206.075355 
L 277.29 196.52465 
L 285.66 187.586545 
L 294.03 178.879795 
L 302.4 170.880143 
L 310.77 163.098811 
L 319.14 155.763895 
L 327.51 148.595163 
L 335.88 141.752283 
L 344.25 135.570882 
L 352.62 129.845672 
L 360.99 124.322491 
L 369.36 119.36629 
L 377.73 114.722907 
L 386.1 110.314138 
L 394.47 106.322458 
L 402.84 102.793487 
L 411.21 99.469802 
L 419.58 96.289492 
L 427.95 93.637061 
L 436.32 90.997665 
L 444.69 88.631984 
L 453.06 86.64429 
L 461.43 84.826039 
L 469.8 83.128353 
L 478.17 81.590334 
L 486.54 80.234792 
L 494.91 79.123639 
L 503.28 78.06788 
L 511.65 77.087067 
L 520.02 76.301765 
L 528.39 75.627253 
L 536.76 74.99836 
L 545.13 74.447671 
L 553.5 73.913275 
L 561.87 73.447307 
L 570.24 73.04651 
L 578.61 72.697849 
L 586.98 72.385031 
L 595.35 72.023336 
L 603.72 71.720294 
L 612.09 71.456355 
L 620.46 71.228259 
L 628.83 71.029489 
L 637.2 70.860047 
L 645.57 70.674311 
L 653.94 70.50161 
L 662.31 70.341943 
L 670.68 70.208344 
L 679.05 70.110588 
L 687.42 70.032384 
L 695.79 69.944404 
L 704.16 69.853166 
L 712.53 69.781478 
L 720.9 69.696757 
L 729.27 69.621811 
L 737.64 69.582709 
L 746.01 69.524056 
L 754.38 69.484954 
L 762.75 69.44911 
L 771.12 69.419783 
L 779.49 69.374164 
L 787.86 69.348096 
L 796.23 69.328545 
L 804.6 69.305735 
L 812.97 69.282926 
L 821.34 69.250341 
L 829.71 69.243824 
L 838.08 69.221014 
L 846.45 69.214497 
L 854.82 69.20798 
L 863.19 69.201463 
L 871.56 69.188429 
L 879.93 69.18517 
L 888.3 69.175395 
L 896.67 69.162361 
L 905.04 69.152585 
L 913.41 69.152585 
L 921.78 69.149327 
L 930.15 69.149327 
L 938.52 69.146068 
L 946.89 69.139551 
L 955.26 69.139551 
L 963.63 69.139551 
L 972 69.139551 
" clip-path="url(#p84b816933a)" style="fill: none; stroke: #1f77b4; stroke-width: 1.5; stroke-linecap: square"/>
   </g>
   <g id="line2d_14">
    <path d="M 135 394.971429 
L 143.37 381.977252 
L 151.74 369.015513 
L 160.11 356.118408 
L 168.48 343.317649 
L 176.85 330.644234 
L 185.22 318.128218 
L 193.59 305.798502 
L 201.96 293.682636 
L 210.33 281.80663 
L 218.7 270.194796 
L 227.07 258.8696 
L 235.44 247.85154 
L 243.81 237.159047 
L 252.18 226.808403 
L 260.55 216.813693 
L 268.92 207.186769 
L 277.29 197.937244 
L 285.66 189.07251 
L 294.03 180.597766 
L 302.4 172.516082 
L 310.77 164.828467 
L 319.14 157.53396 
L 327.51 150.629738 
L 335.88 144.111233 
L 344.25 137.972259 
L 352.62 132.205152 
L 360.99 126.800911 
L 369.36 121.749346 
L 377.73 117.039229 
L 386.1 112.658444 
L 394.47 108.594136 
L 402.84 104.832855 
L 411.21 101.360697 
L 419.58 98.163439 
L 427.95 95.226667 
L 436.32 92.535892 
L 444.69 90.076662 
L 453.06 87.834664 
L 461.43 85.795811 
L 469.8 83.946326 
L 478.17 82.272807 
L 486.54 80.762294 
L 494.91 79.402312 
L 503.28 78.180916 
L 511.65 77.086724 
L 520.02 76.108933 
L 528.39 75.237343 
L 536.76 74.462358 
L 545.13 73.77499 
L 553.5 73.166857 
L 561.87 72.630167 
L 570.24 72.15771 
L 578.61 71.742836 
L 586.98 71.379437 
L 595.35 71.06192 
L 603.72 70.785186 
L 612.09 70.544597 
L 620.46 70.335956 
L 628.83 70.155471 
L 637.2 69.999732 
L 645.57 69.865683 
L 653.94 69.75059 
L 662.31 69.652019 
L 670.68 69.56781 
L 679.05 69.496049 
L 687.42 69.435049 
L 695.79 69.383326 
L 704.16 69.339578 
L 712.53 69.302668 
L 720.9 69.271605 
L 729.27 69.245528 
L 737.64 69.223692 
L 746.01 69.205451 
L 754.38 69.190253 
L 762.75 69.177622 
L 771.12 69.167149 
L 779.49 69.158489 
L 787.86 69.151345 
L 796.23 69.145466 
L 804.6 69.14064 
L 812.97 69.136689 
L 821.34 69.133463 
L 829.71 69.130834 
L 838.08 69.128697 
L 846.45 69.126966 
L 854.82 69.125565 
L 863.19 69.124436 
L 871.56 69.123527 
L 879.93 69.122798 
L 888.3 69.122214 
L 896.67 69.121748 
L 905.04 69.121377 
L 913.41 69.121082 
L 921.78 69.120848 
L 930.15 69.120663 
L 938.52 69.120517 
L 946.89 69.120402 
L 955.26 69.120312 
L 963.63 69.120242 
L 972 69.120187 
" clip-path="url(#p84b816933a)" style="fill: none; stroke: #ff7f0e; stroke-width: 1.5; stroke-linecap: square"/>
   </g>
   <g id="patch_3">
    <path d="M 135 394.971429 
L 135 69.12 
" style="fill: none; stroke: #000000; stroke-width: 0.8; stroke-linejoin: miter; stroke-linecap: square"/>
   </g>
   <g id="patch_4">
    <path d="M 972 394.971429 
L 972 69.12 
" style="fill: none; stroke: #000000; stroke-width: 0.8; stroke-linejoin: miter; stroke-linecap: square"/>
   </g>
   <g id="patch_5">
    <path d="M 135 394.971429 
L 972 394.971429 
" style="fill: none; stroke: #000000; stroke-width: 0.8; stroke-linejoin: miter; stroke-linecap: square"/>
   </g>
   <g id="patch_6">
    <path d="M 135 69.12 
L 972 69.12 
" style="fill: none; stroke: #000000; stroke-width: 0.8; stroke-linejoin: miter; stroke-linecap: square"/>
   </g>
   <g id="legend_1">
    <g id="patch_7">
     <path d="M 826.346875 106.87625 
L 965 106.87625 
Q 967 106.87625 967 104.87625 
L 967 76.12 
Q 967 74.12 965 74.12 
L 826.346875 74.12 
Q 824.346875 74.12 824.346875 76.12 
L 824.346875 104.87625 
Q 824.346875 106.87625 826.346875 106.87625 
z
" style="fill: #ffffff; opacity: 0.8; stroke: #cccccc; stroke-linejoin: miter"/>
    </g>
    <g id="line2d_15">
     <path d="M 828.346875 82.618438 
L 838.346875 82.618438 
L 848.346875 82.618438 
" style="fill: none; stroke: #1f77b4; stroke-width: 1.5; stroke-linecap: square"/>
    </g>
    <g id="text_13">
     <!-- calculé explicitement -->
     <g transform="translate(856.346875 86.118438)scale(0.1 -0.1)">
      <defs>
       <path id="DejaVuSans-63" d="M 3122 3366 
L 3122 2828 
Q 2878 2963 2633 3030 
Q 2388 3097 2138 3097 
Q 1578 3097 1268 2742 
Q 959 2388 959 1747 
Q 959 1106 1268 751 
Q 1578 397 2138 397 
Q 2388 397 2633 464 
Q 2878 531 3122 666 
L 3122 134 
Q 2881 22 2623 -34 
Q 2366 -91 2075 -91 
Q 1284 -91 818 406 
Q 353 903 353 1747 
Q 353 2603 823 3093 
Q 1294 3584 2113 3584 
Q 2378 3584 2631 3529 
Q 2884 3475 3122 3366 
z
" transform="scale(0.015625)"/>
       <path id="DejaVuSans-61" d="M 2194 1759 
Q 1497 1759 1228 1600 
Q 959 1441 959 1056 
Q 959 750 1161 570 
Q 1363 391 1709 391 
Q 2188 391 2477 730 
Q 2766 1069 2766 1631 
L 2766 1759 
L 2194 1759 
z
M 3341 1997 
L 3341 0 
L 2766 0 
L 2766 531 
Q 2569 213 2275 61 
Q 1981 -91 1556 -91 
Q 1019 -91 701 211 
Q 384 513 384 1019 
Q 384 1609 779 1909 
Q 1175 2209 1959 2209 
L 2766 2209 
L 2766 2266 
Q 2766 2663 2505 2880 
Q 2244 3097 1772 3097 
Q 1472 3097 1187 3025 
Q 903 2953 641 2809 
L 641 3341 
Q 956 3463 1253 3523 
Q 1550 3584 1831 3584 
Q 2591 3584 2966 3190 
Q 3341 2797 3341 1997 
z
" transform="scale(0.015625)"/>
       <path id="DejaVuSans-6c" d="M 603 4863 
L 1178 4863 
L 1178 0 
L 603 0 
L 603 4863 
z
" transform="scale(0.015625)"/>
       <path id="DejaVuSans-75" d="M 544 1381 
L 544 3500 
L 1119 3500 
L 1119 1403 
Q 1119 906 1312 657 
Q 1506 409 1894 409 
Q 2359 409 2629 706 
Q 2900 1003 2900 1516 
L 2900 3500 
L 3475 3500 
L 3475 0 
L 2900 0 
L 2900 538 
Q 2691 219 2414 64 
Q 2138 -91 1772 -91 
Q 1169 -91 856 284 
Q 544 659 544 1381 
z
M 1991 3584 
L 1991 3584 
z
" transform="scale(0.015625)"/>
       <path id="DejaVuSans-e9" d="M 3597 1894 
L 3597 1613 
L 953 1613 
Q 991 1019 1311 708 
Q 1631 397 2203 397 
Q 2534 397 2845 478 
Q 3156 559 3463 722 
L 3463 178 
Q 3153 47 2828 -22 
Q 2503 -91 2169 -91 
Q 1331 -91 842 396 
Q 353 884 353 1716 
Q 353 2575 817 3079 
Q 1281 3584 2069 3584 
Q 2775 3584 3186 3129 
Q 3597 2675 3597 1894 
z
M 3022 2063 
Q 3016 2534 2758 2815 
Q 2500 3097 2075 3097 
Q 1594 3097 1305 2825 
Q 1016 2553 972 2059 
L 3022 2063 
z
M 2469 5119 
L 3091 5119 
L 2072 3944 
L 1594 3944 
L 2469 5119 
z
" transform="scale(0.015625)"/>
       <path id="DejaVuSans-20" transform="scale(0.015625)"/>
       <path id="DejaVuSans-65" d="M 3597 1894 
L 3597 1613 
L 953 1613 
Q 991 1019 1311 708 
Q 1631 397 2203 397 
Q 2534 397 2845 478 
Q 3156 559 3463 722 
L 3463 178 
Q 3153 47 2828 -22 
Q 2503 -91 2169 -91 
Q 1331 -91 842 396 
Q 353 884 353 1716 
Q 353 2575 817 3079 
Q 1281 3584 2069 3584 
Q 2775 3584 3186 3129 
Q 3597 2675 3597 1894 
z
M 3022 2063 
Q 3016 2534 2758 2815 
Q 2500 3097 2075 3097 
Q 1594 3097 1305 2825 
Q 1016 2553 972 2059 
L 3022 2063 
z
" transform="scale(0.015625)"/>
       <path id="DejaVuSans-78" d="M 3513 3500 
L 2247 1797 
L 3578 0 
L 2900 0 
L 1881 1375 
L 863 0 
L 184 0 
L 1544 1831 
L 300 3500 
L 978 3500 
L 1906 2253 
L 2834 3500 
L 3513 3500 
z
" transform="scale(0.015625)"/>
       <path id="DejaVuSans-70" d="M 1159 525 
L 1159 -1331 
L 581 -1331 
L 581 3500 
L 1159 3500 
L 1159 2969 
Q 1341 3281 1617 3432 
Q 1894 3584 2278 3584 
Q 2916 3584 3314 3078 
Q 3713 2572 3713 1747 
Q 3713 922 3314 415 
Q 2916 -91 2278 -91 
Q 1894 -91 1617 61 
Q 1341 213 1159 525 
z
M 3116 1747 
Q 3116 2381 2855 2742 
Q 2594 3103 2138 3103 
Q 1681 3103 1420 2742 
Q 1159 2381 1159 1747 
Q 1159 1113 1420 752 
Q 1681 391 2138 391 
Q 2594 391 2855 752 
Q 3116 1113 3116 1747 
z
" transform="scale(0.015625)"/>
       <path id="DejaVuSans-69" d="M 603 3500 
L 1178 3500 
L 1178 0 
L 603 0 
L 603 3500 
z
M 603 4863 
L 1178 4863 
L 1178 4134 
L 603 4134 
L 603 4863 
z
" transform="scale(0.015625)"/>
       <path id="DejaVuSans-74" d="M 1172 4494 
L 1172 3500 
L 2356 3500 
L 2356 3053 
L 1172 3053 
L 1172 1153 
Q 1172 725 1289 603 
Q 1406 481 1766 481 
L 2356 481 
L 2356 0 
L 1766 0 
Q 1100 0 847 248 
Q 594 497 594 1153 
L 594 3053 
L 172 3053 
L 172 3500 
L 594 3500 
L 594 4494 
L 1172 4494 
z
" transform="scale(0.015625)"/>
       <path id="DejaVuSans-6d" d="M 3328 2828 
Q 3544 3216 3844 3400 
Q 4144 3584 4550 3584 
Q 5097 3584 5394 3201 
Q 5691 2819 5691 2113 
L 5691 0 
L 5113 0 
L 5113 2094 
Q 5113 2597 4934 2840 
Q 4756 3084 4391 3084 
Q 3944 3084 3684 2787 
Q 3425 2491 3425 1978 
L 3425 0 
L 2847 0 
L 2847 2094 
Q 2847 2600 2669 2842 
Q 2491 3084 2119 3084 
Q 1678 3084 1418 2786 
Q 1159 2488 1159 1978 
L 1159 0 
L 581 0 
L 581 3500 
L 1159 3500 
L 1159 2956 
Q 1356 3278 1631 3431 
Q 1906 3584 2284 3584 
Q 2666 3584 2933 3390 
Q 3200 3197 3328 2828 
z
" transform="scale(0.015625)"/>
       <path id="DejaVuSans-6e" d="M 3513 2113 
L 3513 0 
L 2938 0 
L 2938 2094 
Q 2938 2591 2744 2837 
Q 2550 3084 2163 3084 
Q 1697 3084 1428 2787 
Q 1159 2491 1159 1978 
L 1159 0 
L 581 0 
L 581 3500 
L 1159 3500 
L 1159 2956 
Q 1366 3272 1645 3428 
Q 1925 3584 2291 3584 
Q 2894 3584 3203 3211 
Q 3513 2838 3513 2113 
z
" transform="scale(0.015625)"/>
      </defs>
      <use xlink:href="#DejaVuSans-63"/>
      <use xlink:href="#DejaVuSans-61" x="54.980469"/>
      <use xlink:href="#DejaVuSans-6c" x="116.259766"/>
      <use xlink:href="#DejaVuSans-63" x="144.042969"/>
      <use xlink:href="#DejaVuSans-75" x="199.023438"/>
      <use xlink:href="#DejaVuSans-6c" x="262.402344"/>
      <use xlink:href="#DejaVuSans-e9" x="290.185547"/>
      <use xlink:href="#DejaVuSans-20" x="351.708984"/>
      <use xlink:href="#DejaVuSans-65" x="383.496094"/>
      <use xlink:href="#DejaVuSans-78" x="443.269531"/>
      <use xlink:href="#DejaVuSans-70" x="502.449219"/>
      <use xlink:href="#DejaVuSans-6c" x="565.925781"/>
      <use xlink:href="#DejaVuSans-69" x="593.708984"/>
      <use xlink:href="#DejaVuSans-63" x="621.492188"/>
      <use xlink:href="#DejaVuSans-69" x="676.472656"/>
      <use xlink:href="#DejaVuSans-74" x="704.255859"/>
      <use xlink:href="#DejaVuSans-65" x="743.464844"/>
      <use xlink:href="#DejaVuSans-6d" x="804.988281"/>
      <use xlink:href="#DejaVuSans-65" x="902.400391"/>
      <use xlink:href="#DejaVuSans-6e" x="963.923828"/>
      <use xlink:href="#DejaVuSans-74" x="1027.302734"/>
     </g>
    </g>
    <g id="line2d_16">
     <path d="M 828.346875 97.296563 
L 838.346875 97.296563 
L 848.346875 97.296563 
" style="fill: none; stroke: #ff7f0e; stroke-width: 1.5; stroke-linecap: square"/>
    </g>
    <g id="text_14">
     <!-- pour une gaussienne -->
     <g transform="translate(856.346875 100.796563)scale(0.1 -0.1)">
      <defs>
       <path id="DejaVuSans-6f" d="M 1959 3097 
Q 1497 3097 1228 2736 
Q 959 2375 959 1747 
Q 959 1119 1226 758 
Q 1494 397 1959 397 
Q 2419 397 2687 759 
Q 2956 1122 2956 1747 
Q 2956 2369 2687 2733 
Q 2419 3097 1959 3097 
z
M 1959 3584 
Q 2709 3584 3137 3096 
Q 3566 2609 3566 1747 
Q 3566 888 3137 398 
Q 2709 -91 1959 -91 
Q 1206 -91 779 398 
Q 353 888 353 1747 
Q 353 2609 779 3096 
Q 1206 3584 1959 3584 
z
" transform="scale(0.015625)"/>
       <path id="DejaVuSans-72" d="M 2631 2963 
Q 2534 3019 2420 3045 
Q 2306 3072 2169 3072 
Q 1681 3072 1420 2755 
Q 1159 2438 1159 1844 
L 1159 0 
L 581 0 
L 581 3500 
L 1159 3500 
L 1159 2956 
Q 1341 3275 1631 3429 
Q 1922 3584 2338 3584 
Q 2397 3584 2469 3576 
Q 2541 3569 2628 3553 
L 2631 2963 
z
" transform="scale(0.015625)"/>
       <path id="DejaVuSans-67" d="M 2906 1791 
Q 2906 2416 2648 2759 
Q 2391 3103 1925 3103 
Q 1463 3103 1205 2759 
Q 947 2416 947 1791 
Q 947 1169 1205 825 
Q 1463 481 1925 481 
Q 2391 481 2648 825 
Q 2906 1169 2906 1791 
z
M 3481 434 
Q 3481 -459 3084 -895 
Q 2688 -1331 1869 -1331 
Q 1566 -1331 1297 -1286 
Q 1028 -1241 775 -1147 
L 775 -588 
Q 1028 -725 1275 -790 
Q 1522 -856 1778 -856 
Q 2344 -856 2625 -561 
Q 2906 -266 2906 331 
L 2906 616 
Q 2728 306 2450 153 
Q 2172 0 1784 0 
Q 1141 0 747 490 
Q 353 981 353 1791 
Q 353 2603 747 3093 
Q 1141 3584 1784 3584 
Q 2172 3584 2450 3431 
Q 2728 3278 2906 2969 
L 2906 3500 
L 3481 3500 
L 3481 434 
z
" transform="scale(0.015625)"/>
       <path id="DejaVuSans-73" d="M 2834 3397 
L 2834 2853 
Q 2591 2978 2328 3040 
Q 2066 3103 1784 3103 
Q 1356 3103 1142 2972 
Q 928 2841 928 2578 
Q 928 2378 1081 2264 
Q 1234 2150 1697 2047 
L 1894 2003 
Q 2506 1872 2764 1633 
Q 3022 1394 3022 966 
Q 3022 478 2636 193 
Q 2250 -91 1575 -91 
Q 1294 -91 989 -36 
Q 684 19 347 128 
L 347 722 
Q 666 556 975 473 
Q 1284 391 1588 391 
Q 1994 391 2212 530 
Q 2431 669 2431 922 
Q 2431 1156 2273 1281 
Q 2116 1406 1581 1522 
L 1381 1569 
Q 847 1681 609 1914 
Q 372 2147 372 2553 
Q 372 3047 722 3315 
Q 1072 3584 1716 3584 
Q 2034 3584 2315 3537 
Q 2597 3491 2834 3397 
z
" transform="scale(0.015625)"/>
      </defs>
      <use xlink:href="#DejaVuSans-70"/>
      <use xlink:href="#DejaVuSans-6f" x="63.476562"/>
      <use xlink:href="#DejaVuSans-75" x="124.658203"/>
      <use xlink:href="#DejaVuSans-72" x="188.037109"/>
      <use xlink:href="#DejaVuSans-20" x="229.150391"/>
      <use xlink:href="#DejaVuSans-75" x="260.9375"/>
      <use xlink:href="#DejaVuSans-6e" x="324.316406"/>
      <use xlink:href="#DejaVuSans-65" x="387.695312"/>
      <use xlink:href="#DejaVuSans-20" x="449.21875"/>
      <use xlink:href="#DejaVuSans-67" x="481.005859"/>
      <use xlink:href="#DejaVuSans-61" x="544.482422"/>
      <use xlink:href="#DejaVuSans-75" x="605.761719"/>
      <use xlink:href="#DejaVuSans-73" x="669.140625"/>
      <use xlink:href="#DejaVuSans-73" x="721.240234"/>
      <use xlink:href="#DejaVuSans-69" x="773.339844"/>
      <use xlink:href="#DejaVuSans-65" x="801.123047"/>
      <use xlink:href="#DejaVuSans-6e" x="862.646484"/>
      <use xlink:href="#DejaVuSans-6e" x="926.025391"/>
      <use xlink:href="#DejaVuSans-65" x="989.404297"/>
     </g>
    </g>
   </g>
  </g>
  <g id="axes_2">
   <g id="patch_8">
    <path d="M 135 512.64 
L 972 512.64 
L 972 422.125714 
L 135 422.125714 
z
" style="fill: #ffffff"/>
   </g>
   <g id="matplotlib.axis_3">
    <g id="xtick_7">
     <g id="line2d_17">
      <g>
       <use xlink:href="#m7e9f665410" x="135" y="512.64" style="stroke: #000000; stroke-width: 0.8"/>
      </g>
     </g>
     <g id="text_15">
      <!-- 0 -->
      <g transform="translate(131.81875 527.238438)scale(0.1 -0.1)">
       <use xlink:href="#DejaVuSans-30"/>
      </g>
     </g>
    </g>
    <g id="xtick_8">
     <g id="line2d_18">
      <g>
       <use xlink:href="#m7e9f665410" x="302.4" y="512.64" style="stroke: #000000; stroke-width: 0.8"/>
      </g>
     </g>
     <g id="text_16">
      <!-- 1 -->
      <g transform="translate(299.21875 527.238438)scale(0.1 -0.1)">
       <use xlink:href="#DejaVuSans-31"/>
      </g>
     </g>
    </g>
    <g id="xtick_9">
     <g id="line2d_19">
      <g>
       <use xlink:href="#m7e9f665410" x="469.8" y="512.64" style="stroke: #000000; stroke-width: 0.8"/>
      </g>
     </g>
     <g id="text_17">
      <!-- 2 -->
      <g transform="translate(466.61875 527.238438)scale(0.1 -0.1)">
       <use xlink:href="#DejaVuSans-32"/>
      </g>
     </g>
    </g>
    <g id="xtick_10">
     <g id="line2d_20">
      <g>
       <use xlink:href="#m7e9f665410" x="637.2" y="512.64" style="stroke: #000000; stroke-width: 0.8"/>
      </g>
     </g>
     <g id="text_18">
      <!-- 3 -->
      <g transform="translate(634.01875 527.238438)scale(0.1 -0.1)">
       <use xlink:href="#DejaVuSans-33"/>
      </g>
     </g>
    </g>
    <g id="xtick_11">
     <g id="line2d_21">
      <g>
       <use xlink:href="#m7e9f665410" x="804.6" y="512.64" style="stroke: #000000; stroke-width: 0.8"/>
      </g>
     </g>
     <g id="text_19">
      <!-- 4 -->
      <g transform="translate(801.41875 527.238438)scale(0.1 -0.1)">
       <use xlink:href="#DejaVuSans-34"/>
      </g>
     </g>
    </g>
    <g id="xtick_12">
     <g id="line2d_22">
      <g>
       <use xlink:href="#m7e9f665410" x="972" y="512.64" style="stroke: #000000; stroke-width: 0.8"/>
      </g>
     </g>
     <g id="text_20">
      <!-- 5 -->
      <g transform="translate(968.81875 527.238438)scale(0.1 -0.1)">
       <use xlink:href="#DejaVuSans-35"/>
      </g>
     </g>
    </g>
   </g>
   <g id="matplotlib.axis_4">
    <g id="ytick_7">
     <g id="line2d_23">
      <g>
       <use xlink:href="#m6ecb7e69c2" x="135" y="484.77551" style="stroke: #000000; stroke-width: 0.8"/>
      </g>
     </g>
     <g id="text_21">
      <!-- 0.0 -->
      <g transform="translate(112.096875 488.574728)scale(0.1 -0.1)">
       <defs>
        <path id="DejaVuSans-2e" d="M 684 794 
L 1344 794 
L 1344 0 
L 684 0 
L 684 794 
z
" transform="scale(0.015625)"/>
       </defs>
       <use xlink:href="#DejaVuSans-30"/>
       <use xlink:href="#DejaVuSans-2e" x="63.623047"/>
       <use xlink:href="#DejaVuSans-30" x="95.410156"/>
      </g>
     </g>
    </g>
    <g id="ytick_8">
     <g id="line2d_24">
      <g>
       <use xlink:href="#m6ecb7e69c2" x="135" y="446.295598" style="stroke: #000000; stroke-width: 0.8"/>
      </g>
     </g>
     <g id="text_22">
      <!-- 0.5 -->
      <g transform="translate(112.096875 450.094817)scale(0.1 -0.1)">
       <use xlink:href="#DejaVuSans-30"/>
       <use xlink:href="#DejaVuSans-2e" x="63.623047"/>
       <use xlink:href="#DejaVuSans-35" x="95.410156"/>
      </g>
     </g>
    </g>
   </g>
   <g id="line2d_25">
    <path d="M 135 484.77551 
L 143.37 481.370897 
L 151.74 486.435337 
L 160.11 487.818384 
L 168.48 488.388149 
L 176.85 488.874785 
L 185.22 490.261547 
L 193.59 489.557042 
L 201.96 490.959102 
L 210.33 493.468579 
L 218.7 495.510809 
L 227.07 491.783674 
L 235.44 485.42016 
L 243.81 478.678586 
L 252.18 477.408112 
L 260.55 471.810052 
L 268.92 458.526075 
L 277.29 451.412763 
L 285.66 449.679901 
L 294.03 444.200347 
L 302.4 446.13777 
L 310.77 443.924368 
L 319.14 442.969996 
L 327.51 436.722787 
L 335.88 429.061674 
L 344.25 428.059604 
L 352.62 429.049139 
L 360.99 426.24 
L 369.36 428.49234 
L 377.73 430.068471 
L 386.1 429.407515 
L 394.47 431.122846 
L 402.84 436.609563 
L 411.21 440.116216 
L 419.58 440.516489 
L 427.95 447.232094 
L 436.32 448.445561 
L 444.69 450.65499 
L 453.06 456.661166 
L 461.43 461.87135 
L 469.8 465.456563 
L 478.17 468.656807 
L 486.54 472.316937 
L 494.91 478.193792 
L 503.28 482.105812 
L 511.65 484.783627 
L 520.02 489.329838 
L 528.39 493.984437 
L 536.76 497.434848 
L 545.13 500.66293 
L 553.5 502.40446 
L 561.87 504.074787 
L 570.24 505.767255 
L 578.61 507.331071 
L 586.98 508.525714 
L 595.35 507.482302 
L 603.72 506.860973 
L 612.09 506.309461 
L 620.46 505.849983 
L 628.83 505.418141 
L 637.2 505.094472 
L 645.57 503.873754 
L 653.94 502.51316 
L 662.31 501.070177 
L 670.68 499.903688 
L 679.05 499.289747 
L 687.42 498.883413 
L 695.79 498.027102 
L 704.16 496.905467 
L 712.53 496.08409 
L 720.9 494.81678 
L 729.27 493.66259 
L 737.64 493.254811 
L 746.01 492.300331 
L 754.38 491.73576 
L 762.75 491.187536 
L 771.12 490.742235 
L 779.49 489.869343 
L 787.86 489.4224 
L 796.23 489.099488 
L 804.6 488.674737 
L 812.97 488.229331 
L 821.34 487.535943 
L 829.71 487.444111 
L 838.08 486.955847 
L 846.45 486.842827 
L 854.82 486.721979 
L 863.19 486.594734 
L 871.56 486.308356 
L 879.93 486.24862 
L 888.3 486.03153 
L 896.67 485.734702 
L 905.04 485.512593 
L 913.41 485.519562 
L 921.78 485.448126 
L 930.15 485.452493 
L 938.52 485.378977 
L 946.89 485.227767 
L 955.26 485.229893 
L 963.63 485.231557 
L 972 485.232856 
" clip-path="url(#p55f615f57f)" style="fill: none; stroke: #1f77b4; stroke-width: 1.5; stroke-linecap: square"/>
   </g>
   <g id="patch_9">
    <path d="M 135 512.64 
L 135 422.125714 
" style="fill: none; stroke: #000000; stroke-width: 0.8; stroke-linejoin: miter; stroke-linecap: square"/>
   </g>
   <g id="patch_10">
    <path d="M 972 512.64 
L 972 422.125714 
" style="fill: none; stroke: #000000; stroke-width: 0.8; stroke-linejoin: miter; stroke-linecap: square"/>
   </g>
   <g id="patch_11">
    <path d="M 135 512.64 
L 972 512.64 
" style="fill: none; stroke: #000000; stroke-width: 0.8; stroke-linejoin: miter; stroke-linecap: square"/>
   </g>
   <g id="patch_12">
    <path d="M 135 422.125714 
L 972 422.125714 
" style="fill: none; stroke: #000000; stroke-width: 0.8; stroke-linejoin: miter; stroke-linecap: square"/>
   </g>
   <g id="legend_2">
    <g id="patch_13">
     <path d="M 781.990625 445.203839 
L 965 445.203839 
Q 967 445.203839 967 443.203839 
L 967 429.125714 
Q 967 427.125714 965 427.125714 
L 781.990625 427.125714 
Q 779.990625 427.125714 779.990625 429.125714 
L 779.990625 443.203839 
Q 779.990625 445.203839 781.990625 445.203839 
z
" style="fill: #ffffff; opacity: 0.8; stroke: #cccccc; stroke-linejoin: miter"/>
    </g>
    <g id="line2d_26">
     <path d="M 783.990625 435.624152 
L 793.990625 435.624152 
L 803.990625 435.624152 
" style="fill: none; stroke: #1f77b4; stroke-width: 1.5; stroke-linecap: square"/>
    </g>
    <g id="text_23">
     <!-- écart entre réel et gaussienne -->
     <g transform="translate(811.990625 439.124152)scale(0.1 -0.1)">
      <use xlink:href="#DejaVuSans-e9"/>
      <use xlink:href="#DejaVuSans-63" x="61.523438"/>
      <use xlink:href="#DejaVuSans-61" x="116.503906"/>
      <use xlink:href="#DejaVuSans-72" x="177.783203"/>
      <use xlink:href="#DejaVuSans-74" x="218.896484"/>
      <use xlink:href="#DejaVuSans-20" x="258.105469"/>
      <use xlink:href="#DejaVuSans-65" x="289.892578"/>
      <use xlink:href="#DejaVuSans-6e" x="351.416016"/>
      <use xlink:href="#DejaVuSans-74" x="414.794922"/>
      <use xlink:href="#DejaVuSans-72" x="454.003906"/>
      <use xlink:href="#DejaVuSans-65" x="492.867188"/>
      <use xlink:href="#DejaVuSans-20" x="554.390625"/>
      <use xlink:href="#DejaVuSans-72" x="586.177734"/>
      <use xlink:href="#DejaVuSans-e9" x="625.041016"/>
      <use xlink:href="#DejaVuSans-65" x="686.564453"/>
      <use xlink:href="#DejaVuSans-6c" x="748.087891"/>
      <use xlink:href="#DejaVuSans-20" x="775.871094"/>
      <use xlink:href="#DejaVuSans-65" x="807.658203"/>
      <use xlink:href="#DejaVuSans-74" x="869.181641"/>
      <use xlink:href="#DejaVuSans-20" x="908.390625"/>
      <use xlink:href="#DejaVuSans-67" x="940.177734"/>
      <use xlink:href="#DejaVuSans-61" x="1003.654297"/>
      <use xlink:href="#DejaVuSans-75" x="1064.933594"/>
      <use xlink:href="#DejaVuSans-73" x="1128.3125"/>
      <use xlink:href="#DejaVuSans-73" x="1180.412109"/>
      <use xlink:href="#DejaVuSans-69" x="1232.511719"/>
      <use xlink:href="#DejaVuSans-65" x="1260.294922"/>
      <use xlink:href="#DejaVuSans-6e" x="1321.818359"/>
      <use xlink:href="#DejaVuSans-6e" x="1385.197266"/>
      <use xlink:href="#DejaVuSans-65" x="1448.576172"/>
     </g>
    </g>
   </g>
  </g>
 </g>
 <defs>
  <clipPath id="p84b816933a">
   <rect x="135" y="69.12" width="837" height="325.851429"/>
  </clipPath>
  <clipPath id="p55f615f57f">
   <rect x="135" y="422.125714" width="837" height="90.514286"/>
  </clipPath>
 </defs>
</svg>
