<?xml version="1.0" encoding="utf-8" standalone="no"?>
<!DOCTYPE svg PUBLIC "-//W3C//DTD SVG 1.1//EN"
  "http://www.w3.org/Graphics/SVG/1.1/DTD/svg11.dtd">
<svg xmlns:xlink="http://www.w3.org/1999/xlink" width="1080pt" height="576pt" viewBox="0 0 1080 576" xmlns="http://www.w3.org/2000/svg" version="1.1">
 <metadata>
  <rdf:RDF xmlns:dc="http://purl.org/dc/elements/1.1/" xmlns:cc="http://creativecommons.org/ns#" xmlns:rdf="http://www.w3.org/1999/02/22-rdf-syntax-ns#">
   <cc:Work>
    <dc:type rdf:resource="http://purl.org/dc/dcmitype/StillImage"/>
    <dc:date>2023-11-21T20:50:41.633274</dc:date>
    <dc:format>image/svg+xml</dc:format>
    <dc:creator>
     <cc:Agent>
      <dc:title>Matplotlib v3.5.2, https://matplotlib.org/</dc:title>
     </cc:Agent>
    </dc:creator>
   </cc:Work>
  </rdf:RDF>
 </metadata>
 <defs>
  <style type="text/css">*{stroke-linejoin: round; stroke-linecap: butt}</style>
 </defs>
 <g id="figure_1">
  <g id="patch_1">
   <path d="M 0 576 
L 1080 576 
L 1080 0 
L 0 0 
z
" style="fill: #ffffff"/>
  </g>
  <g id="axes_1">
   <g id="patch_2">
    <path d="M 135 512.64 
L 972 512.64 
L 972 69.12 
L 135 69.12 
z
" style="fill: #ffffff"/>
   </g>
   <g id="matplotlib.axis_1">
    <g id="xtick_1">
     <g id="line2d_1">
      <defs>
       <path id="m2fe710349f" d="M 0 0 
L 0 3.5 
" style="stroke: #000000; stroke-width: 0.8"/>
      </defs>
      <g>
       <use xlink:href="#m2fe710349f" x="173.045455" y="512.64" style="stroke: #000000; stroke-width: 0.8"/>
      </g>
     </g>
     <g id="text_1">
      <!-- 0 -->
      <g transform="translate(169.864205 527.238438)scale(0.1 -0.1)">
       <defs>
        <path id="DejaVuSans-30" d="M 2034 4250 
Q 1547 4250 1301 3770 
Q 1056 3291 1056 2328 
Q 1056 1369 1301 889 
Q 1547 409 2034 409 
Q 2525 409 2770 889 
Q 3016 1369 3016 2328 
Q 3016 3291 2770 3770 
Q 2525 4250 2034 4250 
z
M 2034 4750 
Q 2819 4750 3233 4129 
Q 3647 3509 3647 2328 
Q 3647 1150 3233 529 
Q 2819 -91 2034 -91 
Q 1250 -91 836 529 
Q 422 1150 422 2328 
Q 422 3509 836 4129 
Q 1250 4750 2034 4750 
z
" transform="scale(0.015625)"/>
       </defs>
       <use xlink:href="#DejaVuSans-30"/>
      </g>
     </g>
    </g>
    <g id="xtick_2">
     <g id="line2d_2">
      <g>
       <use xlink:href="#m2fe710349f" x="273.413082" y="512.64" style="stroke: #000000; stroke-width: 0.8"/>
      </g>
     </g>
     <g id="text_2">
      <!-- 20 -->
      <g transform="translate(267.050582 527.238438)scale(0.1 -0.1)">
       <defs>
        <path id="DejaVuSans-32" d="M 1228 531 
L 3431 531 
L 3431 0 
L 469 0 
L 469 531 
Q 828 903 1448 1529 
Q 2069 2156 2228 2338 
Q 2531 2678 2651 2914 
Q 2772 3150 2772 3378 
Q 2772 3750 2511 3984 
Q 2250 4219 1831 4219 
Q 1534 4219 1204 4116 
Q 875 4013 500 3803 
L 500 4441 
Q 881 4594 1212 4672 
Q 1544 4750 1819 4750 
Q 2544 4750 2975 4387 
Q 3406 4025 3406 3419 
Q 3406 3131 3298 2873 
Q 3191 2616 2906 2266 
Q 2828 2175 2409 1742 
Q 1991 1309 1228 531 
z
" transform="scale(0.015625)"/>
       </defs>
       <use xlink:href="#DejaVuSans-32"/>
       <use xlink:href="#DejaVuSans-30" x="63.623047"/>
      </g>
     </g>
    </g>
    <g id="xtick_3">
     <g id="line2d_3">
      <g>
       <use xlink:href="#m2fe710349f" x="373.780709" y="512.64" style="stroke: #000000; stroke-width: 0.8"/>
      </g>
     </g>
     <g id="text_3">
      <!-- 40 -->
      <g transform="translate(367.418209 527.238438)scale(0.1 -0.1)">
       <defs>
        <path id="DejaVuSans-34" d="M 2419 4116 
L 825 1625 
L 2419 1625 
L 2419 4116 
z
M 2253 4666 
L 3047 4666 
L 3047 1625 
L 3713 1625 
L 3713 1100 
L 3047 1100 
L 3047 0 
L 2419 0 
L 2419 1100 
L 313 1100 
L 313 1709 
L 2253 4666 
z
" transform="scale(0.015625)"/>
       </defs>
       <use xlink:href="#DejaVuSans-34"/>
       <use xlink:href="#DejaVuSans-30" x="63.623047"/>
      </g>
     </g>
    </g>
    <g id="xtick_4">
     <g id="line2d_4">
      <g>
       <use xlink:href="#m2fe710349f" x="474.148336" y="512.64" style="stroke: #000000; stroke-width: 0.8"/>
      </g>
     </g>
     <g id="text_4">
      <!-- 60 -->
      <g transform="translate(467.785836 527.238438)scale(0.1 -0.1)">
       <defs>
        <path id="DejaVuSans-36" d="M 2113 2584 
Q 1688 2584 1439 2293 
Q 1191 2003 1191 1497 
Q 1191 994 1439 701 
Q 1688 409 2113 409 
Q 2538 409 2786 701 
Q 3034 994 3034 1497 
Q 3034 2003 2786 2293 
Q 2538 2584 2113 2584 
z
M 3366 4563 
L 3366 3988 
Q 3128 4100 2886 4159 
Q 2644 4219 2406 4219 
Q 1781 4219 1451 3797 
Q 1122 3375 1075 2522 
Q 1259 2794 1537 2939 
Q 1816 3084 2150 3084 
Q 2853 3084 3261 2657 
Q 3669 2231 3669 1497 
Q 3669 778 3244 343 
Q 2819 -91 2113 -91 
Q 1303 -91 875 529 
Q 447 1150 447 2328 
Q 447 3434 972 4092 
Q 1497 4750 2381 4750 
Q 2619 4750 2861 4703 
Q 3103 4656 3366 4563 
z
" transform="scale(0.015625)"/>
       </defs>
       <use xlink:href="#DejaVuSans-36"/>
       <use xlink:href="#DejaVuSans-30" x="63.623047"/>
      </g>
     </g>
    </g>
    <g id="xtick_5">
     <g id="line2d_5">
      <g>
       <use xlink:href="#m2fe710349f" x="574.515963" y="512.64" style="stroke: #000000; stroke-width: 0.8"/>
      </g>
     </g>
     <g id="text_5">
      <!-- 80 -->
      <g transform="translate(568.153463 527.238438)scale(0.1 -0.1)">
       <defs>
        <path id="DejaVuSans-38" d="M 2034 2216 
Q 1584 2216 1326 1975 
Q 1069 1734 1069 1313 
Q 1069 891 1326 650 
Q 1584 409 2034 409 
Q 2484 409 2743 651 
Q 3003 894 3003 1313 
Q 3003 1734 2745 1975 
Q 2488 2216 2034 2216 
z
M 1403 2484 
Q 997 2584 770 2862 
Q 544 3141 544 3541 
Q 544 4100 942 4425 
Q 1341 4750 2034 4750 
Q 2731 4750 3128 4425 
Q 3525 4100 3525 3541 
Q 3525 3141 3298 2862 
Q 3072 2584 2669 2484 
Q 3125 2378 3379 2068 
Q 3634 1759 3634 1313 
Q 3634 634 3220 271 
Q 2806 -91 2034 -91 
Q 1263 -91 848 271 
Q 434 634 434 1313 
Q 434 1759 690 2068 
Q 947 2378 1403 2484 
z
M 1172 3481 
Q 1172 3119 1398 2916 
Q 1625 2713 2034 2713 
Q 2441 2713 2670 2916 
Q 2900 3119 2900 3481 
Q 2900 3844 2670 4047 
Q 2441 4250 2034 4250 
Q 1625 4250 1398 4047 
Q 1172 3844 1172 3481 
z
" transform="scale(0.015625)"/>
       </defs>
       <use xlink:href="#DejaVuSans-38"/>
       <use xlink:href="#DejaVuSans-30" x="63.623047"/>
      </g>
     </g>
    </g>
    <g id="xtick_6">
     <g id="line2d_6">
      <g>
       <use xlink:href="#m2fe710349f" x="674.88359" y="512.64" style="stroke: #000000; stroke-width: 0.8"/>
      </g>
     </g>
     <g id="text_6">
      <!-- 100 -->
      <g transform="translate(665.33984 527.238438)scale(0.1 -0.1)">
       <defs>
        <path id="DejaVuSans-31" d="M 794 531 
L 1825 531 
L 1825 4091 
L 703 3866 
L 703 4441 
L 1819 4666 
L 2450 4666 
L 2450 531 
L 3481 531 
L 3481 0 
L 794 0 
L 794 531 
z
" transform="scale(0.015625)"/>
       </defs>
       <use xlink:href="#DejaVuSans-31"/>
       <use xlink:href="#DejaVuSans-30" x="63.623047"/>
       <use xlink:href="#DejaVuSans-30" x="127.246094"/>
      </g>
     </g>
    </g>
    <g id="xtick_7">
     <g id="line2d_7">
      <g>
       <use xlink:href="#m2fe710349f" x="775.251217" y="512.64" style="stroke: #000000; stroke-width: 0.8"/>
      </g>
     </g>
     <g id="text_7">
      <!-- 120 -->
      <g transform="translate(765.707467 527.238438)scale(0.1 -0.1)">
       <use xlink:href="#DejaVuSans-31"/>
       <use xlink:href="#DejaVuSans-32" x="63.623047"/>
       <use xlink:href="#DejaVuSans-30" x="127.246094"/>
      </g>
     </g>
    </g>
    <g id="xtick_8">
     <g id="line2d_8">
      <g>
       <use xlink:href="#m2fe710349f" x="875.618844" y="512.64" style="stroke: #000000; stroke-width: 0.8"/>
      </g>
     </g>
     <g id="text_8">
      <!-- 140 -->
      <g transform="translate(866.075094 527.238438)scale(0.1 -0.1)">
       <use xlink:href="#DejaVuSans-31"/>
       <use xlink:href="#DejaVuSans-34" x="63.623047"/>
       <use xlink:href="#DejaVuSans-30" x="127.246094"/>
      </g>
     </g>
    </g>
    <g id="text_9">
     <!-- t -->
     <g transform="translate(551.539844 540.916563)scale(0.1 -0.1)">
      <defs>
       <path id="DejaVuSans-74" d="M 1172 4494 
L 1172 3500 
L 2356 3500 
L 2356 3053 
L 1172 3053 
L 1172 1153 
Q 1172 725 1289 603 
Q 1406 481 1766 481 
L 2356 481 
L 2356 0 
L 1766 0 
Q 1100 0 847 248 
Q 594 497 594 1153 
L 594 3053 
L 172 3053 
L 172 3500 
L 594 3500 
L 594 4494 
L 1172 4494 
z
" transform="scale(0.015625)"/>
      </defs>
      <use xlink:href="#DejaVuSans-74"/>
     </g>
    </g>
   </g>
   <g id="matplotlib.axis_2">
    <g id="ytick_1">
     <g id="line2d_9">
      <defs>
       <path id="m996c64b101" d="M 0 0 
L -3.5 0 
" style="stroke: #000000; stroke-width: 0.8"/>
      </defs>
      <g>
       <use xlink:href="#m996c64b101" x="135" y="492.48" style="stroke: #000000; stroke-width: 0.8"/>
      </g>
     </g>
     <g id="text_10">
      <!-- 0 -->
      <g transform="translate(121.6375 496.279219)scale(0.1 -0.1)">
       <use xlink:href="#DejaVuSans-30"/>
      </g>
     </g>
    </g>
    <g id="ytick_2">
     <g id="line2d_10">
      <g>
       <use xlink:href="#m996c64b101" x="135" y="413.271805" style="stroke: #000000; stroke-width: 0.8"/>
      </g>
     </g>
     <g id="text_11">
      <!-- 20 -->
      <g transform="translate(115.275 417.071023)scale(0.1 -0.1)">
       <use xlink:href="#DejaVuSans-32"/>
       <use xlink:href="#DejaVuSans-30" x="63.623047"/>
      </g>
     </g>
    </g>
    <g id="ytick_3">
     <g id="line2d_11">
      <g>
       <use xlink:href="#m996c64b101" x="135" y="334.063609" style="stroke: #000000; stroke-width: 0.8"/>
      </g>
     </g>
     <g id="text_12">
      <!-- 40 -->
      <g transform="translate(115.275 337.862828)scale(0.1 -0.1)">
       <use xlink:href="#DejaVuSans-34"/>
       <use xlink:href="#DejaVuSans-30" x="63.623047"/>
      </g>
     </g>
    </g>
    <g id="ytick_4">
     <g id="line2d_12">
      <g>
       <use xlink:href="#m996c64b101" x="135" y="254.855414" style="stroke: #000000; stroke-width: 0.8"/>
      </g>
     </g>
     <g id="text_13">
      <!-- 60 -->
      <g transform="translate(115.275 258.654633)scale(0.1 -0.1)">
       <use xlink:href="#DejaVuSans-36"/>
       <use xlink:href="#DejaVuSans-30" x="63.623047"/>
      </g>
     </g>
    </g>
    <g id="ytick_5">
     <g id="line2d_13">
      <g>
       <use xlink:href="#m996c64b101" x="135" y="175.647218" style="stroke: #000000; stroke-width: 0.8"/>
      </g>
     </g>
     <g id="text_14">
      <!-- 80 -->
      <g transform="translate(115.275 179.446437)scale(0.1 -0.1)">
       <use xlink:href="#DejaVuSans-38"/>
       <use xlink:href="#DejaVuSans-30" x="63.623047"/>
      </g>
     </g>
    </g>
    <g id="ytick_6">
     <g id="line2d_14">
      <g>
       <use xlink:href="#m996c64b101" x="135" y="96.439023" style="stroke: #000000; stroke-width: 0.8"/>
      </g>
     </g>
     <g id="text_15">
      <!-- 100 -->
      <g transform="translate(108.9125 100.238242)scale(0.1 -0.1)">
       <use xlink:href="#DejaVuSans-31"/>
       <use xlink:href="#DejaVuSans-30" x="63.623047"/>
       <use xlink:href="#DejaVuSans-30" x="127.246094"/>
      </g>
     </g>
    </g>
   </g>
   <g id="line2d_15">
    <path d="M 173.045455 492.48 
L 202.081774 488.54832 
L 229.553927 485.044355 
L 255.629387 481.934738 
L 280.440003 479.192699 
L 304.121864 476.791857 
L 326.762571 474.714062 
L 348.451777 472.941122 
L 369.287385 471.454896 
L 389.325149 470.243617 
L 408.617457 469.29598 
L 427.232395 468.59935 
L 445.223177 468.143907 
L 462.623658 467.922163 
L 479.467695 467.926633 
L 495.797787 468.149424 
L 511.650599 468.584062 
L 527.04938 469.225324 
L 542.017369 470.067987 
L 556.584049 471.106695 
L 570.774149 472.337057 
L 584.602874 473.755345 
L 598.085426 475.357832 
L 611.237037 477.14079 
L 624.080157 479.100622 
L 636.631245 481.234367 
L 648.899284 483.539244 
L 660.893262 486.012472 
L 672.622161 488.651271 
L 684.094969 491.452859 
L 688.084735 492.48 
L 688.084735 492.48 
" clip-path="url(#p219a62cda7)" style="fill: none; stroke: #1f77b4; stroke-width: 1.5; stroke-linecap: square"/>
   </g>
   <g id="line2d_16">
    <path d="M 173.045455 492.48 
L 201.240589 484.49406 
L 227.894272 477.168454 
L 253.177164 470.443629 
L 277.220201 464.273275 
L 300.163587 458.60939 
L 322.095252 453.420662 
L 343.098727 448.677271 
L 363.277882 444.344798 
L 382.691106 440.402581 
L 401.387415 436.832621 
L 419.421998 433.615469 
L 436.864088 430.72935 
L 453.747699 428.162037 
L 470.102823 425.902312 
L 485.959453 423.938961 
L 501.359461 422.258621 
L 516.33856 420.850362 
L 530.915266 419.707074 
L 545.108085 418.821649 
L 558.935525 418.186981 
L 572.420678 417.795385 
L 585.589594 417.639553 
L 598.454333 417.714646 
L 611.026383 418.015908 
L 623.31723 418.538585 
L 635.338625 419.277894 
L 647.106672 420.228796 
L 658.631664 421.387406 
L 669.921278 422.750196 
L 680.98319 424.313638 
L 691.825079 426.074206 
L 702.457581 428.028052 
L 712.890233 430.171709 
L 723.127456 432.502424 
L 733.17365 435.017444 
L 743.033217 437.714018 
L 752.710556 440.589392 
L 762.21007 443.640815 
L 771.536158 446.865534 
L 780.694291 450.260564 
L 789.692436 453.822337 
L 798.533555 457.548347 
L 807.220081 461.436202 
L 815.754446 465.483508 
L 824.139082 469.687872 
L 832.376422 474.046903 
L 841.270272 479.017621 
L 849.992074 484.169406 
L 858.545064 489.499073 
L 863.140338 492.48 
L 863.140338 492.48 
" clip-path="url(#p219a62cda7)" style="fill: none; stroke: #ff7f0e; stroke-width: 1.5; stroke-linecap: square"/>
   </g>
   <g id="line2d_17">
    <path d="M 173.045455 492.48 
L 201.037328 479.857238 
L 227.391871 468.23309 
L 252.301685 457.506986 
L 275.922376 447.597328 
L 298.404403 438.426661 
L 319.842332 429.9446 
L 340.343871 422.095358 
L 360.010996 414.827639 
L 378.900519 408.110862 
L 397.069043 401.914569 
L 414.596394 396.199643 
L 431.534377 390.940131 
L 445.898144 386.69721 
L 459.859061 382.776614 
L 473.441797 379.165326 
L 486.68378 375.846481 
L 499.603172 372.810909 
L 512.21353 370.051131 
L 524.528413 367.559667 
L 536.561378 365.329038 
L 548.327792 363.351252 
L 559.850072 361.616799 
L 571.138219 360.12039 
L 582.200152 358.857373 
L 593.043791 357.823098 
L 603.677053 357.012913 
L 614.107858 356.422169 
L 624.346815 356.045651 
L 634.405126 355.878487 
L 644.287738 355.917487 
L 653.999473 356.159489 
L 663.54515 356.601332 
L 672.92959 357.239855 
L 682.157613 358.071896 
L 691.234927 359.094129 
L 700.16841 360.303172 
L 708.961238 361.696516 
L 717.616315 363.271708 
L 726.136549 365.026295 
L 734.524845 366.957824 
L 742.78411 369.063843 
L 750.917367 371.341847 
L 760.06432 374.151552 
L 769.05654 377.17771 
L 777.896207 380.417137 
L 786.585501 383.866651 
L 795.126601 387.52307 
L 803.521689 391.383211 
L 811.772944 395.443891 
L 819.882545 399.701928 
L 827.852674 404.154139 
L 835.685511 408.797343 
L 843.383389 413.626598 
L 850.94848 418.634748 
L 858.382274 423.818701 
L 865.686237 429.175536 
L 872.861836 434.702333 
L 879.910538 440.396171 
L 886.83381 446.254129 
L 893.633119 452.273286 
L 900.309932 458.450721 
L 907.676753 465.585891 
L 914.892485 472.913527 
L 921.959217 480.42947 
L 928.87893 488.128777 
L 932.659922 492.48 
L 932.659922 492.48 
" clip-path="url(#p219a62cda7)" style="fill: none; stroke: #2ca02c; stroke-width: 1.5; stroke-linecap: square"/>
   </g>
   <g id="line2d_18">
    <path d="M 173.045455 492.48 
L 199.471693 475.130481 
L 224.258866 459.154223 
L 247.610039 444.401542 
L 269.698456 430.744981 
L 290.670891 418.07732 
L 307.834691 407.949711 
L 324.333898 398.43479 
L 340.228487 389.489447 
L 355.556541 381.084979 
L 370.356175 373.192667 
L 384.681633 365.774529 
L 398.574162 358.801922 
L 412.056596 352.257604 
L 425.151768 346.12433 
L 437.882724 340.384745 
L 450.285586 335.014901 
L 462.384535 329.998597 
L 474.193182 325.325566 
L 485.725138 320.985538 
L 496.994015 316.968247 
L 508.014115 313.263104 
L 518.807136 309.856532 
L 529.384597 306.740596 
L 539.754435 303.909131 
L 549.924585 301.355969 
L 559.902987 299.074947 
L 569.697575 297.059897 
L 579.3189 295.303747 
L 588.778599 293.799655 
L 598.081442 292.543674 
L 607.232004 291.531937 
L 616.234856 290.760573 
L 625.094571 290.225714 
L 633.815722 289.923491 
L 642.402998 289.850002 
L 650.863512 290.000776 
L 659.201306 290.372533 
L 667.418848 290.962491 
L 675.518608 291.767866 
L 683.503053 292.785877 
L 691.374651 294.013739 
L 699.135872 295.448671 
L 706.789331 297.087795 
L 714.338526 298.927478 
L 721.784994 300.964987 
L 729.129807 303.197853 
L 736.374035 305.623606 
L 743.518749 308.239776 
L 750.56502 311.043895 
L 757.513918 314.033492 
L 764.366515 317.206099 
L 771.12388 320.559246 
L 777.787086 324.090464 
L 784.356749 327.795629 
L 790.83279 331.668844 
L 798.270728 336.39668 
L 805.583234 341.346091 
L 812.771407 346.513303 
L 819.836345 351.894541 
L 826.779144 357.486032 
L 833.600903 363.284001 
L 840.302718 369.284674 
L 846.885689 375.484278 
L 853.350912 381.879037 
L 859.699485 388.465179 
L 865.932506 395.238929 
L 872.050237 402.193312 
L 878.898018 410.341282 
L 885.593891 418.696621 
L 892.140042 427.254959 
L 898.538657 436.011921 
L 904.791924 444.963137 
L 910.902028 454.104235 
L 916.871156 463.430842 
L 922.701494 472.938586 
L 928.395228 482.623096 
L 933.954545 492.48 
L 933.954545 492.48 
" clip-path="url(#p219a62cda7)" style="fill: none; stroke: #d62728; stroke-width: 1.5; stroke-linecap: square"/>
   </g>
   <g id="line2d_19">
    <path d="M 173.045455 492.48 
L 195.01622 471.963463 
L 215.637677 452.998576 
L 235.077627 435.412753 
L 253.477911 419.060276 
L 270.961399 403.815885 
L 287.610446 389.593804 
L 303.529009 376.289446 
L 318.78804 363.830999 
L 333.43705 352.16671 
L 347.532872 341.23866 
L 361.142242 330.982445 
L 374.29759 321.364731 
L 387.028602 312.354589 
L 399.366747 303.919713 
L 411.358318 296.017447 
L 423.027189 288.624496 
L 434.390585 281.722916 
L 445.465731 275.294763 
L 456.270394 269.321723 
L 466.831378 263.780017 
L 477.164253 258.655196 
L 485.608228 254.695263 
L 493.907019 251.01124 
L 502.066638 247.596948 
L 510.093095 244.446208 
L 517.994411 241.551796 
L 525.779922 238.906426 
L 533.453269 236.506349 
L 541.017877 234.347938 
L 548.477175 232.427566 
L 555.834587 230.741604 
L 563.093542 229.286425 
L 570.257465 228.058403 
L 577.330354 227.053707 
L 584.317662 226.268266 
L 591.221461 225.699576 
L 598.043408 225.345307 
L 604.785158 225.203126 
L 611.448367 225.270702 
L 618.03469 225.545703 
L 624.545784 226.025797 
L 630.983304 226.708653 
L 637.349075 227.591812 
L 643.644786 228.672649 
L 649.87103 229.949059 
L 656.028337 231.418977 
L 662.117233 233.080333 
L 668.138247 234.931062 
L 674.091908 236.969096 
L 679.978744 239.192368 
L 685.799283 241.59881 
L 691.553801 244.185907 
L 697.241406 246.949249 
L 703.978222 250.494359 
L 710.618977 254.285767 
L 717.163959 258.319632 
L 723.613461 262.592111 
L 729.967773 267.099363 
L 736.227185 271.837546 
L 742.391988 276.802819 
L 748.462474 281.991339 
L 754.438932 287.399265 
L 760.321653 293.022755 
L 766.110929 298.857967 
L 771.805784 304.897718 
L 777.40206 311.125908 
L 782.900225 317.538007 
L 789.191989 325.24678 
L 795.352955 333.196036 
L 801.384602 341.38048 
L 807.288404 349.794816 
L 813.065841 358.433747 
L 818.718389 367.291977 
L 824.247525 376.36421 
L 829.654727 385.645149 
L 834.941471 395.1295 
L 840.109234 404.811964 
L 845.867451 416.090701 
L 851.466652 427.568312 
L 856.909934 439.240334 
L 862.2004 451.102313 
L 867.341148 463.149795 
L 872.33528 475.378328 
L 877.782287 489.346293 
L 878.96851 492.48 
L 878.96851 492.48 
" clip-path="url(#p219a62cda7)" style="fill: none; stroke: #9467bd; stroke-width: 1.5; stroke-linecap: square"/>
   </g>
   <g id="line2d_20">
    <path d="M 173.045455 492.48 
L 191.968927 466.794796 
L 209.617846 443.198598 
L 226.163382 421.437982 
L 241.75979 401.286143 
L 256.515074 382.583401 
L 270.526891 365.185674 
L 283.892888 348.952214 
L 296.66808 333.80095 
L 308.911266 319.645337 
L 320.692673 306.387115 
L 332.048058 293.973907 
L 343.00935 282.358247 
L 353.614626 271.485803 
L 363.907064 261.299051 
L 373.906573 251.769074 
L 382.029151 244.309373 
L 389.971991 237.270902 
L 397.748416 230.635288 
L 405.37486 224.382232 
L 412.858484 218.501818 
L 420.205869 212.984743 
L 427.423592 207.821704 
L 434.518235 203.003397 
L 441.49666 198.520289 
L 448.369821 194.360036 
L 455.143708 190.515539 
L 461.822178 186.981592 
L 468.409086 183.752992 
L 474.90829 180.824534 
L 481.323647 178.191016 
L 487.659012 175.847231 
L 493.919142 173.787593 
L 500.109498 172.0069 
L 506.232085 170.502147 
L 512.288716 169.270431 
L 518.281206 168.308849 
L 524.211367 167.614498 
L 530.081013 167.184475 
L 535.891958 167.015878 
L 541.646087 167.105792 
L 547.345246 167.451397 
L 552.989845 168.050265 
L 558.580076 168.900011 
L 564.11613 169.998256 
L 569.598198 171.342617 
L 575.026474 172.930712 
L 580.401149 174.76016 
L 585.722414 176.828579 
L 590.990146 179.133281 
L 596.202587 181.669934 
L 601.359134 184.435239 
L 606.459426 187.426128 
L 611.503101 190.63953 
L 616.489797 194.072377 
L 621.419153 197.721599 
L 626.290808 201.584127 
L 631.104401 205.656892 
L 635.859569 209.936825 
L 640.555952 214.420855 
L 646.113506 220.066781 
L 651.584757 225.995763 
L 656.964084 232.190696 
L 662.250395 238.642997 
L 667.44408 245.347218 
L 672.545534 252.297907 
L 677.555148 259.489613 
L 682.473315 266.916885 
L 687.300428 274.574272 
L 692.036878 282.456324 
L 697.448674 291.92873 
L 702.738226 301.690854 
L 707.905975 311.733204 
L 712.946677 322.01937 
L 717.859289 332.529784 
L 722.646006 343.259313 
L 727.309025 354.202825 
L 732.489536 366.965132 
L 737.514625 379.992563 
L 742.387569 393.277456 
L 747.111645 406.812152 
L 751.690128 420.588988 
L 756.126297 434.600305 
L 760.950524 450.627109 
L 765.598777 466.860479 
L 770.074628 483.279524 
L 772.488427 492.48 
L 772.488427 492.48 
" clip-path="url(#p219a62cda7)" style="fill: none; stroke: #8c564b; stroke-width: 1.5; stroke-linecap: square"/>
   </g>
   <g id="line2d_21">
    <path d="M 173.045455 492.48 
L 189.15683 457.830757 
L 203.945306 426.588759 
L 217.630586 398.24206 
L 230.387947 372.384133 
L 242.350543 348.705632 
L 252.063777 329.933854 
L 261.327099 312.453939 
L 270.198565 296.134615 
L 278.723914 280.873916 
L 286.930605 266.607842 
L 294.847755 253.269364 
L 302.514312 240.77562 
L 309.950718 229.08142 
L 317.173064 218.149886 
L 324.197493 207.94406 
L 331.046673 198.417176 
L 337.737137 189.536127 
L 344.278917 181.27932 
L 349.624059 174.859919 
L 354.87872 168.846525 
L 360.04985 163.225206 
L 365.146459 157.980725 
L 370.172591 153.105629 
L 375.131859 148.593072 
L 380.027872 144.43621 
L 384.864242 140.628198 
L 389.644581 137.162191 
L 394.372859 134.031102 
L 399.054537 131.227695 
L 403.692051 128.748204 
L 408.287285 126.589346 
L 412.842127 124.747838 
L 416.458184 123.500919 
L 420.050562 122.453322 
L 423.620226 121.603367 
L 427.168141 120.949374 
L 430.695408 120.489828 
L 434.202757 120.223719 
L 437.690191 120.149962 
L 441.157695 120.267464 
L 444.605256 120.575132 
L 448.032857 121.071872 
L 451.440484 121.756593 
L 454.828123 122.628199 
L 458.195758 123.6856 
L 461.543375 124.927701 
L 465.699268 126.738238 
L 469.821473 128.832214 
L 473.908933 131.206103 
L 477.960684 133.856393 
L 481.975761 136.779572 
L 485.953201 139.972128 
L 489.89204 143.43055 
L 493.791313 147.151324 
L 497.650057 151.130939 
L 501.467308 155.365883 
L 505.241853 159.852126 
L 508.970166 164.580132 
L 513.381491 170.564506 
L 517.723803 176.880513 
L 521.996398 183.520335 
L 526.198568 190.476154 
L 530.329608 197.740151 
L 534.388811 205.304508 
L 538.375472 213.161407 
L 542.933906 222.686922 
L 547.386404 232.565336 
L 551.730079 242.771228 
L 555.966256 253.295468 
L 560.096263 264.128926 
L 564.121424 275.262473 
L 568.594928 288.342269 
L 572.935204 301.788464 
L 577.14423 315.58743 
L 581.223986 329.725538 
L 585.174429 344.170069 
L 589.460469 360.709373 
L 593.582954 377.542483 
L 597.546448 394.660702 
L 601.355515 412.055335 
L 605.412244 431.696317 
L 609.290216 451.655885 
L 612.995692 471.922113 
L 616.534898 492.48 
L 616.534898 492.48 
" clip-path="url(#p219a62cda7)" style="fill: none; stroke: #e377c2; stroke-width: 1.5; stroke-linecap: square"/>
   </g>
   <g id="line2d_22">
    <path d="M 173.045455 492.48 
L 183.876862 444.510827 
L 193.566833 402.600785 
L 202.360474 365.578078 
L 210.431209 332.615483 
L 217.106019 306.214142 
L 223.385795 282.187799 
L 229.332661 260.24991 
L 234.985649 240.214881 
L 240.392581 221.868852 
L 245.582087 205.081978 
L 250.576747 189.748903 
L 254.810237 177.426839 
L 258.930216 166.067227 
L 262.946184 155.628937 
L 266.867641 146.070832 
L 270.707046 137.34499 
L 273.940431 130.501264 
L 277.124899 124.229198 
L 280.264421 118.514564 
L 283.362967 113.343135 
L 286.424727 108.700359 
L 288.95215 105.224423 
L 291.459775 102.101026 
L 293.949142 99.326531 
L 296.421793 96.897298 
L 298.879269 94.80969 
L 301.323109 93.060067 
L 303.754854 91.644792 
L 305.692726 90.751244 
L 307.624662 90.069328 
L 309.550682 89.598402 
L 311.47079 89.337809 
L 313.384989 89.286892 
L 315.293284 89.444992 
L 317.195679 89.811452 
L 319.092177 90.385614 
L 320.982784 91.166822 
L 322.867462 92.154438 
L 324.745417 93.347859 
L 327.082314 95.126714 
L 329.406483 97.221401 
L 331.716846 99.628551 
L 334.01232 102.344793 
L 336.291827 105.366758 
L 338.554286 108.691075 
L 341.245211 113.074618 
L 343.907676 117.881327 
L 346.538376 123.098361 
L 349.13591 128.715991 
L 352.122793 135.763754 
L 355.060875 143.329258 
L 357.948189 151.397687 
L 360.782765 159.954226 
L 363.952934 170.298816 
L 367.044071 181.204077 
L 370.05609 192.649353 
L 372.988999 204.614473 
L 376.193975 218.671502 
L 379.298854 233.33222 
L 382.303651 248.567914 
L 385.521328 266.095295 
L 388.608085 284.161933 
L 391.567328 302.74441 
L 394.679384 323.754056 
L 397.646017 345.330653 
L 400.471876 367.444231 
L 403.398987 392.125104 
L 406.389348 419.325221 
L 409.198922 446.959532 
L 411.835907 475.013592 
L 413.376437 492.48 
L 413.376437 492.48 
" clip-path="url(#p219a62cda7)" style="fill: none; stroke: #7f7f7f; stroke-width: 1.5; stroke-linecap: square"/>
   </g>
   <g id="patch_3">
    <path d="M 135 512.64 
L 135 69.12 
" style="fill: none; stroke: #000000; stroke-width: 0.8; stroke-linejoin: miter; stroke-linecap: square"/>
   </g>
   <g id="patch_4">
    <path d="M 972 512.64 
L 972 69.12 
" style="fill: none; stroke: #000000; stroke-width: 0.8; stroke-linejoin: miter; stroke-linecap: square"/>
   </g>
   <g id="patch_5">
    <path d="M 135 512.64 
L 972 512.64 
" style="fill: none; stroke: #000000; stroke-width: 0.8; stroke-linejoin: miter; stroke-linecap: square"/>
   </g>
   <g id="patch_6">
    <path d="M 135 69.12 
L 972 69.12 
" style="fill: none; stroke: #000000; stroke-width: 0.8; stroke-linejoin: miter; stroke-linecap: square"/>
   </g>
   <g id="text_16">
    <!-- trajectoire de la balle de golf -->
    <g transform="translate(466.981875 63.12)scale(0.12 -0.12)">
     <defs>
      <path id="DejaVuSans-72" d="M 2631 2963 
Q 2534 3019 2420 3045 
Q 2306 3072 2169 3072 
Q 1681 3072 1420 2755 
Q 1159 2438 1159 1844 
L 1159 0 
L 581 0 
L 581 3500 
L 1159 3500 
L 1159 2956 
Q 1341 3275 1631 3429 
Q 1922 3584 2338 3584 
Q 2397 3584 2469 3576 
Q 2541 3569 2628 3553 
L 2631 2963 
z
" transform="scale(0.015625)"/>
      <path id="DejaVuSans-61" d="M 2194 1759 
Q 1497 1759 1228 1600 
Q 959 1441 959 1056 
Q 959 750 1161 570 
Q 1363 391 1709 391 
Q 2188 391 2477 730 
Q 2766 1069 2766 1631 
L 2766 1759 
L 2194 1759 
z
M 3341 1997 
L 3341 0 
L 2766 0 
L 2766 531 
Q 2569 213 2275 61 
Q 1981 -91 1556 -91 
Q 1019 -91 701 211 
Q 384 513 384 1019 
Q 384 1609 779 1909 
Q 1175 2209 1959 2209 
L 2766 2209 
L 2766 2266 
Q 2766 2663 2505 2880 
Q 2244 3097 1772 3097 
Q 1472 3097 1187 3025 
Q 903 2953 641 2809 
L 641 3341 
Q 956 3463 1253 3523 
Q 1550 3584 1831 3584 
Q 2591 3584 2966 3190 
Q 3341 2797 3341 1997 
z
" transform="scale(0.015625)"/>
      <path id="DejaVuSans-6a" d="M 603 3500 
L 1178 3500 
L 1178 -63 
Q 1178 -731 923 -1031 
Q 669 -1331 103 -1331 
L -116 -1331 
L -116 -844 
L 38 -844 
Q 366 -844 484 -692 
Q 603 -541 603 -63 
L 603 3500 
z
M 603 4863 
L 1178 4863 
L 1178 4134 
L 603 4134 
L 603 4863 
z
" transform="scale(0.015625)"/>
      <path id="DejaVuSans-65" d="M 3597 1894 
L 3597 1613 
L 953 1613 
Q 991 1019 1311 708 
Q 1631 397 2203 397 
Q 2534 397 2845 478 
Q 3156 559 3463 722 
L 3463 178 
Q 3153 47 2828 -22 
Q 2503 -91 2169 -91 
Q 1331 -91 842 396 
Q 353 884 353 1716 
Q 353 2575 817 3079 
Q 1281 3584 2069 3584 
Q 2775 3584 3186 3129 
Q 3597 2675 3597 1894 
z
M 3022 2063 
Q 3016 2534 2758 2815 
Q 2500 3097 2075 3097 
Q 1594 3097 1305 2825 
Q 1016 2553 972 2059 
L 3022 2063 
z
" transform="scale(0.015625)"/>
      <path id="DejaVuSans-63" d="M 3122 3366 
L 3122 2828 
Q 2878 2963 2633 3030 
Q 2388 3097 2138 3097 
Q 1578 3097 1268 2742 
Q 959 2388 959 1747 
Q 959 1106 1268 751 
Q 1578 397 2138 397 
Q 2388 397 2633 464 
Q 2878 531 3122 666 
L 3122 134 
Q 2881 22 2623 -34 
Q 2366 -91 2075 -91 
Q 1284 -91 818 406 
Q 353 903 353 1747 
Q 353 2603 823 3093 
Q 1294 3584 2113 3584 
Q 2378 3584 2631 3529 
Q 2884 3475 3122 3366 
z
" transform="scale(0.015625)"/>
      <path id="DejaVuSans-6f" d="M 1959 3097 
Q 1497 3097 1228 2736 
Q 959 2375 959 1747 
Q 959 1119 1226 758 
Q 1494 397 1959 397 
Q 2419 397 2687 759 
Q 2956 1122 2956 1747 
Q 2956 2369 2687 2733 
Q 2419 3097 1959 3097 
z
M 1959 3584 
Q 2709 3584 3137 3096 
Q 3566 2609 3566 1747 
Q 3566 888 3137 398 
Q 2709 -91 1959 -91 
Q 1206 -91 779 398 
Q 353 888 353 1747 
Q 353 2609 779 3096 
Q 1206 3584 1959 3584 
z
" transform="scale(0.015625)"/>
      <path id="DejaVuSans-69" d="M 603 3500 
L 1178 3500 
L 1178 0 
L 603 0 
L 603 3500 
z
M 603 4863 
L 1178 4863 
L 1178 4134 
L 603 4134 
L 603 4863 
z
" transform="scale(0.015625)"/>
      <path id="DejaVuSans-20" transform="scale(0.015625)"/>
      <path id="DejaVuSans-64" d="M 2906 2969 
L 2906 4863 
L 3481 4863 
L 3481 0 
L 2906 0 
L 2906 525 
Q 2725 213 2448 61 
Q 2172 -91 1784 -91 
Q 1150 -91 751 415 
Q 353 922 353 1747 
Q 353 2572 751 3078 
Q 1150 3584 1784 3584 
Q 2172 3584 2448 3432 
Q 2725 3281 2906 2969 
z
M 947 1747 
Q 947 1113 1208 752 
Q 1469 391 1925 391 
Q 2381 391 2643 752 
Q 2906 1113 2906 1747 
Q 2906 2381 2643 2742 
Q 2381 3103 1925 3103 
Q 1469 3103 1208 2742 
Q 947 2381 947 1747 
z
" transform="scale(0.015625)"/>
      <path id="DejaVuSans-6c" d="M 603 4863 
L 1178 4863 
L 1178 0 
L 603 0 
L 603 4863 
z
" transform="scale(0.015625)"/>
      <path id="DejaVuSans-62" d="M 3116 1747 
Q 3116 2381 2855 2742 
Q 2594 3103 2138 3103 
Q 1681 3103 1420 2742 
Q 1159 2381 1159 1747 
Q 1159 1113 1420 752 
Q 1681 391 2138 391 
Q 2594 391 2855 752 
Q 3116 1113 3116 1747 
z
M 1159 2969 
Q 1341 3281 1617 3432 
Q 1894 3584 2278 3584 
Q 2916 3584 3314 3078 
Q 3713 2572 3713 1747 
Q 3713 922 3314 415 
Q 2916 -91 2278 -91 
Q 1894 -91 1617 61 
Q 1341 213 1159 525 
L 1159 0 
L 581 0 
L 581 4863 
L 1159 4863 
L 1159 2969 
z
" transform="scale(0.015625)"/>
      <path id="DejaVuSans-67" d="M 2906 1791 
Q 2906 2416 2648 2759 
Q 2391 3103 1925 3103 
Q 1463 3103 1205 2759 
Q 947 2416 947 1791 
Q 947 1169 1205 825 
Q 1463 481 1925 481 
Q 2391 481 2648 825 
Q 2906 1169 2906 1791 
z
M 3481 434 
Q 3481 -459 3084 -895 
Q 2688 -1331 1869 -1331 
Q 1566 -1331 1297 -1286 
Q 1028 -1241 775 -1147 
L 775 -588 
Q 1028 -725 1275 -790 
Q 1522 -856 1778 -856 
Q 2344 -856 2625 -561 
Q 2906 -266 2906 331 
L 2906 616 
Q 2728 306 2450 153 
Q 2172 0 1784 0 
Q 1141 0 747 490 
Q 353 981 353 1791 
Q 353 2603 747 3093 
Q 1141 3584 1784 3584 
Q 2172 3584 2450 3431 
Q 2728 3278 2906 2969 
L 2906 3500 
L 3481 3500 
L 3481 434 
z
" transform="scale(0.015625)"/>
      <path id="DejaVuSans-66" d="M 2375 4863 
L 2375 4384 
L 1825 4384 
Q 1516 4384 1395 4259 
Q 1275 4134 1275 3809 
L 1275 3500 
L 2222 3500 
L 2222 3053 
L 1275 3053 
L 1275 0 
L 697 0 
L 697 3053 
L 147 3053 
L 147 3500 
L 697 3500 
L 697 3744 
Q 697 4328 969 4595 
Q 1241 4863 1831 4863 
L 2375 4863 
z
" transform="scale(0.015625)"/>
     </defs>
     <use xlink:href="#DejaVuSans-74"/>
     <use xlink:href="#DejaVuSans-72" x="39.208984"/>
     <use xlink:href="#DejaVuSans-61" x="80.322266"/>
     <use xlink:href="#DejaVuSans-6a" x="141.601562"/>
     <use xlink:href="#DejaVuSans-65" x="169.384766"/>
     <use xlink:href="#DejaVuSans-63" x="230.908203"/>
     <use xlink:href="#DejaVuSans-74" x="285.888672"/>
     <use xlink:href="#DejaVuSans-6f" x="325.097656"/>
     <use xlink:href="#DejaVuSans-69" x="386.279297"/>
     <use xlink:href="#DejaVuSans-72" x="414.0625"/>
     <use xlink:href="#DejaVuSans-65" x="452.925781"/>
     <use xlink:href="#DejaVuSans-20" x="514.449219"/>
     <use xlink:href="#DejaVuSans-64" x="546.236328"/>
     <use xlink:href="#DejaVuSans-65" x="609.712891"/>
     <use xlink:href="#DejaVuSans-20" x="671.236328"/>
     <use xlink:href="#DejaVuSans-6c" x="703.023438"/>
     <use xlink:href="#DejaVuSans-61" x="730.806641"/>
     <use xlink:href="#DejaVuSans-20" x="792.085938"/>
     <use xlink:href="#DejaVuSans-62" x="823.873047"/>
     <use xlink:href="#DejaVuSans-61" x="887.349609"/>
     <use xlink:href="#DejaVuSans-6c" x="948.628906"/>
     <use xlink:href="#DejaVuSans-6c" x="976.412109"/>
     <use xlink:href="#DejaVuSans-65" x="1004.195312"/>
     <use xlink:href="#DejaVuSans-20" x="1065.71875"/>
     <use xlink:href="#DejaVuSans-64" x="1097.505859"/>
     <use xlink:href="#DejaVuSans-65" x="1160.982422"/>
     <use xlink:href="#DejaVuSans-20" x="1222.505859"/>
     <use xlink:href="#DejaVuSans-67" x="1254.292969"/>
     <use xlink:href="#DejaVuSans-6f" x="1317.769531"/>
     <use xlink:href="#DejaVuSans-6c" x="1378.951172"/>
     <use xlink:href="#DejaVuSans-66" x="1406.734375"/>
    </g>
   </g>
   <g id="legend_1">
    <g id="patch_7">
     <path d="M 882.804688 194.545 
L 965 194.545 
Q 967 194.545 967 192.545 
L 967 76.12 
Q 967 74.12 965 74.12 
L 882.804688 74.12 
Q 880.804688 74.12 880.804688 76.12 
L 880.804688 192.545 
Q 880.804688 194.545 882.804688 194.545 
z
" style="fill: #ffffff; opacity: 0.8; stroke: #cccccc; stroke-linejoin: miter"/>
    </g>
    <g id="line2d_23">
     <path d="M 884.804688 82.218437 
L 894.804688 82.218437 
L 904.804688 82.218437 
" style="fill: none; stroke: #1f77b4; stroke-width: 1.5; stroke-linecap: square"/>
    </g>
    <g id="text_17">
     <!-- angle : 10 -->
     <g transform="translate(912.804688 85.718437)scale(0.1 -0.1)">
      <defs>
       <path id="DejaVuSans-6e" d="M 3513 2113 
L 3513 0 
L 2938 0 
L 2938 2094 
Q 2938 2591 2744 2837 
Q 2550 3084 2163 3084 
Q 1697 3084 1428 2787 
Q 1159 2491 1159 1978 
L 1159 0 
L 581 0 
L 581 3500 
L 1159 3500 
L 1159 2956 
Q 1366 3272 1645 3428 
Q 1925 3584 2291 3584 
Q 2894 3584 3203 3211 
Q 3513 2838 3513 2113 
z
" transform="scale(0.015625)"/>
       <path id="DejaVuSans-3a" d="M 750 794 
L 1409 794 
L 1409 0 
L 750 0 
L 750 794 
z
M 750 3309 
L 1409 3309 
L 1409 2516 
L 750 2516 
L 750 3309 
z
" transform="scale(0.015625)"/>
      </defs>
      <use xlink:href="#DejaVuSans-61"/>
      <use xlink:href="#DejaVuSans-6e" x="61.279297"/>
      <use xlink:href="#DejaVuSans-67" x="124.658203"/>
      <use xlink:href="#DejaVuSans-6c" x="188.134766"/>
      <use xlink:href="#DejaVuSans-65" x="215.917969"/>
      <use xlink:href="#DejaVuSans-20" x="277.441406"/>
      <use xlink:href="#DejaVuSans-3a" x="309.228516"/>
      <use xlink:href="#DejaVuSans-20" x="342.919922"/>
      <use xlink:href="#DejaVuSans-31" x="374.707031"/>
      <use xlink:href="#DejaVuSans-30" x="438.330078"/>
     </g>
    </g>
    <g id="line2d_24">
     <path d="M 884.804688 96.896563 
L 894.804688 96.896563 
L 904.804688 96.896563 
" style="fill: none; stroke: #ff7f0e; stroke-width: 1.5; stroke-linecap: square"/>
    </g>
    <g id="text_18">
     <!-- angle : 20 -->
     <g transform="translate(912.804688 100.396563)scale(0.1 -0.1)">
      <use xlink:href="#DejaVuSans-61"/>
      <use xlink:href="#DejaVuSans-6e" x="61.279297"/>
      <use xlink:href="#DejaVuSans-67" x="124.658203"/>
      <use xlink:href="#DejaVuSans-6c" x="188.134766"/>
      <use xlink:href="#DejaVuSans-65" x="215.917969"/>
      <use xlink:href="#DejaVuSans-20" x="277.441406"/>
      <use xlink:href="#DejaVuSans-3a" x="309.228516"/>
      <use xlink:href="#DejaVuSans-20" x="342.919922"/>
      <use xlink:href="#DejaVuSans-32" x="374.707031"/>
      <use xlink:href="#DejaVuSans-30" x="438.330078"/>
     </g>
    </g>
    <g id="line2d_25">
     <path d="M 884.804688 111.574687 
L 894.804688 111.574687 
L 904.804688 111.574687 
" style="fill: none; stroke: #2ca02c; stroke-width: 1.5; stroke-linecap: square"/>
    </g>
    <g id="text_19">
     <!-- angle : 30 -->
     <g transform="translate(912.804688 115.074687)scale(0.1 -0.1)">
      <defs>
       <path id="DejaVuSans-33" d="M 2597 2516 
Q 3050 2419 3304 2112 
Q 3559 1806 3559 1356 
Q 3559 666 3084 287 
Q 2609 -91 1734 -91 
Q 1441 -91 1130 -33 
Q 819 25 488 141 
L 488 750 
Q 750 597 1062 519 
Q 1375 441 1716 441 
Q 2309 441 2620 675 
Q 2931 909 2931 1356 
Q 2931 1769 2642 2001 
Q 2353 2234 1838 2234 
L 1294 2234 
L 1294 2753 
L 1863 2753 
Q 2328 2753 2575 2939 
Q 2822 3125 2822 3475 
Q 2822 3834 2567 4026 
Q 2313 4219 1838 4219 
Q 1578 4219 1281 4162 
Q 984 4106 628 3988 
L 628 4550 
Q 988 4650 1302 4700 
Q 1616 4750 1894 4750 
Q 2613 4750 3031 4423 
Q 3450 4097 3450 3541 
Q 3450 3153 3228 2886 
Q 3006 2619 2597 2516 
z
" transform="scale(0.015625)"/>
      </defs>
      <use xlink:href="#DejaVuSans-61"/>
      <use xlink:href="#DejaVuSans-6e" x="61.279297"/>
      <use xlink:href="#DejaVuSans-67" x="124.658203"/>
      <use xlink:href="#DejaVuSans-6c" x="188.134766"/>
      <use xlink:href="#DejaVuSans-65" x="215.917969"/>
      <use xlink:href="#DejaVuSans-20" x="277.441406"/>
      <use xlink:href="#DejaVuSans-3a" x="309.228516"/>
      <use xlink:href="#DejaVuSans-20" x="342.919922"/>
      <use xlink:href="#DejaVuSans-33" x="374.707031"/>
      <use xlink:href="#DejaVuSans-30" x="438.330078"/>
     </g>
    </g>
    <g id="line2d_26">
     <path d="M 884.804688 126.252813 
L 894.804688 126.252813 
L 904.804688 126.252813 
" style="fill: none; stroke: #d62728; stroke-width: 1.5; stroke-linecap: square"/>
    </g>
    <g id="text_20">
     <!-- angle : 40 -->
     <g transform="translate(912.804688 129.752813)scale(0.1 -0.1)">
      <use xlink:href="#DejaVuSans-61"/>
      <use xlink:href="#DejaVuSans-6e" x="61.279297"/>
      <use xlink:href="#DejaVuSans-67" x="124.658203"/>
      <use xlink:href="#DejaVuSans-6c" x="188.134766"/>
      <use xlink:href="#DejaVuSans-65" x="215.917969"/>
      <use xlink:href="#DejaVuSans-20" x="277.441406"/>
      <use xlink:href="#DejaVuSans-3a" x="309.228516"/>
      <use xlink:href="#DejaVuSans-20" x="342.919922"/>
      <use xlink:href="#DejaVuSans-34" x="374.707031"/>
      <use xlink:href="#DejaVuSans-30" x="438.330078"/>
     </g>
    </g>
    <g id="line2d_27">
     <path d="M 884.804688 140.930938 
L 894.804688 140.930938 
L 904.804688 140.930938 
" style="fill: none; stroke: #9467bd; stroke-width: 1.5; stroke-linecap: square"/>
    </g>
    <g id="text_21">
     <!-- angle : 50 -->
     <g transform="translate(912.804688 144.430938)scale(0.1 -0.1)">
      <defs>
       <path id="DejaVuSans-35" d="M 691 4666 
L 3169 4666 
L 3169 4134 
L 1269 4134 
L 1269 2991 
Q 1406 3038 1543 3061 
Q 1681 3084 1819 3084 
Q 2600 3084 3056 2656 
Q 3513 2228 3513 1497 
Q 3513 744 3044 326 
Q 2575 -91 1722 -91 
Q 1428 -91 1123 -41 
Q 819 9 494 109 
L 494 744 
Q 775 591 1075 516 
Q 1375 441 1709 441 
Q 2250 441 2565 725 
Q 2881 1009 2881 1497 
Q 2881 1984 2565 2268 
Q 2250 2553 1709 2553 
Q 1456 2553 1204 2497 
Q 953 2441 691 2322 
L 691 4666 
z
" transform="scale(0.015625)"/>
      </defs>
      <use xlink:href="#DejaVuSans-61"/>
      <use xlink:href="#DejaVuSans-6e" x="61.279297"/>
      <use xlink:href="#DejaVuSans-67" x="124.658203"/>
      <use xlink:href="#DejaVuSans-6c" x="188.134766"/>
      <use xlink:href="#DejaVuSans-65" x="215.917969"/>
      <use xlink:href="#DejaVuSans-20" x="277.441406"/>
      <use xlink:href="#DejaVuSans-3a" x="309.228516"/>
      <use xlink:href="#DejaVuSans-20" x="342.919922"/>
      <use xlink:href="#DejaVuSans-35" x="374.707031"/>
      <use xlink:href="#DejaVuSans-30" x="438.330078"/>
     </g>
    </g>
    <g id="line2d_28">
     <path d="M 884.804688 155.609062 
L 894.804688 155.609062 
L 904.804688 155.609062 
" style="fill: none; stroke: #8c564b; stroke-width: 1.5; stroke-linecap: square"/>
    </g>
    <g id="text_22">
     <!-- angle : 60 -->
     <g transform="translate(912.804688 159.109062)scale(0.1 -0.1)">
      <use xlink:href="#DejaVuSans-61"/>
      <use xlink:href="#DejaVuSans-6e" x="61.279297"/>
      <use xlink:href="#DejaVuSans-67" x="124.658203"/>
      <use xlink:href="#DejaVuSans-6c" x="188.134766"/>
      <use xlink:href="#DejaVuSans-65" x="215.917969"/>
      <use xlink:href="#DejaVuSans-20" x="277.441406"/>
      <use xlink:href="#DejaVuSans-3a" x="309.228516"/>
      <use xlink:href="#DejaVuSans-20" x="342.919922"/>
      <use xlink:href="#DejaVuSans-36" x="374.707031"/>
      <use xlink:href="#DejaVuSans-30" x="438.330078"/>
     </g>
    </g>
    <g id="line2d_29">
     <path d="M 884.804688 170.287187 
L 894.804688 170.287187 
L 904.804688 170.287187 
" style="fill: none; stroke: #e377c2; stroke-width: 1.5; stroke-linecap: square"/>
    </g>
    <g id="text_23">
     <!-- angle : 70 -->
     <g transform="translate(912.804688 173.787187)scale(0.1 -0.1)">
      <defs>
       <path id="DejaVuSans-37" d="M 525 4666 
L 3525 4666 
L 3525 4397 
L 1831 0 
L 1172 0 
L 2766 4134 
L 525 4134 
L 525 4666 
z
" transform="scale(0.015625)"/>
      </defs>
      <use xlink:href="#DejaVuSans-61"/>
      <use xlink:href="#DejaVuSans-6e" x="61.279297"/>
      <use xlink:href="#DejaVuSans-67" x="124.658203"/>
      <use xlink:href="#DejaVuSans-6c" x="188.134766"/>
      <use xlink:href="#DejaVuSans-65" x="215.917969"/>
      <use xlink:href="#DejaVuSans-20" x="277.441406"/>
      <use xlink:href="#DejaVuSans-3a" x="309.228516"/>
      <use xlink:href="#DejaVuSans-20" x="342.919922"/>
      <use xlink:href="#DejaVuSans-37" x="374.707031"/>
      <use xlink:href="#DejaVuSans-30" x="438.330078"/>
     </g>
    </g>
    <g id="line2d_30">
     <path d="M 884.804688 184.965312 
L 894.804688 184.965312 
L 904.804688 184.965312 
" style="fill: none; stroke: #7f7f7f; stroke-width: 1.5; stroke-linecap: square"/>
    </g>
    <g id="text_24">
     <!-- angle : 80 -->
     <g transform="translate(912.804688 188.465312)scale(0.1 -0.1)">
      <use xlink:href="#DejaVuSans-61"/>
      <use xlink:href="#DejaVuSans-6e" x="61.279297"/>
      <use xlink:href="#DejaVuSans-67" x="124.658203"/>
      <use xlink:href="#DejaVuSans-6c" x="188.134766"/>
      <use xlink:href="#DejaVuSans-65" x="215.917969"/>
      <use xlink:href="#DejaVuSans-20" x="277.441406"/>
      <use xlink:href="#DejaVuSans-3a" x="309.228516"/>
      <use xlink:href="#DejaVuSans-20" x="342.919922"/>
      <use xlink:href="#DejaVuSans-38" x="374.707031"/>
      <use xlink:href="#DejaVuSans-30" x="438.330078"/>
     </g>
    </g>
   </g>
  </g>
 </g>
 <defs>
  <clipPath id="p219a62cda7">
   <rect x="135" y="69.12" width="837" height="443.52"/>
  </clipPath>
 </defs>
</svg>
