<?xml version="1.0" encoding="utf-8" standalone="no"?>
<!DOCTYPE svg PUBLIC "-//W3C//DTD SVG 1.1//EN"
  "http://www.w3.org/Graphics/SVG/1.1/DTD/svg11.dtd">
<svg xmlns:xlink="http://www.w3.org/1999/xlink" width="1080pt" height="576pt" viewBox="0 0 1080 576" xmlns="http://www.w3.org/2000/svg" version="1.1">
 <metadata>
  <rdf:RDF xmlns:dc="http://purl.org/dc/elements/1.1/" xmlns:cc="http://creativecommons.org/ns#" xmlns:rdf="http://www.w3.org/1999/02/22-rdf-syntax-ns#">
   <cc:Work>
    <dc:type rdf:resource="http://purl.org/dc/dcmitype/StillImage"/>
    <dc:date>2023-11-09T01:48:19.092924</dc:date>
    <dc:format>image/svg+xml</dc:format>
    <dc:creator>
     <cc:Agent>
      <dc:title>Matplotlib v3.5.2, https://matplotlib.org/</dc:title>
     </cc:Agent>
    </dc:creator>
   </cc:Work>
  </rdf:RDF>
 </metadata>
 <defs>
  <style type="text/css">*{stroke-linejoin: round; stroke-linecap: butt}</style>
 </defs>
 <g id="figure_1">
  <g id="patch_1">
   <path d="M 0 576 
L 1080 576 
L 1080 0 
L 0 0 
z
" style="fill: #ffffff"/>
  </g>
  <g id="axes_1">
   <g id="patch_2">
    <path d="M 135 512.64 
L 972 512.64 
L 972 69.12 
L 135 69.12 
z
" style="fill: #ffffff"/>
   </g>
   <g id="matplotlib.axis_1">
    <g id="xtick_1">
     <g id="line2d_1">
      <defs>
       <path id="m0fdc9d9dcf" d="M 0 0 
L 0 3.5 
" style="stroke: #000000; stroke-width: 0.8"/>
      </defs>
      <g>
       <use xlink:href="#m0fdc9d9dcf" x="173.045455" y="512.64" style="stroke: #000000; stroke-width: 0.8"/>
      </g>
     </g>
     <g id="text_1">
      <!-- 0 -->
      <g transform="translate(169.864205 527.238438)scale(0.1 -0.1)">
       <defs>
        <path id="DejaVuSans-30" d="M 2034 4250 
Q 1547 4250 1301 3770 
Q 1056 3291 1056 2328 
Q 1056 1369 1301 889 
Q 1547 409 2034 409 
Q 2525 409 2770 889 
Q 3016 1369 3016 2328 
Q 3016 3291 2770 3770 
Q 2525 4250 2034 4250 
z
M 2034 4750 
Q 2819 4750 3233 4129 
Q 3647 3509 3647 2328 
Q 3647 1150 3233 529 
Q 2819 -91 2034 -91 
Q 1250 -91 836 529 
Q 422 1150 422 2328 
Q 422 3509 836 4129 
Q 1250 4750 2034 4750 
z
" transform="scale(0.015625)"/>
       </defs>
       <use xlink:href="#DejaVuSans-30"/>
      </g>
     </g>
    </g>
    <g id="xtick_2">
     <g id="line2d_2">
      <g>
       <use xlink:href="#m0fdc9d9dcf" x="303.785848" y="512.64" style="stroke: #000000; stroke-width: 0.8"/>
      </g>
     </g>
     <g id="text_2">
      <!-- 50 -->
      <g transform="translate(297.423348 527.238438)scale(0.1 -0.1)">
       <defs>
        <path id="DejaVuSans-35" d="M 691 4666 
L 3169 4666 
L 3169 4134 
L 1269 4134 
L 1269 2991 
Q 1406 3038 1543 3061 
Q 1681 3084 1819 3084 
Q 2600 3084 3056 2656 
Q 3513 2228 3513 1497 
Q 3513 744 3044 326 
Q 2575 -91 1722 -91 
Q 1428 -91 1123 -41 
Q 819 9 494 109 
L 494 744 
Q 775 591 1075 516 
Q 1375 441 1709 441 
Q 2250 441 2565 725 
Q 2881 1009 2881 1497 
Q 2881 1984 2565 2268 
Q 2250 2553 1709 2553 
Q 1456 2553 1204 2497 
Q 953 2441 691 2322 
L 691 4666 
z
" transform="scale(0.015625)"/>
       </defs>
       <use xlink:href="#DejaVuSans-35"/>
       <use xlink:href="#DejaVuSans-30" x="63.623047"/>
      </g>
     </g>
    </g>
    <g id="xtick_3">
     <g id="line2d_3">
      <g>
       <use xlink:href="#m0fdc9d9dcf" x="434.526242" y="512.64" style="stroke: #000000; stroke-width: 0.8"/>
      </g>
     </g>
     <g id="text_3">
      <!-- 100 -->
      <g transform="translate(424.982492 527.238438)scale(0.1 -0.1)">
       <defs>
        <path id="DejaVuSans-31" d="M 794 531 
L 1825 531 
L 1825 4091 
L 703 3866 
L 703 4441 
L 1819 4666 
L 2450 4666 
L 2450 531 
L 3481 531 
L 3481 0 
L 794 0 
L 794 531 
z
" transform="scale(0.015625)"/>
       </defs>
       <use xlink:href="#DejaVuSans-31"/>
       <use xlink:href="#DejaVuSans-30" x="63.623047"/>
       <use xlink:href="#DejaVuSans-30" x="127.246094"/>
      </g>
     </g>
    </g>
    <g id="xtick_4">
     <g id="line2d_4">
      <g>
       <use xlink:href="#m0fdc9d9dcf" x="565.266635" y="512.64" style="stroke: #000000; stroke-width: 0.8"/>
      </g>
     </g>
     <g id="text_4">
      <!-- 150 -->
      <g transform="translate(555.722885 527.238438)scale(0.1 -0.1)">
       <use xlink:href="#DejaVuSans-31"/>
       <use xlink:href="#DejaVuSans-35" x="63.623047"/>
       <use xlink:href="#DejaVuSans-30" x="127.246094"/>
      </g>
     </g>
    </g>
    <g id="xtick_5">
     <g id="line2d_5">
      <g>
       <use xlink:href="#m0fdc9d9dcf" x="696.007029" y="512.64" style="stroke: #000000; stroke-width: 0.8"/>
      </g>
     </g>
     <g id="text_5">
      <!-- 200 -->
      <g transform="translate(686.463279 527.238438)scale(0.1 -0.1)">
       <defs>
        <path id="DejaVuSans-32" d="M 1228 531 
L 3431 531 
L 3431 0 
L 469 0 
L 469 531 
Q 828 903 1448 1529 
Q 2069 2156 2228 2338 
Q 2531 2678 2651 2914 
Q 2772 3150 2772 3378 
Q 2772 3750 2511 3984 
Q 2250 4219 1831 4219 
Q 1534 4219 1204 4116 
Q 875 4013 500 3803 
L 500 4441 
Q 881 4594 1212 4672 
Q 1544 4750 1819 4750 
Q 2544 4750 2975 4387 
Q 3406 4025 3406 3419 
Q 3406 3131 3298 2873 
Q 3191 2616 2906 2266 
Q 2828 2175 2409 1742 
Q 1991 1309 1228 531 
z
" transform="scale(0.015625)"/>
       </defs>
       <use xlink:href="#DejaVuSans-32"/>
       <use xlink:href="#DejaVuSans-30" x="63.623047"/>
       <use xlink:href="#DejaVuSans-30" x="127.246094"/>
      </g>
     </g>
    </g>
    <g id="xtick_6">
     <g id="line2d_6">
      <g>
       <use xlink:href="#m0fdc9d9dcf" x="826.747423" y="512.64" style="stroke: #000000; stroke-width: 0.8"/>
      </g>
     </g>
     <g id="text_6">
      <!-- 250 -->
      <g transform="translate(817.203673 527.238438)scale(0.1 -0.1)">
       <use xlink:href="#DejaVuSans-32"/>
       <use xlink:href="#DejaVuSans-35" x="63.623047"/>
       <use xlink:href="#DejaVuSans-30" x="127.246094"/>
      </g>
     </g>
    </g>
    <g id="xtick_7">
     <g id="line2d_7">
      <g>
       <use xlink:href="#m0fdc9d9dcf" x="957.487816" y="512.64" style="stroke: #000000; stroke-width: 0.8"/>
      </g>
     </g>
     <g id="text_7">
      <!-- 300 -->
      <g transform="translate(947.944066 527.238438)scale(0.1 -0.1)">
       <defs>
        <path id="DejaVuSans-33" d="M 2597 2516 
Q 3050 2419 3304 2112 
Q 3559 1806 3559 1356 
Q 3559 666 3084 287 
Q 2609 -91 1734 -91 
Q 1441 -91 1130 -33 
Q 819 25 488 141 
L 488 750 
Q 750 597 1062 519 
Q 1375 441 1716 441 
Q 2309 441 2620 675 
Q 2931 909 2931 1356 
Q 2931 1769 2642 2001 
Q 2353 2234 1838 2234 
L 1294 2234 
L 1294 2753 
L 1863 2753 
Q 2328 2753 2575 2939 
Q 2822 3125 2822 3475 
Q 2822 3834 2567 4026 
Q 2313 4219 1838 4219 
Q 1578 4219 1281 4162 
Q 984 4106 628 3988 
L 628 4550 
Q 988 4650 1302 4700 
Q 1616 4750 1894 4750 
Q 2613 4750 3031 4423 
Q 3450 4097 3450 3541 
Q 3450 3153 3228 2886 
Q 3006 2619 2597 2516 
z
" transform="scale(0.015625)"/>
       </defs>
       <use xlink:href="#DejaVuSans-33"/>
       <use xlink:href="#DejaVuSans-30" x="63.623047"/>
       <use xlink:href="#DejaVuSans-30" x="127.246094"/>
      </g>
     </g>
    </g>
   </g>
   <g id="matplotlib.axis_2">
    <g id="ytick_1">
     <g id="line2d_8">
      <defs>
       <path id="m86dd5c4316" d="M 0 0 
L -3.5 0 
" style="stroke: #000000; stroke-width: 0.8"/>
      </defs>
      <g>
       <use xlink:href="#m86dd5c4316" x="135" y="502.785431" style="stroke: #000000; stroke-width: 0.8"/>
      </g>
     </g>
     <g id="text_8">
      <!-- 25 -->
      <g transform="translate(115.275 506.58465)scale(0.1 -0.1)">
       <use xlink:href="#DejaVuSans-32"/>
       <use xlink:href="#DejaVuSans-35" x="63.623047"/>
      </g>
     </g>
    </g>
    <g id="ytick_2">
     <g id="line2d_9">
      <g>
       <use xlink:href="#m86dd5c4316" x="135" y="438.376486" style="stroke: #000000; stroke-width: 0.8"/>
      </g>
     </g>
     <g id="text_9">
      <!-- 30 -->
      <g transform="translate(115.275 442.175704)scale(0.1 -0.1)">
       <use xlink:href="#DejaVuSans-33"/>
       <use xlink:href="#DejaVuSans-30" x="63.623047"/>
      </g>
     </g>
    </g>
    <g id="ytick_3">
     <g id="line2d_10">
      <g>
       <use xlink:href="#m86dd5c4316" x="135" y="373.96754" style="stroke: #000000; stroke-width: 0.8"/>
      </g>
     </g>
     <g id="text_10">
      <!-- 35 -->
      <g transform="translate(115.275 377.766759)scale(0.1 -0.1)">
       <use xlink:href="#DejaVuSans-33"/>
       <use xlink:href="#DejaVuSans-35" x="63.623047"/>
      </g>
     </g>
    </g>
    <g id="ytick_4">
     <g id="line2d_11">
      <g>
       <use xlink:href="#m86dd5c4316" x="135" y="309.558594" style="stroke: #000000; stroke-width: 0.8"/>
      </g>
     </g>
     <g id="text_11">
      <!-- 40 -->
      <g transform="translate(115.275 313.357813)scale(0.1 -0.1)">
       <defs>
        <path id="DejaVuSans-34" d="M 2419 4116 
L 825 1625 
L 2419 1625 
L 2419 4116 
z
M 2253 4666 
L 3047 4666 
L 3047 1625 
L 3713 1625 
L 3713 1100 
L 3047 1100 
L 3047 0 
L 2419 0 
L 2419 1100 
L 313 1100 
L 313 1709 
L 2253 4666 
z
" transform="scale(0.015625)"/>
       </defs>
       <use xlink:href="#DejaVuSans-34"/>
       <use xlink:href="#DejaVuSans-30" x="63.623047"/>
      </g>
     </g>
    </g>
    <g id="ytick_5">
     <g id="line2d_12">
      <g>
       <use xlink:href="#m86dd5c4316" x="135" y="245.149649" style="stroke: #000000; stroke-width: 0.8"/>
      </g>
     </g>
     <g id="text_12">
      <!-- 45 -->
      <g transform="translate(115.275 248.948867)scale(0.1 -0.1)">
       <use xlink:href="#DejaVuSans-34"/>
       <use xlink:href="#DejaVuSans-35" x="63.623047"/>
      </g>
     </g>
    </g>
    <g id="ytick_6">
     <g id="line2d_13">
      <g>
       <use xlink:href="#m86dd5c4316" x="135" y="180.740703" style="stroke: #000000; stroke-width: 0.8"/>
      </g>
     </g>
     <g id="text_13">
      <!-- 50 -->
      <g transform="translate(115.275 184.539922)scale(0.1 -0.1)">
       <use xlink:href="#DejaVuSans-35"/>
       <use xlink:href="#DejaVuSans-30" x="63.623047"/>
      </g>
     </g>
    </g>
    <g id="ytick_7">
     <g id="line2d_14">
      <g>
       <use xlink:href="#m86dd5c4316" x="135" y="116.331757" style="stroke: #000000; stroke-width: 0.8"/>
      </g>
     </g>
     <g id="text_14">
      <!-- 55 -->
      <g transform="translate(115.275 120.130976)scale(0.1 -0.1)">
       <use xlink:href="#DejaVuSans-35"/>
       <use xlink:href="#DejaVuSans-35" x="63.623047"/>
      </g>
     </g>
    </g>
   </g>
   <g id="line2d_15">
    <path d="M 173.045455 488.615463 
L 175.660262 439.664665 
L 178.27507 377.832077 
L 180.889878 331.457636 
L 183.504686 308.270415 
L 186.119494 346.915783 
L 188.734302 380.408435 
L 191.34911 417.765623 
L 193.963918 451.258275 
L 196.578725 474.445495 
L 199.193533 470.580958 
L 201.808341 492.48 
L 204.423149 478.310032 
L 207.037957 415.189265 
L 209.652765 393.290224 
L 212.267573 352.068498 
L 214.882381 346.915783 
L 217.497188 359.797572 
L 220.111996 370.103003 
L 222.726804 412.612907 
L 225.341612 443.529201 
L 227.95642 471.869137 
L 230.571228 465.428243 
L 233.186036 486.039105 
L 235.800843 473.157316 
L 241.030459 358.509393 
L 243.645267 339.186709 
L 246.260075 327.593099 
L 248.874883 366.238466 
L 251.489691 392.002045 
L 254.104499 398.442939 
L 256.719306 453.834633 
L 259.334114 452.546454 
L 261.948922 449.970096 
L 264.56373 466.716422 
L 267.178538 446.105559 
L 269.793346 419.053802 
L 272.408154 395.866581 
L 275.022962 339.186709 
L 277.637769 304.405879 
L 280.252577 357.221214 
L 282.867385 357.221214 
L 285.482193 399.731118 
L 288.097001 430.647412 
L 290.711809 439.664665 
L 293.326617 440.952843 
L 295.941425 456.41099 
L 298.556232 440.952843 
L 301.17104 407.460192 
L 303.785848 367.526645 
L 306.400656 330.169457 
L 309.015464 305.694058 
L 311.630272 312.134952 
L 314.24508 334.033994 
L 316.859888 375.255719 
L 319.474695 406.172013 
L 322.089503 434.511949 
L 324.704311 455.122812 
L 327.319119 465.428243 
L 329.933927 431.935591 
L 332.548735 428.071054 
L 335.163543 350.780319 
L 337.778351 303.1177 
L 340.393158 267.04869 
L 343.007966 337.89853 
L 345.622774 390.713866 
L 348.237582 411.324728 
L 350.85239 428.071054 
L 353.467198 434.511949 
L 356.082006 425.494696 
L 358.696813 438.376486 
L 361.311621 431.935591 
L 363.926429 386.849329 
L 366.541237 367.526645 
L 369.156045 323.728562 
L 371.770853 300.541342 
L 374.385661 330.169457 
L 377.000469 349.492141 
L 379.615276 364.950288 
L 382.230084 407.460192 
L 384.844892 424.206518 
L 387.4597 413.901086 
L 390.074508 433.22377 
L 392.689316 420.341981 
L 395.304124 372.679361 
L 397.918932 321.152204 
L 400.533739 292.812268 
L 403.148547 286.371374 
L 405.763355 313.423131 
L 408.378163 330.169457 
L 410.992971 364.950288 
L 413.607779 419.053802 
L 416.222587 419.053802 
L 418.837395 412.612907 
L 421.452202 433.22377 
L 424.06701 420.341981 
L 426.681818 372.679361 
L 429.296626 322.440383 
L 431.911434 278.6423 
L 434.526242 250.302364 
L 437.14105 303.1177 
L 439.755858 317.287668 
L 442.370665 339.186709 
L 444.985473 376.543898 
L 447.600281 411.324728 
L 450.215089 406.172013 
L 452.829897 410.03655 
L 455.444705 398.442939 
L 458.059513 364.950288 
L 460.674321 322.440383 
L 465.903936 260.607796 
L 468.518744 301.829521 
L 471.133552 318.575847 
L 473.74836 339.186709 
L 476.363168 370.103003 
L 478.977976 397.15476 
L 481.592784 395.866581 
L 484.207591 410.03655 
L 486.822399 392.002045 
L 489.437207 349.492141 
L 492.052015 290.235911 
L 494.666823 234.844217 
L 497.281631 234.844217 
L 499.896439 303.1177 
L 502.511246 328.881278 
L 505.126054 350.780319 
L 507.740862 373.96754 
L 510.35567 395.866581 
L 512.970478 385.56115 
L 515.585286 410.03655 
L 518.200094 397.15476 
L 520.814902 354.644856 
L 523.429709 319.864026 
L 528.659325 206.504281 
L 531.274133 250.302364 
L 533.888941 301.829521 
L 536.503749 336.610351 
L 539.118557 361.085751 
L 541.733365 382.984792 
L 544.348172 380.408435 
L 546.96298 397.15476 
L 549.577788 390.713866 
L 552.192596 308.270415 
L 557.422212 256.743259 
L 560.03702 209.080639 
L 562.651828 250.302364 
L 565.266635 246.437827 
L 567.881443 315.999489 
L 570.496251 364.950288 
L 573.111059 385.56115 
L 575.725867 382.984792 
L 578.340675 402.307476 
L 580.955483 389.425687 
L 583.570291 337.89853 
L 586.185098 269.625048 
L 588.799906 216.809712 
L 591.414714 194.910671 
L 594.029522 225.826965 
L 596.64433 245.149649 
L 599.259138 300.541342 
L 601.873946 353.356677 
L 604.488754 376.543898 
L 607.103561 377.832077 
L 609.718369 393.290224 
L 612.333177 393.290224 
L 614.947985 343.051246 
L 617.562793 258.031438 
L 620.177601 200.063387 
L 622.792409 158.841661 
L 625.407216 223.250607 
L 628.022024 223.250607 
L 630.636832 286.371374 
L 633.25164 364.950288 
L 635.866448 380.408435 
L 638.481256 379.120256 
L 641.096064 412.612907 
L 643.710872 389.425687 
L 646.325679 359.797572 
L 648.940487 292.812268 
L 651.555295 230.979681 
L 654.170103 207.79246 
L 656.784911 258.031438 
L 659.399719 267.04869 
L 662.014527 336.610351 
L 667.244142 382.984792 
L 669.85895 380.408435 
L 672.473758 393.290224 
L 675.088566 373.96754 
L 677.703374 328.881278 
L 680.318182 241.285112 
L 682.93299 187.181597 
L 685.547798 185.893419 
L 688.162605 225.826965 
L 690.777413 241.285112 
L 693.392221 278.6423 
L 696.007029 355.933035 
L 698.621837 375.255719 
L 701.236645 366.238466 
L 703.851453 390.713866 
L 706.466261 380.408435 
L 709.081068 313.423131 
L 711.695876 259.319617 
L 714.310684 189.757955 
L 716.925492 129.213546 
L 719.5403 211.656997 
L 722.155108 252.878722 
L 724.769916 336.610351 
L 727.384724 368.814824 
L 729.999531 386.849329 
L 732.614339 376.543898 
L 735.229147 388.137508 
L 737.843955 386.849329 
L 740.458763 327.593099 
L 743.073571 299.253163 
L 745.688379 206.504281 
L 748.303187 107.314505 
L 750.917994 185.893419 
L 753.532802 207.79246 
L 756.14761 291.524089 
L 758.762418 341.763067 
L 761.377226 367.526645 
L 763.992034 370.103003 
L 766.606842 384.272971 
L 769.221649 380.408435 
L 771.836457 326.30492 
L 774.451265 246.437827 
L 777.066073 89.28 
L 779.680881 130.501725 
L 782.295689 229.691502 
L 784.910497 237.420575 
L 787.525305 306.982236 
L 790.140112 361.085751 
L 792.75492 385.56115 
L 795.369728 390.713866 
L 797.984536 399.731118 
L 800.599344 392.002045 
L 803.214152 355.933035 
L 805.82896 306.982236 
L 808.443768 221.962428 
L 811.058575 170.435272 
L 813.673383 139.518978 
L 816.288191 225.826965 
L 818.902999 305.694058 
L 821.517807 353.356677 
L 824.132615 388.137508 
L 826.747423 389.425687 
L 829.362231 401.019297 
L 831.977038 394.578403 
L 834.591846 354.644856 
L 837.206654 273.489585 
L 839.821462 198.775208 
L 842.43627 152.400767 
L 845.051078 174.299808 
L 847.665886 202.639744 
L 850.280694 276.065942 
L 852.895501 341.763067 
L 855.510309 393.290224 
L 858.125117 382.984792 
L 860.739925 403.595655 
L 863.354733 412.612907 
L 865.969541 371.391182 
L 868.584349 277.354121 
L 871.199157 202.639744 
L 873.813964 198.775208 
L 876.428772 239.996933 
L 879.04358 267.04869 
L 881.658388 339.186709 
L 884.273196 371.391182 
L 886.888004 392.002045 
L 889.502812 410.03655 
L 892.117619 420.341981 
L 894.732427 410.03655 
L 897.347235 363.662109 
L 899.962043 308.270415 
L 902.576851 245.149649 
L 905.191659 154.977125 
L 910.421275 237.420575 
L 913.036082 317.287668 
L 915.65089 373.96754 
L 918.265698 393.290224 
L 920.880506 388.137508 
L 923.495314 410.03655 
L 926.110122 394.578403 
L 928.72493 348.203962 
L 931.339738 308.270415 
L 933.954545 258.031438 
L 933.954545 258.031438 
" clip-path="url(#p30da7a8bf3)" style="fill: none; stroke: #1f77b4; stroke-width: 1.5; stroke-linecap: square"/>
   </g>
   <g id="patch_3">
    <path d="M 135 512.64 
L 135 69.12 
" style="fill: none; stroke: #000000; stroke-width: 0.8; stroke-linejoin: miter; stroke-linecap: square"/>
   </g>
   <g id="patch_4">
    <path d="M 972 512.64 
L 972 69.12 
" style="fill: none; stroke: #000000; stroke-width: 0.8; stroke-linejoin: miter; stroke-linecap: square"/>
   </g>
   <g id="patch_5">
    <path d="M 135 512.64 
L 972 512.64 
" style="fill: none; stroke: #000000; stroke-width: 0.8; stroke-linejoin: miter; stroke-linecap: square"/>
   </g>
   <g id="patch_6">
    <path d="M 135 69.12 
L 972 69.12 
" style="fill: none; stroke: #000000; stroke-width: 0.8; stroke-linejoin: miter; stroke-linecap: square"/>
   </g>
  </g>
 </g>
 <defs>
  <clipPath id="p30da7a8bf3">
   <rect x="135" y="69.12" width="837" height="443.52"/>
  </clipPath>
 </defs>
</svg>
