<?xml version="1.0" encoding="utf-8" standalone="no"?>
<!DOCTYPE svg PUBLIC "-//W3C//DTD SVG 1.1//EN"
  "http://www.w3.org/Graphics/SVG/1.1/DTD/svg11.dtd">
<svg xmlns:xlink="http://www.w3.org/1999/xlink" width="1080pt" height="576pt" viewBox="0 0 1080 576" xmlns="http://www.w3.org/2000/svg" version="1.1">
 <metadata>
  <rdf:RDF xmlns:dc="http://purl.org/dc/elements/1.1/" xmlns:cc="http://creativecommons.org/ns#" xmlns:rdf="http://www.w3.org/1999/02/22-rdf-syntax-ns#">
   <cc:Work>
    <dc:type rdf:resource="http://purl.org/dc/dcmitype/StillImage"/>
    <dc:date>2024-12-08T19:25:49.962388</dc:date>
    <dc:format>image/svg+xml</dc:format>
    <dc:creator>
     <cc:Agent>
      <dc:title>Matplotlib v3.5.2, https://matplotlib.org/</dc:title>
     </cc:Agent>
    </dc:creator>
   </cc:Work>
  </rdf:RDF>
 </metadata>
 <defs>
  <style type="text/css">*{stroke-linejoin: round; stroke-linecap: butt}</style>
 </defs>
 <g id="figure_1">
  <g id="patch_1">
   <path d="M 0 576 
L 1080 576 
L 1080 0 
L 0 0 
z
" style="fill: #ffffff"/>
  </g>
  <g id="axes_1">
   <g id="patch_2">
    <path d="M 135 512.64 
L 972 512.64 
L 972 69.12 
L 135 69.12 
z
" style="fill: #ffffff"/>
   </g>
   <g id="patch_3">
    <path d="M 199.421125 512.64 
L 206.541239 512.64 
L 206.541239 512.514286 
L 199.421125 512.514286 
z
" clip-path="url(#pdd07238abf)" style="fill: #1f77b4"/>
   </g>
   <g id="patch_4">
    <path d="M 206.541239 512.64 
L 213.661353 512.64 
L 213.661353 512.514286 
L 206.541239 512.514286 
z
" clip-path="url(#pdd07238abf)" style="fill: #1f77b4"/>
   </g>
   <g id="patch_5">
    <path d="M 213.661353 512.64 
L 220.781467 512.64 
L 220.781467 511.634286 
L 213.661353 511.634286 
z
" clip-path="url(#pdd07238abf)" style="fill: #1f77b4"/>
   </g>
   <g id="patch_6">
    <path d="M 220.781467 512.64 
L 227.901581 512.64 
L 227.901581 511.257143 
L 220.781467 511.257143 
z
" clip-path="url(#pdd07238abf)" style="fill: #1f77b4"/>
   </g>
   <g id="patch_7">
    <path d="M 227.901581 512.64 
L 235.021695 512.64 
L 235.021695 508.114286 
L 227.901581 508.114286 
z
" clip-path="url(#pdd07238abf)" style="fill: #1f77b4"/>
   </g>
   <g id="patch_8">
    <path d="M 235.021695 512.64 
L 242.141809 512.64 
L 242.141809 505.348571 
L 235.021695 505.348571 
z
" clip-path="url(#pdd07238abf)" style="fill: #1f77b4"/>
   </g>
   <g id="patch_9">
    <path d="M 242.141809 512.64 
L 249.261923 512.64 
L 249.261923 502.331429 
L 242.141809 502.331429 
z
" clip-path="url(#pdd07238abf)" style="fill: #1f77b4"/>
   </g>
   <g id="patch_10">
    <path d="M 249.261923 512.64 
L 256.382037 512.64 
L 256.382037 497.554286 
L 249.261923 497.554286 
z
" clip-path="url(#pdd07238abf)" style="fill: #1f77b4"/>
   </g>
   <g id="patch_11">
    <path d="M 256.382037 512.64 
L 263.502151 512.64 
L 263.502151 491.394286 
L 256.382037 491.394286 
z
" clip-path="url(#pdd07238abf)" style="fill: #1f77b4"/>
   </g>
   <g id="patch_12">
    <path d="M 263.502151 512.64 
L 270.622265 512.64 
L 270.622265 475.302857 
L 263.502151 475.302857 
z
" clip-path="url(#pdd07238abf)" style="fill: #1f77b4"/>
   </g>
   <g id="patch_13">
    <path d="M 270.622265 512.64 
L 277.742379 512.64 
L 277.742379 469.771429 
L 270.622265 469.771429 
z
" clip-path="url(#pdd07238abf)" style="fill: #1f77b4"/>
   </g>
   <g id="patch_14">
    <path d="M 277.742379 512.64 
L 284.862493 512.64 
L 284.862493 457.577143 
L 277.742379 457.577143 
z
" clip-path="url(#pdd07238abf)" style="fill: #1f77b4"/>
   </g>
   <g id="patch_15">
    <path d="M 284.862493 512.64 
L 291.982607 512.64 
L 291.982607 438.468571 
L 284.862493 438.468571 
z
" clip-path="url(#pdd07238abf)" style="fill: #1f77b4"/>
   </g>
   <g id="patch_16">
    <path d="M 291.982607 512.64 
L 299.102721 512.64 
L 299.102721 425.017143 
L 291.982607 425.017143 
z
" clip-path="url(#pdd07238abf)" style="fill: #1f77b4"/>
   </g>
   <g id="patch_17">
    <path d="M 299.102721 512.64 
L 306.222835 512.64 
L 306.222835 408.297143 
L 299.102721 408.297143 
z
" clip-path="url(#pdd07238abf)" style="fill: #1f77b4"/>
   </g>
   <g id="patch_18">
    <path d="M 306.222835 512.64 
L 313.342949 512.64 
L 313.342949 391.577143 
L 306.222835 391.577143 
z
" clip-path="url(#pdd07238abf)" style="fill: #1f77b4"/>
   </g>
   <g id="patch_19">
    <path d="M 313.342949 512.64 
L 320.463062 512.64 
L 320.463062 357.382857 
L 313.342949 357.382857 
z
" clip-path="url(#pdd07238abf)" style="fill: #1f77b4"/>
   </g>
   <g id="patch_20">
    <path d="M 320.463062 512.64 
L 327.583176 512.64 
L 327.583176 340.034286 
L 320.463062 340.034286 
z
" clip-path="url(#pdd07238abf)" style="fill: #1f77b4"/>
   </g>
   <g id="patch_21">
    <path d="M 327.583176 512.64 
L 334.70329 512.64 
L 334.70329 313.634286 
L 327.583176 313.634286 
z
" clip-path="url(#pdd07238abf)" style="fill: #1f77b4"/>
   </g>
   <g id="patch_22">
    <path d="M 334.70329 512.64 
L 341.823404 512.64 
L 341.823404 290.754286 
L 334.70329 290.754286 
z
" clip-path="url(#pdd07238abf)" style="fill: #1f77b4"/>
   </g>
   <g id="patch_23">
    <path d="M 341.823404 512.64 
L 348.943518 512.64 
L 348.943518 259.577143 
L 341.823404 259.577143 
z
" clip-path="url(#pdd07238abf)" style="fill: #1f77b4"/>
   </g>
   <g id="patch_24">
    <path d="M 348.943518 512.64 
L 356.063632 512.64 
L 356.063632 243.108571 
L 348.943518 243.108571 
z
" clip-path="url(#pdd07238abf)" style="fill: #1f77b4"/>
   </g>
   <g id="patch_25">
    <path d="M 356.063632 512.64 
L 363.183746 512.64 
L 363.183746 221.737143 
L 356.063632 221.737143 
z
" clip-path="url(#pdd07238abf)" style="fill: #1f77b4"/>
   </g>
   <g id="patch_26">
    <path d="M 363.183746 512.64 
L 370.30386 512.64 
L 370.30386 197.6 
L 363.183746 197.6 
z
" clip-path="url(#pdd07238abf)" style="fill: #1f77b4"/>
   </g>
   <g id="patch_27">
    <path d="M 370.30386 512.64 
L 377.423974 512.64 
L 377.423974 165.291429 
L 370.30386 165.291429 
z
" clip-path="url(#pdd07238abf)" style="fill: #1f77b4"/>
   </g>
   <g id="patch_28">
    <path d="M 377.423974 512.64 
L 384.544088 512.64 
L 384.544088 153.725714 
L 377.423974 153.725714 
z
" clip-path="url(#pdd07238abf)" style="fill: #1f77b4"/>
   </g>
   <g id="patch_29">
    <path d="M 384.544088 512.64 
L 391.664202 512.64 
L 391.664202 131.977143 
L 384.544088 131.977143 
z
" clip-path="url(#pdd07238abf)" style="fill: #1f77b4"/>
   </g>
   <g id="patch_30">
    <path d="M 391.664202 512.64 
L 398.784316 512.64 
L 398.784316 122.297143 
L 391.664202 122.297143 
z
" clip-path="url(#pdd07238abf)" style="fill: #1f77b4"/>
   </g>
   <g id="patch_31">
    <path d="M 398.784316 512.64 
L 405.90443 512.64 
L 405.90443 109.348571 
L 398.784316 109.348571 
z
" clip-path="url(#pdd07238abf)" style="fill: #1f77b4"/>
   </g>
   <g id="patch_32">
    <path d="M 405.90443 512.64 
L 413.024544 512.64 
L 413.024544 111.611429 
L 405.90443 111.611429 
z
" clip-path="url(#pdd07238abf)" style="fill: #1f77b4"/>
   </g>
   <g id="patch_33">
    <path d="M 413.024544 512.64 
L 420.144658 512.64 
L 420.144658 97.908571 
L 413.024544 97.908571 
z
" clip-path="url(#pdd07238abf)" style="fill: #1f77b4"/>
   </g>
   <g id="patch_34">
    <path d="M 420.144658 512.64 
L 427.264772 512.64 
L 427.264772 90.24 
L 420.144658 90.24 
z
" clip-path="url(#pdd07238abf)" style="fill: #1f77b4"/>
   </g>
   <g id="patch_35">
    <path d="M 427.264772 512.64 
L 434.384886 512.64 
L 434.384886 100.8 
L 427.264772 100.8 
z
" clip-path="url(#pdd07238abf)" style="fill: #1f77b4"/>
   </g>
   <g id="patch_36">
    <path d="M 434.384886 512.64 
L 441.505 512.64 
L 441.505 108.342857 
L 434.384886 108.342857 
z
" clip-path="url(#pdd07238abf)" style="fill: #1f77b4"/>
   </g>
   <g id="patch_37">
    <path d="M 441.505 512.64 
L 448.625114 512.64 
L 448.625114 98.411429 
L 441.505 98.411429 
z
" clip-path="url(#pdd07238abf)" style="fill: #1f77b4"/>
   </g>
   <g id="patch_38">
    <path d="M 448.625114 512.64 
L 455.745228 512.64 
L 455.745228 117.52 
L 448.625114 117.52 
z
" clip-path="url(#pdd07238abf)" style="fill: #1f77b4"/>
   </g>
   <g id="patch_39">
    <path d="M 455.745228 512.64 
L 462.865342 512.64 
L 462.865342 122.8 
L 455.745228 122.8 
z
" clip-path="url(#pdd07238abf)" style="fill: #1f77b4"/>
   </g>
   <g id="patch_40">
    <path d="M 462.865342 512.64 
L 469.985456 512.64 
L 469.985456 142.788571 
L 462.865342 142.788571 
z
" clip-path="url(#pdd07238abf)" style="fill: #1f77b4"/>
   </g>
   <g id="patch_41">
    <path d="M 469.985456 512.64 
L 477.10557 512.64 
L 477.10557 162.022857 
L 469.985456 162.022857 
z
" clip-path="url(#pdd07238abf)" style="fill: #1f77b4"/>
   </g>
   <g id="patch_42">
    <path d="M 477.10557 512.64 
L 484.225684 512.64 
L 484.225684 171.828571 
L 477.10557 171.828571 
z
" clip-path="url(#pdd07238abf)" style="fill: #1f77b4"/>
   </g>
   <g id="patch_43">
    <path d="M 484.225684 512.64 
L 491.345798 512.64 
L 491.345798 190.937143 
L 484.225684 190.937143 
z
" clip-path="url(#pdd07238abf)" style="fill: #1f77b4"/>
   </g>
   <g id="patch_44">
    <path d="M 491.345798 512.64 
L 498.465912 512.64 
L 498.465912 204.514286 
L 491.345798 204.514286 
z
" clip-path="url(#pdd07238abf)" style="fill: #1f77b4"/>
   </g>
   <g id="patch_45">
    <path d="M 498.465912 512.64 
L 505.586026 512.64 
L 505.586026 204.891429 
L 498.465912 204.891429 
z
" clip-path="url(#pdd07238abf)" style="fill: #1f77b4"/>
   </g>
   <g id="patch_46">
    <path d="M 505.586026 512.64 
L 512.70614 512.64 
L 512.70614 242.228571 
L 505.586026 242.228571 
z
" clip-path="url(#pdd07238abf)" style="fill: #1f77b4"/>
   </g>
   <g id="patch_47">
    <path d="M 512.70614 512.64 
L 519.826254 512.64 
L 519.826254 249.268571 
L 512.70614 249.268571 
z
" clip-path="url(#pdd07238abf)" style="fill: #1f77b4"/>
   </g>
   <g id="patch_48">
    <path d="M 519.826254 512.64 
L 526.946368 512.64 
L 526.946368 277.68 
L 519.826254 277.68 
z
" clip-path="url(#pdd07238abf)" style="fill: #1f77b4"/>
   </g>
   <g id="patch_49">
    <path d="M 526.946368 512.64 
L 534.066482 512.64 
L 534.066482 294.777143 
L 526.946368 294.777143 
z
" clip-path="url(#pdd07238abf)" style="fill: #1f77b4"/>
   </g>
   <g id="patch_50">
    <path d="M 534.066482 512.64 
L 541.186596 512.64 
L 541.186596 313.634286 
L 534.066482 313.634286 
z
" clip-path="url(#pdd07238abf)" style="fill: #1f77b4"/>
   </g>
   <g id="patch_51">
    <path d="M 541.186596 512.64 
L 548.30671 512.64 
L 548.30671 327.211429 
L 541.186596 327.211429 
z
" clip-path="url(#pdd07238abf)" style="fill: #1f77b4"/>
   </g>
   <g id="patch_52">
    <path d="M 548.30671 512.64 
L 555.426824 512.64 
L 555.426824 338.651429 
L 548.30671 338.651429 
z
" clip-path="url(#pdd07238abf)" style="fill: #1f77b4"/>
   </g>
   <g id="patch_53">
    <path d="M 555.426824 512.64 
L 562.546938 512.64 
L 562.546938 360.022857 
L 555.426824 360.022857 
z
" clip-path="url(#pdd07238abf)" style="fill: #1f77b4"/>
   </g>
   <g id="patch_54">
    <path d="M 562.546938 512.64 
L 569.667052 512.64 
L 569.667052 378.88 
L 562.546938 378.88 
z
" clip-path="url(#pdd07238abf)" style="fill: #1f77b4"/>
   </g>
   <g id="patch_55">
    <path d="M 569.667052 512.64 
L 576.787166 512.64 
L 576.787166 383.028571 
L 569.667052 383.028571 
z
" clip-path="url(#pdd07238abf)" style="fill: #1f77b4"/>
   </g>
   <g id="patch_56">
    <path d="M 576.787166 512.64 
L 583.90728 512.64 
L 583.90728 401.005714 
L 576.787166 401.005714 
z
" clip-path="url(#pdd07238abf)" style="fill: #1f77b4"/>
   </g>
   <g id="patch_57">
    <path d="M 583.90728 512.64 
L 591.027393 512.64 
L 591.027393 406.914286 
L 583.90728 406.914286 
z
" clip-path="url(#pdd07238abf)" style="fill: #1f77b4"/>
   </g>
   <g id="patch_58">
    <path d="M 591.027393 512.64 
L 598.147507 512.64 
L 598.147507 415.085714 
L 591.027393 415.085714 
z
" clip-path="url(#pdd07238abf)" style="fill: #1f77b4"/>
   </g>
   <g id="patch_59">
    <path d="M 598.147507 512.64 
L 605.267621 512.64 
L 605.267621 432.182857 
L 598.147507 432.182857 
z
" clip-path="url(#pdd07238abf)" style="fill: #1f77b4"/>
   </g>
   <g id="patch_60">
    <path d="M 605.267621 512.64 
L 612.387735 512.64 
L 612.387735 435.577143 
L 605.267621 435.577143 
z
" clip-path="url(#pdd07238abf)" style="fill: #1f77b4"/>
   </g>
   <g id="patch_61">
    <path d="M 612.387735 512.64 
L 619.507849 512.64 
L 619.507849 442.868571 
L 612.387735 442.868571 
z
" clip-path="url(#pdd07238abf)" style="fill: #1f77b4"/>
   </g>
   <g id="patch_62">
    <path d="M 619.507849 512.64 
L 626.627963 512.64 
L 626.627963 454.057143 
L 619.507849 454.057143 
z
" clip-path="url(#pdd07238abf)" style="fill: #1f77b4"/>
   </g>
   <g id="patch_63">
    <path d="M 626.627963 512.64 
L 633.748077 512.64 
L 633.748077 458.708571 
L 626.627963 458.708571 
z
" clip-path="url(#pdd07238abf)" style="fill: #1f77b4"/>
   </g>
   <g id="patch_64">
    <path d="M 633.748077 512.64 
L 640.868191 512.64 
L 640.868191 463.611429 
L 633.748077 463.611429 
z
" clip-path="url(#pdd07238abf)" style="fill: #1f77b4"/>
   </g>
   <g id="patch_65">
    <path d="M 640.868191 512.64 
L 647.988305 512.64 
L 647.988305 468.137143 
L 640.868191 468.137143 
z
" clip-path="url(#pdd07238abf)" style="fill: #1f77b4"/>
   </g>
   <g id="patch_66">
    <path d="M 647.988305 512.64 
L 655.108419 512.64 
L 655.108419 479.451429 
L 647.988305 479.451429 
z
" clip-path="url(#pdd07238abf)" style="fill: #1f77b4"/>
   </g>
   <g id="patch_67">
    <path d="M 655.108419 512.64 
L 662.228533 512.64 
L 662.228533 481.462857 
L 655.108419 481.462857 
z
" clip-path="url(#pdd07238abf)" style="fill: #1f77b4"/>
   </g>
   <g id="patch_68">
    <path d="M 662.228533 512.64 
L 669.348647 512.64 
L 669.348647 482.342857 
L 662.228533 482.342857 
z
" clip-path="url(#pdd07238abf)" style="fill: #1f77b4"/>
   </g>
   <g id="patch_69">
    <path d="M 669.348647 512.64 
L 676.468761 512.64 
L 676.468761 488 
L 669.348647 488 
z
" clip-path="url(#pdd07238abf)" style="fill: #1f77b4"/>
   </g>
   <g id="patch_70">
    <path d="M 676.468761 512.64 
L 683.588875 512.64 
L 683.588875 492.902857 
L 676.468761 492.902857 
z
" clip-path="url(#pdd07238abf)" style="fill: #1f77b4"/>
   </g>
   <g id="patch_71">
    <path d="M 683.588875 512.64 
L 690.708989 512.64 
L 690.708989 490.64 
L 683.588875 490.64 
z
" clip-path="url(#pdd07238abf)" style="fill: #1f77b4"/>
   </g>
   <g id="patch_72">
    <path d="M 690.708989 512.64 
L 697.829103 512.64 
L 697.829103 495.92 
L 690.708989 495.92 
z
" clip-path="url(#pdd07238abf)" style="fill: #1f77b4"/>
   </g>
   <g id="patch_73">
    <path d="M 697.829103 512.64 
L 704.949217 512.64 
L 704.949217 498.56 
L 697.829103 498.56 
z
" clip-path="url(#pdd07238abf)" style="fill: #1f77b4"/>
   </g>
   <g id="patch_74">
    <path d="M 704.949217 512.64 
L 712.069331 512.64 
L 712.069331 502.331429 
L 704.949217 502.331429 
z
" clip-path="url(#pdd07238abf)" style="fill: #1f77b4"/>
   </g>
   <g id="patch_75">
    <path d="M 712.069331 512.64 
L 719.189445 512.64 
L 719.189445 500.697143 
L 712.069331 500.697143 
z
" clip-path="url(#pdd07238abf)" style="fill: #1f77b4"/>
   </g>
   <g id="patch_76">
    <path d="M 719.189445 512.64 
L 726.309559 512.64 
L 726.309559 502.96 
L 719.189445 502.96 
z
" clip-path="url(#pdd07238abf)" style="fill: #1f77b4"/>
   </g>
   <g id="patch_77">
    <path d="M 726.309559 512.64 
L 733.429673 512.64 
L 733.429673 506.228571 
L 726.309559 506.228571 
z
" clip-path="url(#pdd07238abf)" style="fill: #1f77b4"/>
   </g>
   <g id="patch_78">
    <path d="M 733.429673 512.64 
L 740.549787 512.64 
L 740.549787 507.988571 
L 733.429673 507.988571 
z
" clip-path="url(#pdd07238abf)" style="fill: #1f77b4"/>
   </g>
   <g id="patch_79">
    <path d="M 740.549787 512.64 
L 747.669901 512.64 
L 747.669901 506.731429 
L 740.549787 506.731429 
z
" clip-path="url(#pdd07238abf)" style="fill: #1f77b4"/>
   </g>
   <g id="patch_80">
    <path d="M 747.669901 512.64 
L 754.790015 512.64 
L 754.790015 507.862857 
L 747.669901 507.862857 
z
" clip-path="url(#pdd07238abf)" style="fill: #1f77b4"/>
   </g>
   <g id="patch_81">
    <path d="M 754.790015 512.64 
L 761.910129 512.64 
L 761.910129 508.617143 
L 754.790015 508.617143 
z
" clip-path="url(#pdd07238abf)" style="fill: #1f77b4"/>
   </g>
   <g id="patch_82">
    <path d="M 761.910129 512.64 
L 769.030243 512.64 
L 769.030243 509.371429 
L 761.910129 509.371429 
z
" clip-path="url(#pdd07238abf)" style="fill: #1f77b4"/>
   </g>
   <g id="patch_83">
    <path d="M 769.030243 512.64 
L 776.150357 512.64 
L 776.150357 510.125714 
L 769.030243 510.125714 
z
" clip-path="url(#pdd07238abf)" style="fill: #1f77b4"/>
   </g>
   <g id="patch_84">
    <path d="M 776.150357 512.64 
L 783.270471 512.64 
L 783.270471 510.754286 
L 776.150357 510.754286 
z
" clip-path="url(#pdd07238abf)" style="fill: #1f77b4"/>
   </g>
   <g id="patch_85">
    <path d="M 783.270471 512.64 
L 790.390585 512.64 
L 790.390585 510.251429 
L 783.270471 510.251429 
z
" clip-path="url(#pdd07238abf)" style="fill: #1f77b4"/>
   </g>
   <g id="patch_86">
    <path d="M 790.390585 512.64 
L 797.510699 512.64 
L 797.510699 511.76 
L 790.390585 511.76 
z
" clip-path="url(#pdd07238abf)" style="fill: #1f77b4"/>
   </g>
   <g id="patch_87">
    <path d="M 797.510699 512.64 
L 804.630813 512.64 
L 804.630813 510.754286 
L 797.510699 510.754286 
z
" clip-path="url(#pdd07238abf)" style="fill: #1f77b4"/>
   </g>
   <g id="patch_88">
    <path d="M 804.630813 512.64 
L 811.750927 512.64 
L 811.750927 511.382857 
L 804.630813 511.382857 
z
" clip-path="url(#pdd07238abf)" style="fill: #1f77b4"/>
   </g>
   <g id="patch_89">
    <path d="M 811.750927 512.64 
L 818.871041 512.64 
L 818.871041 511.634286 
L 811.750927 511.634286 
z
" clip-path="url(#pdd07238abf)" style="fill: #1f77b4"/>
   </g>
   <g id="patch_90">
    <path d="M 818.871041 512.64 
L 825.991155 512.64 
L 825.991155 512.262857 
L 818.871041 512.262857 
z
" clip-path="url(#pdd07238abf)" style="fill: #1f77b4"/>
   </g>
   <g id="patch_91">
    <path d="M 825.991155 512.64 
L 833.111269 512.64 
L 833.111269 512.262857 
L 825.991155 512.262857 
z
" clip-path="url(#pdd07238abf)" style="fill: #1f77b4"/>
   </g>
   <g id="patch_92">
    <path d="M 833.111269 512.64 
L 840.231383 512.64 
L 840.231383 512.137143 
L 833.111269 512.137143 
z
" clip-path="url(#pdd07238abf)" style="fill: #1f77b4"/>
   </g>
   <g id="patch_93">
    <path d="M 840.231383 512.64 
L 847.351497 512.64 
L 847.351497 511.76 
L 840.231383 511.76 
z
" clip-path="url(#pdd07238abf)" style="fill: #1f77b4"/>
   </g>
   <g id="patch_94">
    <path d="M 847.351497 512.64 
L 854.471611 512.64 
L 854.471611 512.262857 
L 847.351497 512.262857 
z
" clip-path="url(#pdd07238abf)" style="fill: #1f77b4"/>
   </g>
   <g id="patch_95">
    <path d="M 854.471611 512.64 
L 861.591725 512.64 
L 861.591725 512.514286 
L 854.471611 512.514286 
z
" clip-path="url(#pdd07238abf)" style="fill: #1f77b4"/>
   </g>
   <g id="patch_96">
    <path d="M 861.591725 512.64 
L 868.711838 512.64 
L 868.711838 512.514286 
L 861.591725 512.514286 
z
" clip-path="url(#pdd07238abf)" style="fill: #1f77b4"/>
   </g>
   <g id="patch_97">
    <path d="M 868.711838 512.64 
L 875.831952 512.64 
L 875.831952 512.388571 
L 868.711838 512.388571 
z
" clip-path="url(#pdd07238abf)" style="fill: #1f77b4"/>
   </g>
   <g id="patch_98">
    <path d="M 875.831952 512.64 
L 882.952066 512.64 
L 882.952066 512.64 
L 875.831952 512.64 
z
" clip-path="url(#pdd07238abf)" style="fill: #1f77b4"/>
   </g>
   <g id="patch_99">
    <path d="M 882.952066 512.64 
L 890.07218 512.64 
L 890.07218 512.514286 
L 882.952066 512.514286 
z
" clip-path="url(#pdd07238abf)" style="fill: #1f77b4"/>
   </g>
   <g id="patch_100">
    <path d="M 890.07218 512.64 
L 897.192294 512.64 
L 897.192294 512.514286 
L 890.07218 512.514286 
z
" clip-path="url(#pdd07238abf)" style="fill: #1f77b4"/>
   </g>
   <g id="patch_101">
    <path d="M 897.192294 512.64 
L 904.312408 512.64 
L 904.312408 512.514286 
L 897.192294 512.514286 
z
" clip-path="url(#pdd07238abf)" style="fill: #1f77b4"/>
   </g>
   <g id="patch_102">
    <path d="M 904.312408 512.64 
L 911.432522 512.64 
L 911.432522 512.514286 
L 904.312408 512.514286 
z
" clip-path="url(#pdd07238abf)" style="fill: #1f77b4"/>
   </g>
   <g id="patch_103">
    <path d="M 911.432522 512.64 
L 918.552636 512.64 
L 918.552636 512.388571 
L 911.432522 512.388571 
z
" clip-path="url(#pdd07238abf)" style="fill: #1f77b4"/>
   </g>
   <g id="matplotlib.axis_1">
    <g id="xtick_1">
     <g id="line2d_1">
      <defs>
       <path id="m7df833dfa4" d="M 0 0 
L 0 3.5 
" style="stroke: #000000; stroke-width: 0.8"/>
      </defs>
      <g>
       <use xlink:href="#m7df833dfa4" x="173.045455" y="512.64" style="stroke: #000000; stroke-width: 0.8"/>
      </g>
     </g>
     <g id="text_1">
      <!-- −20 -->
      <g transform="translate(162.493111 527.238438)scale(0.1 -0.1)">
       <defs>
        <path id="DejaVuSans-2212" d="M 678 2272 
L 4684 2272 
L 4684 1741 
L 678 1741 
L 678 2272 
z
" transform="scale(0.015625)"/>
        <path id="DejaVuSans-32" d="M 1228 531 
L 3431 531 
L 3431 0 
L 469 0 
L 469 531 
Q 828 903 1448 1529 
Q 2069 2156 2228 2338 
Q 2531 2678 2651 2914 
Q 2772 3150 2772 3378 
Q 2772 3750 2511 3984 
Q 2250 4219 1831 4219 
Q 1534 4219 1204 4116 
Q 875 4013 500 3803 
L 500 4441 
Q 881 4594 1212 4672 
Q 1544 4750 1819 4750 
Q 2544 4750 2975 4387 
Q 3406 4025 3406 3419 
Q 3406 3131 3298 2873 
Q 3191 2616 2906 2266 
Q 2828 2175 2409 1742 
Q 1991 1309 1228 531 
z
" transform="scale(0.015625)"/>
        <path id="DejaVuSans-30" d="M 2034 4250 
Q 1547 4250 1301 3770 
Q 1056 3291 1056 2328 
Q 1056 1369 1301 889 
Q 1547 409 2034 409 
Q 2525 409 2770 889 
Q 3016 1369 3016 2328 
Q 3016 3291 2770 3770 
Q 2525 4250 2034 4250 
z
M 2034 4750 
Q 2819 4750 3233 4129 
Q 3647 3509 3647 2328 
Q 3647 1150 3233 529 
Q 2819 -91 2034 -91 
Q 1250 -91 836 529 
Q 422 1150 422 2328 
Q 422 3509 836 4129 
Q 1250 4750 2034 4750 
z
" transform="scale(0.015625)"/>
       </defs>
       <use xlink:href="#DejaVuSans-2212"/>
       <use xlink:href="#DejaVuSans-32" x="83.789062"/>
       <use xlink:href="#DejaVuSans-30" x="147.412109"/>
      </g>
     </g>
    </g>
    <g id="xtick_2">
     <g id="line2d_2">
      <g>
       <use xlink:href="#m7df833dfa4" x="325.227273" y="512.64" style="stroke: #000000; stroke-width: 0.8"/>
      </g>
     </g>
     <g id="text_2">
      <!-- 0 -->
      <g transform="translate(322.046023 527.238438)scale(0.1 -0.1)">
       <use xlink:href="#DejaVuSans-30"/>
      </g>
     </g>
    </g>
    <g id="xtick_3">
     <g id="line2d_3">
      <g>
       <use xlink:href="#m7df833dfa4" x="477.409091" y="512.64" style="stroke: #000000; stroke-width: 0.8"/>
      </g>
     </g>
     <g id="text_3">
      <!-- 20 -->
      <g transform="translate(471.046591 527.238438)scale(0.1 -0.1)">
       <use xlink:href="#DejaVuSans-32"/>
       <use xlink:href="#DejaVuSans-30" x="63.623047"/>
      </g>
     </g>
    </g>
    <g id="xtick_4">
     <g id="line2d_4">
      <g>
       <use xlink:href="#m7df833dfa4" x="629.590909" y="512.64" style="stroke: #000000; stroke-width: 0.8"/>
      </g>
     </g>
     <g id="text_4">
      <!-- 40 -->
      <g transform="translate(623.228409 527.238438)scale(0.1 -0.1)">
       <defs>
        <path id="DejaVuSans-34" d="M 2419 4116 
L 825 1625 
L 2419 1625 
L 2419 4116 
z
M 2253 4666 
L 3047 4666 
L 3047 1625 
L 3713 1625 
L 3713 1100 
L 3047 1100 
L 3047 0 
L 2419 0 
L 2419 1100 
L 313 1100 
L 313 1709 
L 2253 4666 
z
" transform="scale(0.015625)"/>
       </defs>
       <use xlink:href="#DejaVuSans-34"/>
       <use xlink:href="#DejaVuSans-30" x="63.623047"/>
      </g>
     </g>
    </g>
    <g id="xtick_5">
     <g id="line2d_5">
      <g>
       <use xlink:href="#m7df833dfa4" x="781.772727" y="512.64" style="stroke: #000000; stroke-width: 0.8"/>
      </g>
     </g>
     <g id="text_5">
      <!-- 60 -->
      <g transform="translate(775.410227 527.238438)scale(0.1 -0.1)">
       <defs>
        <path id="DejaVuSans-36" d="M 2113 2584 
Q 1688 2584 1439 2293 
Q 1191 2003 1191 1497 
Q 1191 994 1439 701 
Q 1688 409 2113 409 
Q 2538 409 2786 701 
Q 3034 994 3034 1497 
Q 3034 2003 2786 2293 
Q 2538 2584 2113 2584 
z
M 3366 4563 
L 3366 3988 
Q 3128 4100 2886 4159 
Q 2644 4219 2406 4219 
Q 1781 4219 1451 3797 
Q 1122 3375 1075 2522 
Q 1259 2794 1537 2939 
Q 1816 3084 2150 3084 
Q 2853 3084 3261 2657 
Q 3669 2231 3669 1497 
Q 3669 778 3244 343 
Q 2819 -91 2113 -91 
Q 1303 -91 875 529 
Q 447 1150 447 2328 
Q 447 3434 972 4092 
Q 1497 4750 2381 4750 
Q 2619 4750 2861 4703 
Q 3103 4656 3366 4563 
z
" transform="scale(0.015625)"/>
       </defs>
       <use xlink:href="#DejaVuSans-36"/>
       <use xlink:href="#DejaVuSans-30" x="63.623047"/>
      </g>
     </g>
    </g>
    <g id="xtick_6">
     <g id="line2d_6">
      <g>
       <use xlink:href="#m7df833dfa4" x="933.954545" y="512.64" style="stroke: #000000; stroke-width: 0.8"/>
      </g>
     </g>
     <g id="text_6">
      <!-- 80 -->
      <g transform="translate(927.592045 527.238438)scale(0.1 -0.1)">
       <defs>
        <path id="DejaVuSans-38" d="M 2034 2216 
Q 1584 2216 1326 1975 
Q 1069 1734 1069 1313 
Q 1069 891 1326 650 
Q 1584 409 2034 409 
Q 2484 409 2743 651 
Q 3003 894 3003 1313 
Q 3003 1734 2745 1975 
Q 2488 2216 2034 2216 
z
M 1403 2484 
Q 997 2584 770 2862 
Q 544 3141 544 3541 
Q 544 4100 942 4425 
Q 1341 4750 2034 4750 
Q 2731 4750 3128 4425 
Q 3525 4100 3525 3541 
Q 3525 3141 3298 2862 
Q 3072 2584 2669 2484 
Q 3125 2378 3379 2068 
Q 3634 1759 3634 1313 
Q 3634 634 3220 271 
Q 2806 -91 2034 -91 
Q 1263 -91 848 271 
Q 434 634 434 1313 
Q 434 1759 690 2068 
Q 947 2378 1403 2484 
z
M 1172 3481 
Q 1172 3119 1398 2916 
Q 1625 2713 2034 2713 
Q 2441 2713 2670 2916 
Q 2900 3119 2900 3481 
Q 2900 3844 2670 4047 
Q 2441 4250 2034 4250 
Q 1625 4250 1398 4047 
Q 1172 3844 1172 3481 
z
" transform="scale(0.015625)"/>
       </defs>
       <use xlink:href="#DejaVuSans-38"/>
       <use xlink:href="#DejaVuSans-30" x="63.623047"/>
      </g>
     </g>
    </g>
   </g>
   <g id="matplotlib.axis_2">
    <g id="ytick_1">
     <g id="line2d_7">
      <defs>
       <path id="m29391acf33" d="M 0 0 
L -3.5 0 
" style="stroke: #000000; stroke-width: 0.8"/>
      </defs>
      <g>
       <use xlink:href="#m29391acf33" x="135" y="512.64" style="stroke: #000000; stroke-width: 0.8"/>
      </g>
     </g>
     <g id="text_7">
      <!-- 0.000 -->
      <g transform="translate(99.371875 516.439219)scale(0.1 -0.1)">
       <defs>
        <path id="DejaVuSans-2e" d="M 684 794 
L 1344 794 
L 1344 0 
L 684 0 
L 684 794 
z
" transform="scale(0.015625)"/>
       </defs>
       <use xlink:href="#DejaVuSans-30"/>
       <use xlink:href="#DejaVuSans-2e" x="63.623047"/>
       <use xlink:href="#DejaVuSans-30" x="95.410156"/>
       <use xlink:href="#DejaVuSans-30" x="159.033203"/>
       <use xlink:href="#DejaVuSans-30" x="222.65625"/>
      </g>
     </g>
    </g>
    <g id="ytick_2">
     <g id="line2d_8">
      <g>
       <use xlink:href="#m29391acf33" x="135" y="453.822196" style="stroke: #000000; stroke-width: 0.8"/>
      </g>
     </g>
     <g id="text_8">
      <!-- 0.005 -->
      <g transform="translate(99.371875 457.621414)scale(0.1 -0.1)">
       <defs>
        <path id="DejaVuSans-35" d="M 691 4666 
L 3169 4666 
L 3169 4134 
L 1269 4134 
L 1269 2991 
Q 1406 3038 1543 3061 
Q 1681 3084 1819 3084 
Q 2600 3084 3056 2656 
Q 3513 2228 3513 1497 
Q 3513 744 3044 326 
Q 2575 -91 1722 -91 
Q 1428 -91 1123 -41 
Q 819 9 494 109 
L 494 744 
Q 775 591 1075 516 
Q 1375 441 1709 441 
Q 2250 441 2565 725 
Q 2881 1009 2881 1497 
Q 2881 1984 2565 2268 
Q 2250 2553 1709 2553 
Q 1456 2553 1204 2497 
Q 953 2441 691 2322 
L 691 4666 
z
" transform="scale(0.015625)"/>
       </defs>
       <use xlink:href="#DejaVuSans-30"/>
       <use xlink:href="#DejaVuSans-2e" x="63.623047"/>
       <use xlink:href="#DejaVuSans-30" x="95.410156"/>
       <use xlink:href="#DejaVuSans-30" x="159.033203"/>
       <use xlink:href="#DejaVuSans-35" x="222.65625"/>
      </g>
     </g>
    </g>
    <g id="ytick_3">
     <g id="line2d_9">
      <g>
       <use xlink:href="#m29391acf33" x="135" y="395.004391" style="stroke: #000000; stroke-width: 0.8"/>
      </g>
     </g>
     <g id="text_9">
      <!-- 0.010 -->
      <g transform="translate(99.371875 398.80361)scale(0.1 -0.1)">
       <defs>
        <path id="DejaVuSans-31" d="M 794 531 
L 1825 531 
L 1825 4091 
L 703 3866 
L 703 4441 
L 1819 4666 
L 2450 4666 
L 2450 531 
L 3481 531 
L 3481 0 
L 794 0 
L 794 531 
z
" transform="scale(0.015625)"/>
       </defs>
       <use xlink:href="#DejaVuSans-30"/>
       <use xlink:href="#DejaVuSans-2e" x="63.623047"/>
       <use xlink:href="#DejaVuSans-30" x="95.410156"/>
       <use xlink:href="#DejaVuSans-31" x="159.033203"/>
       <use xlink:href="#DejaVuSans-30" x="222.65625"/>
      </g>
     </g>
    </g>
    <g id="ytick_4">
     <g id="line2d_10">
      <g>
       <use xlink:href="#m29391acf33" x="135" y="336.186587" style="stroke: #000000; stroke-width: 0.8"/>
      </g>
     </g>
     <g id="text_10">
      <!-- 0.015 -->
      <g transform="translate(99.371875 339.985805)scale(0.1 -0.1)">
       <use xlink:href="#DejaVuSans-30"/>
       <use xlink:href="#DejaVuSans-2e" x="63.623047"/>
       <use xlink:href="#DejaVuSans-30" x="95.410156"/>
       <use xlink:href="#DejaVuSans-31" x="159.033203"/>
       <use xlink:href="#DejaVuSans-35" x="222.65625"/>
      </g>
     </g>
    </g>
    <g id="ytick_5">
     <g id="line2d_11">
      <g>
       <use xlink:href="#m29391acf33" x="135" y="277.368782" style="stroke: #000000; stroke-width: 0.8"/>
      </g>
     </g>
     <g id="text_11">
      <!-- 0.020 -->
      <g transform="translate(99.371875 281.168001)scale(0.1 -0.1)">
       <use xlink:href="#DejaVuSans-30"/>
       <use xlink:href="#DejaVuSans-2e" x="63.623047"/>
       <use xlink:href="#DejaVuSans-30" x="95.410156"/>
       <use xlink:href="#DejaVuSans-32" x="159.033203"/>
       <use xlink:href="#DejaVuSans-30" x="222.65625"/>
      </g>
     </g>
    </g>
    <g id="ytick_6">
     <g id="line2d_12">
      <g>
       <use xlink:href="#m29391acf33" x="135" y="218.550978" style="stroke: #000000; stroke-width: 0.8"/>
      </g>
     </g>
     <g id="text_12">
      <!-- 0.025 -->
      <g transform="translate(99.371875 222.350196)scale(0.1 -0.1)">
       <use xlink:href="#DejaVuSans-30"/>
       <use xlink:href="#DejaVuSans-2e" x="63.623047"/>
       <use xlink:href="#DejaVuSans-30" x="95.410156"/>
       <use xlink:href="#DejaVuSans-32" x="159.033203"/>
       <use xlink:href="#DejaVuSans-35" x="222.65625"/>
      </g>
     </g>
    </g>
    <g id="ytick_7">
     <g id="line2d_13">
      <g>
       <use xlink:href="#m29391acf33" x="135" y="159.733173" style="stroke: #000000; stroke-width: 0.8"/>
      </g>
     </g>
     <g id="text_13">
      <!-- 0.030 -->
      <g transform="translate(99.371875 163.532392)scale(0.1 -0.1)">
       <defs>
        <path id="DejaVuSans-33" d="M 2597 2516 
Q 3050 2419 3304 2112 
Q 3559 1806 3559 1356 
Q 3559 666 3084 287 
Q 2609 -91 1734 -91 
Q 1441 -91 1130 -33 
Q 819 25 488 141 
L 488 750 
Q 750 597 1062 519 
Q 1375 441 1716 441 
Q 2309 441 2620 675 
Q 2931 909 2931 1356 
Q 2931 1769 2642 2001 
Q 2353 2234 1838 2234 
L 1294 2234 
L 1294 2753 
L 1863 2753 
Q 2328 2753 2575 2939 
Q 2822 3125 2822 3475 
Q 2822 3834 2567 4026 
Q 2313 4219 1838 4219 
Q 1578 4219 1281 4162 
Q 984 4106 628 3988 
L 628 4550 
Q 988 4650 1302 4700 
Q 1616 4750 1894 4750 
Q 2613 4750 3031 4423 
Q 3450 4097 3450 3541 
Q 3450 3153 3228 2886 
Q 3006 2619 2597 2516 
z
" transform="scale(0.015625)"/>
       </defs>
       <use xlink:href="#DejaVuSans-30"/>
       <use xlink:href="#DejaVuSans-2e" x="63.623047"/>
       <use xlink:href="#DejaVuSans-30" x="95.410156"/>
       <use xlink:href="#DejaVuSans-33" x="159.033203"/>
       <use xlink:href="#DejaVuSans-30" x="222.65625"/>
      </g>
     </g>
    </g>
    <g id="ytick_8">
     <g id="line2d_14">
      <g>
       <use xlink:href="#m29391acf33" x="135" y="100.915369" style="stroke: #000000; stroke-width: 0.8"/>
      </g>
     </g>
     <g id="text_14">
      <!-- 0.035 -->
      <g transform="translate(99.371875 104.714588)scale(0.1 -0.1)">
       <use xlink:href="#DejaVuSans-30"/>
       <use xlink:href="#DejaVuSans-2e" x="63.623047"/>
       <use xlink:href="#DejaVuSans-30" x="95.410156"/>
       <use xlink:href="#DejaVuSans-33" x="159.033203"/>
       <use xlink:href="#DejaVuSans-35" x="222.65625"/>
      </g>
     </g>
    </g>
   </g>
   <g id="line2d_15">
    <path d="M 173.045455 508.412252 
L 180.731405 507.159451 
L 188.417355 505.589199 
L 196.103306 503.637726 
L 203.789256 501.233157 
L 211.475207 498.295742 
L 219.161157 494.73847 
L 226.847107 490.468166 
L 234.533058 485.387114 
L 242.219008 479.395271 
L 249.904959 472.393093 
L 257.590909 464.284972 
L 265.27686 454.983246 
L 272.96281 444.412707 
L 280.64876 432.515466 
L 288.334711 419.256036 
L 296.020661 404.626384 
L 303.706612 388.650724 
L 311.392562 371.389772 
L 319.078512 352.944159 
L 326.764463 333.456726 
L 334.450413 313.113426 
L 342.136364 292.142617 
L 349.822314 270.812578 
L 357.508264 249.427161 
L 365.194215 228.319609 
L 372.880165 207.844634 
L 380.566116 188.368987 
L 388.252066 170.260849 
L 395.938017 153.878436 
L 403.623967 139.558322 
L 411.309917 127.603989 
L 418.995868 118.275157 
L 426.681818 111.778406 
L 434.367769 108.259577 
L 442.053719 107.798328 
L 449.739669 110.405134 
L 457.42562 116.020895 
L 465.11157 124.51916 
L 472.797521 135.710862 
L 480.483471 149.351313 
L 488.169421 165.149088 
L 495.855372 182.776362 
L 503.541322 201.880187 
L 511.227273 222.094151 
L 518.913223 243.049917 
L 526.599174 264.388109 
L 534.285124 285.768139 
L 541.971074 306.876606 
L 549.657025 327.434017 
L 557.342975 347.199694 
L 565.028926 365.974809 
L 572.714876 383.603613 
L 580.400826 399.972994 
L 588.086777 415.010576 
L 595.772727 428.681608 
L 603.458678 440.984931 
L 611.144628 451.948324 
L 618.830579 461.623488 
L 626.516529 470.080961 
L 634.202479 477.405162 
L 641.88843 483.689761 
L 649.57438 489.033508 
L 657.260331 493.536623 
L 664.946281 497.297777 
L 672.632231 500.411708 
L 680.318182 502.96741 
L 688.004132 505.0469 
L 695.690083 506.724453 
L 703.376033 508.066274 
L 711.061983 509.130504 
L 718.747934 509.967494 
L 726.433884 510.620275 
L 734.119835 511.125166 
L 741.805785 511.512446 
L 749.491736 511.807069 
L 757.177686 512.029367 
L 764.863636 512.195726 
L 772.549587 512.31921 
L 780.235537 512.410126 
L 787.921488 512.476522 
L 795.607438 512.524621 
L 803.293388 512.559185 
L 810.979339 512.583823 
L 818.665289 512.601245 
L 826.35124 512.613467 
L 834.03719 512.621972 
L 841.72314 512.627843 
L 849.409091 512.631864 
L 857.095041 512.634597 
L 864.780992 512.636439 
L 872.466942 512.63767 
L 880.152893 512.638488 
L 887.838843 512.639026 
L 895.524793 512.639377 
L 903.210744 512.639605 
L 910.896694 512.639751 
L 918.582645 512.639844 
L 926.268595 512.639904 
L 933.954545 512.639941 
" clip-path="url(#pdd07238abf)" style="fill: none; stroke: #ff7f0e; stroke-width: 1.5; stroke-linecap: square"/>
   </g>
   <g id="patch_104">
    <path d="M 135 512.64 
L 135 69.12 
" style="fill: none; stroke: #000000; stroke-width: 0.8; stroke-linejoin: miter; stroke-linecap: square"/>
   </g>
   <g id="patch_105">
    <path d="M 972 512.64 
L 972 69.12 
" style="fill: none; stroke: #000000; stroke-width: 0.8; stroke-linejoin: miter; stroke-linecap: square"/>
   </g>
   <g id="patch_106">
    <path d="M 135 512.64 
L 972 512.64 
" style="fill: none; stroke: #000000; stroke-width: 0.8; stroke-linejoin: miter; stroke-linecap: square"/>
   </g>
   <g id="patch_107">
    <path d="M 135 69.12 
L 972 69.12 
" style="fill: none; stroke: #000000; stroke-width: 0.8; stroke-linejoin: miter; stroke-linecap: square"/>
   </g>
  </g>
 </g>
 <defs>
  <clipPath id="pdd07238abf">
   <rect x="135" y="69.12" width="837" height="443.52"/>
  </clipPath>
 </defs>
</svg>
