<?xml version="1.0" encoding="utf-8" standalone="no"?>
<!DOCTYPE svg PUBLIC "-//W3C//DTD SVG 1.1//EN"
  "http://www.w3.org/Graphics/SVG/1.1/DTD/svg11.dtd">
<svg xmlns:xlink="http://www.w3.org/1999/xlink" width="1080pt" height="576pt" viewBox="0 0 1080 576" xmlns="http://www.w3.org/2000/svg" version="1.1">
 <metadata>
  <rdf:RDF xmlns:dc="http://purl.org/dc/elements/1.1/" xmlns:cc="http://creativecommons.org/ns#" xmlns:rdf="http://www.w3.org/1999/02/22-rdf-syntax-ns#">
   <cc:Work>
    <dc:type rdf:resource="http://purl.org/dc/dcmitype/StillImage"/>
    <dc:date>2023-11-16T07:32:47.110930</dc:date>
    <dc:format>image/svg+xml</dc:format>
    <dc:creator>
     <cc:Agent>
      <dc:title>Matplotlib v3.5.2, https://matplotlib.org/</dc:title>
     </cc:Agent>
    </dc:creator>
   </cc:Work>
  </rdf:RDF>
 </metadata>
 <defs>
  <style type="text/css">*{stroke-linejoin: round; stroke-linecap: butt}</style>
 </defs>
 <g id="figure_1">
  <g id="patch_1">
   <path d="M 0 576 
L 1080 576 
L 1080 0 
L 0 0 
z
" style="fill: #ffffff"/>
  </g>
  <g id="axes_1">
   <g id="patch_2">
    <path d="M 135 512.64 
L 972 512.64 
L 972 69.12 
L 135 69.12 
z
" style="fill: #ffffff"/>
   </g>
   <g id="matplotlib.axis_1">
    <g id="xtick_1">
     <g id="line2d_1">
      <defs>
       <path id="me4ddc49329" d="M 0 0 
L 0 3.5 
" style="stroke: #000000; stroke-width: 0.8"/>
      </defs>
      <g>
       <use xlink:href="#me4ddc49329" x="173.045455" y="512.64" style="stroke: #000000; stroke-width: 0.8"/>
      </g>
     </g>
     <g id="text_1">
      <!-- 0.5 -->
      <g transform="translate(165.093892 527.238438)scale(0.1 -0.1)">
       <defs>
        <path id="DejaVuSans-30" d="M 2034 4250 
Q 1547 4250 1301 3770 
Q 1056 3291 1056 2328 
Q 1056 1369 1301 889 
Q 1547 409 2034 409 
Q 2525 409 2770 889 
Q 3016 1369 3016 2328 
Q 3016 3291 2770 3770 
Q 2525 4250 2034 4250 
z
M 2034 4750 
Q 2819 4750 3233 4129 
Q 3647 3509 3647 2328 
Q 3647 1150 3233 529 
Q 2819 -91 2034 -91 
Q 1250 -91 836 529 
Q 422 1150 422 2328 
Q 422 3509 836 4129 
Q 1250 4750 2034 4750 
z
" transform="scale(0.015625)"/>
        <path id="DejaVuSans-2e" d="M 684 794 
L 1344 794 
L 1344 0 
L 684 0 
L 684 794 
z
" transform="scale(0.015625)"/>
        <path id="DejaVuSans-35" d="M 691 4666 
L 3169 4666 
L 3169 4134 
L 1269 4134 
L 1269 2991 
Q 1406 3038 1543 3061 
Q 1681 3084 1819 3084 
Q 2600 3084 3056 2656 
Q 3513 2228 3513 1497 
Q 3513 744 3044 326 
Q 2575 -91 1722 -91 
Q 1428 -91 1123 -41 
Q 819 9 494 109 
L 494 744 
Q 775 591 1075 516 
Q 1375 441 1709 441 
Q 2250 441 2565 725 
Q 2881 1009 2881 1497 
Q 2881 1984 2565 2268 
Q 2250 2553 1709 2553 
Q 1456 2553 1204 2497 
Q 953 2441 691 2322 
L 691 4666 
z
" transform="scale(0.015625)"/>
       </defs>
       <use xlink:href="#DejaVuSans-30"/>
       <use xlink:href="#DejaVuSans-2e" x="63.623047"/>
       <use xlink:href="#DejaVuSans-35" x="95.410156"/>
      </g>
     </g>
    </g>
    <g id="xtick_2">
     <g id="line2d_2">
      <g>
       <use xlink:href="#me4ddc49329" x="281.746753" y="512.64" style="stroke: #000000; stroke-width: 0.8"/>
      </g>
     </g>
     <g id="text_2">
      <!-- 1.0 -->
      <g transform="translate(273.795191 527.238438)scale(0.1 -0.1)">
       <defs>
        <path id="DejaVuSans-31" d="M 794 531 
L 1825 531 
L 1825 4091 
L 703 3866 
L 703 4441 
L 1819 4666 
L 2450 4666 
L 2450 531 
L 3481 531 
L 3481 0 
L 794 0 
L 794 531 
z
" transform="scale(0.015625)"/>
       </defs>
       <use xlink:href="#DejaVuSans-31"/>
       <use xlink:href="#DejaVuSans-2e" x="63.623047"/>
       <use xlink:href="#DejaVuSans-30" x="95.410156"/>
      </g>
     </g>
    </g>
    <g id="xtick_3">
     <g id="line2d_3">
      <g>
       <use xlink:href="#me4ddc49329" x="390.448052" y="512.64" style="stroke: #000000; stroke-width: 0.8"/>
      </g>
     </g>
     <g id="text_3">
      <!-- 1.5 -->
      <g transform="translate(382.496489 527.238438)scale(0.1 -0.1)">
       <use xlink:href="#DejaVuSans-31"/>
       <use xlink:href="#DejaVuSans-2e" x="63.623047"/>
       <use xlink:href="#DejaVuSans-35" x="95.410156"/>
      </g>
     </g>
    </g>
    <g id="xtick_4">
     <g id="line2d_4">
      <g>
       <use xlink:href="#me4ddc49329" x="499.149351" y="512.64" style="stroke: #000000; stroke-width: 0.8"/>
      </g>
     </g>
     <g id="text_4">
      <!-- 2.0 -->
      <g transform="translate(491.197788 527.238438)scale(0.1 -0.1)">
       <defs>
        <path id="DejaVuSans-32" d="M 1228 531 
L 3431 531 
L 3431 0 
L 469 0 
L 469 531 
Q 828 903 1448 1529 
Q 2069 2156 2228 2338 
Q 2531 2678 2651 2914 
Q 2772 3150 2772 3378 
Q 2772 3750 2511 3984 
Q 2250 4219 1831 4219 
Q 1534 4219 1204 4116 
Q 875 4013 500 3803 
L 500 4441 
Q 881 4594 1212 4672 
Q 1544 4750 1819 4750 
Q 2544 4750 2975 4387 
Q 3406 4025 3406 3419 
Q 3406 3131 3298 2873 
Q 3191 2616 2906 2266 
Q 2828 2175 2409 1742 
Q 1991 1309 1228 531 
z
" transform="scale(0.015625)"/>
       </defs>
       <use xlink:href="#DejaVuSans-32"/>
       <use xlink:href="#DejaVuSans-2e" x="63.623047"/>
       <use xlink:href="#DejaVuSans-30" x="95.410156"/>
      </g>
     </g>
    </g>
    <g id="xtick_5">
     <g id="line2d_5">
      <g>
       <use xlink:href="#me4ddc49329" x="607.850649" y="512.64" style="stroke: #000000; stroke-width: 0.8"/>
      </g>
     </g>
     <g id="text_5">
      <!-- 2.5 -->
      <g transform="translate(599.899087 527.238438)scale(0.1 -0.1)">
       <use xlink:href="#DejaVuSans-32"/>
       <use xlink:href="#DejaVuSans-2e" x="63.623047"/>
       <use xlink:href="#DejaVuSans-35" x="95.410156"/>
      </g>
     </g>
    </g>
    <g id="xtick_6">
     <g id="line2d_6">
      <g>
       <use xlink:href="#me4ddc49329" x="716.551948" y="512.64" style="stroke: #000000; stroke-width: 0.8"/>
      </g>
     </g>
     <g id="text_6">
      <!-- 3.0 -->
      <g transform="translate(708.600386 527.238438)scale(0.1 -0.1)">
       <defs>
        <path id="DejaVuSans-33" d="M 2597 2516 
Q 3050 2419 3304 2112 
Q 3559 1806 3559 1356 
Q 3559 666 3084 287 
Q 2609 -91 1734 -91 
Q 1441 -91 1130 -33 
Q 819 25 488 141 
L 488 750 
Q 750 597 1062 519 
Q 1375 441 1716 441 
Q 2309 441 2620 675 
Q 2931 909 2931 1356 
Q 2931 1769 2642 2001 
Q 2353 2234 1838 2234 
L 1294 2234 
L 1294 2753 
L 1863 2753 
Q 2328 2753 2575 2939 
Q 2822 3125 2822 3475 
Q 2822 3834 2567 4026 
Q 2313 4219 1838 4219 
Q 1578 4219 1281 4162 
Q 984 4106 628 3988 
L 628 4550 
Q 988 4650 1302 4700 
Q 1616 4750 1894 4750 
Q 2613 4750 3031 4423 
Q 3450 4097 3450 3541 
Q 3450 3153 3228 2886 
Q 3006 2619 2597 2516 
z
" transform="scale(0.015625)"/>
       </defs>
       <use xlink:href="#DejaVuSans-33"/>
       <use xlink:href="#DejaVuSans-2e" x="63.623047"/>
       <use xlink:href="#DejaVuSans-30" x="95.410156"/>
      </g>
     </g>
    </g>
    <g id="xtick_7">
     <g id="line2d_7">
      <g>
       <use xlink:href="#me4ddc49329" x="825.253247" y="512.64" style="stroke: #000000; stroke-width: 0.8"/>
      </g>
     </g>
     <g id="text_7">
      <!-- 3.5 -->
      <g transform="translate(817.301684 527.238438)scale(0.1 -0.1)">
       <use xlink:href="#DejaVuSans-33"/>
       <use xlink:href="#DejaVuSans-2e" x="63.623047"/>
       <use xlink:href="#DejaVuSans-35" x="95.410156"/>
      </g>
     </g>
    </g>
    <g id="xtick_8">
     <g id="line2d_8">
      <g>
       <use xlink:href="#me4ddc49329" x="933.954545" y="512.64" style="stroke: #000000; stroke-width: 0.8"/>
      </g>
     </g>
     <g id="text_8">
      <!-- 4.0 -->
      <g transform="translate(926.002983 527.238438)scale(0.1 -0.1)">
       <defs>
        <path id="DejaVuSans-34" d="M 2419 4116 
L 825 1625 
L 2419 1625 
L 2419 4116 
z
M 2253 4666 
L 3047 4666 
L 3047 1625 
L 3713 1625 
L 3713 1100 
L 3047 1100 
L 3047 0 
L 2419 0 
L 2419 1100 
L 313 1100 
L 313 1709 
L 2253 4666 
z
" transform="scale(0.015625)"/>
       </defs>
       <use xlink:href="#DejaVuSans-34"/>
       <use xlink:href="#DejaVuSans-2e" x="63.623047"/>
       <use xlink:href="#DejaVuSans-30" x="95.410156"/>
      </g>
     </g>
    </g>
   </g>
   <g id="matplotlib.axis_2">
    <g id="ytick_1">
     <g id="line2d_9">
      <defs>
       <path id="m197d47844f" d="M 0 0 
L -3.5 0 
" style="stroke: #000000; stroke-width: 0.8"/>
      </defs>
      <g>
       <use xlink:href="#m197d47844f" x="135" y="512.64" style="stroke: #000000; stroke-width: 0.8"/>
      </g>
     </g>
     <g id="text_9">
      <!-- 0.0 -->
      <g transform="translate(112.096875 516.439219)scale(0.1 -0.1)">
       <use xlink:href="#DejaVuSans-30"/>
       <use xlink:href="#DejaVuSans-2e" x="63.623047"/>
       <use xlink:href="#DejaVuSans-30" x="95.410156"/>
      </g>
     </g>
    </g>
    <g id="ytick_2">
     <g id="line2d_10">
      <g>
       <use xlink:href="#m197d47844f" x="135" y="453.504" style="stroke: #000000; stroke-width: 0.8"/>
      </g>
     </g>
     <g id="text_10">
      <!-- 0.2 -->
      <g transform="translate(112.096875 457.303219)scale(0.1 -0.1)">
       <use xlink:href="#DejaVuSans-30"/>
       <use xlink:href="#DejaVuSans-2e" x="63.623047"/>
       <use xlink:href="#DejaVuSans-32" x="95.410156"/>
      </g>
     </g>
    </g>
    <g id="ytick_3">
     <g id="line2d_11">
      <g>
       <use xlink:href="#m197d47844f" x="135" y="394.368" style="stroke: #000000; stroke-width: 0.8"/>
      </g>
     </g>
     <g id="text_11">
      <!-- 0.4 -->
      <g transform="translate(112.096875 398.167219)scale(0.1 -0.1)">
       <use xlink:href="#DejaVuSans-30"/>
       <use xlink:href="#DejaVuSans-2e" x="63.623047"/>
       <use xlink:href="#DejaVuSans-34" x="95.410156"/>
      </g>
     </g>
    </g>
    <g id="ytick_4">
     <g id="line2d_12">
      <g>
       <use xlink:href="#m197d47844f" x="135" y="335.232" style="stroke: #000000; stroke-width: 0.8"/>
      </g>
     </g>
     <g id="text_12">
      <!-- 0.6 -->
      <g transform="translate(112.096875 339.031219)scale(0.1 -0.1)">
       <defs>
        <path id="DejaVuSans-36" d="M 2113 2584 
Q 1688 2584 1439 2293 
Q 1191 2003 1191 1497 
Q 1191 994 1439 701 
Q 1688 409 2113 409 
Q 2538 409 2786 701 
Q 3034 994 3034 1497 
Q 3034 2003 2786 2293 
Q 2538 2584 2113 2584 
z
M 3366 4563 
L 3366 3988 
Q 3128 4100 2886 4159 
Q 2644 4219 2406 4219 
Q 1781 4219 1451 3797 
Q 1122 3375 1075 2522 
Q 1259 2794 1537 2939 
Q 1816 3084 2150 3084 
Q 2853 3084 3261 2657 
Q 3669 2231 3669 1497 
Q 3669 778 3244 343 
Q 2819 -91 2113 -91 
Q 1303 -91 875 529 
Q 447 1150 447 2328 
Q 447 3434 972 4092 
Q 1497 4750 2381 4750 
Q 2619 4750 2861 4703 
Q 3103 4656 3366 4563 
z
" transform="scale(0.015625)"/>
       </defs>
       <use xlink:href="#DejaVuSans-30"/>
       <use xlink:href="#DejaVuSans-2e" x="63.623047"/>
       <use xlink:href="#DejaVuSans-36" x="95.410156"/>
      </g>
     </g>
    </g>
    <g id="ytick_5">
     <g id="line2d_13">
      <g>
       <use xlink:href="#m197d47844f" x="135" y="276.096" style="stroke: #000000; stroke-width: 0.8"/>
      </g>
     </g>
     <g id="text_13">
      <!-- 0.8 -->
      <g transform="translate(112.096875 279.895219)scale(0.1 -0.1)">
       <defs>
        <path id="DejaVuSans-38" d="M 2034 2216 
Q 1584 2216 1326 1975 
Q 1069 1734 1069 1313 
Q 1069 891 1326 650 
Q 1584 409 2034 409 
Q 2484 409 2743 651 
Q 3003 894 3003 1313 
Q 3003 1734 2745 1975 
Q 2488 2216 2034 2216 
z
M 1403 2484 
Q 997 2584 770 2862 
Q 544 3141 544 3541 
Q 544 4100 942 4425 
Q 1341 4750 2034 4750 
Q 2731 4750 3128 4425 
Q 3525 4100 3525 3541 
Q 3525 3141 3298 2862 
Q 3072 2584 2669 2484 
Q 3125 2378 3379 2068 
Q 3634 1759 3634 1313 
Q 3634 634 3220 271 
Q 2806 -91 2034 -91 
Q 1263 -91 848 271 
Q 434 634 434 1313 
Q 434 1759 690 2068 
Q 947 2378 1403 2484 
z
M 1172 3481 
Q 1172 3119 1398 2916 
Q 1625 2713 2034 2713 
Q 2441 2713 2670 2916 
Q 2900 3119 2900 3481 
Q 2900 3844 2670 4047 
Q 2441 4250 2034 4250 
Q 1625 4250 1398 4047 
Q 1172 3844 1172 3481 
z
" transform="scale(0.015625)"/>
       </defs>
       <use xlink:href="#DejaVuSans-30"/>
       <use xlink:href="#DejaVuSans-2e" x="63.623047"/>
       <use xlink:href="#DejaVuSans-38" x="95.410156"/>
      </g>
     </g>
    </g>
    <g id="ytick_6">
     <g id="line2d_14">
      <g>
       <use xlink:href="#m197d47844f" x="135" y="216.96" style="stroke: #000000; stroke-width: 0.8"/>
      </g>
     </g>
     <g id="text_14">
      <!-- 1.0 -->
      <g transform="translate(112.096875 220.759219)scale(0.1 -0.1)">
       <use xlink:href="#DejaVuSans-31"/>
       <use xlink:href="#DejaVuSans-2e" x="63.623047"/>
       <use xlink:href="#DejaVuSans-30" x="95.410156"/>
      </g>
     </g>
    </g>
    <g id="ytick_7">
     <g id="line2d_15">
      <g>
       <use xlink:href="#m197d47844f" x="135" y="157.824" style="stroke: #000000; stroke-width: 0.8"/>
      </g>
     </g>
     <g id="text_15">
      <!-- 1.2 -->
      <g transform="translate(112.096875 161.623219)scale(0.1 -0.1)">
       <use xlink:href="#DejaVuSans-31"/>
       <use xlink:href="#DejaVuSans-2e" x="63.623047"/>
       <use xlink:href="#DejaVuSans-32" x="95.410156"/>
      </g>
     </g>
    </g>
    <g id="ytick_8">
     <g id="line2d_16">
      <g>
       <use xlink:href="#m197d47844f" x="135" y="98.688" style="stroke: #000000; stroke-width: 0.8"/>
      </g>
     </g>
     <g id="text_16">
      <!-- 1.4 -->
      <g transform="translate(112.096875 102.487219)scale(0.1 -0.1)">
       <use xlink:href="#DejaVuSans-31"/>
       <use xlink:href="#DejaVuSans-2e" x="63.623047"/>
       <use xlink:href="#DejaVuSans-34" x="95.410156"/>
      </g>
     </g>
    </g>
   </g>
   <g id="line2d_17">
    <path d="M 173.045455 39.552 
L 174.952495 119.3188 
L 176.859535 186.051953 
L 178.766576 241.9584 
L 180.673616 288.823821 
L 182.580656 328.104092 
L 184.487697 360.994377 
L 186.394737 363.471909 
L 745.157553 363.581577 
L 787.11244 368.837635 
L 827.160287 373.629846 
L 867.208134 378.193727 
L 907.255981 382.529558 
L 933.954545 385.296 
L 933.954545 385.296 
" clip-path="url(#p1231b34cdb)" style="fill: none; stroke: #1f77b4; stroke-width: 1.5; stroke-linecap: square"/>
   </g>
   <g id="line2d_18">
    <path d="M 174.775315 -1 
L 174.952495 6.9604 
L 176.859535 79.043953 
L 178.766576 139.8144 
L 180.673616 191.120865 
L 182.580656 234.472092 
L 184.487697 271.107657 
L 186.394737 302.052404 
L 188.301777 328.158489 
L 190.208817 343.213215 
L 653.619617 343.213215 
L 657.433698 343.729428 
L 701.295625 350.265549 
L 739.436432 355.736031 
L 775.670198 360.719406 
L 811.903964 365.483014 
L 848.137731 370.024484 
L 884.371497 374.347062 
L 922.512303 378.668062 
L 933.954545 379.92 
L 933.954545 379.92 
" clip-path="url(#p1231b34cdb)" style="fill: none; stroke: #ff7f0e; stroke-width: 1.5; stroke-linecap: square"/>
   </g>
   <g id="line2d_19">
    <path d="M 177.642989 -1 
L 178.766576 37.6704 
L 180.673616 93.417908 
L 182.580656 140.840092 
L 184.487697 181.220937 
L 186.394737 215.622865 
L 188.301777 244.930045 
L 190.208817 269.882182 
L 192.115858 291.101111 
L 194.022898 309.111895 
L 195.929938 321.335527 
L 575.430964 321.412417 
L 645.991456 333.57443 
L 684.132262 339.90583 
L 718.458988 345.386642 
L 752.785714 350.63993 
L 787.11244 355.657764 
L 821.439166 360.4401 
L 855.765892 364.991849 
L 890.092618 369.320939 
L 926.326384 373.659668 
L 933.954545 374.544 
L 933.954545 374.544 
" clip-path="url(#p1231b34cdb)" style="fill: none; stroke: #2ca02c; stroke-width: 1.5; stroke-linecap: square"/>
   </g>
   <g id="line2d_20">
    <path d="M 180.795277 -1 
L 182.580656 47.208092 
L 184.487697 91.334217 
L 186.394737 129.193327 
L 188.301777 161.701601 
L 190.208817 189.626182 
L 192.115858 213.612559 
L 194.022898 234.206295 
L 195.929938 251.870398 
L 197.836979 266.999314 
L 199.744019 279.930261 
L 201.651059 290.952471 
L 203.5581 297.803331 
L 504.870472 297.873175 
L 535.383117 303.771266 
L 625.014012 321.224029 
L 659.340738 327.615395 
L 691.760424 333.420429 
L 722.273069 338.662043 
L 752.785714 343.682753 
L 783.29836 348.483093 
L 813.811005 353.067467 
L 846.23069 357.709415 
L 878.650376 362.125296 
L 912.977102 366.56673 
L 933.954545 369.168 
L 933.954545 369.168 
" clip-path="url(#p1231b34cdb)" style="fill: none; stroke: #d62728; stroke-width: 1.5; stroke-linecap: square"/>
   </g>
   <g id="line2d_21">
    <path d="M 184.390196 -1 
L 184.487697 1.447497 
L 186.394737 42.763788 
L 188.301777 78.473156 
L 190.208817 109.370182 
L 192.115858 136.124008 
L 194.022898 159.300695 
L 195.929938 179.381108 
L 197.836979 196.775314 
L 199.744019 211.834261 
L 201.651059 224.859294 
L 203.5581 236.109963 
L 205.46514 245.810458 
L 207.37218 254.154946 
L 209.279221 261.312 
L 211.186261 267.428316 
L 213.093301 272.583545 
L 440.0311 272.624756 
L 457.194463 276.007477 
L 478.171907 280.399991 
L 506.777512 286.652097 
L 596.408407 306.411155 
L 626.921053 312.841273 
L 655.526658 318.655495 
L 684.132262 324.246123 
L 712.737867 329.606701 
L 741.343472 334.737085 
L 769.949077 339.641269 
L 798.554682 344.325903 
L 829.067327 349.090194 
L 859.579973 353.625283 
L 890.092618 357.942873 
L 922.512303 362.305188 
L 933.954545 363.792 
L 933.954545 363.792 
" clip-path="url(#p1231b34cdb)" style="fill: none; stroke: #9467bd; stroke-width: 1.5; stroke-linecap: square"/>
   </g>
   <g id="line2d_22">
    <path d="M 188.513221 -1 
L 190.208817 29.114182 
L 192.115858 58.635456 
L 194.022898 84.395095 
L 195.929938 106.891817 
L 197.836979 126.551314 
L 199.744019 143.738261 
L 201.651059 158.766118 
L 203.5581 171.905163 
L 205.46514 183.389125 
L 207.37218 193.420675 
L 209.279221 202.176 
L 211.186261 209.808623 
L 213.093301 216.45262 
L 215.000342 222.225321 
L 216.907382 227.2296 
L 218.814422 231.555822 
L 220.721463 235.283493 
L 222.628503 238.482677 
L 224.535543 241.215205 
L 226.442584 243.535718 
L 228.349624 245.49256 
L 230.256664 245.645345 
L 377.09877 245.700873 
L 388.541012 247.595759 
L 399.983254 249.728964 
L 413.332536 252.46089 
L 428.588859 255.831808 
L 445.752221 259.854407 
L 468.636705 265.460761 
L 510.591593 276.03292 
L 552.54648 286.526597 
L 583.059125 293.929093 
L 609.75769 300.190352 
L 636.456254 306.226469 
L 663.154819 312.026685 
L 689.853383 317.587867 
L 716.551948 322.912 
L 743.250513 328.00444 
L 769.949077 332.872691 
L 796.647642 337.52556 
L 825.253247 342.282586 
L 853.858852 346.815367 
L 884.371497 351.416777 
L 914.884142 355.791146 
L 933.954545 358.416 
L 933.954545 358.416 
" clip-path="url(#p1231b34cdb)" style="fill: none; stroke: #8c564b; stroke-width: 1.5; stroke-linecap: square"/>
   </g>
   <g id="line2d_23">
    <path d="M 193.317109 -1 
L 194.022898 9.489495 
L 195.929938 34.402527 
L 197.836979 56.327314 
L 199.744019 75.642261 
L 201.651059 92.672941 
L 203.5581 107.700363 
L 205.46514 120.967792 
L 207.37218 132.686405 
L 209.279221 143.04 
L 211.186261 152.188931 
L 213.093301 160.27342 
L 215.000342 167.416345 
L 216.907382 173.7256 
L 218.814422 179.296101 
L 220.721463 184.211493 
L 222.628503 188.54561 
L 224.535543 192.363727 
L 226.442584 195.723632 
L 228.349624 198.67656 
L 230.256664 201.267987 
L 232.163705 203.538327 
L 234.070745 205.523536 
L 235.977785 207.255631 
L 237.884826 208.763153 
L 239.791866 210.071565 
L 241.698906 211.203596 
L 243.605947 212.179556 
L 245.512987 213.0176 
L 249.327068 214.343184 
L 253.141148 215.290849 
L 256.955229 215.949192 
L 260.76931 216.389294 
L 266.490431 216.76186 
L 274.118592 216.938279 
L 300.817157 217.183604 
L 310.352358 217.618984 
L 317.980519 218.166857 
L 325.608681 218.896106 
L 335.143882 220.055181 
L 344.679084 221.471309 
L 354.214286 223.12 
L 363.749487 224.974585 
L 375.191729 227.434299 
L 386.633971 230.10817 
L 399.983254 233.445138 
L 415.239576 237.477648 
L 434.309979 242.744805 
L 462.915584 250.899394 
L 522.033835 267.794638 
L 550.63944 275.70071 
L 575.430964 282.331235 
L 600.222488 288.731571 
L 625.014012 294.890029 
L 649.805537 300.802621 
L 674.597061 306.470616 
L 699.388585 311.898816 
L 724.180109 317.094329 
L 748.971634 322.065701 
L 773.763158 326.822309 
L 800.461722 331.715843 
L 827.160287 336.383968 
L 855.765892 341.149218 
L 884.371497 345.684205 
L 912.977102 350.002838 
L 933.954545 353.04 
L 933.954545 353.04 
" clip-path="url(#p1231b34cdb)" style="fill: none; stroke: #e377c2; stroke-width: 1.5; stroke-linecap: square"/>
   </g>
   <g id="line2d_24">
    <path d="M 198.983953 -1 
L 199.744019 7.546261 
L 201.651059 26.579765 
L 203.5581 43.495563 
L 205.46514 58.546458 
L 207.37218 71.952135 
L 209.279221 83.904 
L 211.186261 94.569239 
L 213.093301 104.09422 
L 215.000342 112.607369 
L 216.907382 120.2216 
L 218.814422 127.03638 
L 220.721463 133.139493 
L 222.628503 138.608544 
L 224.535543 143.512248 
L 226.442584 147.911547 
L 228.349624 151.86056 
L 230.256664 155.407416 
L 232.163705 158.594967 
L 234.070745 161.461418 
L 235.977785 164.040862 
L 237.884826 166.363757 
L 239.791866 168.457343 
L 241.698906 170.345996 
L 243.605947 172.051556 
L 245.512987 173.5936 
L 249.327068 176.25559 
L 253.141148 178.45203 
L 256.955229 180.279859 
L 260.76931 181.817479 
L 264.58339 183.128372 
L 270.304511 184.779378 
L 276.025632 186.168001 
L 283.653794 187.77629 
L 300.817157 191.053744 
L 314.166439 193.707117 
L 325.608681 196.197439 
L 337.050923 198.916971 
L 348.493165 201.859594 
L 361.842447 205.544694 
L 375.191729 209.456955 
L 392.355092 214.742812 
L 413.332536 221.46547 
L 449.566302 233.368631 
L 487.707109 245.821362 
L 514.405673 254.29758 
L 537.290157 261.341706 
L 560.174641 268.154614 
L 583.059125 274.722529 
L 605.943609 281.039641 
L 628.828093 287.105727 
L 651.712577 292.924417 
L 674.597061 298.501935 
L 697.481545 303.846196 
L 720.366029 308.966148 
L 743.250513 313.871308 
L 768.042037 318.954156 
L 792.833561 323.808765 
L 817.625085 328.447297 
L 844.32365 333.214494 
L 871.022215 337.758832 
L 899.62782 342.395623 
L 928.233424 346.807367 
L 933.954545 347.664 
L 933.954545 347.664 
" clip-path="url(#p1231b34cdb)" style="fill: none; stroke: #7f7f7f; stroke-width: 1.5; stroke-linecap: square"/>
   </g>
   <g id="line2d_25">
    <path d="M 205.828394 -1 
L 207.37218 11.217865 
L 209.279221 24.768 
L 211.186261 36.949546 
L 213.093301 47.91502 
L 215.000342 57.798394 
L 216.907382 66.7176 
L 218.814422 74.776659 
L 220.721463 82.067493 
L 222.628503 88.671477 
L 224.535543 94.66077 
L 226.442584 100.099462 
L 228.349624 105.04456 
L 230.256664 109.546844 
L 232.163705 113.651607 
L 234.070745 117.3993 
L 235.977785 120.826092 
L 237.884826 123.964361 
L 239.791866 126.84312 
L 241.698906 129.488396 
L 243.605947 131.923556 
L 247.420027 136.245414 
L 251.234108 139.952662 
L 255.048189 143.162087 
L 258.862269 145.968664 
L 262.67635 148.449799 
L 266.490431 150.668684 
L 270.304511 152.676978 
L 276.025632 155.384877 
L 281.746753 157.824 
L 289.374915 160.797788 
L 298.910116 164.253077 
L 319.88756 171.516243 
L 340.865003 178.87236 
L 359.935407 185.796642 
L 382.819891 194.355832 
L 468.636705 226.716485 
L 491.521189 234.965682 
L 512.498633 242.293874 
L 533.476077 249.379533 
L 554.45352 256.212934 
L 575.430964 262.790643 
L 596.408407 269.113761 
L 617.385851 275.186576 
L 638.363295 281.015572 
L 659.340738 286.60868 
L 680.318182 291.974732 
L 701.295625 297.123062 
L 724.180109 302.502329 
L 747.064593 307.646235 
L 769.949077 312.566956 
L 794.740602 317.659563 
L 819.532126 322.518493 
L 844.32365 327.157437 
L 871.022215 331.922032 
L 897.720779 336.461671 
L 926.326384 341.092015 
L 933.954545 342.288 
L 933.954545 342.288 
" clip-path="url(#p1231b34cdb)" style="fill: none; stroke: #bcbd22; stroke-width: 1.5; stroke-linecap: square"/>
   </g>
   <g id="line2d_26">
    <path d="M 214.324293 -1 
L 215.000342 2.989418 
L 216.907382 13.2136 
L 218.814422 22.516938 
L 220.721463 30.995493 
L 222.628503 38.73441 
L 224.535543 45.809292 
L 226.442584 52.287377 
L 228.349624 58.22856 
L 230.256664 63.686273 
L 232.163705 68.708247 
L 234.070745 73.337183 
L 235.977785 77.611323 
L 237.884826 81.564965 
L 239.791866 85.228898 
L 241.698906 88.630796 
L 245.512987 94.7456 
L 249.327068 100.080404 
L 253.141148 104.77439 
L 256.955229 108.941192 
L 260.76931 112.673848 
L 264.58339 116.04873 
L 268.397471 119.128663 
L 272.211552 121.965425 
L 277.932673 125.856046 
L 283.653794 129.40829 
L 289.374915 132.708188 
L 297.003076 136.825086 
L 306.538278 141.665302 
L 317.980519 147.203657 
L 335.143882 155.233027 
L 363.749487 168.323291 
L 394.262133 182.052692 
L 419.053657 192.963494 
L 440.0311 201.959095 
L 459.101504 209.912488 
L 478.171907 217.629935 
L 497.24231 225.097692 
L 516.312714 232.308298 
L 535.383117 239.259266 
L 554.45352 245.951893 
L 573.523923 252.390272 
L 592.594327 258.580504 
L 611.66473 264.530067 
L 630.735133 270.247347 
L 649.805537 275.741268 
L 668.87594 281.021023 
L 689.853383 286.592446 
L 710.830827 291.928143 
L 731.808271 297.040046 
L 754.692755 302.374979 
L 777.577239 307.471653 
L 800.461722 312.343705 
L 825.253247 317.383218 
L 850.044771 322.189634 
L 874.836295 326.777348 
L 901.53486 331.488755 
L 928.233424 335.977642 
L 933.954545 336.912 
L 933.954545 336.912 
" clip-path="url(#p1231b34cdb)" style="fill: none; stroke: #17becf; stroke-width: 1.5; stroke-linecap: square"/>
   </g>
   <g id="line2d_27">
    <path d="M 225.053607 -1 
L 226.442584 4.475292 
L 228.349624 11.41256 
L 230.256664 17.825701 
L 232.163705 23.764887 
L 234.070745 29.275065 
L 235.977785 34.396554 
L 237.884826 39.165569 
L 239.791866 43.614676 
L 243.605947 51.667556 
L 247.420027 58.756862 
L 251.234108 65.047062 
L 255.048189 70.672797 
L 258.862269 75.744664 
L 262.67635 80.353799 
L 266.490431 84.575507 
L 270.304511 88.472178 
L 274.118592 92.095612 
L 277.932673 95.488911 
L 283.653794 100.22429 
L 289.374915 104.618588 
L 295.096036 108.746205 
L 302.724197 113.931439 
L 310.352358 118.842369 
L 319.88756 124.700243 
L 331.329802 131.43524 
L 344.679084 139.006429 
L 359.935407 147.383514 
L 377.09877 156.52754 
L 394.262133 165.407003 
L 411.425496 174.030084 
L 428.588859 182.394946 
L 445.752221 190.49737 
L 462.915584 198.334061 
L 480.078947 205.903848 
L 497.24231 213.207914 
L 514.405673 220.24958 
L 531.569036 227.033943 
L 548.732399 233.567476 
L 565.895762 239.857663 
L 583.059125 245.912683 
L 600.222488 251.741151 
L 617.385851 257.351909 
L 636.456254 263.341584 
L 655.526658 269.085613 
L 674.597061 274.595893 
L 693.667464 279.883971 
L 714.644908 285.457486 
L 735.622351 290.789762 
L 756.599795 295.894246 
L 777.577239 300.783653 
L 800.461722 305.886326 
L 823.346206 310.761896 
L 848.137731 315.803273 
L 872.929255 320.610222 
L 897.720779 325.197671 
L 924.419344 329.908354 
L 933.954545 331.536 
L 933.954545 331.536 
" clip-path="url(#p1231b34cdb)" style="fill: none; stroke: #1f77b4; stroke-width: 1.5; stroke-linecap: square"/>
   </g>
   <g id="patch_3">
    <path d="M 135 512.64 
L 135 69.12 
" style="fill: none; stroke: #000000; stroke-width: 0.8; stroke-linejoin: miter; stroke-linecap: square"/>
   </g>
   <g id="patch_4">
    <path d="M 972 512.64 
L 972 69.12 
" style="fill: none; stroke: #000000; stroke-width: 0.8; stroke-linejoin: miter; stroke-linecap: square"/>
   </g>
   <g id="patch_5">
    <path d="M 135 512.64 
L 972 512.64 
" style="fill: none; stroke: #000000; stroke-width: 0.8; stroke-linejoin: miter; stroke-linecap: square"/>
   </g>
   <g id="patch_6">
    <path d="M 135 69.12 
L 972 69.12 
" style="fill: none; stroke: #000000; stroke-width: 0.8; stroke-linejoin: miter; stroke-linecap: square"/>
   </g>
  </g>
 </g>
 <defs>
  <clipPath id="p1231b34cdb">
   <rect x="135" y="69.12" width="837" height="443.52"/>
  </clipPath>
 </defs>
</svg>
