<?xml version="1.0" encoding="UTF-8" standalone="no"?>
<!-- Created with Inkscape (http://www.inkscape.org/) -->

<svg
   width="138.46877mm"
   height="53.85873mm"
   viewBox="0 0 138.46877 53.858731"
   version="1.1"
   id="svg5"
   sodipodi:docname="intervalles.svg"
   inkscape:version="1.1.2 (0a00cf5339, 2022-02-04)"
   xmlns:inkscape="http://www.inkscape.org/namespaces/inkscape"
   xmlns:sodipodi="http://sodipodi.sourceforge.net/DTD/sodipodi-0.dtd"
   xmlns:xlink="http://www.w3.org/1999/xlink"
   xmlns="http://www.w3.org/2000/svg"
   xmlns:svg="http://www.w3.org/2000/svg">
  <sodipodi:namedview
     id="namedview7"
     pagecolor="#ffffff"
     bordercolor="#666666"
     borderopacity="1.0"
     inkscape:pageshadow="2"
     inkscape:pageopacity="0.0"
     inkscape:pagecheckerboard="0"
     inkscape:document-units="mm"
     showgrid="false"
     showguides="true"
     inkscape:guide-bbox="true"
     inkscape:zoom="1.2810466"
     inkscape:cx="-129.19124"
     inkscape:cy="67.13261"
     inkscape:window-width="1920"
     inkscape:window-height="1051"
     inkscape:window-x="0"
     inkscape:window-y="0"
     inkscape:window-maximized="1"
     inkscape:current-layer="layer1"
     inkscape:object-paths="true"
     inkscape:snap-intersection-paths="true"
     inkscape:snap-smooth-nodes="true"
     inkscape:snap-midpoints="true"
     inkscape:snap-bbox="true"
     inkscape:bbox-nodes="true"
     inkscape:bbox-paths="true"
     inkscape:snap-bbox-edge-midpoints="true"
     inkscape:snap-bbox-midpoints="true"
     fit-margin-top="0"
     fit-margin-left="0"
     fit-margin-right="0"
     fit-margin-bottom="0">
    <sodipodi:guide
       position="36.565094,39.716012"
       orientation="0,-1"
       id="guide44" />
    <sodipodi:guide
       position="2.1501189,37.617462"
       orientation="1,0"
       id="guide1972" />
    <sodipodi:guide
       position="8.595741,37.617472"
       orientation="1,0"
       id="guide1974" />
    <sodipodi:guide
       position="2.1501189,28.902952"
       orientation="1,0"
       id="guide5803" />
    <sodipodi:guide
       position="51.476894,27.663731"
       orientation="1,0"
       id="guide5991" />
    <sodipodi:guide
       position="66.365559,32.261318"
       orientation="0,-1"
       id="guide10119" />
    <sodipodi:guide
       position="67.362891,34.47835"
       orientation="0,-1"
       id="guide10121" />
    <sodipodi:guide
       position="66.606355,39.715982"
       orientation="1,0"
       id="guide10643" />
  </sodipodi:namedview>
  <defs
     id="defs2">
    <marker
       style="overflow:visible"
       id="Arrow2Mend"
       refX="0"
       refY="0"
       orient="auto"
       inkscape:stockid="Arrow2Mend"
       inkscape:isstock="true">
      <path
         transform="scale(-0.6)"
         d="M 8.7185878,4.0337352 -2.2072895,0.01601326 8.7185884,-4.0017078 c -1.7454984,2.3720609 -1.7354408,5.6174519 -6e-7,8.035443 z"
         style="fill:context-stroke;fill-rule:evenodd;stroke:context-stroke;stroke-width:0.625;stroke-linejoin:round"
         id="path2853" />
    </marker>
    <marker
       style="overflow:visible"
       id="Arrow2Mstart"
       refX="0"
       refY="0"
       orient="auto"
       inkscape:stockid="Arrow2Mstart"
       inkscape:isstock="true">
      <path
         transform="scale(0.6)"
         d="M 8.7185878,4.0337352 -2.2072895,0.01601326 8.7185884,-4.0017078 c -1.7454984,2.3720609 -1.7354408,5.6174519 -6e-7,8.035443 z"
         style="fill:context-stroke;fill-rule:evenodd;stroke:context-stroke;stroke-width:0.625;stroke-linejoin:round"
         id="path2850" />
    </marker>
    <marker
       style="overflow:visible"
       id="Arrow1Mstart"
       refX="0"
       refY="0"
       orient="auto"
       inkscape:stockid="Arrow1Mstart"
       inkscape:isstock="true">
      <path
         transform="matrix(0.4,0,0,0.4,4,0)"
         style="fill:context-stroke;fill-rule:evenodd;stroke:context-stroke;stroke-width:1pt"
         d="M 0,0 5,-5 -12.5,0 5,5 Z"
         id="path2832" />
    </marker>
    <g
       id="g5220">
      <symbol
         overflow="visible"
         id="symbol8205">
        <path
           style="stroke:none"
           d=""
           id="path8251" />
      </symbol>
      <symbol
         overflow="visible"
         id="symbol5168">
        <path
           style="stroke:none"
           d="m 5.796875,-4.921875 c -0.28125,0.09375 -0.734375,0.15625 -1.0625,0.15625 -0.28125,0 -0.78125,0 -1.0625,-0.015625 -0.296875,0 -0.65625,-0.03125 -0.890625,-0.03125 -0.4375,0 -0.859375,0.15625 -1.296875,0.453125 -0.84375,0.578125 -1.3125,1.59375 -1.3125,2.84375 0,1.25 0.453125,1.625 1.109375,1.625 0.4375,0 0.84375,-0.203125 1.328125,-0.640625 C 3.03125,-0.953125 3.46875,-1.578125 3.765625,-2.203125 4,-2.734375 4.1875,-3.40625 4.1875,-3.828125 c 0,-0.125 -0.015625,-0.25 -0.046875,-0.359375 0.328125,0.015625 0.609375,0.015625 0.828125,0.015625 0.171875,0 0.390625,-0.078125 0.546875,-0.140625 0.109375,-0.203125 0.15625,-0.25 0.34375,-0.5 z m -3.40625,0.5 c 0.609375,0 1.140625,0.09375 1.140625,0.875 0,1.484375 -0.953125,3.15625 -1.84375,3.15625 -0.484375,0 -0.765625,-0.453125 -0.765625,-1.109375 0,-1.1875 0.40625,-2.375 0.875,-2.75 0.140625,-0.109375 0.359375,-0.171875 0.59375,-0.171875 z m 0,0"
           id="path414" />
      </symbol>
      <symbol
         overflow="visible"
         id="symbol1427">
        <path
           style="stroke:none"
           d=""
           id="path9545" />
      </symbol>
      <symbol
         overflow="visible"
         id="symbol5051">
        <path
           style="stroke:none"
           d="M 1.25,-3.890625 0.6875,-1.0625 C 0.671875,-1 0.671875,-0.984375 0.640625,-0.859375 0.578125,-0.578125 0.5625,-0.421875 0.5625,-0.3125 c 0,0.25 0.109375,0.40625 0.296875,0.40625 0.34375,0 0.703125,-0.203125 1.46875,-0.828125 l 0.3125,-0.25 -0.09375,-0.1875 -0.453125,0.3125 C 1.796875,-0.65625 1.609375,-0.5625 1.5,-0.5625 c -0.09375,0 -0.140625,-0.078125 -0.140625,-0.1875 0,-0.265625 0.140625,-1.078125 0.421875,-2.515625 l 0.125,-0.625 h 1.078125 l 0.109375,-0.5 C 2.71875,-4.34375 2.375,-4.328125 2,-4.328125 2.15625,-5.265625 2.265625,-5.75 2.4375,-6.296875 L 2.328125,-6.4375 c -0.1875,0.125 -0.46875,0.234375 -0.765625,0.359375 l -0.25,1.6875 c -0.4375,0.21875 -0.703125,0.328125 -0.890625,0.375 l -0.015625,0.125 z m 0,0"
           id="path2536" />
      </symbol>
      <symbol
         overflow="visible"
         id="symbol1384">
        <path
           style="stroke:none"
           d=""
           id="path3074" />
      </symbol>
      <symbol
         overflow="visible"
         id="symbol4966">
        <path
           style="stroke:none"
           d="m 0.140625,-3.03125 h 0.28125 c 0.296875,0 0.328125,0.046875 0.328125,0.546875 v 1.71875 c 0,0.46875 -0.015625,0.515625 -0.28125,0.53125 L 0.125,-0.203125 v 0.21875 C 0.84375,0 0.875,0 1.078125,0 1.296875,0 1.5,0 1.984375,0.015625 v -0.21875 l -0.3125,-0.03125 C 1.40625,-0.25 1.390625,-0.296875 1.390625,-0.765625 V -2.375 c 0,-0.34375 0.5,-0.71875 0.953125,-0.71875 0.40625,0 0.6875,0.390625 0.6875,0.96875 v 1.359375 c 0,0.46875 -0.015625,0.515625 -0.28125,0.53125 l -0.34375,0.03125 v 0.21875 C 3.15625,0 3.15625,0 3.34375,0 c 0.1875,0 0.1875,0 0.953125,0.015625 v -0.21875 l -0.34375,-0.03125 C 3.6875,-0.25 3.671875,-0.296875 3.671875,-0.765625 V -2.375 c 0,-0.34375 0.5,-0.71875 0.953125,-0.71875 0.40625,0 0.6875,0.390625 0.6875,0.96875 V 0.015625 C 5.78125,0 5.78125,0 5.90625,0 6.015625,0 6.015625,0 6.578125,0.015625 v -0.21875 l -0.34375,-0.03125 C 5.96875,-0.25 5.953125,-0.296875 5.953125,-0.765625 v -1.5625 c 0,-0.75 -0.4375,-1.21875 -1.140625,-1.21875 -0.265625,0 -0.484375,0.0625 -0.625,0.1875 L 3.609375,-2.84375 C 3.375,-3.34375 3.0625,-3.546875 2.53125,-3.546875 c -0.265625,0 -0.484375,0.0625 -0.625,0.1875 L 1.390625,-2.875 V -3.53125 L 1.3125,-3.546875 C 0.9375,-3.390625 0.53125,-3.28125 0.140625,-3.25 Z m 0,0"
           id="path8539" />
      </symbol>
      <symbol
         overflow="visible"
         id="symbol2704">
        <path
           style="stroke:none"
           d="M 2.453125,-0.625 2.421875,0.015625 C 2.90625,0 2.90625,0 3.015625,0 3.046875,0 3.234375,0 3.5625,0.015625 v -0.21875 L 3.28125,-0.21875 C 3.09375,-0.234375 3.0625,-0.28125 3.0625,-0.65625 v -1.390625 c 0,-1.109375 -0.3125,-1.5 -1.203125,-1.5 -0.328125,0 -0.625,0.078125 -0.90625,0.25 l -0.40625,0.25 V -2.5625 L 0.75,-2.515625 0.84375,-2.75 C 1,-3.09375 1.078125,-3.15625 1.421875,-3.15625 c 0.71875,0 1.015625,0.28125 1.03125,0.96875 l -0.75,0.140625 C 0.671875,-1.859375 0.25,-1.5 0.25,-0.84375 c 0,0.59375 0.34375,0.9375 0.953125,0.9375 0.125,0 0.265625,-0.03125 0.3125,-0.0625 z m 0,-0.3125 c -0.21875,0.3125 -0.6875,0.59375 -0.984375,0.59375 -0.3125,0 -0.578125,-0.28125 -0.578125,-0.609375 0,-0.28125 0.15625,-0.546875 0.375,-0.6875 C 1.46875,-1.75 1.875,-1.859375 2.453125,-1.9375 Z m 0,0"
           id="path1267" />
      </symbol>
      <symbol
         overflow="visible"
         id="symbol2902">
        <path
           style="stroke:none"
           d="M 2.1875,-1.921875 3.265625,-3.1875 c 0.03125,-0.046875 0.125,-0.078125 0.25,-0.078125 H 3.625 v -0.21875 H 3 L 2.0625,-2.15625 1.484375,-3.03125 C 1.375,-3.203125 1.28125,-3.296875 1.03125,-3.546875 l -0.875,0.140625 0.03125,0.203125 0.15625,0.015625 c 0.140625,0 0.3125,0.109375 0.390625,0.21875 l 0.90625,1.3125 L 0.5,-0.3125 C 0.453125,-0.25 0.359375,-0.203125 0.28125,-0.203125 h -0.125 V 0 H 0.796875 C 0.859375,-0.078125 0.875,-0.109375 0.96875,-0.25 1.078125,-0.46875 1.203125,-0.65625 1.265625,-0.71875 L 1.8125,-1.453125 2.625,-0.234375 2.640625,-0.21875 c 0.0625,0.109375 0.125,0.1875 0.1875,0.234375 C 3.21875,0 3.21875,0 3.28125,0 3.359375,0 3.359375,0 3.765625,0.015625 v -0.21875 L 3.5625,-0.234375 c -0.078125,0 -0.171875,-0.0625 -0.265625,-0.171875 z m 0,0"
           id="path6199" />
      </symbol>
    </g>
    <g
       id="g4316">
      <symbol
         overflow="visible"
         id="symbol3338">
        <path
           style="stroke:none"
           d=""
           id="path6746" />
      </symbol>
      <symbol
         overflow="visible"
         id="symbol5854">
        <path
           style="stroke:none"
           d="m 5.796875,-4.921875 c -0.28125,0.09375 -0.734375,0.15625 -1.0625,0.15625 -0.28125,0 -0.78125,0 -1.0625,-0.015625 -0.296875,0 -0.65625,-0.03125 -0.890625,-0.03125 -0.4375,0 -0.859375,0.15625 -1.296875,0.453125 -0.84375,0.578125 -1.3125,1.59375 -1.3125,2.84375 0,1.25 0.453125,1.625 1.109375,1.625 0.4375,0 0.84375,-0.203125 1.328125,-0.640625 C 3.03125,-0.953125 3.46875,-1.578125 3.765625,-2.203125 4,-2.734375 4.1875,-3.40625 4.1875,-3.828125 c 0,-0.125 -0.015625,-0.25 -0.046875,-0.359375 0.328125,0.015625 0.609375,0.015625 0.828125,0.015625 0.171875,0 0.390625,-0.078125 0.546875,-0.140625 0.109375,-0.203125 0.15625,-0.25 0.34375,-0.5 z m -3.40625,0.5 c 0.609375,0 1.140625,0.09375 1.140625,0.875 0,1.484375 -0.953125,3.15625 -1.84375,3.15625 -0.484375,0 -0.765625,-0.453125 -0.765625,-1.109375 0,-1.1875 0.40625,-2.375 0.875,-2.75 0.140625,-0.109375 0.359375,-0.171875 0.59375,-0.171875 z m 0,0"
           id="path1465" />
      </symbol>
      <symbol
         overflow="visible"
         id="symbol3840">
        <path
           style="stroke:none"
           d=""
           id="path2893" />
      </symbol>
      <symbol
         overflow="visible"
         id="symbol6777">
        <path
           style="stroke:none"
           d="M 1.25,-3.890625 0.6875,-1.0625 C 0.671875,-1 0.671875,-0.984375 0.640625,-0.859375 0.578125,-0.578125 0.5625,-0.421875 0.5625,-0.3125 c 0,0.25 0.109375,0.40625 0.296875,0.40625 0.34375,0 0.703125,-0.203125 1.46875,-0.828125 l 0.3125,-0.25 -0.09375,-0.1875 -0.453125,0.3125 C 1.796875,-0.65625 1.609375,-0.5625 1.5,-0.5625 c -0.09375,0 -0.140625,-0.078125 -0.140625,-0.1875 0,-0.265625 0.140625,-1.078125 0.421875,-2.515625 l 0.125,-0.625 h 1.078125 l 0.109375,-0.5 C 2.71875,-4.34375 2.375,-4.328125 2,-4.328125 2.15625,-5.265625 2.265625,-5.75 2.4375,-6.296875 L 2.328125,-6.4375 c -0.1875,0.125 -0.46875,0.234375 -0.765625,0.359375 l -0.25,1.6875 c -0.4375,0.21875 -0.703125,0.328125 -0.890625,0.375 l -0.015625,0.125 z m 0,0"
           id="path4050" />
      </symbol>
      <symbol
         overflow="visible"
         id="symbol3741">
        <path
           style="stroke:none"
           d=""
           id="path2903" />
      </symbol>
      <symbol
         overflow="visible"
         id="symbol9284">
        <path
           style="stroke:none"
           d="m 0.140625,-3.03125 h 0.28125 c 0.296875,0 0.328125,0.046875 0.328125,0.546875 v 1.71875 c 0,0.46875 -0.015625,0.515625 -0.28125,0.53125 L 0.125,-0.203125 v 0.21875 C 0.84375,0 0.875,0 1.078125,0 1.296875,0 1.5,0 1.984375,0.015625 v -0.21875 l -0.3125,-0.03125 C 1.40625,-0.25 1.390625,-0.296875 1.390625,-0.765625 V -2.375 c 0,-0.34375 0.5,-0.71875 0.953125,-0.71875 0.40625,0 0.6875,0.390625 0.6875,0.96875 v 1.359375 c 0,0.46875 -0.015625,0.515625 -0.28125,0.53125 l -0.34375,0.03125 v 0.21875 C 3.15625,0 3.15625,0 3.34375,0 c 0.1875,0 0.1875,0 0.953125,0.015625 v -0.21875 l -0.34375,-0.03125 C 3.6875,-0.25 3.671875,-0.296875 3.671875,-0.765625 V -2.375 c 0,-0.34375 0.5,-0.71875 0.953125,-0.71875 0.40625,0 0.6875,0.390625 0.6875,0.96875 V 0.015625 C 5.78125,0 5.78125,0 5.90625,0 6.015625,0 6.015625,0 6.578125,0.015625 v -0.21875 l -0.34375,-0.03125 C 5.96875,-0.25 5.953125,-0.296875 5.953125,-0.765625 v -1.5625 c 0,-0.75 -0.4375,-1.21875 -1.140625,-1.21875 -0.265625,0 -0.484375,0.0625 -0.625,0.1875 L 3.609375,-2.84375 C 3.375,-3.34375 3.0625,-3.546875 2.53125,-3.546875 c -0.265625,0 -0.484375,0.0625 -0.625,0.1875 L 1.390625,-2.875 V -3.53125 L 1.3125,-3.546875 C 0.9375,-3.390625 0.53125,-3.28125 0.140625,-3.25 Z m 0,0"
           id="path1349" />
      </symbol>
      <symbol
         overflow="visible"
         id="symbol3198">
        <path
           style="stroke:none"
           d="M 2.453125,-0.625 2.421875,0.015625 C 2.90625,0 2.90625,0 3.015625,0 3.046875,0 3.234375,0 3.5625,0.015625 v -0.21875 L 3.28125,-0.21875 C 3.09375,-0.234375 3.0625,-0.28125 3.0625,-0.65625 v -1.390625 c 0,-1.109375 -0.3125,-1.5 -1.203125,-1.5 -0.328125,0 -0.625,0.078125 -0.90625,0.25 l -0.40625,0.25 V -2.5625 L 0.75,-2.515625 0.84375,-2.75 C 1,-3.09375 1.078125,-3.15625 1.421875,-3.15625 c 0.71875,0 1.015625,0.28125 1.03125,0.96875 l -0.75,0.140625 C 0.671875,-1.859375 0.25,-1.5 0.25,-0.84375 c 0,0.59375 0.34375,0.9375 0.953125,0.9375 0.125,0 0.265625,-0.03125 0.3125,-0.0625 z m 0,-0.3125 c -0.21875,0.3125 -0.6875,0.59375 -0.984375,0.59375 -0.3125,0 -0.578125,-0.28125 -0.578125,-0.609375 0,-0.28125 0.15625,-0.546875 0.375,-0.6875 C 1.46875,-1.75 1.875,-1.859375 2.453125,-1.9375 Z m 0,0"
           id="path3318" />
      </symbol>
      <symbol
         overflow="visible"
         id="symbol9833">
        <path
           style="stroke:none"
           d="M 2.1875,-1.921875 3.265625,-3.1875 c 0.03125,-0.046875 0.125,-0.078125 0.25,-0.078125 H 3.625 v -0.21875 H 3 L 2.0625,-2.15625 1.484375,-3.03125 C 1.375,-3.203125 1.28125,-3.296875 1.03125,-3.546875 l -0.875,0.140625 0.03125,0.203125 0.15625,0.015625 c 0.140625,0 0.3125,0.109375 0.390625,0.21875 l 0.90625,1.3125 L 0.5,-0.3125 C 0.453125,-0.25 0.359375,-0.203125 0.28125,-0.203125 h -0.125 V 0 H 0.796875 C 0.859375,-0.078125 0.875,-0.109375 0.96875,-0.25 1.078125,-0.46875 1.203125,-0.65625 1.265625,-0.71875 L 1.8125,-1.453125 2.625,-0.234375 2.640625,-0.21875 c 0.0625,0.109375 0.125,0.1875 0.1875,0.234375 C 3.21875,0 3.21875,0 3.28125,0 3.359375,0 3.359375,0 3.765625,0.015625 v -0.21875 L 3.5625,-0.234375 c -0.078125,0 -0.171875,-0.0625 -0.265625,-0.171875 z m 0,0"
           id="path9474" />
      </symbol>
    </g>
    <g
       id="g5097">
      <symbol
         overflow="visible"
         id="symbol8139">
        <path
           style="stroke:none"
           d=""
           id="path5360" />
      </symbol>
      <symbol
         overflow="visible"
         id="symbol9455">
        <path
           style="stroke:none"
           d="M 4.390625,-6.8125 C 4.21875,-6.9375 3.4375,-7.09375 3.1875,-7.09375 c -0.78125,0 -1.140625,0.4375 -1.140625,1.046875 0,0.53125 0.15625,0.859375 0.46875,1.46875 -0.09375,0.046875 -0.1875,0.125 -0.25,0.171875 C 1.75,-3.953125 1.234375,-3.46875 0.84375,-2.921875 0.546875,-2.53125 0.171875,-1.9375 0.171875,-1.390625 c 0,1.234375 0.453125,1.5 1.109375,1.5 0.4375,0 0.828125,-0.203125 1.328125,-0.640625 0.078125,-0.0625 0.15625,-0.140625 0.234375,-0.234375 0.5,-0.5 1.125,-1.28125 1.125,-2.0625 0,-0.90625 -0.359375,-1.421875 -0.703125,-1.84375 -0.359375,-0.46875 -0.9375,-1.1875 -0.9375,-1.625 0,-0.21875 0.1875,-0.46875 0.546875,-0.46875 0.296875,0 0.5,0.109375 0.734375,0.21875 0.078125,0.046875 0.375,0.234375 0.5,0.484375 L 4.21875,-6.109375 C 4.265625,-6.265625 4.3125,-6.53125 4.40625,-6.71875 Z m -1.1875,4.84375 c -0.3125,0.75 -0.953125,1.578125 -1.515625,1.578125 -0.484375,0 -0.765625,-0.453125 -0.765625,-1.109375 0,-0.171875 0.078125,-0.4375 0.125,-0.609375 0.234375,-0.828125 0.78125,-1.5 1.453125,-2.046875 0.046875,-0.046875 0.109375,-0.078125 0.203125,-0.125 0.28125,0.5 0.609375,1.078125 0.609375,1.78125 0,0.171875 -0.0625,0.421875 -0.109375,0.53125 z m 0,0"
           id="path727" />
      </symbol>
    </g>
    <g
       id="g2859">
      <symbol
         overflow="visible"
         id="symbol300">
        <path
           style="stroke:none"
           d=""
           id="path8061" />
      </symbol>
      <symbol
         overflow="visible"
         id="symbol6608">
        <path
           style="stroke:none"
           d="M 0.15625,-0.234375 V 0.03125 C 2.03125,0 2.03125,0 2.375,0 c 0.359375,0 0.359375,0 2.296875,0.03125 -0.03125,-0.203125 -0.03125,-0.3125 -0.03125,-0.453125 0,-0.125 0,-0.21875 0.03125,-0.453125 C 3.515625,-0.8125 3.0625,-0.8125 1.21875,-0.765625 L 3.03125,-2.6875 C 4,-3.71875 4.296875,-4.265625 4.296875,-5.015625 4.296875,-6.15625 3.515625,-6.875 2.25,-6.875 c -0.71875,0 -1.203125,0.203125 -1.6875,0.703125 L 0.390625,-4.8125 h 0.28125 L 0.8125,-5.28125 C 0.96875,-5.859375 1.328125,-6.09375 2,-6.09375 c 0.84375,0 1.40625,0.53125 1.40625,1.375 0,0.75 -0.421875,1.484375 -1.546875,2.6875 z m 0,0"
           id="path1125" />
      </symbol>
      <symbol
         overflow="visible"
         id="symbol2295">
        <path
           style="stroke:none"
           d=""
           id="path5604" />
      </symbol>
      <symbol
         overflow="visible"
         id="symbol4027">
        <path
           style="stroke:none"
           d="M 4.390625,-6.8125 C 4.21875,-6.9375 3.4375,-7.09375 3.1875,-7.09375 c -0.78125,0 -1.140625,0.4375 -1.140625,1.046875 0,0.53125 0.15625,0.859375 0.46875,1.46875 -0.09375,0.046875 -0.1875,0.125 -0.25,0.171875 C 1.75,-3.953125 1.234375,-3.46875 0.84375,-2.921875 0.546875,-2.53125 0.171875,-1.9375 0.171875,-1.390625 c 0,1.234375 0.453125,1.5 1.109375,1.5 0.4375,0 0.828125,-0.203125 1.328125,-0.640625 0.078125,-0.0625 0.15625,-0.140625 0.234375,-0.234375 0.5,-0.5 1.125,-1.28125 1.125,-2.0625 0,-0.90625 -0.359375,-1.421875 -0.703125,-1.84375 -0.359375,-0.46875 -0.9375,-1.1875 -0.9375,-1.625 0,-0.21875 0.1875,-0.46875 0.546875,-0.46875 0.296875,0 0.5,0.109375 0.734375,0.21875 0.078125,0.046875 0.375,0.234375 0.5,0.484375 L 4.21875,-6.109375 C 4.265625,-6.265625 4.3125,-6.53125 4.40625,-6.71875 Z m -1.1875,4.84375 c -0.3125,0.75 -0.953125,1.578125 -1.515625,1.578125 -0.484375,0 -0.765625,-0.453125 -0.765625,-1.109375 0,-0.171875 0.078125,-0.4375 0.125,-0.609375 0.234375,-0.828125 0.78125,-1.5 1.453125,-2.046875 0.046875,-0.046875 0.109375,-0.078125 0.203125,-0.125 0.28125,0.5 0.609375,1.078125 0.609375,1.78125 0,0.171875 -0.0625,0.421875 -0.109375,0.53125 z m 0,0"
           id="path1839" />
      </symbol>
    </g>
    <g
       id="g6579">
      <symbol
         overflow="visible"
         id="symbol3444">
        <path
           style="stroke:none"
           d=""
           id="path1404" />
      </symbol>
      <symbol
         overflow="visible"
         id="symbol112">
        <path
           style="stroke:none"
           d="m 0.421875,-4.96875 h 0.3125 l 0.1875,-0.546875 c 0.109375,-0.34375 0.734375,-0.6875 1.25,-0.6875 0.65625,0 1.171875,0.53125 1.171875,1.15625 0,0.75 -0.578125,1.375 -1.296875,1.375 -0.078125,0 -0.1875,0 -0.3125,-0.015625 l -0.15625,-0.015625 -0.109375,0.53125 0.0625,0.0625 c 0.375,-0.171875 0.578125,-0.21875 0.84375,-0.21875 0.828125,0 1.296875,0.53125 1.296875,1.4375 0,1.015625 -0.59375,1.6875 -1.53125,1.6875 -0.453125,0 -0.859375,-0.15625 -1.15625,-0.4375 -0.25,-0.21875 -0.375,-0.453125 -0.5625,-0.984375 L 0.15625,-1.53125 C 0.359375,-0.921875 0.4375,-0.5625 0.5,-0.0625 1.03125,0.125 1.46875,0.203125 1.828125,0.203125 c 0.796875,0 1.71875,-0.453125 2.265625,-1.125 0.34375,-0.40625 0.515625,-0.84375 0.515625,-1.3125 0,-0.484375 -0.203125,-0.890625 -0.5625,-1.140625 -0.25,-0.1875 -0.484375,-0.265625 -0.96875,-0.359375 0.796875,-0.609375 1.09375,-1.078125 1.09375,-1.65625 0,-0.890625 -0.75,-1.484375 -1.84375,-1.484375 -0.6875,0 -1.125,0.203125 -1.609375,0.671875 z m 0,0"
           id="path8428" />
      </symbol>
      <symbol
         overflow="visible"
         id="symbol7129">
        <path
           style="stroke:none"
           d=""
           id="path9982" />
      </symbol>
      <symbol
         overflow="visible"
         id="symbol641">
        <path
           style="stroke:none"
           d="M 4.390625,-6.8125 C 4.21875,-6.9375 3.4375,-7.09375 3.1875,-7.09375 c -0.78125,0 -1.140625,0.4375 -1.140625,1.046875 0,0.53125 0.15625,0.859375 0.46875,1.46875 -0.09375,0.046875 -0.1875,0.125 -0.25,0.171875 C 1.75,-3.953125 1.234375,-3.46875 0.84375,-2.921875 0.546875,-2.53125 0.171875,-1.9375 0.171875,-1.390625 c 0,1.234375 0.453125,1.5 1.109375,1.5 0.4375,0 0.828125,-0.203125 1.328125,-0.640625 0.078125,-0.0625 0.15625,-0.140625 0.234375,-0.234375 0.5,-0.5 1.125,-1.28125 1.125,-2.0625 0,-0.90625 -0.359375,-1.421875 -0.703125,-1.84375 -0.359375,-0.46875 -0.9375,-1.1875 -0.9375,-1.625 0,-0.21875 0.1875,-0.46875 0.546875,-0.46875 0.296875,0 0.5,0.109375 0.734375,0.21875 0.078125,0.046875 0.375,0.234375 0.5,0.484375 L 4.21875,-6.109375 C 4.265625,-6.265625 4.3125,-6.53125 4.40625,-6.71875 Z m -1.1875,4.84375 c -0.3125,0.75 -0.953125,1.578125 -1.515625,1.578125 -0.484375,0 -0.765625,-0.453125 -0.765625,-1.109375 0,-0.171875 0.078125,-0.4375 0.125,-0.609375 0.234375,-0.828125 0.78125,-1.5 1.453125,-2.046875 0.046875,-0.046875 0.109375,-0.078125 0.203125,-0.125 0.28125,0.5 0.609375,1.078125 0.609375,1.78125 0,0.171875 -0.0625,0.421875 -0.109375,0.53125 z m 0,0"
           id="path5973" />
      </symbol>
    </g>
    <g
       id="g573">
      <symbol
         overflow="visible"
         id="symbol4304">
        <path
           style="stroke:none"
           d=""
           id="path9" />
      </symbol>
      <symbol
         overflow="visible"
         id="symbol6485">
        <path
           style="stroke:none"
           d="M 0.34375,-3.875 0.40625,-3.671875 0.734375,-3.875 c 0.359375,-0.234375 0.390625,-0.25 0.46875,-0.25 0.09375,0 0.171875,0.09375 0.171875,0.234375 0,0.0625 -0.046875,0.296875 -0.078125,0.4375 L 0.640625,-1.0625 c -0.078125,0.3125 -0.125,0.578125 -0.125,0.765625 0,0.234375 0.109375,0.390625 0.296875,0.390625 0.25,0 0.609375,-0.21875 1.59375,-0.9375 l -0.109375,-0.1875 -0.25,0.171875 C 1.75,-0.671875 1.53125,-0.5625 1.4375,-0.5625 c -0.078125,0 -0.125,-0.09375 -0.125,-0.1875 0,-0.109375 0.015625,-0.203125 0.0625,-0.40625 L 2.140625,-4.1875 c 0.046875,-0.171875 0.0625,-0.28125 0.0625,-0.359375 0,-0.171875 -0.09375,-0.265625 -0.25,-0.265625 -0.21875,0 -0.59375,0.21875 -1.328125,0.75 z m 1.921875,-3.21875 c -0.28125,0 -0.578125,0.328125 -0.578125,0.65625 0,0.25 0.15625,0.421875 0.390625,0.421875 0.3125,0 0.546875,-0.296875 0.546875,-0.671875 0,-0.234375 -0.140625,-0.40625 -0.359375,-0.40625 z m 0,0"
           id="path7502" />
      </symbol>
      <symbol
         overflow="visible"
         id="symbol3626">
        <path
           style="stroke:none"
           d=""
           id="path2898" />
      </symbol>
      <symbol
         overflow="visible"
         id="symbol7196">
        <path
           style="stroke:none"
           d="M 4.390625,-6.8125 C 4.21875,-6.9375 3.4375,-7.09375 3.1875,-7.09375 c -0.78125,0 -1.140625,0.4375 -1.140625,1.046875 0,0.53125 0.15625,0.859375 0.46875,1.46875 -0.09375,0.046875 -0.1875,0.125 -0.25,0.171875 C 1.75,-3.953125 1.234375,-3.46875 0.84375,-2.921875 0.546875,-2.53125 0.171875,-1.9375 0.171875,-1.390625 c 0,1.234375 0.453125,1.5 1.109375,1.5 0.4375,0 0.828125,-0.203125 1.328125,-0.640625 0.078125,-0.0625 0.15625,-0.140625 0.234375,-0.234375 0.5,-0.5 1.125,-1.28125 1.125,-2.0625 0,-0.90625 -0.359375,-1.421875 -0.703125,-1.84375 -0.359375,-0.46875 -0.9375,-1.1875 -0.9375,-1.625 0,-0.21875 0.1875,-0.46875 0.546875,-0.46875 0.296875,0 0.5,0.109375 0.734375,0.21875 0.078125,0.046875 0.375,0.234375 0.5,0.484375 L 4.21875,-6.109375 C 4.265625,-6.265625 4.3125,-6.53125 4.40625,-6.71875 Z m -1.1875,4.84375 c -0.3125,0.75 -0.953125,1.578125 -1.515625,1.578125 -0.484375,0 -0.765625,-0.453125 -0.765625,-1.109375 0,-0.171875 0.078125,-0.4375 0.125,-0.609375 0.234375,-0.828125 0.78125,-1.5 1.453125,-2.046875 0.046875,-0.046875 0.109375,-0.078125 0.203125,-0.125 0.28125,0.5 0.609375,1.078125 0.609375,1.78125 0,0.171875 -0.0625,0.421875 -0.109375,0.53125 z m 0,0"
           id="path8768" />
      </symbol>
    </g>
    <g
       id="g4560">
      <symbol
         overflow="visible"
         id="symbol7399">
        <path
           style="stroke:none"
           d=""
           id="path1721" />
      </symbol>
      <symbol
         overflow="visible"
         id="symbol6181">
        <path
           style="stroke:none"
           d="m 3.4375,2.484375 c 0,-0.03125 0,-0.046875 -0.1875,-0.21875 C 1.953125,0.953125 1.625,-1 1.625,-2.59375 1.625,-4.40625 2.015625,-6.203125 3.296875,-7.5 3.4375,-7.625 3.4375,-7.640625 3.4375,-7.671875 3.4375,-7.75 3.390625,-7.78125 3.328125,-7.78125 c -0.09375,0 -1.03125,0.703125 -1.640625,2.015625 -0.53125,1.15625 -0.65625,2.296875 -0.65625,3.171875 0,0.8125 0.109375,2.0625 0.6875,3.234375 0.609375,1.28125 1.515625,1.953125 1.609375,1.953125 0.0625,0 0.109375,-0.03125 0.109375,-0.109375 z m 0,0"
           id="path6124" />
      </symbol>
      <symbol
         overflow="visible"
         id="symbol5814">
        <path
           style="stroke:none"
           d="m 3,-2.59375 c 0,-0.8125 -0.109375,-2.0625 -0.6875,-3.234375 -0.625,-1.28125 -1.515625,-1.953125 -1.625,-1.953125 -0.046875,0 -0.09375,0.046875 -0.09375,0.109375 0,0.03125 0,0.046875 0.1875,0.234375 1.03125,1.03125 1.609375,2.671875 1.609375,4.84375 0,1.78125 -0.375,3.59375 -1.671875,4.90625 -0.125,0.125 -0.125,0.140625 -0.125,0.171875 0,0.0625 0.046875,0.109375 0.09375,0.109375 0.109375,0 1.046875,-0.703125 1.65625,-2.015625 C 2.875,-0.578125 3,-1.71875 3,-2.59375 Z m 0,0"
           id="path6850" />
      </symbol>
      <symbol
         overflow="visible"
         id="symbol9474">
        <path
           style="stroke:none"
           d=""
           id="path8222" />
      </symbol>
      <symbol
         overflow="visible"
         id="symbol5118">
        <path
           style="stroke:none"
           d="M 2.359375,-6.890625 1.5625,-6.875 h -0.25 c -0.03125,0 -0.171875,0 -0.40625,-0.015625 H 0.75 L 0.703125,-6.625 l 0.34375,0.03125 c 0.171875,0 0.390625,0.078125 0.5,0.15625 0.140625,0.125 0.296875,0.3125 0.296875,0.390625 0,0.015625 0,0.046875 -0.015625,0.078125 0,0 0,0.03125 0,0.046875 -0.015625,0.078125 -0.03125,0.15625 -0.03125,0.1875 l -0.875,4.71875 C 0.796875,-0.40625 0.734375,-0.3125 0.375,-0.28125 L 0.0625,-0.25 0.015625,0.03125 1.125,0 C 1.25,0 1.25,0 2.21875,0.03125 L 2.265625,-0.25 1.859375,-0.28125 c -0.40625,-0.03125 -0.5,-0.109375 -0.5,-0.4375 0,-0.078125 0.015625,-0.1875 0.03125,-0.296875 l 0.796875,-4.625 3.375,5.75 h 0.5 L 7,-5.40625 c 0.203125,-1.125 0.234375,-1.15625 0.59375,-1.1875 L 7.96875,-6.625 8.015625,-6.890625 H 7.8125 L 6.921875,-6.875 6.0625,-6.890625 H 5.875 L 5.828125,-6.625 l 0.46875,0.03125 c 0.25,0 0.359375,0.078125 0.359375,0.234375 0,0.0625 -0.03125,0.328125 -0.0625,0.453125 l -0.796875,4.875 z m 0,0"
           id="path960" />
      </symbol>
      <symbol
         overflow="visible"
         id="symbol6119">
        <path
           style="stroke:none"
           d=""
           id="path4145" />
      </symbol>
      <symbol
         overflow="visible"
         id="symbol7101">
        <path
           style="stroke:none"
           d="m 6.84375,-2.390625 c 0.171875,0 0.359375,0 0.359375,-0.203125 0,-0.203125 -0.1875,-0.203125 -0.359375,-0.203125 h -5.625 c -0.171875,0 -0.359375,0 -0.359375,0.203125 0,0.203125 0.1875,0.203125 0.359375,0.203125 z m 0,0"
           id="path263" />
      </symbol>
      <symbol
         overflow="visible"
         id="symbol4592">
        <path
           style="stroke:none"
           d=""
           id="path7824" />
      </symbol>
      <symbol
         overflow="visible"
         id="symbol4783">
        <path
           style="stroke:none"
           d="m 0.671875,-5.53125 h 0.09375 l 1.28125,-0.578125 C 2.0625,-6.125 2.078125,-6.125 2.078125,-6.125 c 0.0625,0 0.078125,0.09375 0.078125,0.328125 v 4.84375 c 0,0.515625 -0.109375,0.625 -0.640625,0.65625 l -0.5625,0.03125 V 0.03125 C 2.5,0 2.5,0 2.609375,0 c 0.125,0 0.34375,0 0.6875,0.015625 0.109375,0 0.46875,0 0.875,0.015625 V -0.265625 L 3.65625,-0.296875 C 3.09375,-0.328125 3,-0.4375 3,-0.953125 V -6.875 L 2.859375,-6.921875 C 2.21875,-6.578125 1.5,-6.28125 0.59375,-5.96875 Z m 0,0"
           id="path5171" />
      </symbol>
      <symbol
         overflow="visible"
         id="symbol4138">
        <path
           style="stroke:none"
           d=""
           id="path3524" />
      </symbol>
      <symbol
         overflow="visible"
         id="symbol2379">
        <path
           style="stroke:none"
           d="M 4.390625,-6.8125 C 4.21875,-6.9375 3.4375,-7.09375 3.1875,-7.09375 c -0.78125,0 -1.140625,0.4375 -1.140625,1.046875 0,0.53125 0.15625,0.859375 0.46875,1.46875 -0.09375,0.046875 -0.1875,0.125 -0.25,0.171875 C 1.75,-3.953125 1.234375,-3.46875 0.84375,-2.921875 0.546875,-2.53125 0.171875,-1.9375 0.171875,-1.390625 c 0,1.234375 0.453125,1.5 1.109375,1.5 0.4375,0 0.828125,-0.203125 1.328125,-0.640625 0.078125,-0.0625 0.15625,-0.140625 0.234375,-0.234375 0.5,-0.5 1.125,-1.28125 1.125,-2.0625 0,-0.90625 -0.359375,-1.421875 -0.703125,-1.84375 -0.359375,-0.46875 -0.9375,-1.1875 -0.9375,-1.625 0,-0.21875 0.1875,-0.46875 0.546875,-0.46875 0.296875,0 0.5,0.109375 0.734375,0.21875 0.078125,0.046875 0.375,0.234375 0.5,0.484375 L 4.21875,-6.109375 C 4.265625,-6.265625 4.3125,-6.53125 4.40625,-6.71875 Z m -1.1875,4.84375 c -0.3125,0.75 -0.953125,1.578125 -1.515625,1.578125 -0.484375,0 -0.765625,-0.453125 -0.765625,-1.109375 0,-0.171875 0.078125,-0.4375 0.125,-0.609375 0.234375,-0.828125 0.78125,-1.5 1.453125,-2.046875 0.046875,-0.046875 0.109375,-0.078125 0.203125,-0.125 0.28125,0.5 0.609375,1.078125 0.609375,1.78125 0,0.171875 -0.0625,0.421875 -0.109375,0.53125 z m 0,0"
           id="path9629" />
      </symbol>
    </g>
    <g
       id="g7607">
      <symbol
         overflow="visible"
         id="symbol1004">
        <path
           style="stroke:none"
           d=""
           id="path3566" />
      </symbol>
      <symbol
         overflow="visible"
         id="symbol8058">
        <path
           style="stroke:none"
           d="M 2.359375,-6.890625 1.5625,-6.875 h -0.25 c -0.03125,0 -0.171875,0 -0.40625,-0.015625 H 0.75 L 0.703125,-6.625 l 0.34375,0.03125 c 0.171875,0 0.390625,0.078125 0.5,0.15625 0.140625,0.125 0.296875,0.3125 0.296875,0.390625 0,0.015625 0,0.046875 -0.015625,0.078125 0,0 0,0.03125 0,0.046875 -0.015625,0.078125 -0.03125,0.15625 -0.03125,0.1875 l -0.875,4.71875 C 0.796875,-0.40625 0.734375,-0.3125 0.375,-0.28125 L 0.0625,-0.25 0.015625,0.03125 1.125,0 C 1.25,0 1.25,0 2.21875,0.03125 L 2.265625,-0.25 1.859375,-0.28125 c -0.40625,-0.03125 -0.5,-0.109375 -0.5,-0.4375 0,-0.078125 0.015625,-0.1875 0.03125,-0.296875 l 0.796875,-4.625 3.375,5.75 h 0.5 L 7,-5.40625 c 0.203125,-1.125 0.234375,-1.15625 0.59375,-1.1875 L 7.96875,-6.625 8.015625,-6.890625 H 7.8125 L 6.921875,-6.875 6.0625,-6.890625 H 5.875 L 5.828125,-6.625 l 0.46875,0.03125 c 0.25,0 0.359375,0.078125 0.359375,0.234375 0,0.0625 -0.03125,0.328125 -0.0625,0.453125 l -0.796875,4.875 z m 0,0"
           id="path7214" />
      </symbol>
      <symbol
         overflow="visible"
         id="symbol4340">
        <path
           style="stroke:none"
           d=""
           id="path2511" />
      </symbol>
      <symbol
         overflow="visible"
         id="symbol3232">
        <path
           style="stroke:none"
           d="M 4.390625,-6.8125 C 4.21875,-6.9375 3.4375,-7.09375 3.1875,-7.09375 c -0.78125,0 -1.140625,0.4375 -1.140625,1.046875 0,0.53125 0.15625,0.859375 0.46875,1.46875 -0.09375,0.046875 -0.1875,0.125 -0.25,0.171875 C 1.75,-3.953125 1.234375,-3.46875 0.84375,-2.921875 0.546875,-2.53125 0.171875,-1.9375 0.171875,-1.390625 c 0,1.234375 0.453125,1.5 1.109375,1.5 0.4375,0 0.828125,-0.203125 1.328125,-0.640625 0.078125,-0.0625 0.15625,-0.140625 0.234375,-0.234375 0.5,-0.5 1.125,-1.28125 1.125,-2.0625 0,-0.90625 -0.359375,-1.421875 -0.703125,-1.84375 -0.359375,-0.46875 -0.9375,-1.1875 -0.9375,-1.625 0,-0.21875 0.1875,-0.46875 0.546875,-0.46875 0.296875,0 0.5,0.109375 0.734375,0.21875 0.078125,0.046875 0.375,0.234375 0.5,0.484375 L 4.21875,-6.109375 C 4.265625,-6.265625 4.3125,-6.53125 4.40625,-6.71875 Z m -1.1875,4.84375 c -0.3125,0.75 -0.953125,1.578125 -1.515625,1.578125 -0.484375,0 -0.765625,-0.453125 -0.765625,-1.109375 0,-0.171875 0.078125,-0.4375 0.125,-0.609375 0.234375,-0.828125 0.78125,-1.5 1.453125,-2.046875 0.046875,-0.046875 0.109375,-0.078125 0.203125,-0.125 0.28125,0.5 0.609375,1.078125 0.609375,1.78125 0,0.171875 -0.0625,0.421875 -0.109375,0.53125 z m 0,0"
           id="path708" />
      </symbol>
    </g>
    <g
       id="g447">
      <symbol
         overflow="visible"
         id="symbol4724">
        <path
           style="stroke:none"
           d=""
           id="path8885" />
      </symbol>
      <symbol
         overflow="visible"
         id="symbol5165">
        <path
           style="stroke:none"
           d="M -0.015625,-0.203125 0.078125,0.0625 c 0.296875,-0.234375 0.5625,-0.328125 0.90625,-0.328125 0.25,0 0.53125,0.0625 1.046875,0.171875 0.59375,0.15625 0.90625,0.203125 1.171875,0.203125 0.125,0 0.21875,-0.015625 0.5,-0.09375 0.109375,-0.625 0.1875,-0.96875 0.296875,-1.4375 H 3.78125 L 3.5625,-0.8125 c -0.046875,0.171875 -0.171875,0.25 -0.375,0.25 -0.125,0 -0.28125,-0.03125 -0.5,-0.078125 L 2.515625,-0.671875 C 2.1875,-0.75 1.84375,-0.796875 1.65625,-0.796875 c -0.328125,0 -0.59375,0.0625 -0.953125,0.203125 L 4.09375,-4.390625 4.140625,-4.71875 4.0625,-4.8125 3.828125,-4.578125 C 3.734375,-4.46875 3.625,-4.4375 3.484375,-4.4375 3.15625,-4.4375 2.625,-4.515625 2.15625,-4.640625 L 1.96875,-4.6875 C 1.6875,-4.765625 1.5,-4.8125 1.359375,-4.8125 c -0.171875,0 -0.375,0.03125 -0.609375,0.109375 l -0.328125,1.21875 h 0.21875 L 0.9375,-4.0625 c 0.171875,-0.046875 0.265625,-0.046875 0.390625,-0.046875 0.140625,0 0.25,0 0.453125,0.046875 0.328125,0.0625 0.59375,0.09375 0.796875,0.09375 0.359375,0 0.609375,-0.0625 0.9375,-0.234375 z m 0,0"
           id="path9999" />
      </symbol>
      <symbol
         overflow="visible"
         id="symbol196">
        <path
           style="stroke:none"
           d=""
           id="path8865" />
      </symbol>
      <symbol
         overflow="visible"
         id="symbol6134">
        <path
           style="stroke:none"
           d="m 7.125,-3.390625 c 0.15625,0 0.359375,0 0.359375,-0.203125 0,-0.21875 -0.203125,-0.21875 -0.34375,-0.21875 h -6.21875 c -0.140625,0 -0.34375,0 -0.34375,0.21875 0,0.203125 0.203125,0.203125 0.359375,0.203125 z M 7.140625,-1.375 c 0.140625,0 0.34375,0 0.34375,-0.21875 0,-0.203125 -0.203125,-0.203125 -0.359375,-0.203125 H 0.9375 c -0.15625,0 -0.359375,0 -0.359375,0.203125 0,0.21875 0.203125,0.21875 0.34375,0.21875 z m 0,0"
           id="path6739" />
      </symbol>
      <symbol
         overflow="visible"
         id="symbol3524">
        <path
           style="stroke:none"
           d=""
           id="path7260" />
      </symbol>
      <symbol
         overflow="visible"
         id="symbol5815">
        <path
           style="stroke:none"
           d="M 4.828125,-0.984375 C 4.46875,-0.671875 4.234375,-0.59375 4.0625,-0.59375 3.921875,-0.59375 3.796875,-0.625 3.703125,-0.8125 3.609375,-1 3.484375,-1.421875 3.4375,-1.71875 3.40625,-1.890625 3.390625,-2.03125 3.375,-2.1875 3.671875,-2.578125 3.953125,-3.015625 4.109375,-3.234375 4.25,-3.453125 4.609375,-4.046875 4.671875,-4.25 4.609375,-4.359375 4.578125,-4.453125 4.515625,-4.59375 4.484375,-4.609375 4.40625,-4.640625 4.359375,-4.671875 4.140625,-3.84375 4,-3.5625 3.640625,-2.96875 3.59375,-2.90625 3.4375,-2.65625 3.3125,-2.5 3.140625,-3.6875 3.09375,-3.96875 3.046875,-4.3125 c -0.09375,-0.453125 -0.375,-0.5 -0.578125,-0.5 -0.21875,0.015625 -0.5625,0.1875 -0.890625,0.5 -0.234375,0.21875 -0.421875,0.46875 -0.59375,0.78125 -0.453125,0.890625 -0.765625,2.078125 -0.765625,2.875 0,0.328125 0.15625,0.765625 0.375,0.765625 0.390625,0 0.71875,-0.203125 1.015625,-0.421875 0.421875,-0.359375 0.875,-0.8125 1.1875,-1.15625 0.109375,1.03125 0.40625,1.578125 0.78125,1.578125 0.21875,0 0.53125,-0.171875 0.859375,-0.453125 l 0.484375,-0.4375 z M 2.75,-1.78125 c -0.28125,0.328125 -0.578125,0.640625 -0.828125,0.84375 -0.3125,0.265625 -0.59375,0.34375 -0.765625,0.34375 -0.125,0 -0.171875,-0.140625 -0.171875,-0.390625 0,-0.640625 0.15625,-1.71875 0.484375,-2.546875 0.125,-0.328125 0.375,-0.609375 0.59375,-0.609375 0.296875,0 0.40625,0.171875 0.453125,0.609375 z m 0,0"
           id="path5413" />
      </symbol>
      <symbol
         overflow="visible"
         id="symbol9343">
        <path
           style="stroke:none"
           d="M 4.390625,-6.8125 C 4.21875,-6.9375 3.4375,-7.09375 3.1875,-7.09375 c -0.78125,0 -1.140625,0.4375 -1.140625,1.046875 0,0.53125 0.15625,0.859375 0.46875,1.46875 -0.09375,0.046875 -0.1875,0.125 -0.25,0.171875 C 1.75,-3.953125 1.234375,-3.46875 0.84375,-2.921875 0.546875,-2.53125 0.171875,-1.9375 0.171875,-1.390625 c 0,1.234375 0.453125,1.5 1.109375,1.5 0.4375,0 0.828125,-0.203125 1.328125,-0.640625 0.078125,-0.0625 0.15625,-0.140625 0.234375,-0.234375 0.5,-0.5 1.125,-1.28125 1.125,-2.0625 0,-0.90625 -0.359375,-1.421875 -0.703125,-1.84375 -0.359375,-0.46875 -0.9375,-1.1875 -0.9375,-1.625 0,-0.21875 0.1875,-0.46875 0.546875,-0.46875 0.296875,0 0.5,0.109375 0.734375,0.21875 0.078125,0.046875 0.375,0.234375 0.5,0.484375 L 4.21875,-6.109375 C 4.265625,-6.265625 4.3125,-6.53125 4.40625,-6.71875 Z m -1.1875,4.84375 c -0.3125,0.75 -0.953125,1.578125 -1.515625,1.578125 -0.484375,0 -0.765625,-0.453125 -0.765625,-1.109375 0,-0.171875 0.078125,-0.4375 0.125,-0.609375 0.234375,-0.828125 0.78125,-1.5 1.453125,-2.046875 0.046875,-0.046875 0.109375,-0.078125 0.203125,-0.125 0.28125,0.5 0.609375,1.078125 0.609375,1.78125 0,0.171875 -0.0625,0.421875 -0.109375,0.53125 z m 0,0"
           id="path4435" />
      </symbol>
    </g>
    <g
       id="g38">
      <symbol
         overflow="visible"
         id="symbol4441">
        <path
           style="stroke:none"
           d=""
           id="path8012" />
      </symbol>
      <symbol
         overflow="visible"
         id="symbol8307">
        <path
           style="stroke:none"
           d="M -0.703125,2.6875 C -0.59375,2.734375 -0.46875,2.75 -0.3125,2.75 0.078125,2.75 0.484375,2.328125 0.84375,1.515625 1.03125,1.0625 1.171875,0.5625 1.453125,-0.703125 L 2.21875,-4.1875 C 2.25,-4.359375 2.265625,-4.5 2.265625,-4.5625 c 0,-0.15625 -0.078125,-0.25 -0.234375,-0.25 -0.234375,0 -0.59375,0.21875 -1.34375,0.75 L 0.40625,-3.875 0.484375,-3.671875 0.796875,-3.875 c 0.375,-0.234375 0.40625,-0.25 0.46875,-0.25 0.09375,0 0.1875,0.09375 0.1875,0.234375 0,0.03125 -0.03125,0.15625 -0.0625,0.265625 0,0.0625 -0.015625,0.109375 -0.015625,0.125 l -1,4.9375 C 0.265625,1.953125 0.09375,2.296875 -0.09375,2.296875 -0.234375,2.296875 -0.40625,2.25 -0.625,2.109375 Z M 2.28125,-7.09375 c -0.28125,0 -0.578125,0.328125 -0.578125,0.65625 0,0.25 0.15625,0.421875 0.390625,0.421875 0.3125,0 0.546875,-0.296875 0.546875,-0.671875 0,-0.234375 -0.140625,-0.40625 -0.359375,-0.40625 z m 0,0"
           id="path5026" />
      </symbol>
      <symbol
         overflow="visible"
         id="symbol1497">
        <path
           style="stroke:none"
           d=""
           id="path2982" />
      </symbol>
      <symbol
         overflow="visible"
         id="symbol7657">
        <path
           style="stroke:none"
           d="M 4.390625,-6.8125 C 4.21875,-6.9375 3.4375,-7.09375 3.1875,-7.09375 c -0.78125,0 -1.140625,0.4375 -1.140625,1.046875 0,0.53125 0.15625,0.859375 0.46875,1.46875 -0.09375,0.046875 -0.1875,0.125 -0.25,0.171875 C 1.75,-3.953125 1.234375,-3.46875 0.84375,-2.921875 0.546875,-2.53125 0.171875,-1.9375 0.171875,-1.390625 c 0,1.234375 0.453125,1.5 1.109375,1.5 0.4375,0 0.828125,-0.203125 1.328125,-0.640625 0.078125,-0.0625 0.15625,-0.140625 0.234375,-0.234375 0.5,-0.5 1.125,-1.28125 1.125,-2.0625 0,-0.90625 -0.359375,-1.421875 -0.703125,-1.84375 -0.359375,-0.46875 -0.9375,-1.1875 -0.9375,-1.625 0,-0.21875 0.1875,-0.46875 0.546875,-0.46875 0.296875,0 0.5,0.109375 0.734375,0.21875 0.078125,0.046875 0.375,0.234375 0.5,0.484375 L 4.21875,-6.109375 C 4.265625,-6.265625 4.3125,-6.53125 4.40625,-6.71875 Z m -1.1875,4.84375 c -0.3125,0.75 -0.953125,1.578125 -1.515625,1.578125 -0.484375,0 -0.765625,-0.453125 -0.765625,-1.109375 0,-0.171875 0.078125,-0.4375 0.125,-0.609375 0.234375,-0.828125 0.78125,-1.5 1.453125,-2.046875 0.046875,-0.046875 0.109375,-0.078125 0.203125,-0.125 0.28125,0.5 0.609375,1.078125 0.609375,1.78125 0,0.171875 -0.0625,0.421875 -0.109375,0.53125 z m 0,0"
           id="path420" />
      </symbol>
    </g>
    <marker
       style="overflow:visible"
       id="Arrow2Mstart-4"
       refX="0"
       refY="0"
       orient="auto"
       inkscape:stockid="Arrow2Mstart"
       inkscape:isstock="true">
      <path
         transform="scale(0.6)"
         d="M 8.7185878,4.0337352 -2.2072895,0.01601326 8.7185884,-4.0017078 c -1.7454984,2.3720609 -1.7354408,5.6174519 -6e-7,8.035443 z"
         style="fill:context-stroke;fill-rule:evenodd;stroke:context-stroke;stroke-width:0.625;stroke-linejoin:round"
         id="path2850-5" />
    </marker>
    <marker
       style="overflow:visible"
       id="Arrow2Mend-0"
       refX="0"
       refY="0"
       orient="auto"
       inkscape:stockid="Arrow2Mend"
       inkscape:isstock="true">
      <path
         transform="scale(-0.6)"
         d="M 8.7185878,4.0337352 -2.2072895,0.01601326 8.7185884,-4.0017078 c -1.7454984,2.3720609 -1.7354408,5.6174519 -6e-7,8.035443 z"
         style="fill:context-stroke;fill-rule:evenodd;stroke:context-stroke;stroke-width:0.625;stroke-linejoin:round"
         id="path2853-3" />
    </marker>
  </defs>
  <g
     inkscape:label="Calque 1"
     inkscape:groupmode="layer"
     id="layer1"
     transform="translate(-16.267197,-92.97673)">
    <path
       style="fill:none;stroke:#000000;stroke-width:0.264583px;stroke-linecap:butt;stroke-linejoin:miter;stroke-opacity:1"
       d="m 18.417313,107.11949 v 4.19709 h 19.336876 v -4.1971"
       id="path42" />
    <path
       style="fill:none;stroke:#000000;stroke-width:0.264583px;stroke-linecap:butt;stroke-linejoin:miter;stroke-opacity:1"
       d="m 127.99292,107.11949 v 4.19709 h 6.44563 v -4.1971"
       id="path42-3" />
    <text
       xml:space="preserve"
       style="font-size:8.46667px;line-height:1.25;font-family:P052;-inkscape-font-specification:P052;letter-spacing:0px;stroke-width:0.264583"
       x="16.021664"
       y="118.80824"
       id="text862"><tspan
         sodipodi:role="line"
         id="tspan860"
         style="stroke-width:0.264583"
         x="16.021664"
         y="118.80824">0</tspan></text>
    <g
       inkscape:label=""
       transform="translate(39.098813,37.702905)"
       id="g1260">
      <g
         id="g3314">
        <g
           style="fill:#000000;fill-opacity:1"
           id="g9420">
          <use
             xlink:href="#symbol5854"
             x="92.050003"
             y="81.962997"
             id="use4346"
             width="100%"
             height="100%" />
        </g>
        <g
           style="fill:#000000;fill-opacity:1"
           id="g8958">
          <use
             xlink:href="#symbol6777"
             x="97.958"
             y="81.962997"
             id="use8227"
             width="100%"
             height="100%" />
        </g>
        <g
           style="fill:#000000;fill-opacity:1"
           id="g8815">
          <use
             xlink:href="#symbol9284"
             x="101.4"
             y="83.457001"
             id="use3467"
             width="100%"
             height="100%" />
          <use
             xlink:href="#symbol3198"
             x="108.08572"
             y="83.457001"
             id="use9175"
             width="100%"
             height="100%" />
          <use
             xlink:href="#symbol9833"
             x="111.87152"
             y="83.457001"
             id="use1484"
             width="100%"
             height="100%" />
        </g>
      </g>
    </g>
    <g
       id="g11841"
       transform="translate(0.052857,-9.3385501)">
      <use
         xlink:href="#symbol5854"
         x="92.050003"
         y="81.962997"
         id="use4346-9"
         width="100%"
         height="100%"
         transform="translate(-47.893056,74.101637)"
         style="fill:#000000;fill-opacity:1" />
      <use
         xlink:href="#symbol6777"
         x="97.958"
         y="81.962997"
         id="use8227-1"
         width="100%"
         height="100%"
         transform="translate(-47.893056,74.101637)"
         style="fill:#000000;fill-opacity:1" />
    </g>
    <path
       style="fill:none;stroke:#000000;stroke-width:0.264583px;stroke-linecap:butt;stroke-linejoin:miter;stroke-opacity:1"
       d="m 18.417313,107.11948 v 4.19711"
       id="path1423" />
    <path
       style="fill:none;stroke:#000000;stroke-width:0.264583px;stroke-linecap:butt;stroke-linejoin:miter;stroke-opacity:1"
       d="m 44.199809,107.11948 v 4.1971"
       id="path1423-3" />
    <path
       style="fill:none;stroke:#000000;stroke-width:0.264583px;stroke-linecap:butt;stroke-linejoin:miter;stroke-opacity:1"
       d="m 63.536682,107.11948 v 4.1971"
       id="path1423-6" />
    <path
       style="fill:none;stroke:#000000;stroke-width:0.264583px;stroke-linecap:butt;stroke-linejoin:miter;stroke-opacity:1"
       d="m 82.873551,107.11948 v 4.1971"
       id="path1423-7" />
    <path
       style="fill:none;stroke:#000000;stroke-width:0.264583px;stroke-linecap:butt;stroke-linejoin:miter;stroke-opacity:1"
       d="m 102.21043,107.11948 v 4.1971"
       id="path1423-5" />
    <path
       style="fill:none;stroke:#000000;stroke-width:0.264583px;stroke-linecap:butt;stroke-linejoin:miter;stroke-opacity:1"
       d="m 108.65604,107.11948 v 4.1971"
       id="path1423-35" />
    <path
       style="fill:none;stroke:#000000;stroke-width:0.264583px;stroke-linecap:butt;stroke-linejoin:miter;stroke-opacity:1"
       d="m 115.10167,107.11948 v 4.1971"
       id="path1423-62" />
    <path
       style="fill:none;stroke:#000000;stroke-width:0.264583px;stroke-linecap:butt;stroke-linejoin:miter;stroke-opacity:1"
       d="m 121.5473,107.11948 v 4.1971"
       id="path1423-9" />
    <path
       style="fill:none;stroke:#000000;stroke-width:0.264583px;stroke-linecap:butt;stroke-linejoin:miter;stroke-opacity:1"
       d="m 127.99292,107.11948 v 4.1971"
       id="path1423-1" />
    <path
       style="fill:none;stroke:#000000;stroke-width:0.264583px;stroke-linecap:butt;stroke-linejoin:miter;stroke-opacity:1"
       d="m 134.43855,107.11948 v 4.1971"
       id="path1423-2" />
    <path
       style="fill:none;stroke:#000000;stroke-width:0.264583px;stroke-linecap:butt;stroke-linejoin:miter;stroke-opacity:1"
       d="m 95.764802,107.11948 v 4.1971"
       id="path1423-70" />
    <path
       style="fill:none;stroke:#000000;stroke-width:0.264583px;stroke-linecap:butt;stroke-linejoin:miter;stroke-opacity:1"
       d="m 89.319176,107.11948 v 4.1971"
       id="path1423-93" />
    <path
       style="fill:none;stroke:#000000;stroke-width:0.264583px;stroke-linecap:butt;stroke-linejoin:miter;stroke-opacity:1"
       d="m 76.427933,107.11948 v 4.1971"
       id="path1423-60" />
    <path
       style="fill:none;stroke:#000000;stroke-width:0.264583px;stroke-linecap:butt;stroke-linejoin:miter;stroke-opacity:1"
       d="m 69.982307,107.11948 v 4.1971"
       id="path1423-626" />
    <path
       style="fill:none;stroke:#000000;stroke-width:0.264583px;stroke-linecap:butt;stroke-linejoin:miter;stroke-opacity:1"
       d="m 57.091056,107.11948 v 4.1971"
       id="path1423-18" />
    <path
       style="fill:none;stroke:#000000;stroke-width:0.264583px;stroke-linecap:butt;stroke-linejoin:miter;stroke-opacity:1"
       d="m 50.645431,107.11948 v 4.1971"
       id="path1423-79" />
    <path
       style="fill:none;stroke:#000000;stroke-width:0.264583px;stroke-linecap:butt;stroke-linejoin:miter;stroke-opacity:1"
       d="m 37.754188,107.11948 v 4.1971"
       id="path1423-20" />
    <path
       style="fill:none;stroke:#000000;stroke-width:0.264583px;stroke-linecap:butt;stroke-linejoin:miter;stroke-opacity:1"
       d="m 31.308562,107.11948 v 4.1971"
       id="path1423-23" />
    <path
       style="fill:none;stroke:#000000;stroke-width:0.264583px;stroke-linecap:butt;stroke-linejoin:miter;stroke-opacity:1"
       d="m 24.862936,107.11948 v 4.1971"
       id="path1423-75" />
    <g
       inkscape:label=""
       transform="translate(-72.788147,18.107483)"
       id="g1940">
      <g
         id="g5170">
        <g
           style="fill:#000000;fill-opacity:1"
           id="g6803">
          <use
             xlink:href="#symbol9455"
             x="92.050003"
             y="81.962997"
             id="use6731"
             width="100%"
             height="100%" />
        </g>
      </g>
    </g>
    <path
       style="fill:none;stroke:#000000;stroke-width:0.264583px;stroke-linecap:butt;stroke-linejoin:miter;stroke-opacity:1;marker-start:url(#Arrow2Mend);marker-end:url(#Arrow2Mstart)"
       d="m 18.417313,105.16443 h 6.445622"
       id="path2009" />
    <g
       inkscape:label=""
       transform="matrix(0.30605477,0,0,0.30605477,2.6909236,90.362922)"
       id="g3421"
       style="stroke-width:3.26739">
      <g
         id="g9874"
         style="stroke-width:3.26739">
        <g
           style="fill:#000000;fill-opacity:1;stroke-width:3.26739"
           id="g7450">
          <use
             xlink:href="#symbol6608"
             x="91.925003"
             y="81.962997"
             id="use2210"
             width="100%"
             height="100%"
             style="stroke-width:3.26739" />
        </g>
        <g
           style="fill:#000000;fill-opacity:1;stroke-width:3.26739"
           id="g7667">
          <use
             xlink:href="#symbol4027"
             x="97.030998"
             y="81.962997"
             id="use8451"
             width="100%"
             height="100%"
             style="stroke-width:3.26739" />
        </g>
      </g>
    </g>
    <use
       xlink:href="#symbol4027"
       x="97.030998"
       y="81.962997"
       id="use8451-7"
       width="100%"
       height="100%"
       style="fill:#000000;fill-opacity:1;stroke-width:3.26739"
       transform="matrix(0.30605477,0,0,0.30605477,-5.5969079,90.203622)" />
    <g
       inkscape:label=""
       transform="matrix(0.30605477,0,0,0.30605477,8.7471625,90.198464)"
       id="g3681"
       style="stroke-width:3.26739">
      <g
         id="g7182"
         style="stroke-width:3.26739">
        <g
           style="fill:#000000;fill-opacity:1;stroke-width:3.26739"
           id="g3375">
          <use
             xlink:href="#symbol112"
             x="91.925003"
             y="81.962997"
             id="use9428"
             width="100%"
             height="100%"
             style="stroke-width:3.26739" />
        </g>
        <g
           style="fill:#000000;fill-opacity:1;stroke-width:3.26739"
           id="g9799">
          <use
             xlink:href="#symbol641"
             x="97.030998"
             y="81.962997"
             id="use9706"
             width="100%"
             height="100%"
             style="stroke-width:3.26739" />
        </g>
      </g>
    </g>
    <g
       inkscape:label=""
       transform="matrix(0.30605477,0,0,0.30605477,94.872274,80.615405)"
       id="g4313"
       style="stroke-width:3.26739">
      <g
         id="g7026"
         style="stroke-width:3.26739">
        <g
           style="fill:#000000;fill-opacity:1;stroke-width:3.26739"
           id="g55">
          <use
             xlink:href="#symbol6181"
             x="92.050003"
             y="81.962997"
             id="use5614"
             width="100%"
             height="100%"
             style="stroke-width:3.26739" />
        </g>
        <g
           style="fill:#000000;fill-opacity:1;stroke-width:3.26739"
           id="g614">
          <use
             xlink:href="#symbol5118"
             x="96.671997"
             y="81.962997"
             id="use5431"
             width="100%"
             height="100%"
             style="stroke-width:3.26739" />
        </g>
        <g
           style="fill:#000000;fill-opacity:1;stroke-width:3.26739"
           id="g2666">
          <use
             xlink:href="#symbol7101"
             x="106.918"
             y="81.962997"
             id="use1467"
             width="100%"
             height="100%"
             style="stroke-width:3.26739" />
        </g>
        <g
           style="fill:#000000;fill-opacity:1;stroke-width:3.26739"
           id="g9651">
          <use
             xlink:href="#symbol4783"
             x="117.05"
             y="81.962997"
             id="use65"
             width="100%"
             height="100%"
             style="stroke-width:3.26739" />
        </g>
        <g
           style="fill:#000000;fill-opacity:1;stroke-width:3.26739"
           id="g5783">
          <use
             xlink:href="#symbol5814"
             x="122.156"
             y="81.962997"
             id="use7079"
             width="100%"
             height="100%"
             style="stroke-width:3.26739" />
        </g>
        <g
           style="fill:#000000;fill-opacity:1;stroke-width:3.26739"
           id="g5359">
          <use
             xlink:href="#symbol2379"
             x="126.43"
             y="81.962997"
             id="use9014"
             width="100%"
             height="100%"
             style="stroke-width:3.26739" />
        </g>
      </g>
    </g>
    <g
       inkscape:label=""
       transform="matrix(0.30605477,0,0,0.30605477,104.56098,88.957755)"
       id="g4729"
       style="stroke-width:3.26739">
      <g
         id="g6159"
         style="stroke-width:3.26739">
        <g
           style="fill:#000000;fill-opacity:1;stroke-width:3.26739"
           id="g5001">
          <use
             xlink:href="#symbol8058"
             x="92.398003"
             y="81.962997"
             id="use3327"
             width="100%"
             height="100%"
             style="stroke-width:3.26739" />
        </g>
        <g
           style="fill:#000000;fill-opacity:1;stroke-width:3.26739"
           id="g4682">
          <use
             xlink:href="#symbol3232"
             x="100.707"
             y="81.962997"
             id="use3389"
             width="100%"
             height="100%"
             style="stroke-width:3.26739" />
        </g>
      </g>
    </g>
    <path
       style="fill:none;stroke:#000000;stroke-width:0.264583;stroke-linecap:butt;stroke-linejoin:miter;stroke-miterlimit:4;stroke-dasharray:0.793749, 0.793749;stroke-dashoffset:0;stroke-opacity:1"
       d="M 37.754185,111.31658 H 127.99292"
       id="path5077" />
    <path
       style="fill:none;stroke:#000000;stroke-width:0.264583px;stroke-linecap:butt;stroke-linejoin:miter;stroke-opacity:1;marker-start:url(#Arrow2Mstart);marker-end:url(#Arrow2Mend)"
       d="M 18.814077,134.63979 H 67.350515"
       id="path6158" />
    <path
       style="fill:none;stroke:#000000;stroke-width:0.264584px;stroke-linecap:butt;stroke-linejoin:miter;stroke-opacity:1;marker-start:url(#Arrow2Mstart-4);marker-end:url(#Arrow2Mend-0)"
       d="M 18.93991,139.59859 H 82.350956"
       id="path6158-6" />
    <g
       inkscape:label=""
       transform="translate(-61.656243,50.363262)"
       id="g7644">
      <g
         id="g8177">
        <g
           style="fill:#000000;fill-opacity:1"
           id="g1778">
          <use
             xlink:href="#symbol5165"
             x="92.050003"
             y="81.962997"
             id="use3031"
             width="100%"
             height="100%" />
        </g>
        <g
           style="fill:#000000;fill-opacity:1"
           id="g3182">
          <use
             xlink:href="#symbol6134"
             x="99.489998"
             y="81.962997"
             id="use9125"
             width="100%"
             height="100%" />
        </g>
        <g
           style="fill:#000000;fill-opacity:1"
           id="g2527">
          <use
             xlink:href="#symbol5815"
             x="110.576"
             y="81.962997"
             id="use1683"
             width="100%"
             height="100%" />
        </g>
        <g
           style="fill:#000000;fill-opacity:1"
           id="g3014">
          <use
             xlink:href="#symbol9343"
             x="116.08532"
             y="81.962997"
             id="use1547"
             width="100%"
             height="100%" />
        </g>
      </g>
    </g>
    <g
       inkscape:label=""
       transform="matrix(0.30662779,0,0,0.30662779,53.557937,89.40012)"
       id="g9987"
       style="stroke-width:3.26128">
      <g
         id="g8657"
         style="stroke-width:3.26128">
        <g
           style="fill:#000000;fill-opacity:1;stroke-width:3.26128"
           id="g1760">
          <use
             xlink:href="#symbol8307"
             x="92.398003"
             y="81.962997"
             id="use8436"
             width="100%"
             height="100%"
             style="stroke-width:3.26128" />
        </g>
        <g
           style="fill:#000000;fill-opacity:1;stroke-width:3.26128"
           id="g5450">
          <use
             xlink:href="#symbol7657"
             x="95.417"
             y="81.962997"
             id="use1118"
             width="100%"
             height="100%"
             style="stroke-width:3.26128" />
        </g>
      </g>
    </g>
  </g>
</svg>
