<?xml version="1.0" encoding="utf-8" standalone="no"?>
<!DOCTYPE svg PUBLIC "-//W3C//DTD SVG 1.1//EN"
  "http://www.w3.org/Graphics/SVG/1.1/DTD/svg11.dtd">
<svg xmlns:xlink="http://www.w3.org/1999/xlink" width="1080pt" height="576pt" viewBox="0 0 1080 576" xmlns="http://www.w3.org/2000/svg" version="1.1">
 <metadata>
  <rdf:RDF xmlns:dc="http://purl.org/dc/elements/1.1/" xmlns:cc="http://creativecommons.org/ns#" xmlns:rdf="http://www.w3.org/1999/02/22-rdf-syntax-ns#">
   <cc:Work>
    <dc:type rdf:resource="http://purl.org/dc/dcmitype/StillImage"/>
    <dc:date>2023-11-16T10:28:42.124815</dc:date>
    <dc:format>image/svg+xml</dc:format>
    <dc:creator>
     <cc:Agent>
      <dc:title>Matplotlib v3.5.2, https://matplotlib.org/</dc:title>
     </cc:Agent>
    </dc:creator>
   </cc:Work>
  </rdf:RDF>
 </metadata>
 <defs>
  <style type="text/css">*{stroke-linejoin: round; stroke-linecap: butt}</style>
 </defs>
 <g id="figure_1">
  <g id="patch_1">
   <path d="M 0 576 
L 1080 576 
L 1080 0 
L 0 0 
z
" style="fill: #ffffff"/>
  </g>
  <g id="axes_1">
   <g id="patch_2">
    <path d="M 135 512.64 
L 515.454545 512.64 
L 515.454545 69.12 
L 135 69.12 
z
" style="fill: #ffffff"/>
   </g>
   <g id="matplotlib.axis_1">
    <g id="xtick_1">
     <g id="line2d_1">
      <defs>
       <path id="m68ca3f37a8" d="M 0 0 
L 0 3.5 
" style="stroke: #000000; stroke-width: 0.8"/>
      </defs>
      <g>
       <use xlink:href="#m68ca3f37a8" x="152.293388" y="512.64" style="stroke: #000000; stroke-width: 0.8"/>
      </g>
     </g>
     <g id="text_1">
      <!-- 0.5 -->
      <g transform="translate(144.341826 527.238438)scale(0.1 -0.1)">
       <defs>
        <path id="DejaVuSans-30" d="M 2034 4250 
Q 1547 4250 1301 3770 
Q 1056 3291 1056 2328 
Q 1056 1369 1301 889 
Q 1547 409 2034 409 
Q 2525 409 2770 889 
Q 3016 1369 3016 2328 
Q 3016 3291 2770 3770 
Q 2525 4250 2034 4250 
z
M 2034 4750 
Q 2819 4750 3233 4129 
Q 3647 3509 3647 2328 
Q 3647 1150 3233 529 
Q 2819 -91 2034 -91 
Q 1250 -91 836 529 
Q 422 1150 422 2328 
Q 422 3509 836 4129 
Q 1250 4750 2034 4750 
z
" transform="scale(0.015625)"/>
        <path id="DejaVuSans-2e" d="M 684 794 
L 1344 794 
L 1344 0 
L 684 0 
L 684 794 
z
" transform="scale(0.015625)"/>
        <path id="DejaVuSans-35" d="M 691 4666 
L 3169 4666 
L 3169 4134 
L 1269 4134 
L 1269 2991 
Q 1406 3038 1543 3061 
Q 1681 3084 1819 3084 
Q 2600 3084 3056 2656 
Q 3513 2228 3513 1497 
Q 3513 744 3044 326 
Q 2575 -91 1722 -91 
Q 1428 -91 1123 -41 
Q 819 9 494 109 
L 494 744 
Q 775 591 1075 516 
Q 1375 441 1709 441 
Q 2250 441 2565 725 
Q 2881 1009 2881 1497 
Q 2881 1984 2565 2268 
Q 2250 2553 1709 2553 
Q 1456 2553 1204 2497 
Q 953 2441 691 2322 
L 691 4666 
z
" transform="scale(0.015625)"/>
       </defs>
       <use xlink:href="#DejaVuSans-30"/>
       <use xlink:href="#DejaVuSans-2e" x="63.623047"/>
       <use xlink:href="#DejaVuSans-35" x="95.410156"/>
      </g>
     </g>
    </g>
    <g id="xtick_2">
     <g id="line2d_2">
      <g>
       <use xlink:href="#m68ca3f37a8" x="201.70307" y="512.64" style="stroke: #000000; stroke-width: 0.8"/>
      </g>
     </g>
     <g id="text_2">
      <!-- 1.0 -->
      <g transform="translate(193.751507 527.238438)scale(0.1 -0.1)">
       <defs>
        <path id="DejaVuSans-31" d="M 794 531 
L 1825 531 
L 1825 4091 
L 703 3866 
L 703 4441 
L 1819 4666 
L 2450 4666 
L 2450 531 
L 3481 531 
L 3481 0 
L 794 0 
L 794 531 
z
" transform="scale(0.015625)"/>
       </defs>
       <use xlink:href="#DejaVuSans-31"/>
       <use xlink:href="#DejaVuSans-2e" x="63.623047"/>
       <use xlink:href="#DejaVuSans-30" x="95.410156"/>
      </g>
     </g>
    </g>
    <g id="xtick_3">
     <g id="line2d_3">
      <g>
       <use xlink:href="#m68ca3f37a8" x="251.112751" y="512.64" style="stroke: #000000; stroke-width: 0.8"/>
      </g>
     </g>
     <g id="text_3">
      <!-- 1.5 -->
      <g transform="translate(243.161188 527.238438)scale(0.1 -0.1)">
       <use xlink:href="#DejaVuSans-31"/>
       <use xlink:href="#DejaVuSans-2e" x="63.623047"/>
       <use xlink:href="#DejaVuSans-35" x="95.410156"/>
      </g>
     </g>
    </g>
    <g id="xtick_4">
     <g id="line2d_4">
      <g>
       <use xlink:href="#m68ca3f37a8" x="300.522432" y="512.64" style="stroke: #000000; stroke-width: 0.8"/>
      </g>
     </g>
     <g id="text_4">
      <!-- 2.0 -->
      <g transform="translate(292.57087 527.238438)scale(0.1 -0.1)">
       <defs>
        <path id="DejaVuSans-32" d="M 1228 531 
L 3431 531 
L 3431 0 
L 469 0 
L 469 531 
Q 828 903 1448 1529 
Q 2069 2156 2228 2338 
Q 2531 2678 2651 2914 
Q 2772 3150 2772 3378 
Q 2772 3750 2511 3984 
Q 2250 4219 1831 4219 
Q 1534 4219 1204 4116 
Q 875 4013 500 3803 
L 500 4441 
Q 881 4594 1212 4672 
Q 1544 4750 1819 4750 
Q 2544 4750 2975 4387 
Q 3406 4025 3406 3419 
Q 3406 3131 3298 2873 
Q 3191 2616 2906 2266 
Q 2828 2175 2409 1742 
Q 1991 1309 1228 531 
z
" transform="scale(0.015625)"/>
       </defs>
       <use xlink:href="#DejaVuSans-32"/>
       <use xlink:href="#DejaVuSans-2e" x="63.623047"/>
       <use xlink:href="#DejaVuSans-30" x="95.410156"/>
      </g>
     </g>
    </g>
    <g id="xtick_5">
     <g id="line2d_5">
      <g>
       <use xlink:href="#m68ca3f37a8" x="349.932113" y="512.64" style="stroke: #000000; stroke-width: 0.8"/>
      </g>
     </g>
     <g id="text_5">
      <!-- 2.5 -->
      <g transform="translate(341.980551 527.238438)scale(0.1 -0.1)">
       <use xlink:href="#DejaVuSans-32"/>
       <use xlink:href="#DejaVuSans-2e" x="63.623047"/>
       <use xlink:href="#DejaVuSans-35" x="95.410156"/>
      </g>
     </g>
    </g>
    <g id="xtick_6">
     <g id="line2d_6">
      <g>
       <use xlink:href="#m68ca3f37a8" x="399.341795" y="512.64" style="stroke: #000000; stroke-width: 0.8"/>
      </g>
     </g>
     <g id="text_6">
      <!-- 3.0 -->
      <g transform="translate(391.390232 527.238438)scale(0.1 -0.1)">
       <defs>
        <path id="DejaVuSans-33" d="M 2597 2516 
Q 3050 2419 3304 2112 
Q 3559 1806 3559 1356 
Q 3559 666 3084 287 
Q 2609 -91 1734 -91 
Q 1441 -91 1130 -33 
Q 819 25 488 141 
L 488 750 
Q 750 597 1062 519 
Q 1375 441 1716 441 
Q 2309 441 2620 675 
Q 2931 909 2931 1356 
Q 2931 1769 2642 2001 
Q 2353 2234 1838 2234 
L 1294 2234 
L 1294 2753 
L 1863 2753 
Q 2328 2753 2575 2939 
Q 2822 3125 2822 3475 
Q 2822 3834 2567 4026 
Q 2313 4219 1838 4219 
Q 1578 4219 1281 4162 
Q 984 4106 628 3988 
L 628 4550 
Q 988 4650 1302 4700 
Q 1616 4750 1894 4750 
Q 2613 4750 3031 4423 
Q 3450 4097 3450 3541 
Q 3450 3153 3228 2886 
Q 3006 2619 2597 2516 
z
" transform="scale(0.015625)"/>
       </defs>
       <use xlink:href="#DejaVuSans-33"/>
       <use xlink:href="#DejaVuSans-2e" x="63.623047"/>
       <use xlink:href="#DejaVuSans-30" x="95.410156"/>
      </g>
     </g>
    </g>
    <g id="xtick_7">
     <g id="line2d_7">
      <g>
       <use xlink:href="#m68ca3f37a8" x="448.751476" y="512.64" style="stroke: #000000; stroke-width: 0.8"/>
      </g>
     </g>
     <g id="text_7">
      <!-- 3.5 -->
      <g transform="translate(440.799913 527.238438)scale(0.1 -0.1)">
       <use xlink:href="#DejaVuSans-33"/>
       <use xlink:href="#DejaVuSans-2e" x="63.623047"/>
       <use xlink:href="#DejaVuSans-35" x="95.410156"/>
      </g>
     </g>
    </g>
    <g id="xtick_8">
     <g id="line2d_8">
      <g>
       <use xlink:href="#m68ca3f37a8" x="498.161157" y="512.64" style="stroke: #000000; stroke-width: 0.8"/>
      </g>
     </g>
     <g id="text_8">
      <!-- 4.0 -->
      <g transform="translate(490.209595 527.238438)scale(0.1 -0.1)">
       <defs>
        <path id="DejaVuSans-34" d="M 2419 4116 
L 825 1625 
L 2419 1625 
L 2419 4116 
z
M 2253 4666 
L 3047 4666 
L 3047 1625 
L 3713 1625 
L 3713 1100 
L 3047 1100 
L 3047 0 
L 2419 0 
L 2419 1100 
L 313 1100 
L 313 1709 
L 2253 4666 
z
" transform="scale(0.015625)"/>
       </defs>
       <use xlink:href="#DejaVuSans-34"/>
       <use xlink:href="#DejaVuSans-2e" x="63.623047"/>
       <use xlink:href="#DejaVuSans-30" x="95.410156"/>
      </g>
     </g>
    </g>
   </g>
   <g id="matplotlib.axis_2">
    <g id="ytick_1">
     <g id="line2d_9">
      <defs>
       <path id="m28faa78c62" d="M 0 0 
L -3.5 0 
" style="stroke: #000000; stroke-width: 0.8"/>
      </defs>
      <g>
       <use xlink:href="#m28faa78c62" x="135" y="512.64" style="stroke: #000000; stroke-width: 0.8"/>
      </g>
     </g>
     <g id="text_9">
      <!-- 0.0 -->
      <g transform="translate(112.096875 516.439219)scale(0.1 -0.1)">
       <use xlink:href="#DejaVuSans-30"/>
       <use xlink:href="#DejaVuSans-2e" x="63.623047"/>
       <use xlink:href="#DejaVuSans-30" x="95.410156"/>
      </g>
     </g>
    </g>
    <g id="ytick_2">
     <g id="line2d_10">
      <g>
       <use xlink:href="#m28faa78c62" x="135" y="453.504" style="stroke: #000000; stroke-width: 0.8"/>
      </g>
     </g>
     <g id="text_10">
      <!-- 0.2 -->
      <g transform="translate(112.096875 457.303219)scale(0.1 -0.1)">
       <use xlink:href="#DejaVuSans-30"/>
       <use xlink:href="#DejaVuSans-2e" x="63.623047"/>
       <use xlink:href="#DejaVuSans-32" x="95.410156"/>
      </g>
     </g>
    </g>
    <g id="ytick_3">
     <g id="line2d_11">
      <g>
       <use xlink:href="#m28faa78c62" x="135" y="394.368" style="stroke: #000000; stroke-width: 0.8"/>
      </g>
     </g>
     <g id="text_11">
      <!-- 0.4 -->
      <g transform="translate(112.096875 398.167219)scale(0.1 -0.1)">
       <use xlink:href="#DejaVuSans-30"/>
       <use xlink:href="#DejaVuSans-2e" x="63.623047"/>
       <use xlink:href="#DejaVuSans-34" x="95.410156"/>
      </g>
     </g>
    </g>
    <g id="ytick_4">
     <g id="line2d_12">
      <g>
       <use xlink:href="#m28faa78c62" x="135" y="335.232" style="stroke: #000000; stroke-width: 0.8"/>
      </g>
     </g>
     <g id="text_12">
      <!-- 0.6 -->
      <g transform="translate(112.096875 339.031219)scale(0.1 -0.1)">
       <defs>
        <path id="DejaVuSans-36" d="M 2113 2584 
Q 1688 2584 1439 2293 
Q 1191 2003 1191 1497 
Q 1191 994 1439 701 
Q 1688 409 2113 409 
Q 2538 409 2786 701 
Q 3034 994 3034 1497 
Q 3034 2003 2786 2293 
Q 2538 2584 2113 2584 
z
M 3366 4563 
L 3366 3988 
Q 3128 4100 2886 4159 
Q 2644 4219 2406 4219 
Q 1781 4219 1451 3797 
Q 1122 3375 1075 2522 
Q 1259 2794 1537 2939 
Q 1816 3084 2150 3084 
Q 2853 3084 3261 2657 
Q 3669 2231 3669 1497 
Q 3669 778 3244 343 
Q 2819 -91 2113 -91 
Q 1303 -91 875 529 
Q 447 1150 447 2328 
Q 447 3434 972 4092 
Q 1497 4750 2381 4750 
Q 2619 4750 2861 4703 
Q 3103 4656 3366 4563 
z
" transform="scale(0.015625)"/>
       </defs>
       <use xlink:href="#DejaVuSans-30"/>
       <use xlink:href="#DejaVuSans-2e" x="63.623047"/>
       <use xlink:href="#DejaVuSans-36" x="95.410156"/>
      </g>
     </g>
    </g>
    <g id="ytick_5">
     <g id="line2d_13">
      <g>
       <use xlink:href="#m28faa78c62" x="135" y="276.096" style="stroke: #000000; stroke-width: 0.8"/>
      </g>
     </g>
     <g id="text_13">
      <!-- 0.8 -->
      <g transform="translate(112.096875 279.895219)scale(0.1 -0.1)">
       <defs>
        <path id="DejaVuSans-38" d="M 2034 2216 
Q 1584 2216 1326 1975 
Q 1069 1734 1069 1313 
Q 1069 891 1326 650 
Q 1584 409 2034 409 
Q 2484 409 2743 651 
Q 3003 894 3003 1313 
Q 3003 1734 2745 1975 
Q 2488 2216 2034 2216 
z
M 1403 2484 
Q 997 2584 770 2862 
Q 544 3141 544 3541 
Q 544 4100 942 4425 
Q 1341 4750 2034 4750 
Q 2731 4750 3128 4425 
Q 3525 4100 3525 3541 
Q 3525 3141 3298 2862 
Q 3072 2584 2669 2484 
Q 3125 2378 3379 2068 
Q 3634 1759 3634 1313 
Q 3634 634 3220 271 
Q 2806 -91 2034 -91 
Q 1263 -91 848 271 
Q 434 634 434 1313 
Q 434 1759 690 2068 
Q 947 2378 1403 2484 
z
M 1172 3481 
Q 1172 3119 1398 2916 
Q 1625 2713 2034 2713 
Q 2441 2713 2670 2916 
Q 2900 3119 2900 3481 
Q 2900 3844 2670 4047 
Q 2441 4250 2034 4250 
Q 1625 4250 1398 4047 
Q 1172 3844 1172 3481 
z
" transform="scale(0.015625)"/>
       </defs>
       <use xlink:href="#DejaVuSans-30"/>
       <use xlink:href="#DejaVuSans-2e" x="63.623047"/>
       <use xlink:href="#DejaVuSans-38" x="95.410156"/>
      </g>
     </g>
    </g>
    <g id="ytick_6">
     <g id="line2d_14">
      <g>
       <use xlink:href="#m28faa78c62" x="135" y="216.96" style="stroke: #000000; stroke-width: 0.8"/>
      </g>
     </g>
     <g id="text_14">
      <!-- 1.0 -->
      <g transform="translate(112.096875 220.759219)scale(0.1 -0.1)">
       <use xlink:href="#DejaVuSans-31"/>
       <use xlink:href="#DejaVuSans-2e" x="63.623047"/>
       <use xlink:href="#DejaVuSans-30" x="95.410156"/>
      </g>
     </g>
    </g>
    <g id="ytick_7">
     <g id="line2d_15">
      <g>
       <use xlink:href="#m28faa78c62" x="135" y="157.824" style="stroke: #000000; stroke-width: 0.8"/>
      </g>
     </g>
     <g id="text_15">
      <!-- 1.2 -->
      <g transform="translate(112.096875 161.623219)scale(0.1 -0.1)">
       <use xlink:href="#DejaVuSans-31"/>
       <use xlink:href="#DejaVuSans-2e" x="63.623047"/>
       <use xlink:href="#DejaVuSans-32" x="95.410156"/>
      </g>
     </g>
    </g>
    <g id="ytick_8">
     <g id="line2d_16">
      <g>
       <use xlink:href="#m28faa78c62" x="135" y="98.688" style="stroke: #000000; stroke-width: 0.8"/>
      </g>
     </g>
     <g id="text_16">
      <!-- 1.4 -->
      <g transform="translate(112.096875 102.487219)scale(0.1 -0.1)">
       <use xlink:href="#DejaVuSans-31"/>
       <use xlink:href="#DejaVuSans-2e" x="63.623047"/>
       <use xlink:href="#DejaVuSans-34" x="95.410156"/>
      </g>
     </g>
    </g>
   </g>
   <g id="line2d_17">
    <path d="M 152.293388 39.552 
L 154.031417 186.358302 
L 155.769446 289.254132 
L 157.507475 361.446622 
L 159.245504 411.805283 
L 160.983533 446.433866 
L 162.721562 469.618355 
L 164.459591 484.419276 
L 166.19762 493.053004 
L 167.935649 497.143585 
L 169.673678 497.892766 
L 171.411707 496.197027 
L 173.149736 492.729503 
L 174.887765 487.998192 
L 176.625794 482.387872 
L 180.101852 469.628331 
L 188.791997 435.983325 
L 192.268055 423.472023 
L 195.744113 411.889698 
L 199.220171 401.308402 
L 202.696229 391.733662 
L 206.172287 383.132543 
L 209.648345 375.450997 
L 213.124403 368.624609 
L 216.600461 362.585183 
L 220.076519 357.264729 
L 223.552577 352.597786 
L 227.028635 348.522708 
L 230.504693 344.982279 
L 233.980751 341.923931 
L 237.456809 339.299695 
L 240.932867 337.066018 
L 244.408925 335.183489 
L 247.884983 333.616535 
L 251.361041 332.333096 
L 254.837099 331.30431 
L 258.313157 330.504212 
L 261.789215 329.90945 
L 265.265273 329.49902 
L 268.741331 329.254035 
L 273.955418 329.16006 
L 279.169505 329.350128 
L 284.383592 329.781193 
L 289.597678 330.416425 
L 296.549794 331.527124 
L 303.50191 332.882539 
L 312.192055 334.843875 
L 320.8822 337.028272 
L 333.048403 340.34498 
L 348.690664 344.872846 
L 412.997737 363.765432 
L 432.116055 369.026423 
L 451.234374 374.044295 
L 468.614664 378.387281 
L 487.732983 382.924737 
L 498.161157 385.296 
L 498.161157 385.296 
" clip-path="url(#pc45efa756d)" style="fill: none; stroke: #1f77b4; stroke-width: 1.5; stroke-linecap: square"/>
   </g>
   <g id="line2d_18">
    <path d="M 153.147804 -1 
L 154.031417 79.375902 
L 155.769446 191.59385 
L 157.507475 271.614072 
L 159.245504 328.638753 
L 160.983533 369.012392 
L 162.721562 397.199499 
L 164.459591 416.395785 
L 166.19762 428.921865 
L 167.935649 436.483461 
L 169.673678 440.347221 
L 171.411707 441.461846 
L 173.149736 440.542966 
L 174.887765 438.133514 
L 176.625794 434.647247 
L 178.363823 430.400494 
L 180.101852 425.635569 
L 183.57791 415.25059 
L 190.530026 394.012888 
L 194.006084 384.078693 
L 197.482142 374.880293 
L 200.9582 366.490478 
L 204.434258 358.923447 
L 207.910316 352.158738 
L 211.386374 346.156247 
L 214.862432 340.865653 
L 218.33849 336.232305 
L 221.814548 332.200847 
L 225.290606 328.717396 
L 228.766664 325.730795 
L 232.242722 323.193265 
L 235.71878 321.06068 
L 239.194838 319.292616 
L 242.670896 317.852241 
L 246.146954 316.706137 
L 249.623012 315.824067 
L 253.09907 315.178729 
L 256.575128 314.745508 
L 260.051186 314.50223 
L 263.527244 314.428935 
L 268.741331 314.598912 
L 273.955418 315.058126 
L 279.169505 315.761139 
L 284.383592 316.669143 
L 291.335707 318.14207 
L 298.287823 319.855337 
L 306.977968 322.254527 
L 317.406142 325.404587 
L 329.572345 329.319427 
L 350.428693 336.309752 
L 381.713215 346.788162 
L 400.831534 352.951255 
L 418.211824 358.325239 
L 435.592113 363.459181 
L 452.972403 368.34601 
L 470.352693 372.987206 
L 487.732983 377.38943 
L 498.161157 379.92 
L 498.161157 379.92 
" clip-path="url(#pc45efa756d)" style="fill: none; stroke: #ff7f0e; stroke-width: 1.5; stroke-linecap: square"/>
   </g>
   <g id="line2d_19">
    <path d="M 154.411892 -1 
L 155.769446 93.933568 
L 157.507475 181.781523 
L 159.245504 245.472223 
L 160.983533 291.590918 
L 162.721562 324.780644 
L 164.459591 348.372293 
L 166.19762 364.790726 
L 167.935649 375.823337 
L 169.673678 382.801676 
L 171.411707 386.726664 
L 173.149736 388.35643 
L 174.887765 388.268837 
L 176.625794 386.906622 
L 178.363823 384.610362 
L 180.101852 381.642806 
L 181.839881 378.207029 
L 185.315939 370.523304 
L 194.006084 350.599137 
L 197.482142 343.288174 
L 200.9582 336.584344 
L 204.434258 330.532461 
L 207.910316 325.136777 
L 211.386374 320.377355 
L 214.862432 316.220493 
L 218.33849 312.625356 
L 221.814548 309.548173 
L 225.290606 306.944845 
L 228.766664 304.772534 
L 232.242722 302.99058 
L 235.71878 301.560988 
L 239.194838 300.448638 
L 242.670896 299.621314 
L 246.146954 299.049627 
L 249.623012 298.706883 
L 253.09907 298.5689 
L 256.575128 298.613823 
L 260.051186 298.821932 
L 265.265273 299.40167 
L 270.47936 300.256271 
L 275.693447 301.340715 
L 280.907534 302.616576 
L 287.859649 304.559515 
L 294.811765 306.720237 
L 303.50191 309.648454 
L 313.930084 313.391407 
L 329.572345 319.265549 
L 371.285041 335.061538 
L 388.665331 341.352921 
L 404.307592 346.789227 
L 419.949853 351.993791 
L 435.592113 356.961078 
L 451.234374 361.692614 
L 466.876635 366.19432 
L 482.518896 370.474765 
L 498.161157 374.544 
L 498.161157 374.544 
" clip-path="url(#pc45efa756d)" style="fill: none; stroke: #2ca02c; stroke-width: 1.5; stroke-linecap: square"/>
   </g>
   <g id="line2d_20">
    <path d="M 155.818979 -1 
L 157.507475 91.948973 
L 159.245504 162.305693 
L 160.983533 214.169445 
L 162.721562 252.361788 
L 164.459591 280.348802 
L 166.19762 300.659587 
L 167.935649 315.163214 
L 169.673678 325.25613 
L 171.411707 331.991483 
L 173.149736 336.169893 
L 174.887765 338.404159 
L 176.625794 339.165998 
L 178.363823 338.82023 
L 180.101852 337.650043 
L 181.839881 335.875863 
L 183.57791 333.669557 
L 187.053968 328.467474 
L 197.482142 311.696056 
L 200.9582 306.678209 
L 204.434258 302.141474 
L 207.910316 298.114816 
L 211.386374 294.598464 
L 214.862432 291.575333 
L 218.33849 289.018407 
L 221.814548 286.895499 
L 225.290606 285.172294 
L 228.766664 283.814272 
L 232.242722 282.787895 
L 235.71878 282.061297 
L 239.194838 281.604661 
L 242.670896 281.390386 
L 246.146954 281.393117 
L 249.623012 281.589699 
L 253.09907 281.959071 
L 258.313157 282.795845 
L 263.527244 283.921965 
L 268.741331 285.288665 
L 273.955418 286.854258 
L 280.907534 289.190377 
L 287.859649 291.747252 
L 296.549794 295.168533 
L 308.715997 300.228448 
L 329.572345 309.211671 
L 353.904751 319.621392 
L 369.547012 326.085056 
L 385.189273 332.303243 
L 399.093505 337.603358 
L 412.997737 342.682009 
L 426.901969 347.538701 
L 440.8062 352.177221 
L 454.710432 356.604064 
L 470.352693 361.341423 
L 485.994954 365.834139 
L 498.161157 369.168 
L 498.161157 369.168 
" clip-path="url(#pc45efa756d)" style="fill: none; stroke: #d62728; stroke-width: 1.5; stroke-linecap: square"/>
   </g>
   <g id="line2d_21">
    <path d="M 157.455144 -1 
L 157.507475 2.116424 
L 159.245504 79.139163 
L 160.983533 136.747971 
L 162.721562 179.942933 
L 164.459591 212.325311 
L 166.19762 236.528448 
L 167.935649 254.50309 
L 169.673678 267.710585 
L 171.411707 277.256302 
L 173.149736 283.983356 
L 174.887765 288.539481 
L 176.625794 291.425373 
L 178.363823 293.030097 
L 180.101852 293.657281 
L 181.839881 293.544698 
L 183.57791 292.879041 
L 185.315939 291.807157 
L 187.053968 290.44465 
L 190.530026 287.192337 
L 200.9582 276.772074 
L 204.434258 273.750487 
L 207.910316 271.092855 
L 211.386374 268.819572 
L 214.862432 266.930172 
L 218.33849 265.411459 
L 221.814548 264.242826 
L 225.290606 263.399742 
L 228.766664 262.85601 
L 232.242722 262.58521 
L 235.71878 262.561605 
L 239.194838 262.760683 
L 242.670896 263.159458 
L 246.146954 263.736607 
L 251.361041 264.894333 
L 256.575128 266.350454 
L 261.789215 268.05366 
L 267.003302 269.959783 
L 273.955418 272.752324 
L 282.645563 276.544058 
L 293.073736 281.387823 
L 308.715997 288.961752 
L 340.000519 304.169907 
L 355.64278 311.488899 
L 369.547012 317.750733 
L 383.451244 323.759065 
L 397.355476 329.504743 
L 411.259708 334.9872 
L 425.16394 340.211353 
L 439.068171 345.185519 
L 452.972403 349.920022 
L 466.876635 354.426256 
L 480.780867 358.716055 
L 496.423128 363.298139 
L 498.161157 363.792 
L 498.161157 363.792 
" clip-path="url(#pc45efa756d)" style="fill: none; stroke: #9467bd; stroke-width: 1.5; stroke-linecap: square"/>
   </g>
   <g id="line2d_22">
    <path d="M 159.328556 -1 
L 160.983533 59.326497 
L 162.721562 107.524078 
L 164.459591 144.301819 
L 166.19762 172.397309 
L 167.935649 193.842966 
L 169.673678 210.16504 
L 171.411707 222.52112 
L 173.149736 231.79682 
L 174.887765 238.674803 
L 176.625794 243.684748 
L 178.363823 247.239965 
L 180.101852 249.664518 
L 181.839881 251.213532 
L 183.57791 252.088524 
L 185.315939 252.449083 
L 187.053968 252.421826 
L 188.791997 252.107325 
L 190.530026 251.585487 
L 194.006084 250.160468 
L 204.434258 245.3595 
L 207.910316 244.070894 
L 211.386374 243.040681 
L 214.862432 242.285012 
L 218.33849 241.80451 
L 221.814548 241.590152 
L 225.290606 241.627191 
L 228.766664 241.897748 
L 232.242722 242.382525 
L 235.71878 243.061913 
L 239.194838 243.916706 
L 244.408925 245.487879 
L 249.623012 247.355331 
L 254.837099 249.467982 
L 261.789215 252.589712 
L 268.741331 255.978419 
L 277.431476 260.47914 
L 289.597678 267.079159 
L 333.048403 290.961581 
L 346.952635 298.229488 
L 359.118838 304.353635 
L 371.285041 310.243125 
L 383.451244 315.892712 
L 395.617447 321.303009 
L 407.78365 326.478519 
L 419.949853 331.426245 
L 432.116055 336.154736 
L 446.020287 341.302383 
L 459.924519 346.190691 
L 473.828751 350.834456 
L 487.732983 355.248199 
L 498.161157 358.416 
L 498.161157 358.416 
" clip-path="url(#pc45efa756d)" style="fill: none; stroke: #8c564b; stroke-width: 1.5; stroke-linecap: square"/>
   </g>
   <g id="line2d_23">
    <path d="M 161.542019 -1 
L 162.721562 35.105222 
L 164.459591 76.278328 
L 166.19762 108.26617 
L 167.935649 133.182842 
L 169.673678 152.619495 
L 171.411707 167.785939 
L 173.149736 179.610283 
L 174.887765 188.810125 
L 176.625794 195.944123 
L 178.363823 201.449833 
L 180.101852 205.671756 
L 181.839881 208.882367 
L 183.57791 211.298008 
L 185.315939 213.09101 
L 187.053968 214.399002 
L 188.791997 215.332125 
L 190.530026 215.978637 
L 192.268055 216.409313 
L 194.006084 216.680912 
L 197.482142 216.919702 
L 211.386374 217.261789 
L 214.862432 217.639852 
L 218.33849 218.197561 
L 221.814548 218.937478 
L 225.290606 219.85464 
L 228.766664 220.939486 
L 233.980751 222.854144 
L 239.194838 225.072728 
L 244.408925 227.548757 
L 249.623012 230.238147 
L 256.575128 234.087084 
L 265.265273 239.206969 
L 275.693447 245.633903 
L 320.8822 273.872293 
L 333.048403 281.084901 
L 345.214606 288.033313 
L 357.380809 294.700929 
L 369.547012 301.082087 
L 381.713215 307.178387 
L 393.879418 312.996152 
L 406.045621 318.544675 
L 418.211824 323.835016 
L 430.378026 328.879179 
L 442.544229 333.689546 
L 454.710432 338.278504 
L 468.614664 343.267468 
L 482.518896 348.000544 
L 496.423128 352.494316 
L 498.161157 353.04 
L 498.161157 353.04 
" clip-path="url(#pc45efa756d)" style="fill: none; stroke: #e377c2; stroke-width: 1.5; stroke-linecap: square"/>
   </g>
   <g id="line2d_24">
    <path d="M 164.106602 -1 
L 164.459591 8.254837 
L 166.19762 44.135031 
L 167.935649 72.522719 
L 169.673678 95.073949 
L 171.411707 113.050757 
L 173.149736 127.423747 
L 174.887765 138.945447 
L 176.625794 148.203499 
L 178.363823 155.659701 
L 180.101852 161.678993 
L 181.839881 166.551201 
L 183.57791 170.507492 
L 185.315939 173.732936 
L 187.053968 176.376178 
L 188.791997 178.556925 
L 190.530026 180.371786 
L 192.268055 181.898862 
L 194.006084 183.201356 
L 197.482142 185.327584 
L 200.9582 187.05367 
L 206.172287 189.305606 
L 214.862432 192.994692 
L 220.076519 195.424949 
L 225.290606 198.082088 
L 230.504693 200.96751 
L 235.71878 204.062529 
L 242.670896 208.466674 
L 249.623012 213.120963 
L 260.051186 220.42044 
L 277.431476 232.967594 
L 296.549794 246.690412 
L 308.715997 255.161664 
L 320.8822 263.346297 
L 331.310374 270.105652 
L 341.738548 276.616364 
L 352.166722 282.874452 
L 362.594896 288.881 
L 373.02307 294.640561 
L 383.451244 300.160006 
L 393.879418 305.447683 
L 404.307592 310.512828 
L 416.473795 316.153849 
L 428.639998 321.520807 
L 440.8062 326.629185 
L 452.972403 331.494035 
L 465.138606 336.129799 
L 477.304809 340.550209 
L 491.209041 345.355016 
L 498.161157 347.664 
L 498.161157 347.664 
" clip-path="url(#pc45efa756d)" style="fill: none; stroke: #7f7f7f; stroke-width: 1.5; stroke-linecap: square"/>
   </g>
   <g id="line2d_25">
    <path d="M 167.23394 -1 
L 167.935649 11.862595 
L 169.673678 37.528404 
L 171.411707 58.315576 
L 173.149736 75.23721 
L 174.887765 89.080769 
L 176.625794 100.462874 
L 178.363823 109.869568 
L 180.101852 117.68623 
L 181.839881 124.220036 
L 183.57791 129.716975 
L 185.315939 134.374862 
L 187.053968 138.353354 
L 188.791997 141.781725 
L 190.530026 144.764936 
L 192.268055 147.38841 
L 194.006084 149.7218 
L 195.744113 151.821985 
L 199.220171 155.500276 
L 202.696229 158.702692 
L 206.172287 161.616044 
L 213.124403 167.030365 
L 228.766664 179.022963 
L 239.194838 187.384773 
L 251.361041 197.455571 
L 280.907534 222.059378 
L 293.073736 231.83808 
L 303.50191 239.946199 
L 313.930084 247.770233 
L 324.358258 255.2946 
L 334.786432 262.513436 
L 345.214606 269.427679 
L 355.64278 276.042923 
L 366.070954 282.367849 
L 376.499128 288.413088 
L 386.927302 294.190416 
L 397.355476 299.712176 
L 407.78365 304.990879 
L 418.211824 310.038927 
L 428.639998 314.868424 
L 440.8062 320.242176 
L 452.972403 325.352039 
L 465.138606 330.214712 
L 477.304809 334.845864 
L 489.471012 339.260136 
L 498.161157 342.288 
L 498.161157 342.288 
" clip-path="url(#pc45efa756d)" style="fill: none; stroke: #bcbd22; stroke-width: 1.5; stroke-linecap: square"/>
   </g>
   <g id="line2d_26">
    <path d="M 171.074348 -1 
L 171.411707 3.580395 
L 173.149736 23.050674 
L 174.887765 39.216091 
L 176.625794 52.722249 
L 178.363823 64.079436 
L 180.101852 73.693468 
L 181.839881 81.88887 
L 183.57791 88.926459 
L 185.315939 95.016789 
L 187.053968 100.330531 
L 188.791997 105.006525 
L 190.530026 109.158086 
L 192.268055 112.877958 
L 194.006084 116.242244 
L 195.744113 119.313521 
L 199.220171 124.774261 
L 202.696229 129.573821 
L 206.172287 133.926482 
L 211.386374 139.925114 
L 216.600461 145.551216 
L 225.290606 154.536985 
L 239.194838 168.540795 
L 254.837099 183.998919 
L 267.003302 195.713322 
L 277.431476 205.456048 
L 287.859649 214.873671 
L 296.549794 222.451351 
L 305.239939 229.772634 
L 313.930084 236.83337 
L 322.620229 243.633637 
L 331.310374 250.17667 
L 340.000519 256.467986 
L 348.690664 262.5147 
L 357.380809 268.324992 
L 366.070954 273.907702 
L 376.499128 280.319509 
L 386.927302 286.432958 
L 397.355476 292.264034 
L 407.78365 297.828333 
L 418.211824 303.140883 
L 428.639998 308.216042 
L 439.068171 313.06744 
L 451.234374 318.46173 
L 463.400577 323.588104 
L 475.56678 328.464353 
L 487.732983 333.106969 
L 498.161157 336.912 
L 498.161157 336.912 
" clip-path="url(#pc45efa756d)" style="fill: none; stroke: #17becf; stroke-width: 1.5; stroke-linecap: square"/>
   </g>
   <g id="line2d_27">
    <path d="M 175.960657 -1 
L 176.625794 4.981625 
L 178.363823 18.289304 
L 180.101852 29.700705 
L 181.839881 39.557705 
L 183.57791 48.135942 
L 185.315939 55.658715 
L 187.053968 62.307707 
L 188.791997 68.231325 
L 190.530026 73.551236 
L 192.268055 78.367507 
L 194.006084 82.762687 
L 195.744113 86.805057 
L 199.220171 94.048245 
L 202.696229 100.44495 
L 206.172287 106.236919 
L 209.648345 111.59306 
L 214.862432 119.059211 
L 220.076519 126.065043 
L 227.028635 134.946228 
L 233.980751 143.474285 
L 242.670896 153.77389 
L 251.361041 163.73619 
L 260.051186 173.379544 
L 268.741331 182.702802 
L 277.431476 191.700274 
L 286.12162 200.367681 
L 294.811765 208.704087 
L 303.50191 216.712114 
L 312.192055 224.397474 
L 320.8822 231.768308 
L 329.572345 238.834526 
L 338.26249 245.607244 
L 346.952635 252.098308 
L 355.64278 258.319935 
L 364.332925 264.284434 
L 373.02307 270.004 
L 381.713215 275.490568 
L 392.141389 281.783152 
L 402.569563 287.776024 
L 412.997737 293.487355 
L 423.425911 298.934281 
L 433.854084 304.132891 
L 444.282258 309.098249 
L 454.710432 313.844424 
L 466.876635 319.122064 
L 479.042838 324.138506 
L 491.209041 328.911517 
L 498.161157 331.536 
L 498.161157 331.536 
" clip-path="url(#pc45efa756d)" style="fill: none; stroke: #1f77b4; stroke-width: 1.5; stroke-linecap: square"/>
   </g>
   <g id="patch_3">
    <path d="M 135 512.64 
L 135 69.12 
" style="fill: none; stroke: #000000; stroke-width: 0.8; stroke-linejoin: miter; stroke-linecap: square"/>
   </g>
   <g id="patch_4">
    <path d="M 515.454545 512.64 
L 515.454545 69.12 
" style="fill: none; stroke: #000000; stroke-width: 0.8; stroke-linejoin: miter; stroke-linecap: square"/>
   </g>
   <g id="patch_5">
    <path d="M 135 512.64 
L 515.454545 512.64 
" style="fill: none; stroke: #000000; stroke-width: 0.8; stroke-linejoin: miter; stroke-linecap: square"/>
   </g>
   <g id="patch_6">
    <path d="M 135 69.12 
L 515.454545 69.12 
" style="fill: none; stroke: #000000; stroke-width: 0.8; stroke-linejoin: miter; stroke-linecap: square"/>
   </g>
  </g>
  <g id="axes_2">
   <g id="patch_7">
    <path d="M 591.545455 512.64 
L 972 512.64 
L 972 69.12 
L 591.545455 69.12 
z
" style="fill: #ffffff"/>
   </g>
   <g id="PolyCollection_1">
    <defs>
     <path id="m67ca3dcd64" d="M 619.963345 -240.768 
L 619.963345 -240.768 
L 621.010227 -227.569127 
L 622.057109 -216.958472 
L 623.103991 -208.525081 
L 624.150873 -201.925468 
L 625.197755 -196.871515 
L 626.244637 -193.120768 
L 627.291519 -190.468604 
L 628.338401 -188.741877 
L 629.385283 -187.793727 
L 630.432165 -187.499335 
L 631.479047 -187.752413 
L 632.525928 -188.462315 
L 633.57281 -189.551627 
L 634.619692 -190.954164 
L 635.666574 -192.61329 
L 636.713456 -194.480512 
L 637.760338 -196.514292 
L 638.80722 -198.679048 
L 639.854102 -200.944306 
L 640.900984 -203.283978 
L 641.947866 -205.675749 
L 642.994748 -208.100558 
L 644.04163 -210.542148 
L 645.088512 -212.986681 
L 646.135394 -215.422415 
L 647.182276 -217.839415 
L 648.229158 -220.229314 
L 649.27604 -222.585101 
L 650.322922 -224.900939 
L 651.369804 -227.172008 
L 652.416686 -229.39437 
L 653.463568 -231.564849 
L 654.510449 -233.680929 
L 655.557331 -235.740666 
L 656.604213 -237.74261 
L 657.651095 -239.685735 
L 658.697977 -241.569383 
L 659.744859 -243.393213 
L 660.791741 -245.157151 
L 661.838623 -246.861358 
L 662.885505 -248.506193 
L 663.932387 -250.092178 
L 664.979269 -251.619983 
L 666.026151 -253.090391 
L 667.073033 -254.504289 
L 668.119915 -255.862643 
L 669.166797 -257.166486 
L 670.213679 -258.416905 
L 671.260561 -259.615029 
L 672.307443 -260.762018 
L 673.354325 -261.859057 
L 674.401207 -262.907346 
L 675.448088 -263.908094 
L 676.49497 -264.862515 
L 677.541852 -265.771821 
L 678.588734 -266.637219 
L 679.635616 -267.459907 
L 680.682498 -268.241071 
L 681.72938 -268.981884 
L 682.776262 -269.683501 
L 683.823144 -270.347059 
L 684.870026 -270.973677 
L 685.916908 -271.564449 
L 686.96379 -272.120452 
L 688.010672 -272.642737 
L 689.057554 -273.132333 
L 690.104436 -273.590245 
L 691.151318 -274.017453 
L 692.1982 -274.414916 
L 693.245082 -274.783567 
L 694.291964 -275.124313 
L 695.338846 -275.438041 
L 696.385727 -275.725612 
L 697.432609 -275.987864 
L 698.479491 -276.225611 
L 699.526373 -276.439645 
L 700.573255 -276.630737 
L 701.620137 -276.799632 
L 702.667019 -276.947058 
L 703.713901 -277.073719 
L 704.760783 -277.180298 
L 705.807665 -277.267459 
L 706.854547 -277.335847 
L 707.901429 -277.386086 
L 708.948311 -277.41878 
L 709.995193 -277.434519 
L 711.042075 -277.433871 
L 712.088957 -277.417388 
L 713.135839 -277.385606 
L 714.182721 -277.339044 
L 715.229603 -277.278203 
L 716.276485 -277.203572 
L 717.323366 -277.115623 
L 718.370248 -277.014813 
L 719.41713 -276.901585 
L 720.464012 -276.776369 
L 721.510894 -276.639582 
L 722.557776 -276.491625 
L 723.604658 -276.33289 
L 724.65154 -276.163756 
L 725.698422 -275.984588 
L 726.745304 -275.795742 
L 727.792186 -275.597562 
L 728.839068 -275.39038 
L 729.88595 -275.17452 
L 730.932832 -274.950295 
L 731.979714 -274.718006 
L 733.026596 -274.477948 
L 734.073478 -274.230404 
L 735.12036 -273.975651 
L 736.167242 -273.713953 
L 737.214124 -273.44557 
L 738.261006 -273.170753 
L 739.307887 -272.889742 
L 740.354769 -272.602773 
L 741.401651 -272.310074 
L 742.448533 -272.011864 
L 743.495415 -271.708357 
L 744.542297 -271.399761 
L 745.589179 -271.086274 
L 746.636061 -270.768092 
L 747.682943 -270.445401 
L 748.729825 -270.118385 
L 749.776707 -269.787219 
L 750.823589 -269.452075 
L 751.870471 -269.113117 
L 752.917353 -268.770508 
L 753.964235 -268.424401 
L 755.011117 -268.074947 
L 756.057999 -267.722293 
L 757.104881 -267.366579 
L 758.151763 -267.007943 
L 759.198645 -266.646518 
L 760.245526 -266.282431 
L 761.292408 -265.915807 
L 762.33929 -265.546767 
L 763.386172 -265.175428 
L 764.433054 -264.801903 
L 765.479936 -264.426302 
L 766.526818 -264.048731 
L 767.5737 -263.669293 
L 768.620582 -263.288088 
L 769.667464 -262.905212 
L 770.714346 -262.52076 
L 771.761228 -262.134822 
L 772.80811 -261.747486 
L 773.854992 -261.358837 
L 774.901874 -260.968958 
L 775.948756 -260.577928 
L 776.995638 -260.185825 
L 778.04252 -259.792725 
L 779.089402 -259.398699 
L 780.136284 -259.003818 
L 781.183165 -258.60815 
L 782.230047 -258.211762 
L 783.276929 -257.814717 
L 784.323811 -257.417077 
L 785.370693 -257.018903 
L 786.417575 -256.620252 
L 787.464457 -256.22118 
L 788.511339 -255.821743 
L 789.558221 -255.421992 
L 790.605103 -255.02198 
L 791.651985 -254.621754 
L 792.698867 -254.221364 
L 793.745749 -253.820856 
L 794.792631 -253.420274 
L 795.839513 -253.019663 
L 796.886395 -252.619063 
L 797.933277 -252.218516 
L 798.980159 -251.81806 
L 800.027041 -251.417735 
L 801.073923 -251.017577 
L 802.120805 -250.617622 
L 803.167686 -250.217903 
L 804.214568 -249.818455 
L 805.26145 -249.41931 
L 806.308332 -249.020499 
L 807.355214 -248.622051 
L 808.402096 -248.223997 
L 809.448978 -247.826364 
L 810.49586 -247.42918 
L 811.542742 -247.03247 
L 812.589624 -246.636261 
L 813.636506 -246.240577 
L 814.683388 -245.845441 
L 815.73027 -245.450877 
L 816.777152 -245.056906 
L 817.824034 -244.663551 
L 818.870916 -244.27083 
L 819.917798 -243.878765 
L 820.96468 -243.487375 
L 822.011562 -243.096678 
L 823.058444 -242.706691 
L 824.105325 -242.317432 
L 825.152207 -241.928918 
L 826.199089 -241.541165 
L 827.245971 -241.154187 
L 828.292853 -240.768 
L 828.292853 -240.768 
L 828.292853 -240.768 
L 827.245971 -240.768 
L 826.199089 -240.768 
L 825.152207 -240.768 
L 824.105325 -240.768 
L 823.058444 -240.768 
L 822.011562 -240.768 
L 820.96468 -240.768 
L 819.917798 -240.768 
L 818.870916 -240.768 
L 817.824034 -240.768 
L 816.777152 -240.768 
L 815.73027 -240.768 
L 814.683388 -240.768 
L 813.636506 -240.768 
L 812.589624 -240.768 
L 811.542742 -240.768 
L 810.49586 -240.768 
L 809.448978 -240.768 
L 808.402096 -240.768 
L 807.355214 -240.768 
L 806.308332 -240.768 
L 805.26145 -240.768 
L 804.214568 -240.768 
L 803.167686 -240.768 
L 802.120805 -240.768 
L 801.073923 -240.768 
L 800.027041 -240.768 
L 798.980159 -240.768 
L 797.933277 -240.768 
L 796.886395 -240.768 
L 795.839513 -240.768 
L 794.792631 -240.768 
L 793.745749 -240.768 
L 792.698867 -240.768 
L 791.651985 -240.768 
L 790.605103 -240.768 
L 789.558221 -240.768 
L 788.511339 -240.768 
L 787.464457 -240.768 
L 786.417575 -240.768 
L 785.370693 -240.768 
L 784.323811 -240.768 
L 783.276929 -240.768 
L 782.230047 -240.768 
L 781.183165 -240.768 
L 780.136284 -240.768 
L 779.089402 -240.768 
L 778.04252 -240.768 
L 776.995638 -240.768 
L 775.948756 -240.768 
L 774.901874 -240.768 
L 773.854992 -240.768 
L 772.80811 -240.768 
L 771.761228 -240.768 
L 770.714346 -240.768 
L 769.667464 -240.768 
L 768.620582 -240.768 
L 767.5737 -240.768 
L 766.526818 -240.768 
L 765.479936 -240.768 
L 764.433054 -240.768 
L 763.386172 -240.768 
L 762.33929 -240.768 
L 761.292408 -240.768 
L 760.245526 -240.768 
L 759.198645 -240.768 
L 758.151763 -240.768 
L 757.104881 -240.768 
L 756.057999 -240.768 
L 755.011117 -240.768 
L 753.964235 -240.768 
L 752.917353 -240.768 
L 751.870471 -240.768 
L 750.823589 -240.768 
L 749.776707 -240.768 
L 748.729825 -240.768 
L 747.682943 -240.768 
L 746.636061 -240.768 
L 745.589179 -240.768 
L 744.542297 -240.768 
L 743.495415 -240.768 
L 742.448533 -240.768 
L 741.401651 -240.768 
L 740.354769 -240.768 
L 739.307887 -240.768 
L 738.261006 -240.768 
L 737.214124 -240.768 
L 736.167242 -240.768 
L 735.12036 -240.768 
L 734.073478 -240.768 
L 733.026596 -240.768 
L 731.979714 -240.768 
L 730.932832 -240.768 
L 729.88595 -240.768 
L 728.839068 -240.768 
L 727.792186 -240.768 
L 726.745304 -240.768 
L 725.698422 -240.768 
L 724.65154 -240.768 
L 723.604658 -240.768 
L 722.557776 -240.768 
L 721.510894 -240.768 
L 720.464012 -240.768 
L 719.41713 -240.768 
L 718.370248 -240.768 
L 717.323366 -240.768 
L 716.276485 -240.768 
L 715.229603 -240.768 
L 714.182721 -240.768 
L 713.135839 -240.768 
L 712.088957 -240.768 
L 711.042075 -240.768 
L 709.995193 -240.768 
L 708.948311 -240.768 
L 707.901429 -240.768 
L 706.854547 -240.768 
L 705.807665 -240.768 
L 704.760783 -240.768 
L 703.713901 -240.768 
L 702.667019 -240.768 
L 701.620137 -240.768 
L 700.573255 -240.768 
L 699.526373 -240.768 
L 698.479491 -240.768 
L 697.432609 -240.768 
L 696.385727 -240.768 
L 695.338846 -240.768 
L 694.291964 -240.768 
L 693.245082 -240.768 
L 692.1982 -240.768 
L 691.151318 -240.768 
L 690.104436 -240.768 
L 689.057554 -240.768 
L 688.010672 -240.768 
L 686.96379 -240.768 
L 685.916908 -240.768 
L 684.870026 -240.768 
L 683.823144 -240.768 
L 682.776262 -240.768 
L 681.72938 -240.768 
L 680.682498 -240.768 
L 679.635616 -240.768 
L 678.588734 -240.768 
L 677.541852 -240.768 
L 676.49497 -240.768 
L 675.448088 -240.768 
L 674.401207 -240.768 
L 673.354325 -240.768 
L 672.307443 -240.768 
L 671.260561 -240.768 
L 670.213679 -240.768 
L 669.166797 -240.768 
L 668.119915 -240.768 
L 667.073033 -240.768 
L 666.026151 -240.768 
L 664.979269 -240.768 
L 663.932387 -240.768 
L 662.885505 -240.768 
L 661.838623 -240.768 
L 660.791741 -240.768 
L 659.744859 -240.768 
L 658.697977 -240.768 
L 657.651095 -240.768 
L 656.604213 -240.768 
L 655.557331 -240.768 
L 654.510449 -240.768 
L 653.463568 -240.768 
L 652.416686 -240.768 
L 651.369804 -240.768 
L 650.322922 -240.768 
L 649.27604 -240.768 
L 648.229158 -240.768 
L 647.182276 -240.768 
L 646.135394 -240.768 
L 645.088512 -240.768 
L 644.04163 -240.768 
L 642.994748 -240.768 
L 641.947866 -240.768 
L 640.900984 -240.768 
L 639.854102 -240.768 
L 638.80722 -240.768 
L 637.760338 -240.768 
L 636.713456 -240.768 
L 635.666574 -240.768 
L 634.619692 -240.768 
L 633.57281 -240.768 
L 632.525928 -240.768 
L 631.479047 -240.768 
L 630.432165 -240.768 
L 629.385283 -240.768 
L 628.338401 -240.768 
L 627.291519 -240.768 
L 626.244637 -240.768 
L 625.197755 -240.768 
L 624.150873 -240.768 
L 623.103991 -240.768 
L 622.057109 -240.768 
L 621.010227 -240.768 
L 619.963345 -240.768 
z
" style="stroke: #cccccc"/>
    </defs>
    <g clip-path="url(#p4f70d0e8e9)">
     <use xlink:href="#m67ca3dcd64" x="0" y="576" style="fill: #cccccc; stroke: #cccccc"/>
    </g>
   </g>
   <g id="matplotlib.axis_3">
    <g id="xtick_9">
     <g id="line2d_28">
      <g>
       <use xlink:href="#m68ca3f37a8" x="608.838843" y="512.64" style="stroke: #000000; stroke-width: 0.8"/>
      </g>
     </g>
     <g id="text_17">
      <!-- 0.5 -->
      <g transform="translate(600.88728 527.238438)scale(0.1 -0.1)">
       <use xlink:href="#DejaVuSans-30"/>
       <use xlink:href="#DejaVuSans-2e" x="63.623047"/>
       <use xlink:href="#DejaVuSans-35" x="95.410156"/>
      </g>
     </g>
    </g>
    <g id="xtick_10">
     <g id="line2d_29">
      <g>
       <use xlink:href="#m68ca3f37a8" x="658.248524" y="512.64" style="stroke: #000000; stroke-width: 0.8"/>
      </g>
     </g>
     <g id="text_18">
      <!-- 1.0 -->
      <g transform="translate(650.296962 527.238438)scale(0.1 -0.1)">
       <use xlink:href="#DejaVuSans-31"/>
       <use xlink:href="#DejaVuSans-2e" x="63.623047"/>
       <use xlink:href="#DejaVuSans-30" x="95.410156"/>
      </g>
     </g>
    </g>
    <g id="xtick_11">
     <g id="line2d_30">
      <g>
       <use xlink:href="#m68ca3f37a8" x="707.658205" y="512.64" style="stroke: #000000; stroke-width: 0.8"/>
      </g>
     </g>
     <g id="text_19">
      <!-- 1.5 -->
      <g transform="translate(699.706643 527.238438)scale(0.1 -0.1)">
       <use xlink:href="#DejaVuSans-31"/>
       <use xlink:href="#DejaVuSans-2e" x="63.623047"/>
       <use xlink:href="#DejaVuSans-35" x="95.410156"/>
      </g>
     </g>
    </g>
    <g id="xtick_12">
     <g id="line2d_31">
      <g>
       <use xlink:href="#m68ca3f37a8" x="757.067887" y="512.64" style="stroke: #000000; stroke-width: 0.8"/>
      </g>
     </g>
     <g id="text_20">
      <!-- 2.0 -->
      <g transform="translate(749.116324 527.238438)scale(0.1 -0.1)">
       <use xlink:href="#DejaVuSans-32"/>
       <use xlink:href="#DejaVuSans-2e" x="63.623047"/>
       <use xlink:href="#DejaVuSans-30" x="95.410156"/>
      </g>
     </g>
    </g>
    <g id="xtick_13">
     <g id="line2d_32">
      <g>
       <use xlink:href="#m68ca3f37a8" x="806.477568" y="512.64" style="stroke: #000000; stroke-width: 0.8"/>
      </g>
     </g>
     <g id="text_21">
      <!-- 2.5 -->
      <g transform="translate(798.526005 527.238438)scale(0.1 -0.1)">
       <use xlink:href="#DejaVuSans-32"/>
       <use xlink:href="#DejaVuSans-2e" x="63.623047"/>
       <use xlink:href="#DejaVuSans-35" x="95.410156"/>
      </g>
     </g>
    </g>
    <g id="xtick_14">
     <g id="line2d_33">
      <g>
       <use xlink:href="#m68ca3f37a8" x="855.887249" y="512.64" style="stroke: #000000; stroke-width: 0.8"/>
      </g>
     </g>
     <g id="text_22">
      <!-- 3.0 -->
      <g transform="translate(847.935687 527.238438)scale(0.1 -0.1)">
       <use xlink:href="#DejaVuSans-33"/>
       <use xlink:href="#DejaVuSans-2e" x="63.623047"/>
       <use xlink:href="#DejaVuSans-30" x="95.410156"/>
      </g>
     </g>
    </g>
    <g id="xtick_15">
     <g id="line2d_34">
      <g>
       <use xlink:href="#m68ca3f37a8" x="905.29693" y="512.64" style="stroke: #000000; stroke-width: 0.8"/>
      </g>
     </g>
     <g id="text_23">
      <!-- 3.5 -->
      <g transform="translate(897.345368 527.238438)scale(0.1 -0.1)">
       <use xlink:href="#DejaVuSans-33"/>
       <use xlink:href="#DejaVuSans-2e" x="63.623047"/>
       <use xlink:href="#DejaVuSans-35" x="95.410156"/>
      </g>
     </g>
    </g>
    <g id="xtick_16">
     <g id="line2d_35">
      <g>
       <use xlink:href="#m68ca3f37a8" x="954.706612" y="512.64" style="stroke: #000000; stroke-width: 0.8"/>
      </g>
     </g>
     <g id="text_24">
      <!-- 4.0 -->
      <g transform="translate(946.755049 527.238438)scale(0.1 -0.1)">
       <use xlink:href="#DejaVuSans-34"/>
       <use xlink:href="#DejaVuSans-2e" x="63.623047"/>
       <use xlink:href="#DejaVuSans-30" x="95.410156"/>
      </g>
     </g>
    </g>
   </g>
   <g id="matplotlib.axis_4">
    <g id="ytick_9">
     <g id="line2d_36">
      <g>
       <use xlink:href="#m28faa78c62" x="591.545455" y="512.64" style="stroke: #000000; stroke-width: 0.8"/>
      </g>
     </g>
     <g id="text_25">
      <!-- 0.0 -->
      <g transform="translate(568.64233 516.439219)scale(0.1 -0.1)">
       <use xlink:href="#DejaVuSans-30"/>
       <use xlink:href="#DejaVuSans-2e" x="63.623047"/>
       <use xlink:href="#DejaVuSans-30" x="95.410156"/>
      </g>
     </g>
    </g>
    <g id="ytick_10">
     <g id="line2d_37">
      <g>
       <use xlink:href="#m28faa78c62" x="591.545455" y="453.504" style="stroke: #000000; stroke-width: 0.8"/>
      </g>
     </g>
     <g id="text_26">
      <!-- 0.2 -->
      <g transform="translate(568.64233 457.303219)scale(0.1 -0.1)">
       <use xlink:href="#DejaVuSans-30"/>
       <use xlink:href="#DejaVuSans-2e" x="63.623047"/>
       <use xlink:href="#DejaVuSans-32" x="95.410156"/>
      </g>
     </g>
    </g>
    <g id="ytick_11">
     <g id="line2d_38">
      <g>
       <use xlink:href="#m28faa78c62" x="591.545455" y="394.368" style="stroke: #000000; stroke-width: 0.8"/>
      </g>
     </g>
     <g id="text_27">
      <!-- 0.4 -->
      <g transform="translate(568.64233 398.167219)scale(0.1 -0.1)">
       <use xlink:href="#DejaVuSans-30"/>
       <use xlink:href="#DejaVuSans-2e" x="63.623047"/>
       <use xlink:href="#DejaVuSans-34" x="95.410156"/>
      </g>
     </g>
    </g>
    <g id="ytick_12">
     <g id="line2d_39">
      <g>
       <use xlink:href="#m28faa78c62" x="591.545455" y="335.232" style="stroke: #000000; stroke-width: 0.8"/>
      </g>
     </g>
     <g id="text_28">
      <!-- 0.6 -->
      <g transform="translate(568.64233 339.031219)scale(0.1 -0.1)">
       <use xlink:href="#DejaVuSans-30"/>
       <use xlink:href="#DejaVuSans-2e" x="63.623047"/>
       <use xlink:href="#DejaVuSans-36" x="95.410156"/>
      </g>
     </g>
    </g>
    <g id="ytick_13">
     <g id="line2d_40">
      <g>
       <use xlink:href="#m28faa78c62" x="591.545455" y="276.096" style="stroke: #000000; stroke-width: 0.8"/>
      </g>
     </g>
     <g id="text_29">
      <!-- 0.8 -->
      <g transform="translate(568.64233 279.895219)scale(0.1 -0.1)">
       <use xlink:href="#DejaVuSans-30"/>
       <use xlink:href="#DejaVuSans-2e" x="63.623047"/>
       <use xlink:href="#DejaVuSans-38" x="95.410156"/>
      </g>
     </g>
    </g>
    <g id="ytick_14">
     <g id="line2d_41">
      <g>
       <use xlink:href="#m28faa78c62" x="591.545455" y="216.96" style="stroke: #000000; stroke-width: 0.8"/>
      </g>
     </g>
     <g id="text_30">
      <!-- 1.0 -->
      <g transform="translate(568.64233 220.759219)scale(0.1 -0.1)">
       <use xlink:href="#DejaVuSans-31"/>
       <use xlink:href="#DejaVuSans-2e" x="63.623047"/>
       <use xlink:href="#DejaVuSans-30" x="95.410156"/>
      </g>
     </g>
    </g>
    <g id="ytick_15">
     <g id="line2d_42">
      <g>
       <use xlink:href="#m28faa78c62" x="591.545455" y="157.824" style="stroke: #000000; stroke-width: 0.8"/>
      </g>
     </g>
     <g id="text_31">
      <!-- 1.2 -->
      <g transform="translate(568.64233 161.623219)scale(0.1 -0.1)">
       <use xlink:href="#DejaVuSans-31"/>
       <use xlink:href="#DejaVuSans-2e" x="63.623047"/>
       <use xlink:href="#DejaVuSans-32" x="95.410156"/>
      </g>
     </g>
    </g>
    <g id="ytick_16">
     <g id="line2d_43">
      <g>
       <use xlink:href="#m28faa78c62" x="591.545455" y="98.688" style="stroke: #000000; stroke-width: 0.8"/>
      </g>
     </g>
     <g id="text_32">
      <!-- 1.4 -->
      <g transform="translate(568.64233 102.487219)scale(0.1 -0.1)">
       <use xlink:href="#DejaVuSans-31"/>
       <use xlink:href="#DejaVuSans-2e" x="63.623047"/>
       <use xlink:href="#DejaVuSans-34" x="95.410156"/>
      </g>
     </g>
    </g>
   </g>
   <g id="line2d_44">
    <path d="M 610.957346 -1 
L 612.314901 93.933568 
L 614.05293 181.781523 
L 615.790959 245.472223 
L 617.528988 291.590918 
L 619.267017 324.780644 
L 621.005046 348.372293 
L 622.743075 364.790726 
L 624.481104 375.823337 
L 626.219133 382.801676 
L 627.957162 386.726664 
L 629.695191 388.35643 
L 631.43322 388.268837 
L 633.171249 386.906622 
L 634.909278 384.610362 
L 636.647307 381.642806 
L 638.385336 378.207029 
L 641.861394 370.523304 
L 650.551539 350.599137 
L 654.027597 343.288174 
L 657.503655 336.584344 
L 660.979713 330.532461 
L 664.455771 325.136777 
L 667.931829 320.377355 
L 671.407887 316.220493 
L 674.883945 312.625356 
L 678.360002 309.548173 
L 681.83606 306.944845 
L 685.312118 304.772534 
L 688.788176 302.99058 
L 692.264234 301.560988 
L 695.740292 300.448638 
L 699.21635 299.621314 
L 702.692408 299.049627 
L 706.168466 298.706883 
L 709.644524 298.5689 
L 713.120582 298.613823 
L 716.59664 298.821932 
L 721.810727 299.40167 
L 727.024814 300.256271 
L 732.238901 301.340715 
L 737.452988 302.616576 
L 744.405104 304.559515 
L 751.35722 306.720237 
L 760.047365 309.648454 
L 770.475539 313.391407 
L 786.1178 319.265549 
L 827.830495 335.061538 
L 845.210785 341.352921 
L 860.853046 346.789227 
L 876.495307 351.993791 
L 892.137568 356.961078 
L 907.779829 361.692614 
L 923.42209 366.19432 
L 939.064351 370.474765 
L 954.706612 374.544 
L 954.706612 374.544 
" clip-path="url(#p4f70d0e8e9)" style="fill: none; stroke: #1f77b4; stroke-width: 1.5; stroke-linecap: square"/>
   </g>
   <g id="LineCollection_1">
    <path d="M 619.963345 335.232 
L 828.292853 335.232 
" clip-path="url(#p4f70d0e8e9)" style="fill: none; stroke: #000000; stroke-width: 1.5"/>
   </g>
   <g id="patch_8">
    <path d="M 591.545455 512.64 
L 591.545455 69.12 
" style="fill: none; stroke: #000000; stroke-width: 0.8; stroke-linejoin: miter; stroke-linecap: square"/>
   </g>
   <g id="patch_9">
    <path d="M 972 512.64 
L 972 69.12 
" style="fill: none; stroke: #000000; stroke-width: 0.8; stroke-linejoin: miter; stroke-linecap: square"/>
   </g>
   <g id="patch_10">
    <path d="M 591.545455 512.64 
L 972 512.64 
" style="fill: none; stroke: #000000; stroke-width: 0.8; stroke-linejoin: miter; stroke-linecap: square"/>
   </g>
   <g id="patch_11">
    <path d="M 591.545455 69.12 
L 972 69.12 
" style="fill: none; stroke: #000000; stroke-width: 0.8; stroke-linejoin: miter; stroke-linecap: square"/>
   </g>
   <g id="PathCollection_1">
    <defs>
     <path id="madb30be370" d="M 0 3 
C 0.795609 3 1.55874 2.683901 2.12132 2.12132 
C 2.683901 1.55874 3 0.795609 3 0 
C 3 -0.795609 2.683901 -1.55874 2.12132 -2.12132 
C 1.55874 -2.683901 0.795609 -3 0 -3 
C -0.795609 -3 -1.55874 -2.683901 -2.12132 -2.12132 
C -2.683901 -1.55874 -3 -0.795609 -3 0 
C -3 0.795609 -2.683901 1.55874 -2.12132 2.12132 
C -1.55874 2.683901 -0.795609 3 0 3 
z
" style="stroke: #1f77b4"/>
    </defs>
    <g clip-path="url(#p4f70d0e8e9)">
     <use xlink:href="#madb30be370" x="630.440478" y="388.500683" style="fill: #1f77b4; stroke: #1f77b4"/>
     <use xlink:href="#madb30be370" x="710.475048" y="298.563778" style="fill: #1f77b4; stroke: #1f77b4"/>
    </g>
   </g>
   <g id="PathCollection_2">
    <defs>
     <path id="m45b5e2b79d" d="M 0 3 
C 0.795609 3 1.55874 2.683901 2.12132 2.12132 
C 2.683901 1.55874 3 0.795609 3 0 
C 3 -0.795609 2.683901 -1.55874 2.12132 -2.12132 
C 1.55874 -2.683901 0.795609 -3 0 -3 
C -0.795609 -3 -1.55874 -2.683901 -2.12132 -2.12132 
C -2.683901 -1.55874 -3 -0.795609 -3 0 
C -3 0.795609 -2.683901 1.55874 -2.12132 2.12132 
C -1.55874 2.683901 -0.795609 3 0 3 
z
" style="stroke: #ff7f0e"/>
    </defs>
    <g clip-path="url(#p4f70d0e8e9)">
     <use xlink:href="#m45b5e2b79d" x="619.963345" y="335.232" style="fill: #ff7f0e; stroke: #ff7f0e"/>
     <use xlink:href="#m45b5e2b79d" x="658.248524" y="335.232" style="fill: #ff7f0e; stroke: #ff7f0e"/>
     <use xlink:href="#m45b5e2b79d" x="828.292853" y="335.232" style="fill: #ff7f0e; stroke: #ff7f0e"/>
    </g>
   </g>
  </g>
 </g>
 <defs>
  <clipPath id="pc45efa756d">
   <rect x="135" y="69.12" width="380.454545" height="443.52"/>
  </clipPath>
  <clipPath id="p4f70d0e8e9">
   <rect x="591.545455" y="69.12" width="380.454545" height="443.52"/>
  </clipPath>
 </defs>
</svg>
