<?xml version="1.0" encoding="utf-8" standalone="no"?>
<!DOCTYPE svg PUBLIC "-//W3C//DTD SVG 1.1//EN"
  "http://www.w3.org/Graphics/SVG/1.1/DTD/svg11.dtd">
<svg xmlns:xlink="http://www.w3.org/1999/xlink" width="1080pt" height="576pt" viewBox="0 0 1080 576" xmlns="http://www.w3.org/2000/svg" version="1.1">
 <metadata>
  <rdf:RDF xmlns:dc="http://purl.org/dc/elements/1.1/" xmlns:cc="http://creativecommons.org/ns#" xmlns:rdf="http://www.w3.org/1999/02/22-rdf-syntax-ns#">
   <cc:Work>
    <dc:type rdf:resource="http://purl.org/dc/dcmitype/StillImage"/>
    <dc:date>2023-11-30T13:29:42.862295</dc:date>
    <dc:format>image/svg+xml</dc:format>
    <dc:creator>
     <cc:Agent>
      <dc:title>Matplotlib v3.6.2, https://matplotlib.org/</dc:title>
     </cc:Agent>
    </dc:creator>
   </cc:Work>
  </rdf:RDF>
 </metadata>
 <defs>
  <style type="text/css">*{stroke-linejoin: round; stroke-linecap: butt}</style>
 </defs>
 <g id="figure_1">
  <g id="patch_1">
   <path d="M 0 576 
L 1080 576 
L 1080 0 
L 0 0 
L 0 576 
z
" style="fill: none"/>
  </g>
  <g id="axes_1">
   <g id="patch_2">
    <path d="M 135 504 
L 972 504 
L 972 69.12 
L 135 69.12 
z
" style="fill: #ffffff"/>
   </g>
   <g id="matplotlib.axis_1">
    <g id="xtick_1">
     <g id="line2d_1">
      <defs>
       <path id="m184c18b274" d="M 0 0 
L 0 3.5 
" style="stroke: #000000; stroke-width: 0.8"/>
      </defs>
      <g>
       <use xlink:href="#m184c18b274" x="173.045455" y="504" style="stroke: #000000; stroke-width: 0.8"/>
      </g>
     </g>
     <g id="text_1">
      <!-- 0.5 -->
      <g transform="translate(165.093892 518.598438) scale(0.1 -0.1)">
       <defs>
        <path id="DejaVuSans-30" d="M 2034 4250 
Q 1547 4250 1301 3770 
Q 1056 3291 1056 2328 
Q 1056 1369 1301 889 
Q 1547 409 2034 409 
Q 2525 409 2770 889 
Q 3016 1369 3016 2328 
Q 3016 3291 2770 3770 
Q 2525 4250 2034 4250 
z
M 2034 4750 
Q 2819 4750 3233 4129 
Q 3647 3509 3647 2328 
Q 3647 1150 3233 529 
Q 2819 -91 2034 -91 
Q 1250 -91 836 529 
Q 422 1150 422 2328 
Q 422 3509 836 4129 
Q 1250 4750 2034 4750 
z
" transform="scale(0.015625)"/>
        <path id="DejaVuSans-2e" d="M 684 794 
L 1344 794 
L 1344 0 
L 684 0 
L 684 794 
z
" transform="scale(0.015625)"/>
        <path id="DejaVuSans-35" d="M 691 4666 
L 3169 4666 
L 3169 4134 
L 1269 4134 
L 1269 2991 
Q 1406 3038 1543 3061 
Q 1681 3084 1819 3084 
Q 2600 3084 3056 2656 
Q 3513 2228 3513 1497 
Q 3513 744 3044 326 
Q 2575 -91 1722 -91 
Q 1428 -91 1123 -41 
Q 819 9 494 109 
L 494 744 
Q 775 591 1075 516 
Q 1375 441 1709 441 
Q 2250 441 2565 725 
Q 2881 1009 2881 1497 
Q 2881 1984 2565 2268 
Q 2250 2553 1709 2553 
Q 1456 2553 1204 2497 
Q 953 2441 691 2322 
L 691 4666 
z
" transform="scale(0.015625)"/>
       </defs>
       <use xlink:href="#DejaVuSans-30"/>
       <use xlink:href="#DejaVuSans-2e" x="63.623047"/>
       <use xlink:href="#DejaVuSans-35" x="95.410156"/>
      </g>
     </g>
    </g>
    <g id="xtick_2">
     <g id="line2d_2">
      <g>
       <use xlink:href="#m184c18b274" x="281.746753" y="504" style="stroke: #000000; stroke-width: 0.8"/>
      </g>
     </g>
     <g id="text_2">
      <!-- 1.0 -->
      <g transform="translate(273.795191 518.598438) scale(0.1 -0.1)">
       <defs>
        <path id="DejaVuSans-31" d="M 794 531 
L 1825 531 
L 1825 4091 
L 703 3866 
L 703 4441 
L 1819 4666 
L 2450 4666 
L 2450 531 
L 3481 531 
L 3481 0 
L 794 0 
L 794 531 
z
" transform="scale(0.015625)"/>
       </defs>
       <use xlink:href="#DejaVuSans-31"/>
       <use xlink:href="#DejaVuSans-2e" x="63.623047"/>
       <use xlink:href="#DejaVuSans-30" x="95.410156"/>
      </g>
     </g>
    </g>
    <g id="xtick_3">
     <g id="line2d_3">
      <g>
       <use xlink:href="#m184c18b274" x="390.448052" y="504" style="stroke: #000000; stroke-width: 0.8"/>
      </g>
     </g>
     <g id="text_3">
      <!-- 1.5 -->
      <g transform="translate(382.496489 518.598438) scale(0.1 -0.1)">
       <use xlink:href="#DejaVuSans-31"/>
       <use xlink:href="#DejaVuSans-2e" x="63.623047"/>
       <use xlink:href="#DejaVuSans-35" x="95.410156"/>
      </g>
     </g>
    </g>
    <g id="xtick_4">
     <g id="line2d_4">
      <g>
       <use xlink:href="#m184c18b274" x="499.149351" y="504" style="stroke: #000000; stroke-width: 0.8"/>
      </g>
     </g>
     <g id="text_4">
      <!-- 2.0 -->
      <g transform="translate(491.197788 518.598438) scale(0.1 -0.1)">
       <defs>
        <path id="DejaVuSans-32" d="M 1228 531 
L 3431 531 
L 3431 0 
L 469 0 
L 469 531 
Q 828 903 1448 1529 
Q 2069 2156 2228 2338 
Q 2531 2678 2651 2914 
Q 2772 3150 2772 3378 
Q 2772 3750 2511 3984 
Q 2250 4219 1831 4219 
Q 1534 4219 1204 4116 
Q 875 4013 500 3803 
L 500 4441 
Q 881 4594 1212 4672 
Q 1544 4750 1819 4750 
Q 2544 4750 2975 4387 
Q 3406 4025 3406 3419 
Q 3406 3131 3298 2873 
Q 3191 2616 2906 2266 
Q 2828 2175 2409 1742 
Q 1991 1309 1228 531 
z
" transform="scale(0.015625)"/>
       </defs>
       <use xlink:href="#DejaVuSans-32"/>
       <use xlink:href="#DejaVuSans-2e" x="63.623047"/>
       <use xlink:href="#DejaVuSans-30" x="95.410156"/>
      </g>
     </g>
    </g>
    <g id="xtick_5">
     <g id="line2d_5">
      <g>
       <use xlink:href="#m184c18b274" x="607.850649" y="504" style="stroke: #000000; stroke-width: 0.8"/>
      </g>
     </g>
     <g id="text_5">
      <!-- 2.5 -->
      <g transform="translate(599.899087 518.598438) scale(0.1 -0.1)">
       <use xlink:href="#DejaVuSans-32"/>
       <use xlink:href="#DejaVuSans-2e" x="63.623047"/>
       <use xlink:href="#DejaVuSans-35" x="95.410156"/>
      </g>
     </g>
    </g>
    <g id="xtick_6">
     <g id="line2d_6">
      <g>
       <use xlink:href="#m184c18b274" x="716.551948" y="504" style="stroke: #000000; stroke-width: 0.8"/>
      </g>
     </g>
     <g id="text_6">
      <!-- 3.0 -->
      <g transform="translate(708.600386 518.598438) scale(0.1 -0.1)">
       <defs>
        <path id="DejaVuSans-33" d="M 2597 2516 
Q 3050 2419 3304 2112 
Q 3559 1806 3559 1356 
Q 3559 666 3084 287 
Q 2609 -91 1734 -91 
Q 1441 -91 1130 -33 
Q 819 25 488 141 
L 488 750 
Q 750 597 1062 519 
Q 1375 441 1716 441 
Q 2309 441 2620 675 
Q 2931 909 2931 1356 
Q 2931 1769 2642 2001 
Q 2353 2234 1838 2234 
L 1294 2234 
L 1294 2753 
L 1863 2753 
Q 2328 2753 2575 2939 
Q 2822 3125 2822 3475 
Q 2822 3834 2567 4026 
Q 2313 4219 1838 4219 
Q 1578 4219 1281 4162 
Q 984 4106 628 3988 
L 628 4550 
Q 988 4650 1302 4700 
Q 1616 4750 1894 4750 
Q 2613 4750 3031 4423 
Q 3450 4097 3450 3541 
Q 3450 3153 3228 2886 
Q 3006 2619 2597 2516 
z
" transform="scale(0.015625)"/>
       </defs>
       <use xlink:href="#DejaVuSans-33"/>
       <use xlink:href="#DejaVuSans-2e" x="63.623047"/>
       <use xlink:href="#DejaVuSans-30" x="95.410156"/>
      </g>
     </g>
    </g>
    <g id="xtick_7">
     <g id="line2d_7">
      <g>
       <use xlink:href="#m184c18b274" x="825.253247" y="504" style="stroke: #000000; stroke-width: 0.8"/>
      </g>
     </g>
     <g id="text_7">
      <!-- 3.5 -->
      <g transform="translate(817.301684 518.598438) scale(0.1 -0.1)">
       <use xlink:href="#DejaVuSans-33"/>
       <use xlink:href="#DejaVuSans-2e" x="63.623047"/>
       <use xlink:href="#DejaVuSans-35" x="95.410156"/>
      </g>
     </g>
    </g>
    <g id="xtick_8">
     <g id="line2d_8">
      <g>
       <use xlink:href="#m184c18b274" x="933.954545" y="504" style="stroke: #000000; stroke-width: 0.8"/>
      </g>
     </g>
     <g id="text_8">
      <!-- 4.0 -->
      <g transform="translate(926.002983 518.598438) scale(0.1 -0.1)">
       <defs>
        <path id="DejaVuSans-34" d="M 2419 4116 
L 825 1625 
L 2419 1625 
L 2419 4116 
z
M 2253 4666 
L 3047 4666 
L 3047 1625 
L 3713 1625 
L 3713 1100 
L 3047 1100 
L 3047 0 
L 2419 0 
L 2419 1100 
L 313 1100 
L 313 1709 
L 2253 4666 
z
" transform="scale(0.015625)"/>
       </defs>
       <use xlink:href="#DejaVuSans-34"/>
       <use xlink:href="#DejaVuSans-2e" x="63.623047"/>
       <use xlink:href="#DejaVuSans-30" x="95.410156"/>
      </g>
     </g>
    </g>
   </g>
   <g id="matplotlib.axis_2">
    <g id="ytick_1">
     <g id="line2d_9">
      <defs>
       <path id="m4b2b580876" d="M 0 0 
L -3.5 0 
" style="stroke: #000000; stroke-width: 0.8"/>
      </defs>
      <g>
       <use xlink:href="#m4b2b580876" x="135" y="504" style="stroke: #000000; stroke-width: 0.8"/>
      </g>
     </g>
     <g id="text_9">
      <!-- 0.0 -->
      <g transform="translate(112.096875 507.799219) scale(0.1 -0.1)">
       <use xlink:href="#DejaVuSans-30"/>
       <use xlink:href="#DejaVuSans-2e" x="63.623047"/>
       <use xlink:href="#DejaVuSans-30" x="95.410156"/>
      </g>
     </g>
    </g>
    <g id="ytick_2">
     <g id="line2d_10">
      <g>
       <use xlink:href="#m4b2b580876" x="135" y="446.016" style="stroke: #000000; stroke-width: 0.8"/>
      </g>
     </g>
     <g id="text_10">
      <!-- 0.2 -->
      <g transform="translate(112.096875 449.815219) scale(0.1 -0.1)">
       <use xlink:href="#DejaVuSans-30"/>
       <use xlink:href="#DejaVuSans-2e" x="63.623047"/>
       <use xlink:href="#DejaVuSans-32" x="95.410156"/>
      </g>
     </g>
    </g>
    <g id="ytick_3">
     <g id="line2d_11">
      <g>
       <use xlink:href="#m4b2b580876" x="135" y="388.032" style="stroke: #000000; stroke-width: 0.8"/>
      </g>
     </g>
     <g id="text_11">
      <!-- 0.4 -->
      <g transform="translate(112.096875 391.831219) scale(0.1 -0.1)">
       <use xlink:href="#DejaVuSans-30"/>
       <use xlink:href="#DejaVuSans-2e" x="63.623047"/>
       <use xlink:href="#DejaVuSans-34" x="95.410156"/>
      </g>
     </g>
    </g>
    <g id="ytick_4">
     <g id="line2d_12">
      <g>
       <use xlink:href="#m4b2b580876" x="135" y="330.048" style="stroke: #000000; stroke-width: 0.8"/>
      </g>
     </g>
     <g id="text_12">
      <!-- 0.6 -->
      <g transform="translate(112.096875 333.847219) scale(0.1 -0.1)">
       <defs>
        <path id="DejaVuSans-36" d="M 2113 2584 
Q 1688 2584 1439 2293 
Q 1191 2003 1191 1497 
Q 1191 994 1439 701 
Q 1688 409 2113 409 
Q 2538 409 2786 701 
Q 3034 994 3034 1497 
Q 3034 2003 2786 2293 
Q 2538 2584 2113 2584 
z
M 3366 4563 
L 3366 3988 
Q 3128 4100 2886 4159 
Q 2644 4219 2406 4219 
Q 1781 4219 1451 3797 
Q 1122 3375 1075 2522 
Q 1259 2794 1537 2939 
Q 1816 3084 2150 3084 
Q 2853 3084 3261 2657 
Q 3669 2231 3669 1497 
Q 3669 778 3244 343 
Q 2819 -91 2113 -91 
Q 1303 -91 875 529 
Q 447 1150 447 2328 
Q 447 3434 972 4092 
Q 1497 4750 2381 4750 
Q 2619 4750 2861 4703 
Q 3103 4656 3366 4563 
z
" transform="scale(0.015625)"/>
       </defs>
       <use xlink:href="#DejaVuSans-30"/>
       <use xlink:href="#DejaVuSans-2e" x="63.623047"/>
       <use xlink:href="#DejaVuSans-36" x="95.410156"/>
      </g>
     </g>
    </g>
    <g id="ytick_5">
     <g id="line2d_13">
      <g>
       <use xlink:href="#m4b2b580876" x="135" y="272.064" style="stroke: #000000; stroke-width: 0.8"/>
      </g>
     </g>
     <g id="text_13">
      <!-- 0.8 -->
      <g transform="translate(112.096875 275.863219) scale(0.1 -0.1)">
       <defs>
        <path id="DejaVuSans-38" d="M 2034 2216 
Q 1584 2216 1326 1975 
Q 1069 1734 1069 1313 
Q 1069 891 1326 650 
Q 1584 409 2034 409 
Q 2484 409 2743 651 
Q 3003 894 3003 1313 
Q 3003 1734 2745 1975 
Q 2488 2216 2034 2216 
z
M 1403 2484 
Q 997 2584 770 2862 
Q 544 3141 544 3541 
Q 544 4100 942 4425 
Q 1341 4750 2034 4750 
Q 2731 4750 3128 4425 
Q 3525 4100 3525 3541 
Q 3525 3141 3298 2862 
Q 3072 2584 2669 2484 
Q 3125 2378 3379 2068 
Q 3634 1759 3634 1313 
Q 3634 634 3220 271 
Q 2806 -91 2034 -91 
Q 1263 -91 848 271 
Q 434 634 434 1313 
Q 434 1759 690 2068 
Q 947 2378 1403 2484 
z
M 1172 3481 
Q 1172 3119 1398 2916 
Q 1625 2713 2034 2713 
Q 2441 2713 2670 2916 
Q 2900 3119 2900 3481 
Q 2900 3844 2670 4047 
Q 2441 4250 2034 4250 
Q 1625 4250 1398 4047 
Q 1172 3844 1172 3481 
z
" transform="scale(0.015625)"/>
       </defs>
       <use xlink:href="#DejaVuSans-30"/>
       <use xlink:href="#DejaVuSans-2e" x="63.623047"/>
       <use xlink:href="#DejaVuSans-38" x="95.410156"/>
      </g>
     </g>
    </g>
    <g id="ytick_6">
     <g id="line2d_14">
      <g>
       <use xlink:href="#m4b2b580876" x="135" y="214.08" style="stroke: #000000; stroke-width: 0.8"/>
      </g>
     </g>
     <g id="text_14">
      <!-- 1.0 -->
      <g transform="translate(112.096875 217.879219) scale(0.1 -0.1)">
       <use xlink:href="#DejaVuSans-31"/>
       <use xlink:href="#DejaVuSans-2e" x="63.623047"/>
       <use xlink:href="#DejaVuSans-30" x="95.410156"/>
      </g>
     </g>
    </g>
    <g id="ytick_7">
     <g id="line2d_15">
      <g>
       <use xlink:href="#m4b2b580876" x="135" y="156.096" style="stroke: #000000; stroke-width: 0.8"/>
      </g>
     </g>
     <g id="text_15">
      <!-- 1.2 -->
      <g transform="translate(112.096875 159.895219) scale(0.1 -0.1)">
       <use xlink:href="#DejaVuSans-31"/>
       <use xlink:href="#DejaVuSans-2e" x="63.623047"/>
       <use xlink:href="#DejaVuSans-32" x="95.410156"/>
      </g>
     </g>
    </g>
    <g id="ytick_8">
     <g id="line2d_16">
      <g>
       <use xlink:href="#m4b2b580876" x="135" y="98.112" style="stroke: #000000; stroke-width: 0.8"/>
      </g>
     </g>
     <g id="text_16">
      <!-- 1.4 -->
      <g transform="translate(112.096875 101.911219) scale(0.1 -0.1)">
       <use xlink:href="#DejaVuSans-31"/>
       <use xlink:href="#DejaVuSans-2e" x="63.623047"/>
       <use xlink:href="#DejaVuSans-34" x="95.410156"/>
      </g>
     </g>
    </g>
   </g>
   <g id="line2d_17">
    <path d="M 173.045455 40.128 
L 174.952495 118.340901 
L 176.859535 183.774058 
L 178.766576 238.591418 
L 180.673616 284.543877 
L 182.580656 323.058947 
L 184.487697 355.308513 
L 186.394737 357.737781 
L 745.157553 357.845313 
L 787.11244 362.99898 
L 827.160287 367.697836 
L 867.208134 372.17281 
L 907.255981 376.424177 
L 933.954545 379.136727 
L 933.954545 379.136727 
" clip-path="url(#p793c270c31)" style="fill: none; stroke: #1f77b4; stroke-width: 1.5; stroke-linecap: square"/>
   </g>
   <g id="line2d_18">
    <path d="M 174.744308 -1 
L 174.952495 8.171301 
L 176.859535 78.850629 
L 178.766576 138.437236 
L 180.673616 188.744224 
L 182.580656 231.250947 
L 184.487697 267.172833 
L 186.394737 297.51476 
L 188.301777 323.112285 
L 190.208817 337.873737 
L 653.619617 337.873737 
L 657.433698 338.379893 
L 703.202666 345.061892 
L 743.250513 350.676859 
L 781.391319 355.790863 
L 817.625085 360.427265 
L 853.858852 364.846057 
L 891.999658 369.266593 
L 930.140465 373.458459 
L 933.954545 373.865455 
L 933.954545 373.865455 
" clip-path="url(#p793c270c31)" style="fill: none; stroke: #ff7f0e; stroke-width: 1.5; stroke-linecap: square"/>
   </g>
   <g id="line2d_19">
    <path d="M 177.602511 -1 
L 178.766576 38.283055 
L 180.673616 92.944572 
L 182.580656 139.442947 
L 184.487697 179.037153 
L 186.394737 212.768913 
L 188.301777 241.505174 
L 190.208817 265.97123 
L 192.115858 286.776804 
L 194.022898 304.436728 
L 195.929938 316.422238 
L 575.430964 316.49763 
L 647.898496 328.738372 
L 686.039303 334.934924 
L 720.366029 340.296957 
L 754.692755 345.435199 
L 789.019481 350.3424 
L 823.346206 355.018853 
L 857.672932 359.469578 
L 891.999658 363.702472 
L 928.233424 367.944765 
L 933.954545 368.594182 
L 933.954545 368.594182 
" clip-path="url(#p793c270c31)" style="fill: none; stroke: #2ca02c; stroke-width: 1.5; stroke-linecap: square"/>
   </g>
   <g id="line2d_20">
    <path d="M 180.743683 -1 
L 182.580656 47.634947 
L 184.487697 90.901473 
L 186.394737 128.023067 
L 188.301777 159.898063 
L 190.208817 187.278659 
L 192.115858 210.797769 
L 194.022898 230.990328 
L 195.929938 248.310325 
L 197.836979 263.144522 
L 199.744019 275.823568 
L 201.651059 286.631059 
L 203.5581 293.348461 
L 504.870472 293.416944 
L 537.290157 299.566498 
L 623.106972 315.958217 
L 657.433698 322.237828 
L 689.853383 327.94339 
L 720.366029 333.09633 
L 750.878674 338.032805 
L 781.391319 342.753041 
L 813.811005 347.536022 
L 846.23069 352.087543 
L 878.650376 356.417401 
L 912.977102 360.772313 
L 933.954545 363.322909 
L 933.954545 363.322909 
" clip-path="url(#p793c270c31)" style="fill: none; stroke: #d62728; stroke-width: 1.5; stroke-linecap: square"/>
   </g>
   <g id="line2d_21">
    <path d="M 184.334699 -1 
L 184.487697 2.765793 
L 186.394737 43.277221 
L 188.301777 78.290952 
L 190.208817 108.586087 
L 192.115858 134.818735 
L 194.022898 157.543928 
L 195.929938 177.233164 
L 197.836979 194.288522 
L 199.744019 209.054114 
L 201.651059 221.825412 
L 203.5581 232.856911 
L 205.46514 242.368436 
L 207.37218 250.550369 
L 209.279221 257.568 
L 211.186261 263.565167 
L 213.093301 268.61997 
L 440.0311 268.660377 
L 457.194463 271.977202 
L 478.171907 276.284147 
L 506.777512 282.414459 
L 596.408407 301.7886 
L 628.828093 308.480089 
L 657.433698 314.166795 
L 686.039303 319.63359 
L 714.644908 324.874645 
L 743.250513 329.890142 
L 771.856118 334.684214 
L 800.461722 339.263512 
L 830.974368 343.920617 
L 861.487013 348.353693 
L 893.906699 352.831221 
L 926.326384 357.082671 
L 933.954545 358.051636 
L 933.954545 358.051636 
" clip-path="url(#p793c270c31)" style="fill: none; stroke: #9467bd; stroke-width: 1.5; stroke-linecap: square"/>
   </g>
   <g id="line2d_22">
    <path d="M 188.434781 -1 
L 190.208817 29.893516 
L 192.115858 58.8397 
L 194.022898 84.097528 
L 195.929938 106.156003 
L 197.836979 125.432522 
L 199.744019 142.284659 
L 201.651059 157.019765 
L 203.5581 169.902854 
L 205.46514 181.163103 
L 207.37218 190.999234 
L 209.279221 199.584 
L 211.186261 207.067936 
L 213.093301 213.582504 
L 215.000342 219.242749 
L 216.907382 224.149543 
L 218.814422 228.391488 
L 220.721463 232.046542 
L 222.628503 235.183404 
L 224.535543 237.862701 
L 226.442584 240.138009 
L 228.349624 242.056731 
L 230.256664 242.206539 
L 377.09877 242.260986 
L 388.541012 244.118959 
L 399.983254 246.210608 
L 413.332536 248.889314 
L 428.588859 252.194565 
L 445.752221 256.138802 
L 468.636705 261.635941 
L 510.591593 272.002149 
L 552.54648 282.291404 
L 583.059125 289.549696 
L 611.66473 296.119233 
L 638.363295 302.021485 
L 665.061859 307.691999 
L 691.760424 313.128132 
L 718.458988 318.332116 
L 745.157553 323.309388 
L 771.856118 328.067421 
L 800.461722 332.931926 
L 829.067327 337.566279 
L 857.672932 341.98234 
L 888.185578 346.465524 
L 918.698223 350.727816 
L 933.954545 352.780364 
L 933.954545 352.780364 
" clip-path="url(#p793c270c31)" style="fill: none; stroke: #8c564b; stroke-width: 1.5; stroke-linecap: square"/>
   </g>
   <g id="line2d_23">
    <path d="M 193.223373 -1 
L 194.022898 10.651128 
L 195.929938 35.078841 
L 197.836979 56.576522 
L 199.744019 75.515204 
L 201.651059 92.214118 
L 203.5581 106.948797 
L 205.46514 119.95777 
L 207.37218 131.448099 
L 209.279221 141.6 
L 211.186261 150.570705 
L 213.093301 158.497704 
L 215.000342 165.501481 
L 216.907382 171.687829 
L 218.814422 177.149813 
L 220.721463 181.969451 
L 222.628503 186.219137 
L 224.535543 189.962875 
L 226.442584 193.257328 
L 228.349624 196.152731 
L 230.256664 198.693676 
L 232.163705 200.919788 
L 234.070745 202.866324 
L 235.977785 204.564677 
L 237.884826 206.042832 
L 239.791866 207.325755 
L 241.698906 208.435734 
L 243.605947 209.392682 
L 247.420027 210.91681 
L 251.234108 212.019205 
L 255.048189 212.79687 
L 258.862269 213.327612 
L 262.67635 213.673868 
L 268.397471 213.95412 
L 276.025632 214.071297 
L 298.910116 214.244353 
L 308.445318 214.61951 
L 317.980519 215.263347 
L 327.515721 216.184523 
L 337.050923 217.373145 
L 346.586124 218.809321 
L 356.121326 220.468388 
L 367.563568 222.716467 
L 379.00581 225.202876 
L 392.355092 228.349228 
L 407.611415 232.196597 
L 424.774778 236.755737 
L 447.659262 243.070534 
L 541.104238 269.120076 
L 567.802802 276.200603 
L 592.594327 282.547355 
L 617.385851 288.65953 
L 642.177375 294.531187 
L 666.9689 300.162193 
L 691.760424 305.556338 
L 716.551948 310.72 
L 741.343472 315.661199 
L 768.042037 320.744031 
L 794.740602 325.59117 
L 821.439166 330.214705 
L 850.044771 334.933974 
L 878.650376 339.42466 
L 909.163021 343.978278 
L 933.954545 347.509091 
L 933.954545 347.509091 
" clip-path="url(#p793c270c31)" style="fill: none; stroke: #e377c2; stroke-width: 1.5; stroke-linecap: square"/>
   </g>
   <g id="line2d_24">
    <path d="M 198.860055 -1 
L 199.744019 8.74575 
L 201.651059 27.408471 
L 203.5581 43.99474 
L 205.46514 58.752436 
L 207.37218 71.896963 
L 209.279221 83.616 
L 211.186261 94.073474 
L 213.093301 103.412904 
L 215.000342 111.760213 
L 216.907382 119.226114 
L 218.814422 125.908139 
L 220.721463 131.89236 
L 222.628503 137.254871 
L 224.535543 142.063049 
L 226.442584 146.376647 
L 228.349624 150.248731 
L 230.256664 153.726492 
L 232.163705 156.851948 
L 234.070745 159.662559 
L 235.977785 162.191754 
L 237.884826 164.469398 
L 239.791866 166.5222 
L 241.698906 168.374061 
L 243.605947 170.046396 
L 245.512987 171.5584 
L 249.327068 174.168534 
L 253.141148 176.322185 
L 256.955229 178.114407 
L 260.76931 179.622073 
L 264.58339 180.90743 
L 270.304511 182.526273 
L 276.025632 183.887845 
L 283.653794 185.464804 
L 300.817157 188.678411 
L 314.166439 191.280095 
L 325.608681 193.721905 
L 337.050923 196.388459 
L 348.493165 199.273758 
L 361.842447 202.88707 
L 375.191729 206.723118 
L 392.355092 211.906004 
L 413.332536 218.497701 
L 449.566302 230.168983 
L 487.707109 242.379127 
L 514.405673 250.690225 
L 539.197198 258.162718 
L 562.081681 264.823279 
L 584.966165 271.242883 
L 607.850649 277.416369 
L 630.735133 283.343892 
L 653.619617 289.029263 
L 676.504101 294.478755 
L 699.388585 299.700233 
L 722.273069 304.702534 
L 747.064593 309.88522 
L 771.856118 314.833835 
L 796.647642 319.56051 
L 823.346206 324.416186 
L 850.044771 329.042551 
L 876.743336 333.453268 
L 905.348941 337.954418 
L 933.954545 342.237818 
L 933.954545 342.237818 
" clip-path="url(#p793c270c31)" style="fill: none; stroke: #7f7f7f; stroke-width: 1.5; stroke-linecap: square"/>
   </g>
   <g id="line2d_25">
    <path d="M 205.652368 -1 
L 207.37218 12.345828 
L 209.279221 25.632 
L 211.186261 37.576244 
L 213.093301 48.328104 
L 215.000342 58.018944 
L 216.907382 66.7644 
L 218.814422 74.666465 
L 220.721463 81.815269 
L 222.628503 88.290604 
L 224.535543 94.163223 
L 226.442584 99.495966 
L 228.349624 104.344731 
L 230.256664 108.759308 
L 232.163705 112.784108 
L 234.070745 116.458794 
L 235.977785 119.818831 
L 237.884826 122.895964 
L 239.791866 125.718644 
L 241.698906 128.312389 
L 243.605947 130.70011 
L 247.420027 134.937776 
L 251.234108 138.572805 
L 255.048189 141.719709 
L 258.862269 144.471612 
L 262.67635 146.904413 
L 266.490431 149.080073 
L 270.304511 151.049244 
L 276.025632 153.704393 
L 281.746753 156.096 
L 289.374915 159.011857 
L 298.910116 162.399835 
L 319.88756 169.521511 
L 340.865003 176.734327 
L 359.935407 183.523721 
L 382.819891 191.916173 
L 468.636705 223.646424 
L 491.521189 231.734922 
L 512.498633 238.920357 
L 533.476077 245.867984 
L 554.45352 252.568266 
L 575.430964 259.017839 
L 596.408407 265.217778 
L 617.385851 271.172292 
L 638.363295 276.887736 
L 659.340738 282.371888 
L 680.318182 287.633406 
L 701.295625 292.681444 
L 724.180109 297.95592 
L 747.064593 302.99962 
L 769.949077 307.824483 
L 794.740602 312.817883 
L 819.532126 317.582158 
L 844.32365 322.130734 
L 871.022215 326.802512 
L 897.720779 331.253716 
L 926.326384 335.793859 
L 933.954545 336.966545 
L 933.954545 336.966545 
" clip-path="url(#p793c270c31)" style="fill: none; stroke: #bcbd22; stroke-width: 1.5; stroke-linecap: square"/>
   </g>
   <g id="line2d_26">
    <path d="M 214.088215 -1 
L 215.000342 4.277676 
L 216.907382 14.302686 
L 218.814422 23.42479 
L 220.721463 31.738178 
L 222.628503 39.326337 
L 224.535543 46.263397 
L 226.442584 52.615285 
L 228.349624 58.440731 
L 230.256664 63.792125 
L 232.163705 68.716268 
L 234.070745 73.25503 
L 235.977785 77.445908 
L 237.884826 81.32253 
L 239.791866 84.915088 
L 241.698906 88.250716 
L 245.512987 94.2464 
L 249.327068 99.477279 
L 253.141148 104.079824 
L 256.955229 108.165454 
L 260.76931 111.825397 
L 264.58339 115.134534 
L 268.397471 118.154468 
L 272.211552 120.935968 
L 277.932673 124.750799 
L 283.653794 128.233843 
L 289.374915 131.469457 
L 297.003076 135.506155 
L 306.538278 140.252081 
L 317.980519 145.682547 
L 335.143882 153.5555 
L 363.749487 166.390759 
L 394.262133 179.852705 
L 419.053657 190.550958 
L 440.0311 199.371321 
L 459.101504 207.169777 
L 478.171907 214.736885 
L 497.24231 222.059165 
L 516.312714 229.129306 
L 535.383117 235.944865 
L 554.45352 242.507116 
L 573.523923 248.820072 
L 592.594327 254.889715 
L 611.66473 260.723378 
L 630.735133 266.329282 
L 649.805537 271.716178 
L 670.78298 277.399572 
L 691.760424 282.840957 
L 712.737867 288.052285 
L 733.715311 293.045224 
L 756.599795 298.256233 
L 779.484279 303.234767 
L 802.368763 307.994136 
L 827.160287 312.917372 
L 851.951811 317.613172 
L 878.650376 322.43192 
L 905.348941 327.01947 
L 932.047505 331.39092 
L 933.954545 331.695273 
L 933.954545 331.695273 
" clip-path="url(#p793c270c31)" style="fill: none; stroke: #17becf; stroke-width: 1.5; stroke-linecap: square"/>
   </g>
   <g id="line2d_27">
    <path d="M 224.700201 -1 
L 226.442584 5.734604 
L 228.349624 12.536731 
L 230.256664 18.824941 
L 232.163705 24.648428 
L 234.070745 30.051265 
L 235.977785 35.072985 
L 237.884826 39.749096 
L 239.791866 44.111533 
L 243.605947 52.007539 
L 247.420027 58.958741 
L 251.234108 65.126405 
L 255.048189 70.642548 
L 258.862269 75.615612 
L 262.67635 80.134959 
L 266.490431 84.274426 
L 270.304511 88.095187 
L 274.118592 91.648035 
L 277.932673 94.975231 
L 283.653794 99.618363 
L 289.374915 103.927057 
L 295.096036 107.974266 
L 302.724197 113.058489 
L 310.352358 117.873751 
L 319.88756 123.617511 
L 331.329802 130.221307 
L 344.679084 137.645005 
L 359.935407 145.8589 
L 377.09877 154.824796 
L 394.262133 163.531282 
L 411.425496 171.986381 
L 428.588859 180.188291 
L 445.752221 188.132876 
L 462.915584 195.816904 
L 480.078947 203.239228 
L 497.24231 210.401007 
L 514.405673 217.305498 
L 531.569036 223.957698 
L 548.732399 230.363954 
L 565.895762 236.531605 
L 583.059125 242.46867 
L 600.222488 248.183596 
L 619.292891 254.28353 
L 638.363295 260.131904 
L 657.433698 265.740597 
L 676.504101 271.121243 
L 695.574504 276.285127 
L 716.551948 281.728 
L 737.529392 286.935561 
L 758.506835 291.920931 
L 781.391319 297.120662 
L 804.275803 302.085851 
L 827.160287 306.830654 
L 851.951811 311.73746 
L 876.743336 316.416732 
L 903.4419 321.218052 
L 930.140465 325.788921 
L 933.954545 326.424 
L 933.954545 326.424 
" clip-path="url(#p793c270c31)" style="fill: none; stroke: #1f77b4; stroke-width: 1.5; stroke-linecap: square"/>
   </g>
   <g id="line2d_28">
    <path d="M 184.646157 357.737781 
L 184.919535 356.586162 
L 185.195609 355.428916 
L 185.474428 354.266034 
L 185.756045 353.097508 
L 186.040512 351.92333 
L 186.327883 350.743492 
L 186.618214 349.557984 
L 186.911563 348.3668 
L 187.207988 347.169931 
L 187.50755 345.967368 
L 187.810313 344.759104 
L 188.11634 343.545131 
L 188.425699 342.32544 
L 188.738459 341.100023 
L 189.05469 339.868873 
L 189.374465 338.631982 
L 189.697861 337.389341 
L 190.024955 336.140943 
L 190.355828 334.886779 
L 190.690563 333.626843 
L 191.029247 332.361127 
L 191.371968 331.089622 
L 191.718819 329.812321 
L 192.069896 328.529216 
L 192.425296 327.2403 
L 192.785124 325.945564 
L 193.149484 324.645003 
L 193.518487 323.338607 
L 193.892248 322.026369 
L 194.270884 320.708283 
L 194.654519 319.38434 
L 195.043282 318.054533 
L 195.437305 316.718854 
L 195.836726 315.377297 
L 196.24169 314.029854 
L 196.652348 312.676518 
L 197.068854 311.317281 
L 197.491372 309.952136 
L 197.920073 308.581076 
L 198.355134 307.204094 
L 198.796741 305.821183 
L 199.245087 304.432336 
L 199.700376 303.037545 
L 200.162821 301.636803 
L 200.632643 300.230105 
L 201.110077 298.817441 
L 201.595368 297.398806 
L 202.088773 295.974193 
L 202.590564 294.543595 
L 203.101024 293.107004 
L 203.620456 291.664414 
L 204.149175 290.215819 
L 204.687515 288.761211 
L 205.235831 287.300584 
L 205.794495 285.833931 
L 206.363904 284.361245 
L 206.944477 282.882519 
L 207.536661 281.397748 
L 208.140929 279.906924 
L 208.757788 278.410041 
L 209.387775 276.907092 
L 210.031466 275.398071 
L 210.689476 273.882971 
L 211.362466 272.361785 
L 212.051144 270.834508 
L 212.756273 269.301133 
L 213.478674 267.761654 
L 214.219235 266.216063 
L 214.978918 264.664356 
L 215.758768 263.106525 
L 216.55992 261.542564 
L 217.383615 259.972467 
L 218.23121 258.396228 
L 219.104196 256.81384 
L 220.004217 255.225298 
L 220.93309 253.630595 
L 221.892832 252.029725 
L 222.885694 250.422682 
L 223.914199 248.80946 
L 224.981187 247.190053 
L 226.089875 245.564455 
L 227.243932 243.93266 
L 228.447566 242.294661 
L 229.705646 240.650454 
L 231.023851 239.000031 
L 232.40887 237.343388 
L 233.868672 235.680518 
L 235.412866 234.011415 
L 237.05322 232.336074 
L 238.804388 230.654489 
L 240.685003 228.966654 
L 242.719357 227.272563 
L 244.940116 225.57221 
L 247.392974 223.865591 
L 250.145254 222.152699 
L 253.303548 220.433528 
L 257.055602 218.708073 
L 261.796436 216.976328 
L 268.741127 215.238289 
" clip-path="url(#p793c270c31)" style="fill: none; stroke: #ff7f0e; stroke-width: 1.5; stroke-linecap: square"/>
   </g>
   <g id="line2d_29">
    <path d="M 744.301062 357.737781 
L 738.495593 356.586162 
L 732.740977 355.428916 
L 727.036504 354.266034 
L 721.381469 353.097508 
L 715.775177 351.92333 
L 710.216941 350.743492 
L 704.706082 349.557984 
L 699.241928 348.3668 
L 693.823815 347.169931 
L 688.451085 345.967368 
L 683.123088 344.759104 
L 677.839181 343.545131 
L 672.598726 342.32544 
L 667.401092 341.100023 
L 662.245654 339.868873 
L 657.131794 338.631982 
L 652.058897 337.389341 
L 647.026356 336.140943 
L 642.033566 334.886779 
L 637.07993 333.626843 
L 632.164854 332.361127 
L 627.287747 331.089622 
L 622.448024 329.812321 
L 617.645104 328.529216 
L 612.878408 327.2403 
L 608.14736 325.945564 
L 603.45139 324.645003 
L 598.789927 323.338607 
L 594.162403 322.026369 
L 589.568255 320.708283 
L 585.006917 319.38434 
L 580.477829 318.054533 
L 575.980428 316.718854 
L 571.514154 315.377297 
L 567.078447 314.029854 
L 562.672745 312.676518 
L 558.296488 311.317281 
L 553.949113 309.952136 
L 549.630056 308.581076 
L 545.33875 307.204094 
L 541.074627 305.821183 
L 536.837116 304.432336 
L 532.625639 303.037545 
L 528.439617 301.636803 
L 524.278463 300.230105 
L 520.141588 298.817441 
L 516.028391 297.398806 
L 511.938268 295.974193 
L 507.870603 294.543595 
L 503.824772 293.107004 
L 499.800141 291.664414 
L 495.796063 290.215819 
L 491.811878 288.761211 
L 487.84691 287.300584 
L 483.90047 285.833931 
L 479.971847 284.361245 
L 476.060314 282.882519 
L 472.165119 281.397748 
L 468.285488 279.906924 
L 464.420618 278.410041 
L 460.569677 276.907092 
L 456.731802 275.398071 
L 452.906091 273.882971 
L 449.091601 272.361785 
L 445.287348 270.834508 
L 441.492293 269.301133 
L 437.705343 267.761654 
L 433.925344 266.216063 
L 430.151068 264.664356 
L 426.381213 263.106525 
L 422.614383 261.542564 
L 418.849084 259.972467 
L 415.083708 258.396228 
L 411.316516 256.81384 
L 407.545621 255.225298 
L 403.768964 253.630595 
L 399.984287 252.029725 
L 396.189106 250.422682 
L 392.380665 248.80946 
L 388.555894 247.190053 
L 384.711349 245.564455 
L 380.843138 243.93266 
L 376.946831 242.294661 
L 373.017341 240.650454 
L 369.048773 239.000031 
L 365.034225 237.343388 
L 360.965518 235.680518 
L 356.832834 234.011415 
L 352.624201 232.336074 
L 348.324762 230.654489 
L 343.915683 228.966654 
L 339.372474 227.272563 
L 334.662274 225.57221 
L 329.739196 223.865591 
L 324.535726 222.152699 
L 318.945084 220.433528 
L 312.779336 218.708073 
L 305.643281 216.976328 
L 296.321659 215.238289 
" clip-path="url(#p793c270c31)" style="fill: none; stroke: #2ca02c; stroke-width: 1.5; stroke-linecap: square"/>
   </g>
   <g id="patch_3">
    <path d="M 135 504 
L 135 69.12 
" style="fill: none; stroke: #000000; stroke-width: 0.8; stroke-linejoin: miter; stroke-linecap: square"/>
   </g>
   <g id="patch_4">
    <path d="M 972 504 
L 972 69.12 
" style="fill: none; stroke: #000000; stroke-width: 0.8; stroke-linejoin: miter; stroke-linecap: square"/>
   </g>
   <g id="patch_5">
    <path d="M 135 504 
L 972 504 
" style="fill: none; stroke: #000000; stroke-width: 0.8; stroke-linejoin: miter; stroke-linecap: square"/>
   </g>
   <g id="patch_6">
    <path d="M 135 69.12 
L 972 69.12 
" style="fill: none; stroke: #000000; stroke-width: 0.8; stroke-linejoin: miter; stroke-linecap: square"/>
   </g>
  </g>
 </g>
 <defs>
  <clipPath id="p793c270c31">
   <rect x="135" y="69.12" width="837" height="434.88"/>
  </clipPath>
 </defs>
</svg>
