<?xml version="1.0" encoding="UTF-8" standalone="no"?>
<!-- Created with Inkscape (http://www.inkscape.org/) -->

<svg
   width="206.26984mm"
   height="70.34053mm"
   viewBox="0 0 206.26984 70.34053"
   version="1.1"
   id="svg5"
   sodipodi:docname="chute2D.svg"
   inkscape:version="1.1.2 (0a00cf5339, 2022-02-04)"
   xmlns:inkscape="http://www.inkscape.org/namespaces/inkscape"
   xmlns:sodipodi="http://sodipodi.sourceforge.net/DTD/sodipodi-0.dtd"
   xmlns:xlink="http://www.w3.org/1999/xlink"
   xmlns="http://www.w3.org/2000/svg"
   xmlns:svg="http://www.w3.org/2000/svg">
  <sodipodi:namedview
     id="namedview7"
     pagecolor="#ffffff"
     bordercolor="#666666"
     borderopacity="1.0"
     inkscape:pageshadow="2"
     inkscape:pageopacity="0.0"
     inkscape:pagecheckerboard="0"
     inkscape:document-units="mm"
     showgrid="false"
     inkscape:zoom="4.7369632"
     inkscape:cx="722.82597"
     inkscape:cy="69.242675"
     inkscape:window-width="1920"
     inkscape:window-height="1171"
     inkscape:window-x="0"
     inkscape:window-y="0"
     inkscape:window-maximized="1"
     inkscape:current-layer="layer1"
     inkscape:object-paths="true"
     inkscape:snap-intersection-paths="true"
     inkscape:snap-smooth-nodes="true"
     inkscape:snap-midpoints="true"
     inkscape:snap-object-midpoints="true"
     inkscape:snap-center="true"
     fit-margin-top="0"
     fit-margin-left="0"
     fit-margin-right="0"
     fit-margin-bottom="0" />
  <defs
     id="defs2">
    <marker
       style="overflow:visible"
       id="Arrow1Mend"
       refX="0"
       refY="0"
       orient="auto"
       inkscape:stockid="Arrow1Mend"
       inkscape:isstock="true">
      <path
         transform="matrix(-0.4,0,0,-0.4,-4,0)"
         style="fill:context-stroke;fill-rule:evenodd;stroke:context-stroke;stroke-width:1pt"
         d="M 0,0 5,-5 -12.5,0 5,5 Z"
         id="path1244" />
    </marker>
    <marker
       style="overflow:visible"
       id="Arrow1Lstart"
       refX="0"
       refY="0"
       orient="auto"
       inkscape:stockid="Arrow1Lstart"
       inkscape:isstock="true">
      <path
         transform="matrix(0.8,0,0,0.8,10,0)"
         style="fill:context-stroke;fill-rule:evenodd;stroke:context-stroke;stroke-width:1pt"
         d="M 0,0 5,-5 -12.5,0 5,5 Z"
         id="path1235" />
    </marker>
    <g
       id="g3062">
      <symbol
         overflow="visible"
         id="symbol9080">
        <path
           style="stroke:none"
           d=""
           id="path6929" />
      </symbol>
      <symbol
         overflow="visible"
         id="symbol4712">
        <path
           style="stroke:none"
           d="m 5.578125,-6.171875 c -0.15625,0.140625 -0.5,0.421875 -0.5,0.609375 0,0.109375 0.109375,0.203125 0.21875,0.203125 0.09375,0 0.140625,-0.0625 0.1875,-0.125 C 5.609375,-5.640625 5.84375,-5.9375 6.3125,-6.15625 6.375,-6.203125 6.484375,-6.25 6.484375,-6.375 6.484375,-6.484375 6.40625,-6.53125 6.34375,-6.59375 6.109375,-6.75 6,-6.9375 5.90625,-7.171875 5.890625,-7.265625 5.84375,-7.40625 5.703125,-7.40625 5.5625,-7.40625 5.5,-7.265625 5.5,-7.1875 c 0,0.046875 0.078125,0.375 0.25,0.59375 h -3.5 c -0.171875,0 -0.359375,0 -0.359375,0.21875 0,0.203125 0.1875,0.203125 0.359375,0.203125 z m 0,0"
           id="path9297" />
      </symbol>
      <symbol
         overflow="visible"
         id="symbol5395">
        <path
           style="stroke:none"
           d=""
           id="path2245" />
      </symbol>
      <symbol
         overflow="visible"
         id="symbol1515">
        <path
           style="stroke:none"
           d="m 1.046875,-6.625 0.546875,0.03125 c 0.234375,0 0.34375,0.078125 0.34375,0.265625 0,0.140625 -0.03125,0.453125 -0.078125,0.75 L 1.109375,-1.25 C 0.953125,-0.34375 0.9375,-0.3125 0.53125,-0.28125 L 0.125,-0.25 0.09375,0.03125 0.515625,0.015625 C 0.921875,0.015625 1.21875,0 1.40625,0 1.578125,0 1.859375,0.015625 2.265625,0.015625 L 2.796875,0.03125 2.828125,-0.25 2.171875,-0.28125 C 1.90625,-0.296875 1.8125,-0.375 1.8125,-0.578125 c 0,-0.09375 0.015625,-0.15625 0.046875,-0.34375 l 0.8125,-4.859375 c 0,-0.015625 0.046875,-0.203125 0.09375,-0.40625 0,-0.046875 0.03125,-0.140625 0.0625,-0.265625 0.359375,-0.0625 0.515625,-0.09375 0.703125,-0.09375 1.03125,0 1.515625,0.453125 1.515625,1.375 0,1.078125 -0.71875,1.953125 -1.59375,1.953125 -0.21875,0 -0.421875,-0.046875 -0.796875,-0.1875 l 0.03125,0.3125 C 3.046875,-2.921875 3.25,-2.875 3.53125,-2.875 c 1.296875,0 2.390625,-1.15625 2.390625,-2.515625 0,-1.015625 -0.625,-1.53125 -1.8125,-1.5 l -1.375,0.015625 -1.125,-0.015625 h -0.53125 z m 0,0"
           id="path9433" />
      </symbol>
      <symbol
         overflow="visible"
         id="symbol8825">
        <path
           style="stroke:none"
           d="m 7.28125,-1.03125 -0.265625,0.171875 c -0.28125,0.1875 -0.5,0.296875 -0.609375,0.296875 -0.0625,0 -0.125,-0.078125 -0.125,-0.1875 0,-0.109375 0.015625,-0.203125 0.0625,-0.40625 l 0.75,-2.953125 C 7.140625,-4.28125 7.171875,-4.453125 7.171875,-4.53125 7.171875,-4.6875 7.0625,-4.8125 6.90625,-4.8125 6.625,-4.8125 6.234375,-4.625 5.625,-4.203125 5,-3.75 4.65625,-3.40625 4.171875,-2.71875 L 4.46875,-4.078125 C 4.5,-4.28125 4.53125,-4.421875 4.53125,-4.5 c 0,-0.1875 -0.09375,-0.3125 -0.25,-0.3125 -0.296875,0 -0.765625,0.234375 -1.3125,0.640625 -0.4375,0.34375 -0.640625,0.546875 -1.28125,1.4375 L 2.015625,-4.0625 c 0.03125,-0.171875 0.0625,-0.3125 0.0625,-0.4375 0,-0.1875 -0.09375,-0.3125 -0.234375,-0.3125 -0.203125,0 -0.59375,0.21875 -1.328125,0.75 L 0.234375,-3.875 0.3125,-3.671875 0.625,-3.875 c 0.375,-0.234375 0.40625,-0.25 0.46875,-0.25 0.109375,0 0.1875,0.09375 0.1875,0.25 0,0.5 -0.40625,2.421875 -0.828125,3.859375 l 0.03125,0.109375 0.6875,-0.15625 0.21875,-1.015625 C 1.625,-2.1875 1.890625,-2.765625 2.4375,-3.375 c 0.421875,-0.453125 0.875,-0.75 1.15625,-0.75 0.0625,0 0.109375,0.078125 0.109375,0.203125 0,0.359375 -0.21875,1.484375 -0.625,3.234375 L 2.90625,-0.015625 2.953125,0.09375 3.65625,-0.0625 3.859375,-1.125 c 0.15625,-0.8125 0.5,-1.5625 0.9375,-2.046875 C 5.34375,-3.78125 5.84375,-4.125 6.15625,-4.125 c 0.078125,0 0.140625,0.09375 0.140625,0.25 0,0.234375 -0.03125,0.375 -0.25,1.25 C 5.875,-2 5.71875,-1.40625 5.609375,-1.0625 c -0.09375,0.28125 -0.125,0.53125 -0.125,0.75 0,0.25 0.109375,0.40625 0.296875,0.40625 0.265625,0 0.625,-0.21875 1.59375,-0.9375 z m 0,0"
           id="path3213" />
      </symbol>
      <symbol
         overflow="visible"
         id="symbol580">
        <path
           style="stroke:none"
           d="m 4.03125,-3.78125 c 0.171875,0.015625 0.25,0.015625 0.34375,0.015625 0.171875,0 0.265625,-0.015625 0.5,-0.046875 L 4.96875,-4.25 4.9375,-4.3125 C 4.65625,-4.25 4.453125,-4.234375 3.921875,-4.234375 3.765625,-4.484375 3.65625,-4.578125 3.40625,-4.671875 3.203125,-4.75 2.953125,-4.8125 2.734375,-4.8125 c -0.40625,0 -0.90625,0.203125 -1.34375,0.53125 -0.546875,0.40625 -0.84375,0.984375 -0.84375,1.703125 0,0.765625 0.453125,1.21875 1.21875,1.21875 0.078125,0 0.1875,0 0.296875,0 l -0.40625,0.375 C 1.5,-0.84375 1.390625,-0.65625 1.390625,-0.515625 c 0,0.09375 0.0625,0.203125 0.203125,0.328125 -0.75,0.25 -1.0625,0.390625 -1.4375,0.703125 C -0.171875,0.796875 -0.375,1.1875 -0.375,1.578125 -0.375,2.296875 0.328125,2.75 1.421875,2.75 c 1.28125,0 2.40625,-0.71875 2.40625,-1.546875 0,-0.359375 -0.203125,-0.71875 -0.640625,-1.0625 L 2.59375,-0.34375 C 2.25,-0.625 2.125,-0.8125 2.125,-1 c 0,-0.09375 0.0625,-0.1875 0.203125,-0.375 0.03125,-0.046875 0.046875,-0.046875 0.0625,-0.078125 0.984375,-0.234375 1.6875,-1.0625 1.6875,-1.953125 0,-0.09375 -0.015625,-0.1875 -0.03125,-0.328125 z M 2.515625,0.578125 c 0.46875,0.359375 0.65625,0.625 0.65625,0.953125 0,0.515625 -0.6875,0.9375 -1.515625,0.9375 -0.8125,0 -1.390625,-0.421875 -1.390625,-1.015625 0,-0.390625 0.1875,-0.734375 0.5,-1 C 1.03125,0.234375 1.25,0.140625 1.75,-0.015625 Z M 2.5,-4.46875 c 0.578125,0 0.859375,0.359375 0.859375,1.0625 0,1.03125 -0.484375,1.734375 -1.171875,1.734375 -0.609375,0 -0.9375,-0.40625 -0.9375,-1.203125 0,-0.9375 0.515625,-1.59375 1.25,-1.59375 z m 0,0"
           id="path8747" />
      </symbol>
      <symbol
         overflow="visible"
         id="symbol9450">
        <path
           style="stroke:none"
           d=""
           id="path8970" />
      </symbol>
      <symbol
         overflow="visible"
         id="symbol7681">
        <path
           style="stroke:none"
           d="m 7.125,-3.390625 c 0.15625,0 0.359375,0 0.359375,-0.203125 0,-0.21875 -0.203125,-0.21875 -0.34375,-0.21875 h -6.21875 c -0.140625,0 -0.34375,0 -0.34375,0.21875 0,0.203125 0.203125,0.203125 0.359375,0.203125 z M 7.140625,-1.375 c 0.140625,0 0.34375,0 0.34375,-0.21875 0,-0.203125 -0.203125,-0.203125 -0.359375,-0.203125 H 0.9375 c -0.15625,0 -0.359375,0 -0.359375,0.203125 0,0.21875 0.203125,0.21875 0.34375,0.21875 z m 0,0"
           id="path130" />
      </symbol>
    </g>
    <g
       id="g1951">
      <symbol
         overflow="visible"
         id="symbol6240">
        <path
           style="stroke:none"
           d=""
           id="path9977" />
      </symbol>
      <symbol
         overflow="visible"
         id="symbol6312">
        <path
           style="stroke:none"
           d="m 5.578125,-6.171875 c -0.15625,0.140625 -0.5,0.421875 -0.5,0.609375 0,0.109375 0.109375,0.203125 0.21875,0.203125 0.09375,0 0.140625,-0.0625 0.1875,-0.125 C 5.609375,-5.640625 5.84375,-5.9375 6.3125,-6.15625 6.375,-6.203125 6.484375,-6.25 6.484375,-6.375 6.484375,-6.484375 6.40625,-6.53125 6.34375,-6.59375 6.109375,-6.75 6,-6.9375 5.90625,-7.171875 5.890625,-7.265625 5.84375,-7.40625 5.703125,-7.40625 5.5625,-7.40625 5.5,-7.265625 5.5,-7.1875 c 0,0.046875 0.078125,0.375 0.25,0.59375 h -3.5 c -0.171875,0 -0.359375,0 -0.359375,0.21875 0,0.203125 0.1875,0.203125 0.359375,0.203125 z m 0,0"
           id="path1254" />
      </symbol>
      <symbol
         overflow="visible"
         id="symbol8462">
        <path
           style="stroke:none"
           d=""
           id="path4451" />
      </symbol>
      <symbol
         overflow="visible"
         id="symbol340">
        <path
           style="stroke:none"
           d="M 2.84375,-3.8125 C 2.890625,-4 2.953125,-4.234375 3.015625,-4.375 l -0.03125,-0.078125 -0.078125,0.03125 c -0.234375,0.0625 -0.34375,0.0625 -0.828125,0.0625 H 1.90625 L 2.125,-5.46875 c 0.15625,-0.859375 0.4375,-1.234375 0.890625,-1.234375 0.296875,0 0.578125,0.140625 0.71875,0.390625 L 3.84375,-6.359375 C 3.890625,-6.515625 3.984375,-6.828125 4.0625,-7.03125 L 4.109375,-7.171875 C 3.953125,-7.25 3.65625,-7.3125 3.421875,-7.3125 c -0.109375,0 -0.265625,0.03125 -0.34375,0.078125 -0.25,0.109375 -1.0625,0.71875 -1.296875,0.953125 C 1.5625,-6.0625 1.453125,-5.765625 1.328125,-5.1875 L 1.1875,-4.40625 C 0.78125,-4.203125 0.578125,-4.125 0.328125,-4.03125 L 0.28125,-3.8125 h 0.8125 L 1,-3.265625 C 0.703125,-1.3125 0.328125,0.53125 0.109375,1.21875 -0.0625,1.8125 -0.375,2.125 -0.734375,2.125 -0.953125,2.125 -1.0625,2.046875 -1.25,1.828125 L -1.390625,1.875 C -1.421875,2.109375 -1.5625,2.578125 -1.609375,2.671875 -1.53125,2.71875 -1.375,2.75 -1.265625,2.75 -0.859375,2.75 -0.3125,2.4375 0.0625,1.96875 0.671875,1.25 0.890625,0.5625 1.625,-2.9375 c 0.03125,-0.125 0.109375,-0.5 0.1875,-0.875 z m 0,0"
           id="path1472" />
      </symbol>
      <symbol
         overflow="visible"
         id="symbol2308">
        <path
           style="stroke:none"
           d="m 4.5,-5.359375 h 0.296875 c 0.03125,-0.53125 0.109375,-0.90625 0.25,-1.34375 C 4.59375,-6.9375 4.203125,-7.03125 3.734375,-7.03125 3,-7.03125 2.25,-6.734375 1.71875,-6.1875 c -0.4375,0.40625 -0.640625,0.90625 -0.640625,1.5 0,0.84375 0.375,1.3125 1.21875,1.5 l 0.9375,0.234375 c 0.546875,0.125 0.8125,0.484375 0.8125,1.046875 0,0.953125 -0.703125,1.609375 -1.734375,1.609375 -0.53125,0 -0.921875,-0.125 -1.359375,-0.4375 V -1.71875 H 0.65625 c -0.0625,0.546875 -0.125,1 -0.234375,1.515625 0.484375,0.25 1.015625,0.375 1.546875,0.375 1.546875,0 2.859375,-1.15625 2.859375,-2.5 0,-0.796875 -0.421875,-1.203125 -1.421875,-1.4375 L 2.75,-3.890625 C 2.09375,-4.03125 1.796875,-4.40625 1.796875,-5.0625 c 0,-0.875 0.671875,-1.5 1.578125,-1.5 0.5,0 0.828125,0.125 1.125,0.453125 z m 0,0"
           id="path9403" />
      </symbol>
      <symbol
         overflow="visible"
         id="symbol3875">
        <path
           style="stroke:none"
           d="M 5.953125,-5.171875 H 6.21875 c 0.046875,-0.5625 0.125,-1 0.265625,-1.453125 -0.75,-0.296875 -1.328125,-0.40625 -1.9375,-0.40625 -0.8125,0 -1.640625,0.25 -2.328125,0.71875 -1.171875,0.78125 -1.765625,1.953125 -1.765625,3.484375 0,1.9375 1.0625,3 2.96875,3 0.953125,0 1.65625,-0.21875 2.5625,-0.84375 l 0.09375,-0.359375 -0.09375,-0.0625 c -0.9375,0.5625 -1.453125,0.75 -2.234375,0.75 -1.5625,0 -2.421875,-0.96875 -2.421875,-2.734375 0,-1.109375 0.34375,-2.09375 0.9375,-2.71875 0.46875,-0.46875 1.109375,-0.71875 1.90625,-0.71875 0.703125,0 1.21875,0.140625 1.78125,0.5 z m 0,0"
           id="path7972" />
      </symbol>
      <symbol
         overflow="visible"
         id="symbol4519">
        <path
           style="stroke:none"
           d="m 1.046875,-6.625 0.5625,0.03125 c 0.234375,0 0.34375,0.078125 0.34375,0.265625 0,0.140625 -0.046875,0.453125 -0.09375,0.75 L 1.109375,-1.25 C 0.953125,-0.34375 0.9375,-0.3125 0.53125,-0.28125 L 0.125,-0.25 0.09375,0.03125 0.515625,0.015625 C 0.984375,0 1.171875,0 1.40625,0 L 2.375,0.03125 h 0.25 L 2.65625,-0.25 2.171875,-0.28125 C 1.90625,-0.296875 1.8125,-0.375 1.8125,-0.578125 c 0,-0.09375 0.015625,-0.171875 0.046875,-0.34375 L 2.703125,-5.78125 C 2.703125,-5.796875 2.75,-6 2.796875,-6.1875 c 0.015625,-0.078125 0.03125,-0.140625 0.0625,-0.265625 0.296875,-0.0625 0.484375,-0.09375 0.765625,-0.09375 0.859375,0 1.3125,0.390625 1.3125,1.140625 0,0.9375 -0.765625,1.640625 -1.8125,1.640625 H 2.6875 L 2.65625,-3.65625 C 4,-1.71875 4.3125,-1.234375 5.046875,0.03125 L 5.71875,0 h 0.1875 c 0,0 0.140625,0.015625 0.328125,0.03125 H 6.375 V -0.234375 C 5.96875,-0.296875 5.859375,-0.375 5.578125,-0.78125 l -1.84375,-2.75 C 4.28125,-3.625 4.578125,-3.75 4.9375,-4 c 0.578125,-0.421875 0.890625,-0.96875 0.890625,-1.578125 0,-0.859375 -0.640625,-1.34375 -1.75,-1.3125 l -1.5,0.015625 c -0.140625,0 -0.328125,0 -1.5,-0.015625 z m 0,0"
           id="path462" />
      </symbol>
      <symbol
         overflow="visible"
         id="symbol2352">
        <path
           style="stroke:none"
           d="M 3.265625,-1.109375 3.03125,-0.9375 c -0.53125,0.375 -1,0.578125 -1.359375,0.578125 -0.46875,0 -0.765625,-0.375 -0.765625,-0.96875 0,-0.25 0.03125,-0.515625 0.078125,-0.8125 l 0.8125,-0.1875 C 1.96875,-2.375 2.25,-2.46875 2.5,-2.578125 c 0.84375,-0.375 1.234375,-0.828125 1.234375,-1.453125 0,-0.46875 -0.34375,-0.78125 -0.84375,-0.78125 -0.640625,0 -1.75,0.703125 -2.140625,1.328125 -0.296875,0.5 -0.59375,1.6875 -0.59375,2.359375 0,0.78125 0.4375,1.234375 1.15625,1.234375 0.5625,0 1.125,-0.28125 2.03125,-1.03125 z M 1.125,-2.734375 c 0.171875,-0.6875 0.375,-1.109375 0.65625,-1.375 0.1875,-0.15625 0.484375,-0.28125 0.734375,-0.28125 0.28125,0 0.46875,0.203125 0.46875,0.515625 0,0.453125 -0.34375,0.921875 -0.859375,1.15625 -0.28125,0.140625 -0.640625,0.25 -1.09375,0.359375 z m 0,0"
           id="path1520" />
      </symbol>
      <symbol
         overflow="visible"
         id="symbol7189">
        <path
           style="stroke:none"
           d="m 3.3125,-4.21875 0.109375,0.1875 c 0.09375,-0.0625 0.171875,-0.078125 0.265625,-0.078125 0.265625,0 0.421875,0.21875 0.421875,0.625 0,1.46875 -0.953125,3.09375 -1.84375,3.09375 -0.484375,0 -0.796875,-0.421875 -0.796875,-1.0625 0,-1.046875 0.390625,-1.953125 1.375,-3.171875 L 2.734375,-4.8125 c -0.1875,0.09375 -0.328125,0.125 -0.59375,0.125 -0.28125,0 -0.703125,-0.015625 -1,-0.046875 L 1.03125,-4.75 c -0.0625,0 -0.109375,0 -0.125,0 -0.125,0 -0.203125,0.015625 -0.3125,0.0625 -0.140625,0.265625 -0.25,0.625 -0.390625,1.171875 h 0.21875 l 0.171875,-0.40625 c 0.078125,-0.171875 0.28125,-0.28125 0.515625,-0.28125 0.046875,0 0.140625,0 0.265625,0 0.078125,0.015625 0.15625,0.015625 0.28125,0.015625 0.203125,0 0.375,-0.015625 0.625,-0.046875 C 1.171875,-3.03125 0.75,-2.203125 0.75,-1.203125 c 0,0.765625 0.46875,1.3125 1.109375,1.3125 0.40625,0 0.796875,-0.171875 1.25,-0.59375 0.46875,-0.421875 0.953125,-1.09375 1.25,-1.78125 0.21875,-0.5 0.390625,-1.15625 0.390625,-1.5625 0,-0.5625 -0.25,-0.984375 -0.609375,-0.984375 -0.140625,0 -0.25,0.046875 -0.328125,0.125 z m 0,0"
           id="path2738" />
      </symbol>
      <symbol
         overflow="visible"
         id="symbol9113">
        <path
           style="stroke:none"
           d=""
           id="path3026" />
      </symbol>
      <symbol
         overflow="visible"
         id="symbol9743">
        <path
           style="stroke:none"
           d="m 7.125,-3.390625 c 0.15625,0 0.359375,0 0.359375,-0.203125 0,-0.21875 -0.203125,-0.21875 -0.34375,-0.21875 h -6.21875 c -0.140625,0 -0.34375,0 -0.34375,0.21875 0,0.203125 0.203125,0.203125 0.359375,0.203125 z M 7.140625,-1.375 c 0.140625,0 0.34375,0 0.34375,-0.21875 0,-0.203125 -0.203125,-0.203125 -0.359375,-0.203125 H 0.9375 c -0.15625,0 -0.359375,0 -0.359375,0.203125 0,0.21875 0.203125,0.21875 0.34375,0.21875 z m 0,0"
           id="path1580" />
      </symbol>
      <symbol
         overflow="visible"
         id="symbol6330">
        <path
           style="stroke:none"
           d="m 3.4375,2.484375 c 0,-0.03125 0,-0.046875 -0.1875,-0.21875 C 1.953125,0.953125 1.625,-1 1.625,-2.59375 1.625,-4.40625 2.015625,-6.203125 3.296875,-7.5 3.4375,-7.625 3.4375,-7.640625 3.4375,-7.671875 3.4375,-7.75 3.390625,-7.78125 3.328125,-7.78125 c -0.09375,0 -1.03125,0.703125 -1.640625,2.015625 -0.53125,1.15625 -0.65625,2.296875 -0.65625,3.171875 0,0.8125 0.109375,2.0625 0.6875,3.234375 0.609375,1.28125 1.515625,1.953125 1.609375,1.953125 0.0625,0 0.109375,-0.03125 0.109375,-0.109375 z m 0,0"
           id="path9983" />
      </symbol>
      <symbol
         overflow="visible"
         id="symbol8412">
        <path
           style="stroke:none"
           d="m 3,-2.59375 c 0,-0.8125 -0.109375,-2.0625 -0.6875,-3.234375 -0.625,-1.28125 -1.515625,-1.953125 -1.625,-1.953125 -0.046875,0 -0.09375,0.046875 -0.09375,0.109375 0,0.03125 0,0.046875 0.1875,0.234375 1.03125,1.03125 1.609375,2.671875 1.609375,4.84375 0,1.78125 -0.375,3.59375 -1.671875,4.90625 -0.125,0.125 -0.125,0.140625 -0.125,0.171875 0,0.0625 0.046875,0.109375 0.09375,0.109375 0.109375,0 1.046875,-0.703125 1.65625,-2.015625 C 2.875,-0.578125 3,-1.71875 3,-2.59375 Z m 0,0"
           id="path5550" />
      </symbol>
      <symbol
         overflow="visible"
         id="symbol9053">
        <path
           style="stroke:none"
           d=""
           id="path3050" />
      </symbol>
      <symbol
         overflow="visible"
         id="symbol6957">
        <path
           style="stroke:none"
           d="m 6.84375,-2.390625 c 0.171875,0 0.359375,0 0.359375,-0.203125 0,-0.203125 -0.1875,-0.203125 -0.359375,-0.203125 h -5.625 c -0.171875,0 -0.359375,0 -0.359375,0.203125 0,0.203125 0.1875,0.203125 0.359375,0.203125 z m 0,0"
           id="path9861" />
      </symbol>
      <symbol
         overflow="visible"
         id="symbol5836">
        <path
           style="stroke:none"
           d="m 1.78125,-7.421875 c 0,-0.171875 0,-0.359375 -0.203125,-0.359375 C 1.375,-7.78125 1.375,-7.546875 1.375,-7.390625 v 9.59375 c 0,0.171875 0,0.390625 0.203125,0.390625 0.203125,0 0.203125,-0.1875 0.203125,-0.359375 z m 2.03125,0.03125 c 0,-0.171875 0,-0.390625 -0.21875,-0.390625 -0.203125,0 -0.203125,0.1875 -0.203125,0.359375 v 9.65625 c 0,0.171875 0,0.359375 0.203125,0.359375 0.21875,0 0.21875,-0.234375 0.21875,-0.390625 z m 0,0"
           id="path7434" />
      </symbol>
      <symbol
         overflow="visible"
         id="symbol7317">
        <path
           style="stroke:none"
           d=""
           id="path5691" />
      </symbol>
      <symbol
         overflow="visible"
         id="symbol8971">
        <path
           style="stroke:none"
           d="m 0.671875,-5.53125 h 0.09375 l 1.28125,-0.578125 C 2.0625,-6.125 2.078125,-6.125 2.078125,-6.125 c 0.0625,0 0.078125,0.09375 0.078125,0.328125 v 4.84375 c 0,0.515625 -0.109375,0.625 -0.640625,0.65625 l -0.5625,0.03125 V 0.03125 C 2.5,0 2.5,0 2.609375,0 c 0.125,0 0.34375,0 0.6875,0.015625 0.109375,0 0.46875,0 0.875,0.015625 V -0.265625 L 3.65625,-0.296875 C 3.09375,-0.328125 3,-0.4375 3,-0.953125 V -6.875 L 2.859375,-6.921875 C 2.21875,-6.578125 1.5,-6.28125 0.59375,-5.96875 Z m 0,0"
           id="path5937" />
      </symbol>
      <symbol
         overflow="visible"
         id="symbol2392">
        <path
           style="stroke:none"
           d="M 0.15625,-0.234375 V 0.03125 C 2.03125,0 2.03125,0 2.375,0 c 0.359375,0 0.359375,0 2.296875,0.03125 -0.03125,-0.203125 -0.03125,-0.3125 -0.03125,-0.453125 0,-0.125 0,-0.21875 0.03125,-0.453125 C 3.515625,-0.8125 3.0625,-0.8125 1.21875,-0.765625 L 3.03125,-2.6875 C 4,-3.71875 4.296875,-4.265625 4.296875,-5.015625 4.296875,-6.15625 3.515625,-6.875 2.25,-6.875 c -0.71875,0 -1.203125,0.203125 -1.6875,0.703125 L 0.390625,-4.8125 h 0.28125 L 0.8125,-5.28125 C 0.96875,-5.859375 1.328125,-6.09375 2,-6.09375 c 0.84375,0 1.40625,0.53125 1.40625,1.375 0,0.75 -0.421875,1.484375 -1.546875,2.6875 z m 0,0"
           id="path422" />
      </symbol>
      <symbol
         overflow="visible"
         id="symbol8733">
        <path
           style="stroke:none"
           d=""
           id="path2442" />
      </symbol>
      <symbol
         overflow="visible"
         id="symbol2583">
        <path
           style="stroke:none"
           d="m 0.953125,-0.453125 c 0.203125,0.375 0.5625,0.5625 1.0625,0.5625 0.53125,0 1.109375,-0.25 1.546875,-0.65625 0.640625,-0.59375 1.09375,-1.71875 1.09375,-2.75 0,-0.9375 -0.5,-1.515625 -1.3125,-1.515625 -0.4375,0 -0.859375,0.15625 -1.296875,0.453125 C 1.703125,-4.125 1.421875,-3.828125 1.21875,-3.46875 1.0625,-3.25 0.953125,-3 0.84375,-2.765625 c -0.25,0.59375 -0.390625,1.203125 -0.5,1.8125 -0.171875,1.046875 -0.296875,2.59375 -0.40625,3.625 L 0.078125,2.75 c 0.25,-0.078125 0.4375,-0.125 0.71875,-0.171875 C 0.78125,2.296875 0.765625,1.90625 0.765625,1.515625 0.765625,0.8125 0.796875,0.0625 0.875,-0.453125 Z m 2,-3.96875 c 0.625,0 0.9375,0.4375 0.9375,1.265625 0,0.96875 -0.296875,2.03125 -0.734375,2.5625 -0.1875,0.203125 -0.4375,0.328125 -0.75,0.328125 -0.59375,0 -0.921875,-0.453125 -0.921875,-1.234375 0,-1.125 0.390625,-2.359375 0.875,-2.75 C 2.5,-4.359375 2.71875,-4.421875 2.953125,-4.421875 Z m 0,0"
           id="path3118" />
      </symbol>
      <symbol
         overflow="visible"
         id="symbol8757">
        <path
           style="stroke:none"
           d=""
           id="path6942" />
      </symbol>
      <symbol
         overflow="visible"
         id="symbol3950">
        <path
           style="stroke:none"
           d="m 0.15625,-0.671875 c 0,0.15625 -0.015625,0.25 -0.0625,0.5 C 0.078125,-0.078125 0.078125,-0.0625 0.0625,0 c 0.125,0.046875 0.234375,0.078125 0.328125,0.078125 0.25,0 0.546875,-0.21875 0.78125,-0.578125 L 1.75,-1.375 1.828125,-0.859375 c 0.109375,0.640625 0.28125,0.9375 0.546875,0.9375 0.171875,0 0.40625,-0.125 0.65625,-0.34375 L 3.40625,-0.59375 3.328125,-0.75 C 3.0625,-0.515625 2.875,-0.40625 2.75,-0.40625 2.640625,-0.40625 2.53125,-0.484375 2.46875,-0.625 2.390625,-0.765625 2.3125,-1.046875 2.28125,-1.265625 L 2.140625,-2.03125 2.40625,-2.40625 c 0.359375,-0.5 0.5625,-0.671875 0.796875,-0.671875 0.109375,0 0.203125,0.0625 0.25,0.171875 l 0.09375,-0.03125 0.125,-0.640625 C 3.578125,-3.625 3.515625,-3.65625 3.4375,-3.65625 c -0.296875,0 -0.609375,0.28125 -1.078125,0.96875 L 2.078125,-2.265625 2.03125,-2.625 C 1.953125,-3.375 1.75,-3.65625 1.296875,-3.65625 c -0.203125,0 -0.359375,0.0625 -0.4375,0.15625 l -0.4375,0.640625 0.125,0.078125 c 0.234375,-0.265625 0.390625,-0.375 0.53125,-0.375 0.25,0 0.421875,0.3125 0.546875,1.0625 L 1.703125,-1.625 1.40625,-1.15625 c -0.328125,0.5 -0.59375,0.75 -0.796875,0.75 C 0.5,-0.40625 0.40625,-0.4375 0.390625,-0.484375 L 0.3125,-0.6875 Z m 0,0"
           id="path1564" />
      </symbol>
      <symbol
         overflow="visible"
         id="symbol8270">
        <path
           style="stroke:none"
           d=""
           id="path137" />
      </symbol>
      <symbol
         overflow="visible"
         id="symbol5181">
        <path
           style="stroke:none"
           d="m 0.125,-0.171875 v 0.1875 C 1.53125,0 1.53125,0 1.8125,0 2.078125,0 2.078125,0 3.546875,0.015625 3.53125,-0.140625 3.53125,-0.21875 3.53125,-0.3125 c 0,-0.109375 0,-0.1875 0.015625,-0.34375 -0.875,0.03125 -1.21875,0.046875 -2.625,0.078125 l 1.375,-1.46875 C 3.03125,-2.828125 3.265625,-3.25 3.265625,-3.8125 c 0,-0.875 -0.59375,-1.40625 -1.546875,-1.40625 -0.546875,0 -0.921875,0.15625 -1.296875,0.53125 l -0.125,1.03125 h 0.21875 l 0.09375,-0.359375 c 0.125,-0.4375 0.40625,-0.625 0.90625,-0.625 0.65625,0 1.0625,0.40625 1.0625,1.0625 0,0.5625 -0.3125,1.125 -1.171875,2.03125 z m 0,0"
           id="path555" />
      </symbol>
    </g>
    <marker
       style="overflow:visible"
       id="Arrow1Mend-3"
       refX="0"
       refY="0"
       orient="auto"
       inkscape:stockid="Arrow1Mend"
       inkscape:isstock="true">
      <path
         transform="matrix(-0.4,0,0,-0.4,-4,0)"
         style="fill:context-stroke;fill-rule:evenodd;stroke:context-stroke;stroke-width:1pt"
         d="M 0,0 5,-5 -12.5,0 5,5 Z"
         id="path1244-6" />
    </marker>
    <marker
       style="overflow:visible"
       id="Arrow1Mend-3-5"
       refX="0"
       refY="0"
       orient="auto"
       inkscape:stockid="Arrow1Mend"
       inkscape:isstock="true">
      <path
         transform="matrix(-0.4,0,0,-0.4,-4,0)"
         style="fill:context-stroke;fill-rule:evenodd;stroke:context-stroke;stroke-width:1pt"
         d="M 0,0 5,-5 -12.5,0 5,5 Z"
         id="path1244-6-3" />
    </marker>
    <marker
       style="overflow:visible"
       id="Arrow1Mend-3-6"
       refX="0"
       refY="0"
       orient="auto"
       inkscape:stockid="Arrow1Mend"
       inkscape:isstock="true">
      <path
         transform="matrix(-0.4,0,0,-0.4,-4,0)"
         style="fill:context-stroke;fill-rule:evenodd;stroke:context-stroke;stroke-width:1pt"
         d="M 0,0 5,-5 -12.5,0 5,5 Z"
         id="path1244-6-2" />
    </marker>
    <g
       id="g6116">
      <symbol
         overflow="visible"
         id="symbol307">
        <path
           style="stroke:none"
           d=""
           id="path6099" />
      </symbol>
      <symbol
         overflow="visible"
         id="symbol8770">
        <path
           style="stroke:none"
           d="m 5.578125,-6.171875 c -0.15625,0.140625 -0.5,0.421875 -0.5,0.609375 0,0.109375 0.109375,0.203125 0.21875,0.203125 0.09375,0 0.140625,-0.0625 0.1875,-0.125 C 5.609375,-5.640625 5.84375,-5.9375 6.3125,-6.15625 6.375,-6.203125 6.484375,-6.25 6.484375,-6.375 6.484375,-6.484375 6.40625,-6.53125 6.34375,-6.59375 6.109375,-6.75 6,-6.9375 5.90625,-7.171875 5.890625,-7.265625 5.84375,-7.40625 5.703125,-7.40625 5.5625,-7.40625 5.5,-7.265625 5.5,-7.1875 c 0,0.046875 0.078125,0.375 0.25,0.59375 h -3.5 c -0.171875,0 -0.359375,0 -0.359375,0.21875 0,0.203125 0.1875,0.203125 0.359375,0.203125 z m 0,0"
           id="path3534" />
      </symbol>
      <symbol
         overflow="visible"
         id="symbol6189">
        <path
           style="stroke:none"
           d=""
           id="path306" />
      </symbol>
      <symbol
         overflow="visible"
         id="symbol2237">
        <path
           style="stroke:none"
           d="m 3.3125,-4.21875 0.109375,0.1875 c 0.09375,-0.0625 0.171875,-0.078125 0.265625,-0.078125 0.265625,0 0.421875,0.21875 0.421875,0.625 0,1.46875 -0.953125,3.09375 -1.84375,3.09375 -0.484375,0 -0.796875,-0.421875 -0.796875,-1.0625 0,-1.046875 0.390625,-1.953125 1.375,-3.171875 L 2.734375,-4.8125 c -0.1875,0.09375 -0.328125,0.125 -0.59375,0.125 -0.28125,0 -0.703125,-0.015625 -1,-0.046875 L 1.03125,-4.75 c -0.0625,0 -0.109375,0 -0.125,0 -0.125,0 -0.203125,0.015625 -0.3125,0.0625 -0.140625,0.265625 -0.25,0.625 -0.390625,1.171875 h 0.21875 l 0.171875,-0.40625 c 0.078125,-0.171875 0.28125,-0.28125 0.515625,-0.28125 0.046875,0 0.140625,0 0.265625,0 0.078125,0.015625 0.15625,0.015625 0.28125,0.015625 0.203125,0 0.375,-0.015625 0.625,-0.046875 C 1.171875,-3.03125 0.75,-2.203125 0.75,-1.203125 c 0,0.765625 0.46875,1.3125 1.109375,1.3125 0.40625,0 0.796875,-0.171875 1.25,-0.59375 0.46875,-0.421875 0.953125,-1.09375 1.25,-1.78125 0.21875,-0.5 0.390625,-1.15625 0.390625,-1.5625 0,-0.5625 -0.25,-0.984375 -0.609375,-0.984375 -0.140625,0 -0.25,0.046875 -0.328125,0.125 z m 0,0"
           id="path7238" />
      </symbol>
    </g>
    <g
       id="g5066">
      <symbol
         overflow="visible"
         id="symbol2281">
        <path
           style="stroke:none"
           d=""
           id="path8480" />
      </symbol>
      <symbol
         overflow="visible"
         id="symbol8578">
        <path
           style="stroke:none"
           d="M 4.828125,-0.984375 C 4.46875,-0.671875 4.234375,-0.59375 4.0625,-0.59375 3.921875,-0.59375 3.796875,-0.625 3.703125,-0.8125 3.609375,-1 3.484375,-1.421875 3.4375,-1.71875 3.40625,-1.890625 3.390625,-2.03125 3.375,-2.1875 3.671875,-2.578125 3.953125,-3.015625 4.109375,-3.234375 4.25,-3.453125 4.609375,-4.046875 4.671875,-4.25 4.609375,-4.359375 4.578125,-4.453125 4.515625,-4.59375 4.484375,-4.609375 4.40625,-4.640625 4.359375,-4.671875 4.140625,-3.84375 4,-3.5625 3.640625,-2.96875 3.59375,-2.90625 3.4375,-2.65625 3.3125,-2.5 3.140625,-3.6875 3.09375,-3.96875 3.046875,-4.3125 c -0.09375,-0.453125 -0.375,-0.5 -0.578125,-0.5 -0.21875,0.015625 -0.5625,0.1875 -0.890625,0.5 -0.234375,0.21875 -0.421875,0.46875 -0.59375,0.78125 -0.453125,0.890625 -0.765625,2.078125 -0.765625,2.875 0,0.328125 0.15625,0.765625 0.375,0.765625 0.390625,0 0.71875,-0.203125 1.015625,-0.421875 0.421875,-0.359375 0.875,-0.8125 1.1875,-1.15625 0.109375,1.03125 0.40625,1.578125 0.78125,1.578125 0.21875,0 0.53125,-0.171875 0.859375,-0.453125 l 0.484375,-0.4375 z M 2.75,-1.78125 c -0.28125,0.328125 -0.578125,0.640625 -0.828125,0.84375 -0.3125,0.265625 -0.59375,0.34375 -0.765625,0.34375 -0.125,0 -0.171875,-0.140625 -0.171875,-0.390625 0,-0.640625 0.15625,-1.71875 0.484375,-2.546875 0.125,-0.328125 0.375,-0.609375 0.59375,-0.609375 0.296875,0 0.40625,0.171875 0.453125,0.609375 z m 0,0"
           id="path9083" />
      </symbol>
    </g>
  </defs>
  <g
     inkscape:label="Calque 1"
     inkscape:groupmode="layer"
     id="layer1"
     transform="translate(55.327274,-73.038572)">
    <g
       inkscape:label=""
       transform="translate(-22.533088,34.009566)"
       id="g45">
      <g
         id="g7806">
        <g
           style="fill:#000000;fill-opacity:1"
           id="g4387">
          <use
             xlink:href="#symbol4712"
             x="92.055"
             y="79.875999"
             id="use8908"
             width="100%"
             height="100%" />
        </g>
        <g
           style="fill:#000000;fill-opacity:1"
           id="g9262">
          <use
             xlink:href="#symbol1515"
             x="92.249001"
             y="81.962997"
             id="use322"
             width="100%"
             height="100%" />
        </g>
        <g
           style="fill:#000000;fill-opacity:1"
           id="g3997">
          <use
             xlink:href="#symbol7681"
             x="101.353"
             y="81.962997"
             id="use8575"
             width="100%"
             height="100%" />
        </g>
        <g
           style="fill:#000000;fill-opacity:1"
           id="g7013">
          <use
             xlink:href="#symbol8825"
             x="112.439"
             y="81.962997"
             id="use1170"
             width="100%"
             height="100%" />
        </g>
        <g
           style="fill:#000000;fill-opacity:1"
           id="g7051">
          <use
             xlink:href="#symbol4712"
             x="119.652"
             y="81.947998"
             id="use5994"
             width="100%"
             height="100%" />
        </g>
        <g
           style="fill:#000000;fill-opacity:1"
           id="g9082">
          <use
             xlink:href="#symbol580"
             x="120.658"
             y="81.962997"
             id="use2558"
             width="100%"
             height="100%" />
        </g>
      </g>
    </g>
    <g
       inkscape:label=""
       transform="translate(-147.0629,6.4330221)"
       id="g264">
      <g
         id="g6576">
        <g
           style="fill:#000000;fill-opacity:1"
           id="g1326">
          <use
             xlink:href="#symbol6312"
             x="92.114998"
             y="83.721001"
             id="use5105"
             width="100%"
             height="100%" />
        </g>
        <g
           style="fill:#000000;fill-opacity:1"
           id="g195">
          <use
             xlink:href="#symbol340"
             x="93.345001"
             y="86.171997"
             id="use2548"
             width="100%"
             height="100%" />
        </g>
        <g
           style="fill:#000000;fill-opacity:1"
           id="g3246">
          <use
             xlink:href="#symbol9743"
             x="100.476"
             y="86.171997"
             id="use3477"
             width="100%"
             height="100%" />
        </g>
        <g
           style="fill:#000000;fill-opacity:1"
           id="g2568">
          <use
             xlink:href="#symbol6957"
             x="111.562"
             y="86.171997"
             id="use6193"
             width="100%"
             height="100%" />
        </g>
        <g
           style="fill:#000000;fill-opacity:1"
           id="g2918">
          <use
             xlink:href="#symbol8971"
             x="120.952"
             y="79.427002"
             id="use7361"
             width="100%"
             height="100%" />
        </g>
        <path
           style="fill:none;stroke:#000000;stroke-width:0.398;stroke-linecap:butt;stroke-linejoin:miter;stroke-miterlimit:10;stroke-opacity:1"
           d="M 0.001125,0.0013125 H 4.981594"
           transform="matrix(1,0,0,-1,120.952,83.681)"
           id="path5387" />
        <g
           style="fill:#000000;fill-opacity:1"
           id="g2553">
          <use
             xlink:href="#symbol2392"
             x="120.952"
             y="93.005997"
             id="use2409"
             width="100%"
             height="100%" />
        </g>
        <g
           style="fill:#000000;fill-opacity:1"
           id="g7803">
          <use
             xlink:href="#symbol2583"
             x="127.253"
             y="86.171997"
             id="use4933"
             width="100%"
             height="100%" />
        </g>
        <g
           style="fill:#000000;fill-opacity:1"
           id="g9002">
          <use
             xlink:href="#symbol2308"
             x="132.483"
             y="86.171997"
             id="use3895"
             width="100%"
             height="100%" />
        </g>
        <g
           style="fill:#000000;fill-opacity:1"
           id="g5248">
          <use
             xlink:href="#symbol3875"
             x="138.23141"
             y="86.171997"
             id="use5692"
             width="100%"
             height="100%" />
        </g>
        <g
           style="fill:#000000;fill-opacity:1"
           id="g9719">
          <use
             xlink:href="#symbol3950"
             x="144.976"
             y="87.666"
             id="use918"
             width="100%"
             height="100%" />
        </g>
        <g
           style="fill:#000000;fill-opacity:1"
           id="g3235">
          <use
             xlink:href="#symbol6330"
             x="149.554"
             y="86.171997"
             id="use3686"
             width="100%"
             height="100%" />
        </g>
        <g
           style="fill:#000000;fill-opacity:1"
           id="g5623">
          <use
             xlink:href="#symbol4519"
             x="154.028"
             y="86.171997"
             id="use5241"
             width="100%"
             height="100%" />
        </g>
        <g
           style="fill:#000000;fill-opacity:1"
           id="g4024">
          <use
             xlink:href="#symbol2352"
             x="160.92212"
             y="86.171997"
             id="use5787"
             width="100%"
             height="100%" />
        </g>
        <g
           style="fill:#000000;fill-opacity:1"
           id="g6570">
          <use
             xlink:href="#symbol8412"
             x="165.04601"
             y="86.171997"
             id="use6453"
             width="100%"
             height="100%" />
        </g>
        <g
           style="fill:#000000;fill-opacity:1"
           id="g4043">
          <use
             xlink:href="#symbol7189"
             x="169.32001"
             y="86.171997"
             id="use9772"
             width="100%"
             height="100%" />
        </g>
        <g
           style="fill:#000000;fill-opacity:1"
           id="g4053">
          <use
             xlink:href="#symbol5181"
             x="174.42599"
             y="82.556"
             id="use5902"
             width="100%"
             height="100%" />
        </g>
        <g
           style="fill:#000000;fill-opacity:1"
           id="g1869">
          <use
             xlink:href="#symbol6312"
             x="184.573"
             y="79.412003"
             id="use8321"
             width="100%"
             height="100%" />
        </g>
        <g
           style="fill:#000000;fill-opacity:1"
           id="g3989">
          <use
             xlink:href="#symbol7189"
             x="185.46899"
             y="79.427002"
             id="use326"
             width="100%"
             height="100%" />
        </g>
        <path
           style="fill:none;stroke:#000000;stroke-width:0.398;stroke-linecap:butt;stroke-linejoin:miter;stroke-miterlimit:10;stroke-opacity:1"
           d="M 0.00125,0.0013125 H 16.110625"
           transform="matrix(1,0,0,-1,179.905,83.681)"
           id="path8067" />
        <g
           style="fill:#000000;fill-opacity:1"
           id="g6684">
          <use
             xlink:href="#symbol5836"
             x="180.03"
             y="93.005997"
             id="use226"
             width="100%"
             height="100%" />
        </g>
        <g
           style="fill:#000000;fill-opacity:1"
           id="g3854">
          <use
             xlink:href="#symbol6312"
             x="184.573"
             y="92.990997"
             id="use9948"
             width="100%"
             height="100%" />
        </g>
        <g
           style="fill:#000000;fill-opacity:1"
           id="g9633">
          <use
             xlink:href="#symbol7189"
             x="185.46899"
             y="93.005997"
             id="use6462"
             width="100%"
             height="100%" />
        </g>
        <g
           style="fill:#000000;fill-opacity:1"
           id="g4429">
          <use
             xlink:href="#symbol5836"
             x="190.7"
             y="93.005997"
             id="use7758"
             width="100%"
             height="100%" />
        </g>
      </g>
    </g>
    <path
       style="fill:none;stroke:#000000;stroke-width:1.065;stroke-linecap:butt;stroke-linejoin:miter;stroke-miterlimit:4;stroke-dasharray:none;stroke-opacity:1;marker-end:url(#Arrow1Mend)"
       d="M 148.23839,143.3791 V 83.312987"
       id="path418" />
    <path
       style="fill:none;stroke:#000000;stroke-width:1.065;stroke-linecap:butt;stroke-linejoin:miter;stroke-miterlimit:4;stroke-dasharray:none;stroke-opacity:1;marker-end:url(#Arrow1Mend-3)"
       d="M 63.05328,100.97897 39.510109,114.57162"
       id="path418-7" />
    <path
       style="fill:none;stroke:#000000;stroke-width:1.065;stroke-linecap:butt;stroke-linejoin:miter;stroke-miterlimit:4;stroke-dasharray:1.065, 1.065;stroke-dashoffset:0;stroke-opacity:1;marker-end:url(#Arrow1Mend-3-6)"
       d="M 63.05328,100.97897 86.596459,87.38632"
       id="path418-7-9" />
    <path
       style="fill:none;stroke:#000000;stroke-width:1.065;stroke-linecap:butt;stroke-linejoin:miter;stroke-miterlimit:4;stroke-dasharray:none;stroke-opacity:1;marker-end:url(#Arrow1Mend-3-5)"
       d="m 63.05328,100.97897 v 27.18531"
       id="path418-7-5" />
    <text
       xml:space="preserve"
       style="font-style:italic;font-variant:normal;font-weight:normal;font-stretch:normal;font-size:8.46667px;line-height:1.25;font-family:P052;-inkscape-font-specification:'P052 Italic';letter-spacing:0px;stroke-width:0.264583"
       x="145.63411"
       y="78.119942"
       id="text5707"><tspan
         sodipodi:role="line"
         id="tspan5705"
         style="font-style:italic;font-variant:normal;font-weight:normal;font-stretch:normal;font-family:P052;-inkscape-font-specification:'P052 Italic';stroke-width:0.264583"
         x="145.63411"
         y="78.119942">y</tspan></text>
    <circle
       style="fill:#000000;stroke:#000000;stroke-width:1.065;stroke-miterlimit:4;stroke-dasharray:none;stroke-opacity:0.666895;stop-color:#000000"
       id="path7033"
       cx="63.05328"
       cy="100.97897"
       r="1.9948827" />
    <path
       style="fill:none;stroke:#000000;stroke-width:0.264583px;stroke-linecap:butt;stroke-linejoin:miter;stroke-opacity:1"
       d="M 63.053279,100.97897 H 129.81757"
       id="path7412" />
    <g
       inkscape:label=""
       transform="translate(-23.018624,5.6343105)"
       id="g7891">
      <g
         id="g1315">
        <g
           style="fill:#000000;fill-opacity:1"
           id="g2124">
          <use
             xlink:href="#symbol8770"
             x="91.153"
             y="81.947998"
             id="use5967"
             width="100%"
             height="100%" />
        </g>
        <g
           style="fill:#000000;fill-opacity:1"
           id="g5682">
          <use
             xlink:href="#symbol2237"
             x="92.050003"
             y="81.962997"
             id="use473"
             width="100%"
             height="100%" />
        </g>
      </g>
    </g>
    <path
       style="fill:none;stroke:#000000;stroke-width:1.065;stroke-miterlimit:4;stroke-dasharray:none;stroke-dashoffset:0;stroke-opacity:1;stop-color:#000000"
       id="path8087"
       sodipodi:type="arc"
       sodipodi:cx="63.05328"
       sodipodi:cy="100.97897"
       sodipodi:rx="13.339027"
       sodipodi:ry="13.339027"
       sodipodi:start="5.7595865"
       sodipodi:end="0"
       sodipodi:arc-type="arc"
       d="m 74.605216,94.309459 a 13.339027,13.339027 0 0 1 1.787091,6.669511"
       sodipodi:open="true" />
    <g
       inkscape:label=""
       transform="translate(-13.113425,17.171874)"
       id="g8729">
      <g
         id="g9326">
        <g
           style="fill:#000000;fill-opacity:1"
           id="g8260">
          <use
             xlink:href="#symbol8578"
             x="92.050003"
             y="81.962997"
             id="use1629"
             width="100%"
             height="100%" />
        </g>
      </g>
    </g>
  </g>
</svg>
