<?xml version="1.0" encoding="utf-8" standalone="no"?>
<!DOCTYPE svg PUBLIC "-//W3C//DTD SVG 1.1//EN"
  "http://www.w3.org/Graphics/SVG/1.1/DTD/svg11.dtd">
<svg xmlns:xlink="http://www.w3.org/1999/xlink" width="460.8pt" height="345.6pt" viewBox="0 0 460.8 345.6" xmlns="http://www.w3.org/2000/svg" version="1.1">
 <metadata>
  <rdf:RDF xmlns:dc="http://purl.org/dc/elements/1.1/" xmlns:cc="http://creativecommons.org/ns#" xmlns:rdf="http://www.w3.org/1999/02/22-rdf-syntax-ns#">
   <cc:Work>
    <dc:type rdf:resource="http://purl.org/dc/dcmitype/StillImage"/>
    <dc:date>2023-10-13T00:03:20.804785</dc:date>
    <dc:format>image/svg+xml</dc:format>
    <dc:creator>
     <cc:Agent>
      <dc:title>Matplotlib v3.5.2, https://matplotlib.org/</dc:title>
     </cc:Agent>
    </dc:creator>
   </cc:Work>
  </rdf:RDF>
 </metadata>
 <defs>
  <style type="text/css">*{stroke-linejoin: round; stroke-linecap: butt}</style>
 </defs>
 <g id="figure_1">
  <g id="patch_1">
   <path d="M 0 345.6 
L 460.8 345.6 
L 460.8 0 
L 0 0 
z
" style="fill: #ffffff"/>
  </g>
  <g id="axes_1">
   <g id="patch_2">
    <path d="M 57.6 307.584 
L 414.72 307.584 
L 414.72 41.472 
L 57.6 41.472 
z
" style="fill: #ffffff"/>
   </g>
   <g id="matplotlib.axis_1">
    <g id="xtick_1">
     <g id="line2d_1">
      <defs>
       <path id="m084083c4d7" d="M 0 0 
L 0 3.5 
" style="stroke: #000000; stroke-width: 0.8"/>
      </defs>
      <g>
       <use xlink:href="#m084083c4d7" x="104.425599" y="307.584" style="stroke: #000000; stroke-width: 0.8"/>
      </g>
     </g>
     <g id="text_1">
      <!-- 0.5 -->
      <g transform="translate(96.474036 322.182437)scale(0.1 -0.1)">
       <defs>
        <path id="DejaVuSans-30" d="M 2034 4250 
Q 1547 4250 1301 3770 
Q 1056 3291 1056 2328 
Q 1056 1369 1301 889 
Q 1547 409 2034 409 
Q 2525 409 2770 889 
Q 3016 1369 3016 2328 
Q 3016 3291 2770 3770 
Q 2525 4250 2034 4250 
z
M 2034 4750 
Q 2819 4750 3233 4129 
Q 3647 3509 3647 2328 
Q 3647 1150 3233 529 
Q 2819 -91 2034 -91 
Q 1250 -91 836 529 
Q 422 1150 422 2328 
Q 422 3509 836 4129 
Q 1250 4750 2034 4750 
z
" transform="scale(0.015625)"/>
        <path id="DejaVuSans-2e" d="M 684 794 
L 1344 794 
L 1344 0 
L 684 0 
L 684 794 
z
" transform="scale(0.015625)"/>
        <path id="DejaVuSans-35" d="M 691 4666 
L 3169 4666 
L 3169 4134 
L 1269 4134 
L 1269 2991 
Q 1406 3038 1543 3061 
Q 1681 3084 1819 3084 
Q 2600 3084 3056 2656 
Q 3513 2228 3513 1497 
Q 3513 744 3044 326 
Q 2575 -91 1722 -91 
Q 1428 -91 1123 -41 
Q 819 9 494 109 
L 494 744 
Q 775 591 1075 516 
Q 1375 441 1709 441 
Q 2250 441 2565 725 
Q 2881 1009 2881 1497 
Q 2881 1984 2565 2268 
Q 2250 2553 1709 2553 
Q 1456 2553 1204 2497 
Q 953 2441 691 2322 
L 691 4666 
z
" transform="scale(0.015625)"/>
       </defs>
       <use xlink:href="#DejaVuSans-30"/>
       <use xlink:href="#DejaVuSans-2e" x="63.623047"/>
       <use xlink:href="#DejaVuSans-35" x="95.410156"/>
      </g>
     </g>
    </g>
    <g id="xtick_2">
     <g id="line2d_2">
      <g>
       <use xlink:href="#m084083c4d7" x="165.937951" y="307.584" style="stroke: #000000; stroke-width: 0.8"/>
      </g>
     </g>
     <g id="text_2">
      <!-- 1.0 -->
      <g transform="translate(157.986388 322.182437)scale(0.1 -0.1)">
       <defs>
        <path id="DejaVuSans-31" d="M 794 531 
L 1825 531 
L 1825 4091 
L 703 3866 
L 703 4441 
L 1819 4666 
L 2450 4666 
L 2450 531 
L 3481 531 
L 3481 0 
L 794 0 
L 794 531 
z
" transform="scale(0.015625)"/>
       </defs>
       <use xlink:href="#DejaVuSans-31"/>
       <use xlink:href="#DejaVuSans-2e" x="63.623047"/>
       <use xlink:href="#DejaVuSans-30" x="95.410156"/>
      </g>
     </g>
    </g>
    <g id="xtick_3">
     <g id="line2d_3">
      <g>
       <use xlink:href="#m084083c4d7" x="227.450303" y="307.584" style="stroke: #000000; stroke-width: 0.8"/>
      </g>
     </g>
     <g id="text_3">
      <!-- 1.5 -->
      <g transform="translate(219.49874 322.182437)scale(0.1 -0.1)">
       <use xlink:href="#DejaVuSans-31"/>
       <use xlink:href="#DejaVuSans-2e" x="63.623047"/>
       <use xlink:href="#DejaVuSans-35" x="95.410156"/>
      </g>
     </g>
    </g>
    <g id="xtick_4">
     <g id="line2d_4">
      <g>
       <use xlink:href="#m084083c4d7" x="288.962655" y="307.584" style="stroke: #000000; stroke-width: 0.8"/>
      </g>
     </g>
     <g id="text_4">
      <!-- 2.0 -->
      <g transform="translate(281.011092 322.182437)scale(0.1 -0.1)">
       <defs>
        <path id="DejaVuSans-32" d="M 1228 531 
L 3431 531 
L 3431 0 
L 469 0 
L 469 531 
Q 828 903 1448 1529 
Q 2069 2156 2228 2338 
Q 2531 2678 2651 2914 
Q 2772 3150 2772 3378 
Q 2772 3750 2511 3984 
Q 2250 4219 1831 4219 
Q 1534 4219 1204 4116 
Q 875 4013 500 3803 
L 500 4441 
Q 881 4594 1212 4672 
Q 1544 4750 1819 4750 
Q 2544 4750 2975 4387 
Q 3406 4025 3406 3419 
Q 3406 3131 3298 2873 
Q 3191 2616 2906 2266 
Q 2828 2175 2409 1742 
Q 1991 1309 1228 531 
z
" transform="scale(0.015625)"/>
       </defs>
       <use xlink:href="#DejaVuSans-32"/>
       <use xlink:href="#DejaVuSans-2e" x="63.623047"/>
       <use xlink:href="#DejaVuSans-30" x="95.410156"/>
      </g>
     </g>
    </g>
    <g id="xtick_5">
     <g id="line2d_5">
      <g>
       <use xlink:href="#m084083c4d7" x="350.475007" y="307.584" style="stroke: #000000; stroke-width: 0.8"/>
      </g>
     </g>
     <g id="text_5">
      <!-- 2.5 -->
      <g transform="translate(342.523444 322.182437)scale(0.1 -0.1)">
       <use xlink:href="#DejaVuSans-32"/>
       <use xlink:href="#DejaVuSans-2e" x="63.623047"/>
       <use xlink:href="#DejaVuSans-35" x="95.410156"/>
      </g>
     </g>
    </g>
    <g id="xtick_6">
     <g id="line2d_6">
      <g>
       <use xlink:href="#m084083c4d7" x="411.987359" y="307.584" style="stroke: #000000; stroke-width: 0.8"/>
      </g>
     </g>
     <g id="text_6">
      <!-- 3.0 -->
      <g transform="translate(404.035796 322.182437)scale(0.1 -0.1)">
       <defs>
        <path id="DejaVuSans-33" d="M 2597 2516 
Q 3050 2419 3304 2112 
Q 3559 1806 3559 1356 
Q 3559 666 3084 287 
Q 2609 -91 1734 -91 
Q 1441 -91 1130 -33 
Q 819 25 488 141 
L 488 750 
Q 750 597 1062 519 
Q 1375 441 1716 441 
Q 2309 441 2620 675 
Q 2931 909 2931 1356 
Q 2931 1769 2642 2001 
Q 2353 2234 1838 2234 
L 1294 2234 
L 1294 2753 
L 1863 2753 
Q 2328 2753 2575 2939 
Q 2822 3125 2822 3475 
Q 2822 3834 2567 4026 
Q 2313 4219 1838 4219 
Q 1578 4219 1281 4162 
Q 984 4106 628 3988 
L 628 4550 
Q 988 4650 1302 4700 
Q 1616 4750 1894 4750 
Q 2613 4750 3031 4423 
Q 3450 4097 3450 3541 
Q 3450 3153 3228 2886 
Q 3006 2619 2597 2516 
z
" transform="scale(0.015625)"/>
       </defs>
       <use xlink:href="#DejaVuSans-33"/>
       <use xlink:href="#DejaVuSans-2e" x="63.623047"/>
       <use xlink:href="#DejaVuSans-30" x="95.410156"/>
      </g>
     </g>
    </g>
    <g id="text_7">
     <!-- $n$ pour $h = \dfrac{1}{2^n} $   -->
     <g transform="translate(199.66 339.962125)scale(0.1 -0.1)">
      <defs>
       <path id="DejaVuSans-Oblique-6e" d="M 3566 2113 
L 3156 0 
L 2578 0 
L 2988 2091 
Q 3016 2238 3031 2350 
Q 3047 2463 3047 2528 
Q 3047 2791 2881 2937 
Q 2716 3084 2419 3084 
Q 1956 3084 1622 2776 
Q 1288 2469 1184 1941 
L 800 0 
L 225 0 
L 903 3500 
L 1478 3500 
L 1363 2950 
Q 1603 3253 1940 3418 
Q 2278 3584 2650 3584 
Q 3113 3584 3367 3334 
Q 3622 3084 3622 2631 
Q 3622 2519 3608 2391 
Q 3594 2263 3566 2113 
z
" transform="scale(0.015625)"/>
       <path id="DejaVuSans-20" transform="scale(0.015625)"/>
       <path id="DejaVuSans-70" d="M 1159 525 
L 1159 -1331 
L 581 -1331 
L 581 3500 
L 1159 3500 
L 1159 2969 
Q 1341 3281 1617 3432 
Q 1894 3584 2278 3584 
Q 2916 3584 3314 3078 
Q 3713 2572 3713 1747 
Q 3713 922 3314 415 
Q 2916 -91 2278 -91 
Q 1894 -91 1617 61 
Q 1341 213 1159 525 
z
M 3116 1747 
Q 3116 2381 2855 2742 
Q 2594 3103 2138 3103 
Q 1681 3103 1420 2742 
Q 1159 2381 1159 1747 
Q 1159 1113 1420 752 
Q 1681 391 2138 391 
Q 2594 391 2855 752 
Q 3116 1113 3116 1747 
z
" transform="scale(0.015625)"/>
       <path id="DejaVuSans-6f" d="M 1959 3097 
Q 1497 3097 1228 2736 
Q 959 2375 959 1747 
Q 959 1119 1226 758 
Q 1494 397 1959 397 
Q 2419 397 2687 759 
Q 2956 1122 2956 1747 
Q 2956 2369 2687 2733 
Q 2419 3097 1959 3097 
z
M 1959 3584 
Q 2709 3584 3137 3096 
Q 3566 2609 3566 1747 
Q 3566 888 3137 398 
Q 2709 -91 1959 -91 
Q 1206 -91 779 398 
Q 353 888 353 1747 
Q 353 2609 779 3096 
Q 1206 3584 1959 3584 
z
" transform="scale(0.015625)"/>
       <path id="DejaVuSans-75" d="M 544 1381 
L 544 3500 
L 1119 3500 
L 1119 1403 
Q 1119 906 1312 657 
Q 1506 409 1894 409 
Q 2359 409 2629 706 
Q 2900 1003 2900 1516 
L 2900 3500 
L 3475 3500 
L 3475 0 
L 2900 0 
L 2900 538 
Q 2691 219 2414 64 
Q 2138 -91 1772 -91 
Q 1169 -91 856 284 
Q 544 659 544 1381 
z
M 1991 3584 
L 1991 3584 
z
" transform="scale(0.015625)"/>
       <path id="DejaVuSans-72" d="M 2631 2963 
Q 2534 3019 2420 3045 
Q 2306 3072 2169 3072 
Q 1681 3072 1420 2755 
Q 1159 2438 1159 1844 
L 1159 0 
L 581 0 
L 581 3500 
L 1159 3500 
L 1159 2956 
Q 1341 3275 1631 3429 
Q 1922 3584 2338 3584 
Q 2397 3584 2469 3576 
Q 2541 3569 2628 3553 
L 2631 2963 
z
" transform="scale(0.015625)"/>
       <path id="DejaVuSans-Oblique-68" d="M 3566 2113 
L 3156 0 
L 2578 0 
L 2988 2091 
Q 3016 2238 3031 2350 
Q 3047 2463 3047 2528 
Q 3047 2791 2881 2937 
Q 2716 3084 2419 3084 
Q 1956 3084 1617 2771 
Q 1278 2459 1178 1941 
L 800 0 
L 225 0 
L 1172 4863 
L 1747 4863 
L 1375 2950 
Q 1594 3244 1934 3414 
Q 2275 3584 2650 3584 
Q 3113 3584 3367 3334 
Q 3622 3084 3622 2631 
Q 3622 2519 3608 2391 
Q 3594 2263 3566 2113 
z
" transform="scale(0.015625)"/>
       <path id="DejaVuSans-3d" d="M 678 2906 
L 4684 2906 
L 4684 2381 
L 678 2381 
L 678 2906 
z
M 678 1631 
L 4684 1631 
L 4684 1100 
L 678 1100 
L 678 1631 
z
" transform="scale(0.015625)"/>
      </defs>
      <use xlink:href="#DejaVuSans-Oblique-6e" transform="translate(0 0.296875)"/>
      <use xlink:href="#DejaVuSans-20" transform="translate(63.378906 0.296875)"/>
      <use xlink:href="#DejaVuSans-70" transform="translate(95.166016 0.296875)"/>
      <use xlink:href="#DejaVuSans-6f" transform="translate(158.642578 0.296875)"/>
      <use xlink:href="#DejaVuSans-75" transform="translate(219.824219 0.296875)"/>
      <use xlink:href="#DejaVuSans-72" transform="translate(283.203125 0.296875)"/>
      <use xlink:href="#DejaVuSans-20" transform="translate(324.316406 0.296875)"/>
      <use xlink:href="#DejaVuSans-Oblique-68" transform="translate(356.103516 0.296875)"/>
      <use xlink:href="#DejaVuSans-3d" transform="translate(438.964844 0.296875)"/>
      <use xlink:href="#DejaVuSans-31" transform="translate(566.236328 44.09375)"/>
      <use xlink:href="#DejaVuSans-32" transform="translate(542.236328 -64.6375)"/>
      <use xlink:href="#DejaVuSans-Oblique-6e" transform="translate(606.816406 -26.35625)scale(0.7)"/>
      <use xlink:href="#DejaVuSans-20" transform="translate(666.416016 0.296875)"/>
      <use xlink:href="#DejaVuSans-20" transform="translate(698.203125 0.296875)"/>
      <path d="M 542.236328 19.09375 
L 542.236328 25.34375 
L 653.916016 25.34375 
L 653.916016 19.09375 
L 542.236328 19.09375 
z
"/>
     </g>
    </g>
   </g>
   <g id="matplotlib.axis_2">
    <g id="ytick_1">
     <g id="line2d_7">
      <defs>
       <path id="m8dd304fa9a" d="M 0 0 
L -3.5 0 
" style="stroke: #000000; stroke-width: 0.8"/>
      </defs>
      <g>
       <use xlink:href="#m8dd304fa9a" x="57.6" y="295.482092" style="stroke: #000000; stroke-width: 0.8"/>
      </g>
     </g>
     <g id="text_8">
      <!-- 0.000000 -->
      <g transform="translate(2.884375 299.281311)scale(0.1 -0.1)">
       <use xlink:href="#DejaVuSans-30"/>
       <use xlink:href="#DejaVuSans-2e" x="63.623047"/>
       <use xlink:href="#DejaVuSans-30" x="95.410156"/>
       <use xlink:href="#DejaVuSans-30" x="159.033203"/>
       <use xlink:href="#DejaVuSans-30" x="222.65625"/>
       <use xlink:href="#DejaVuSans-30" x="286.279297"/>
       <use xlink:href="#DejaVuSans-30" x="349.902344"/>
       <use xlink:href="#DejaVuSans-30" x="413.525391"/>
      </g>
     </g>
    </g>
    <g id="ytick_2">
     <g id="line2d_8">
      <g>
       <use xlink:href="#m8dd304fa9a" x="57.6" y="264.976738" style="stroke: #000000; stroke-width: 0.8"/>
      </g>
     </g>
     <g id="text_9">
      <!-- 0.000025 -->
      <g transform="translate(2.884375 268.775957)scale(0.1 -0.1)">
       <use xlink:href="#DejaVuSans-30"/>
       <use xlink:href="#DejaVuSans-2e" x="63.623047"/>
       <use xlink:href="#DejaVuSans-30" x="95.410156"/>
       <use xlink:href="#DejaVuSans-30" x="159.033203"/>
       <use xlink:href="#DejaVuSans-30" x="222.65625"/>
       <use xlink:href="#DejaVuSans-30" x="286.279297"/>
       <use xlink:href="#DejaVuSans-32" x="349.902344"/>
       <use xlink:href="#DejaVuSans-35" x="413.525391"/>
      </g>
     </g>
    </g>
    <g id="ytick_3">
     <g id="line2d_9">
      <g>
       <use xlink:href="#m8dd304fa9a" x="57.6" y="234.471384" style="stroke: #000000; stroke-width: 0.8"/>
      </g>
     </g>
     <g id="text_10">
      <!-- 0.000050 -->
      <g transform="translate(2.884375 238.270602)scale(0.1 -0.1)">
       <use xlink:href="#DejaVuSans-30"/>
       <use xlink:href="#DejaVuSans-2e" x="63.623047"/>
       <use xlink:href="#DejaVuSans-30" x="95.410156"/>
       <use xlink:href="#DejaVuSans-30" x="159.033203"/>
       <use xlink:href="#DejaVuSans-30" x="222.65625"/>
       <use xlink:href="#DejaVuSans-30" x="286.279297"/>
       <use xlink:href="#DejaVuSans-35" x="349.902344"/>
       <use xlink:href="#DejaVuSans-30" x="413.525391"/>
      </g>
     </g>
    </g>
    <g id="ytick_4">
     <g id="line2d_10">
      <g>
       <use xlink:href="#m8dd304fa9a" x="57.6" y="203.966029" style="stroke: #000000; stroke-width: 0.8"/>
      </g>
     </g>
     <g id="text_11">
      <!-- 0.000075 -->
      <g transform="translate(2.884375 207.765248)scale(0.1 -0.1)">
       <defs>
        <path id="DejaVuSans-37" d="M 525 4666 
L 3525 4666 
L 3525 4397 
L 1831 0 
L 1172 0 
L 2766 4134 
L 525 4134 
L 525 4666 
z
" transform="scale(0.015625)"/>
       </defs>
       <use xlink:href="#DejaVuSans-30"/>
       <use xlink:href="#DejaVuSans-2e" x="63.623047"/>
       <use xlink:href="#DejaVuSans-30" x="95.410156"/>
       <use xlink:href="#DejaVuSans-30" x="159.033203"/>
       <use xlink:href="#DejaVuSans-30" x="222.65625"/>
       <use xlink:href="#DejaVuSans-30" x="286.279297"/>
       <use xlink:href="#DejaVuSans-37" x="349.902344"/>
       <use xlink:href="#DejaVuSans-35" x="413.525391"/>
      </g>
     </g>
    </g>
    <g id="ytick_5">
     <g id="line2d_11">
      <g>
       <use xlink:href="#m8dd304fa9a" x="57.6" y="173.460675" style="stroke: #000000; stroke-width: 0.8"/>
      </g>
     </g>
     <g id="text_12">
      <!-- 0.000100 -->
      <g transform="translate(2.884375 177.259894)scale(0.1 -0.1)">
       <use xlink:href="#DejaVuSans-30"/>
       <use xlink:href="#DejaVuSans-2e" x="63.623047"/>
       <use xlink:href="#DejaVuSans-30" x="95.410156"/>
       <use xlink:href="#DejaVuSans-30" x="159.033203"/>
       <use xlink:href="#DejaVuSans-30" x="222.65625"/>
       <use xlink:href="#DejaVuSans-31" x="286.279297"/>
       <use xlink:href="#DejaVuSans-30" x="349.902344"/>
       <use xlink:href="#DejaVuSans-30" x="413.525391"/>
      </g>
     </g>
    </g>
    <g id="ytick_6">
     <g id="line2d_12">
      <g>
       <use xlink:href="#m8dd304fa9a" x="57.6" y="142.955321" style="stroke: #000000; stroke-width: 0.8"/>
      </g>
     </g>
     <g id="text_13">
      <!-- 0.000125 -->
      <g transform="translate(2.884375 146.75454)scale(0.1 -0.1)">
       <use xlink:href="#DejaVuSans-30"/>
       <use xlink:href="#DejaVuSans-2e" x="63.623047"/>
       <use xlink:href="#DejaVuSans-30" x="95.410156"/>
       <use xlink:href="#DejaVuSans-30" x="159.033203"/>
       <use xlink:href="#DejaVuSans-30" x="222.65625"/>
       <use xlink:href="#DejaVuSans-31" x="286.279297"/>
       <use xlink:href="#DejaVuSans-32" x="349.902344"/>
       <use xlink:href="#DejaVuSans-35" x="413.525391"/>
      </g>
     </g>
    </g>
    <g id="ytick_7">
     <g id="line2d_13">
      <g>
       <use xlink:href="#m8dd304fa9a" x="57.6" y="112.449967" style="stroke: #000000; stroke-width: 0.8"/>
      </g>
     </g>
     <g id="text_14">
      <!-- 0.000150 -->
      <g transform="translate(2.884375 116.249186)scale(0.1 -0.1)">
       <use xlink:href="#DejaVuSans-30"/>
       <use xlink:href="#DejaVuSans-2e" x="63.623047"/>
       <use xlink:href="#DejaVuSans-30" x="95.410156"/>
       <use xlink:href="#DejaVuSans-30" x="159.033203"/>
       <use xlink:href="#DejaVuSans-30" x="222.65625"/>
       <use xlink:href="#DejaVuSans-31" x="286.279297"/>
       <use xlink:href="#DejaVuSans-35" x="349.902344"/>
       <use xlink:href="#DejaVuSans-30" x="413.525391"/>
      </g>
     </g>
    </g>
    <g id="ytick_8">
     <g id="line2d_14">
      <g>
       <use xlink:href="#m8dd304fa9a" x="57.6" y="81.944613" style="stroke: #000000; stroke-width: 0.8"/>
      </g>
     </g>
     <g id="text_15">
      <!-- 0.000175 -->
      <g transform="translate(2.884375 85.743831)scale(0.1 -0.1)">
       <use xlink:href="#DejaVuSans-30"/>
       <use xlink:href="#DejaVuSans-2e" x="63.623047"/>
       <use xlink:href="#DejaVuSans-30" x="95.410156"/>
       <use xlink:href="#DejaVuSans-30" x="159.033203"/>
       <use xlink:href="#DejaVuSans-30" x="222.65625"/>
       <use xlink:href="#DejaVuSans-31" x="286.279297"/>
       <use xlink:href="#DejaVuSans-37" x="349.902344"/>
       <use xlink:href="#DejaVuSans-35" x="413.525391"/>
      </g>
     </g>
    </g>
    <g id="ytick_9">
     <g id="line2d_15">
      <g>
       <use xlink:href="#m8dd304fa9a" x="57.6" y="51.439258" style="stroke: #000000; stroke-width: 0.8"/>
      </g>
     </g>
     <g id="text_16">
      <!-- 0.000200 -->
      <g transform="translate(2.884375 55.238477)scale(0.1 -0.1)">
       <use xlink:href="#DejaVuSans-30"/>
       <use xlink:href="#DejaVuSans-2e" x="63.623047"/>
       <use xlink:href="#DejaVuSans-30" x="95.410156"/>
       <use xlink:href="#DejaVuSans-30" x="159.033203"/>
       <use xlink:href="#DejaVuSans-30" x="222.65625"/>
       <use xlink:href="#DejaVuSans-32" x="286.279297"/>
       <use xlink:href="#DejaVuSans-30" x="349.902344"/>
       <use xlink:href="#DejaVuSans-30" x="413.525391"/>
      </g>
     </g>
    </g>
    <g id="text_17">
     <!-- $f'_{numerique}-f'_{analytique}$ -->
     <g transform="translate(-4.215625 225.028)rotate(-90)scale(0.1 -0.1)">
      <defs>
       <path id="DejaVuSans-Oblique-66" d="M 3059 4863 
L 2969 4384 
L 2419 4384 
Q 2106 4384 1964 4261 
Q 1822 4138 1753 3809 
L 1691 3500 
L 2638 3500 
L 2553 3053 
L 1606 3053 
L 1013 0 
L 434 0 
L 1031 3053 
L 481 3053 
L 563 3500 
L 1113 3500 
L 1159 3744 
Q 1278 4363 1576 4613 
Q 1875 4863 2516 4863 
L 3059 4863 
z
" transform="scale(0.015625)"/>
       <path id="Cmsy10-30" d="M 225 347 
Q 184 359 184 409 
L 966 3316 
Q 1003 3434 1093 3506 
Q 1184 3578 1300 3578 
Q 1450 3578 1564 3479 
Q 1678 3381 1678 3231 
Q 1678 3166 1644 3084 
L 488 319 
Q 466 275 428 275 
Q 394 275 320 306 
Q 247 338 225 347 
z
" transform="scale(0.015625)"/>
       <path id="DejaVuSans-Oblique-75" d="M 428 1388 
L 838 3500 
L 1416 3500 
L 1006 1409 
Q 975 1256 961 1147 
Q 947 1038 947 966 
Q 947 700 1109 554 
Q 1272 409 1569 409 
Q 2031 409 2368 721 
Q 2706 1034 2809 1563 
L 3194 3500 
L 3769 3500 
L 3091 0 
L 2516 0 
L 2631 550 
Q 2388 244 2052 76 
Q 1716 -91 1338 -91 
Q 878 -91 622 161 
Q 366 413 366 863 
Q 366 956 381 1097 
Q 397 1238 428 1388 
z
" transform="scale(0.015625)"/>
       <path id="DejaVuSans-Oblique-6d" d="M 5747 2113 
L 5338 0 
L 4763 0 
L 5166 2094 
Q 5191 2228 5203 2325 
Q 5216 2422 5216 2491 
Q 5216 2772 5059 2928 
Q 4903 3084 4622 3084 
Q 4203 3084 3875 2770 
Q 3547 2456 3450 1953 
L 3066 0 
L 2491 0 
L 2900 2094 
Q 2925 2209 2937 2307 
Q 2950 2406 2950 2484 
Q 2950 2769 2794 2926 
Q 2638 3084 2363 3084 
Q 1938 3084 1609 2770 
Q 1281 2456 1184 1953 
L 800 0 
L 225 0 
L 909 3500 
L 1484 3500 
L 1375 2956 
Q 1609 3263 1923 3423 
Q 2238 3584 2597 3584 
Q 2978 3584 3223 3384 
Q 3469 3184 3519 2828 
Q 3781 3197 4126 3390 
Q 4472 3584 4856 3584 
Q 5306 3584 5551 3325 
Q 5797 3066 5797 2591 
Q 5797 2488 5784 2364 
Q 5772 2241 5747 2113 
z
" transform="scale(0.015625)"/>
       <path id="DejaVuSans-Oblique-65" d="M 3078 2063 
Q 3088 2113 3092 2166 
Q 3097 2219 3097 2272 
Q 3097 2653 2873 2875 
Q 2650 3097 2266 3097 
Q 1838 3097 1509 2826 
Q 1181 2556 1013 2059 
L 3078 2063 
z
M 3578 1613 
L 903 1613 
Q 884 1494 878 1425 
Q 872 1356 872 1306 
Q 872 872 1139 634 
Q 1406 397 1894 397 
Q 2269 397 2603 481 
Q 2938 566 3225 728 
L 3116 159 
Q 2806 34 2476 -28 
Q 2147 -91 1806 -91 
Q 1078 -91 686 257 
Q 294 606 294 1247 
Q 294 1794 489 2264 
Q 684 2734 1063 3103 
Q 1306 3334 1642 3459 
Q 1978 3584 2356 3584 
Q 2950 3584 3301 3228 
Q 3653 2872 3653 2272 
Q 3653 2128 3634 1964 
Q 3616 1800 3578 1613 
z
" transform="scale(0.015625)"/>
       <path id="DejaVuSans-Oblique-72" d="M 2853 2969 
Q 2766 3016 2653 3041 
Q 2541 3066 2413 3066 
Q 1953 3066 1609 2717 
Q 1266 2369 1153 1784 
L 800 0 
L 225 0 
L 909 3500 
L 1484 3500 
L 1375 2956 
Q 1603 3259 1920 3421 
Q 2238 3584 2597 3584 
Q 2691 3584 2781 3573 
Q 2872 3563 2963 3538 
L 2853 2969 
z
" transform="scale(0.015625)"/>
       <path id="DejaVuSans-Oblique-69" d="M 1172 4863 
L 1747 4863 
L 1606 4134 
L 1031 4134 
L 1172 4863 
z
M 909 3500 
L 1484 3500 
L 800 0 
L 225 0 
L 909 3500 
z
" transform="scale(0.015625)"/>
       <path id="DejaVuSans-Oblique-71" d="M 2669 525 
Q 2438 222 2123 65 
Q 1809 -91 1428 -91 
Q 897 -91 595 267 
Q 294 625 294 1253 
Q 294 1759 480 2231 
Q 666 2703 1013 3078 
Q 1238 3322 1530 3453 
Q 1822 3584 2144 3584 
Q 2531 3584 2781 3431 
Q 3031 3278 3144 2969 
L 3244 3494 
L 3822 3494 
L 2888 -1319 
L 2309 -1319 
L 2669 525 
z
M 891 1338 
Q 891 875 1084 633 
Q 1278 391 1644 391 
Q 2188 391 2572 911 
Q 2956 1431 2956 2175 
Q 2956 2625 2757 2864 
Q 2559 3103 2188 3103 
Q 1916 3103 1684 2976 
Q 1453 2850 1281 2606 
Q 1100 2350 995 2006 
Q 891 1663 891 1338 
z
" transform="scale(0.015625)"/>
       <path id="DejaVuSans-2212" d="M 678 2272 
L 4684 2272 
L 4684 1741 
L 678 1741 
L 678 2272 
z
" transform="scale(0.015625)"/>
       <path id="DejaVuSans-Oblique-61" d="M 3438 1997 
L 3047 0 
L 2472 0 
L 2578 531 
Q 2325 219 2001 64 
Q 1678 -91 1281 -91 
Q 834 -91 548 182 
Q 263 456 263 884 
Q 263 1497 752 1853 
Q 1241 2209 2100 2209 
L 2900 2209 
L 2931 2363 
Q 2938 2388 2941 2417 
Q 2944 2447 2944 2509 
Q 2944 2788 2717 2942 
Q 2491 3097 2081 3097 
Q 1800 3097 1504 3025 
Q 1209 2953 897 2809 
L 997 3341 
Q 1322 3463 1633 3523 
Q 1944 3584 2234 3584 
Q 2853 3584 3176 3315 
Q 3500 3047 3500 2534 
Q 3500 2431 3484 2292 
Q 3469 2153 3438 1997 
z
M 2816 1759 
L 2241 1759 
Q 1534 1759 1195 1570 
Q 856 1381 856 984 
Q 856 709 1029 553 
Q 1203 397 1509 397 
Q 1978 397 2328 733 
Q 2678 1069 2791 1631 
L 2816 1759 
z
" transform="scale(0.015625)"/>
       <path id="DejaVuSans-Oblique-6c" d="M 1172 4863 
L 1747 4863 
L 800 0 
L 225 0 
L 1172 4863 
z
" transform="scale(0.015625)"/>
       <path id="DejaVuSans-Oblique-79" d="M 1588 -325 
Q 1188 -997 936 -1164 
Q 684 -1331 294 -1331 
L -159 -1331 
L -63 -850 
L 269 -850 
Q 509 -850 678 -719 
Q 847 -588 1056 -206 
L 1234 128 
L 459 3500 
L 1069 3500 
L 1650 819 
L 3256 3500 
L 3859 3500 
L 1588 -325 
z
" transform="scale(0.015625)"/>
       <path id="DejaVuSans-Oblique-74" d="M 2706 3500 
L 2619 3053 
L 1472 3053 
L 1100 1153 
Q 1081 1047 1072 975 
Q 1063 903 1063 863 
Q 1063 663 1183 572 
Q 1303 481 1569 481 
L 2150 481 
L 2053 0 
L 1503 0 
Q 991 0 739 200 
Q 488 400 488 806 
Q 488 878 497 964 
Q 506 1050 525 1153 
L 897 3053 
L 409 3053 
L 500 3500 
L 978 3500 
L 1172 4494 
L 1747 4494 
L 1556 3500 
L 2706 3500 
z
" transform="scale(0.015625)"/>
      </defs>
      <use xlink:href="#DejaVuSans-Oblique-66" transform="translate(0 0.584375)"/>
      <use xlink:href="#Cmsy10-30" transform="translate(42.652786 38.865625)scale(0.7)"/>
      <use xlink:href="#DejaVuSans-Oblique-6e" transform="translate(65.587357 -15.821875)scale(0.7)"/>
      <use xlink:href="#DejaVuSans-Oblique-75" transform="translate(109.952591 -15.821875)scale(0.7)"/>
      <use xlink:href="#DejaVuSans-Oblique-6d" transform="translate(154.317826 -15.821875)scale(0.7)"/>
      <use xlink:href="#DejaVuSans-Oblique-65" transform="translate(222.506302 -15.821875)scale(0.7)"/>
      <use xlink:href="#DejaVuSans-Oblique-72" transform="translate(265.572708 -15.821875)scale(0.7)"/>
      <use xlink:href="#DejaVuSans-Oblique-69" transform="translate(294.352005 -15.821875)scale(0.7)"/>
      <use xlink:href="#DejaVuSans-Oblique-71" transform="translate(313.800247 -15.821875)scale(0.7)"/>
      <use xlink:href="#DejaVuSans-Oblique-75" transform="translate(358.233841 -15.821875)scale(0.7)"/>
      <use xlink:href="#DejaVuSans-Oblique-65" transform="translate(402.599076 -15.821875)scale(0.7)"/>
      <use xlink:href="#DejaVuSans-2212" transform="translate(467.882279 0.584375)"/>
      <use xlink:href="#DejaVuSans-Oblique-66" transform="translate(571.153763 0.584375)"/>
      <use xlink:href="#Cmsy10-30" transform="translate(613.806549 38.865625)scale(0.7)"/>
      <use xlink:href="#DejaVuSans-Oblique-61" transform="translate(636.74112 -15.821875)scale(0.7)"/>
      <use xlink:href="#DejaVuSans-Oblique-6e" transform="translate(679.636628 -15.821875)scale(0.7)"/>
      <use xlink:href="#DejaVuSans-Oblique-61" transform="translate(724.001862 -15.821875)scale(0.7)"/>
      <use xlink:href="#DejaVuSans-Oblique-6c" transform="translate(766.89737 -15.821875)scale(0.7)"/>
      <use xlink:href="#DejaVuSans-Oblique-79" transform="translate(786.345612 -15.821875)scale(0.7)"/>
      <use xlink:href="#DejaVuSans-Oblique-74" transform="translate(827.771393 -15.821875)scale(0.7)"/>
      <use xlink:href="#DejaVuSans-Oblique-69" transform="translate(855.217682 -15.821875)scale(0.7)"/>
      <use xlink:href="#DejaVuSans-Oblique-71" transform="translate(874.665924 -15.821875)scale(0.7)"/>
      <use xlink:href="#DejaVuSans-Oblique-75" transform="translate(919.099518 -15.821875)scale(0.7)"/>
      <use xlink:href="#DejaVuSans-Oblique-65" transform="translate(963.464753 -15.821875)scale(0.7)"/>
     </g>
    </g>
   </g>
   <g id="line2d_16">
    <path d="M 73.832727 295.4821 
L 77.697662 295.4821 
L 81.562597 295.4821 
L 85.427532 295.4821 
L 89.292468 295.4821 
L 93.157403 295.4821 
L 97.022338 295.4821 
L 100.887273 295.482099 
L 104.752208 295.482099 
L 108.617143 295.482099 
L 112.482078 295.482099 
L 116.347013 295.482099 
L 120.211948 295.482099 
L 124.076883 295.482099 
L 127.941818 295.482098 
L 131.806753 295.482098 
L 135.671688 295.482098 
L 139.536623 295.482098 
L 143.401558 295.482098 
L 147.266494 295.482098 
L 151.131429 295.482097 
L 154.996364 295.482097 
L 158.861299 295.482097 
L 162.726234 295.482097 
L 166.591169 295.482096 
L 170.456104 295.482096 
L 174.321039 295.482096 
L 178.185974 295.482096 
L 182.050909 295.482096 
L 185.915844 295.482095 
L 189.780779 295.482095 
L 193.645714 295.482095 
L 197.510649 295.482095 
L 201.375584 295.482094 
L 205.240519 295.482094 
L 209.105455 295.482094 
L 212.97039 295.482094 
L 216.835325 295.482093 
L 220.70026 295.482093 
L 224.565195 295.482093 
L 228.43013 295.482093 
L 232.295065 295.482092 
L 236.16 295.482092 
L 240.024935 295.482092 
L 243.88987 295.482091 
L 247.754805 295.482091 
L 251.61974 295.482091 
L 255.484675 295.482091 
L 259.34961 295.48209 
L 263.214545 295.48209 
L 267.079481 295.48209 
L 270.944416 295.48209 
L 274.809351 295.482089 
L 278.674286 295.482089 
L 282.539221 295.482089 
L 286.404156 295.482089 
L 290.269091 295.482088 
L 294.134026 295.482088 
L 297.998961 295.482088 
L 301.863896 295.482088 
L 305.728831 295.482088 
L 309.593766 295.482087 
L 313.458701 295.482087 
L 317.323636 295.482087 
L 321.188571 295.482087 
L 325.053506 295.482086 
L 328.918442 295.482086 
L 332.783377 295.482086 
L 336.648312 295.482086 
L 340.513247 295.482086 
L 344.378182 295.482086 
L 348.243117 295.482085 
L 352.108052 295.482085 
L 355.972987 295.482085 
L 359.837922 295.482085 
L 363.702857 295.482085 
L 367.567792 295.482085 
L 371.432727 295.482085 
L 375.297662 295.482084 
L 379.162597 295.482084 
L 383.027532 295.482084 
L 386.892468 295.482084 
L 390.757403 295.482084 
L 394.622338 295.482084 
L 398.487273 295.482084 
" clip-path="url(#p6fa6a40228)" style="fill: none; stroke: #1f77b4; stroke-width: 1.5; stroke-linecap: square"/>
   </g>
   <g id="line2d_17">
    <path d="M 73.832727 295.482091 
L 77.697662 295.482092 
L 81.562597 295.482091 
L 85.427532 295.482092 
L 89.292468 295.482091 
L 93.157403 295.482091 
L 97.022338 295.482091 
L 100.887273 295.482091 
L 104.752208 295.482091 
L 108.617143 295.482091 
L 112.482078 295.482091 
L 116.347013 295.482091 
L 120.211948 295.482091 
L 124.076883 295.482091 
L 127.941818 295.482091 
L 131.806753 295.48209 
L 135.671688 295.482091 
L 139.536623 295.482091 
L 143.401558 295.482091 
L 147.266494 295.482091 
L 151.131429 295.48209 
L 154.996364 295.482091 
L 158.861299 295.482091 
L 162.726234 295.48209 
L 166.591169 295.482091 
L 170.456104 295.48209 
L 174.321039 295.482091 
L 178.185974 295.48209 
L 182.050909 295.482091 
L 185.915844 295.48209 
L 189.780779 295.48209 
L 193.645714 295.482091 
L 197.510649 295.48209 
L 201.375584 295.48209 
L 205.240519 295.48209 
L 209.105455 295.48209 
L 212.97039 295.48209 
L 216.835325 295.48209 
L 220.70026 295.48209 
L 224.565195 295.48209 
L 228.43013 295.48209 
L 232.295065 295.48209 
L 236.16 295.48209 
L 240.024935 295.48209 
L 243.88987 295.48209 
L 247.754805 295.48209 
L 251.61974 295.48209 
L 255.484675 295.48209 
L 259.34961 295.48209 
L 263.214545 295.48209 
L 267.079481 295.48209 
L 270.944416 295.48209 
L 274.809351 295.48209 
L 278.674286 295.482091 
L 282.539221 295.48209 
L 286.404156 295.482091 
L 290.269091 295.48209 
L 294.134026 295.482091 
L 297.998961 295.48209 
L 301.863896 295.482091 
L 305.728831 295.482091 
L 309.593766 295.48209 
L 313.458701 295.482091 
L 317.323636 295.48209 
L 321.188571 295.482091 
L 325.053506 295.48209 
L 328.918442 295.48209 
L 332.783377 295.482091 
L 336.648312 295.48209 
L 340.513247 295.482091 
L 344.378182 295.48209 
L 348.243117 295.482091 
L 352.108052 295.482092 
L 355.972987 295.48209 
L 359.837922 295.482092 
L 363.702857 295.48209 
L 367.567792 295.482092 
L 371.432727 295.48209 
L 375.297662 295.482091 
L 379.162597 295.482092 
L 383.027532 295.482091 
L 386.892468 295.482092 
L 390.757403 295.482091 
L 394.622338 295.482091 
L 398.487273 295.482092 
" clip-path="url(#p6fa6a40228)" style="fill: none; stroke: #ff7f0e; stroke-width: 1.5; stroke-linecap: square"/>
   </g>
   <g id="line2d_18">
    <path d="M 73.832727 295.482064 
L 77.697662 295.482057 
L 81.562597 295.48206 
L 85.427532 295.482061 
L 89.292468 295.482047 
L 93.157403 295.482056 
L 97.022338 295.482047 
L 100.887273 295.482045 
L 104.752208 295.482052 
L 108.617143 295.482041 
L 112.482078 295.482036 
L 116.347013 295.482034 
L 120.211948 295.482037 
L 124.076883 295.482044 
L 127.941818 295.482038 
L 131.806753 295.482045 
L 135.671688 295.48204 
L 139.536623 295.482017 
L 143.401558 295.482046 
L 147.266494 295.482031 
L 151.131429 295.482038 
L 154.996364 295.482026 
L 158.861299 295.482027 
L 162.726234 295.482034 
L 166.591169 295.482014 
L 170.456104 295.482035 
L 174.321039 295.48201 
L 178.185974 295.482025 
L 182.050909 295.482046 
L 185.915844 295.482009 
L 189.780779 295.482036 
L 193.645714 295.482013 
L 197.510649 295.482031 
L 201.375584 295.482026 
L 205.240519 295.482019 
L 209.105455 295.482033 
L 212.97039 295.482026 
L 216.835325 295.48203 
L 220.70026 295.482006 
L 224.565195 295.482011 
L 228.43013 295.482026 
L 232.295065 295.48202 
L 236.16 295.482022 
L 240.024935 295.482024 
L 243.88987 295.482025 
L 247.754805 295.482033 
L 251.61974 295.482036 
L 255.484675 295.482028 
L 259.34961 295.482035 
L 263.214545 295.482033 
L 267.079481 295.482017 
L 270.944416 295.482036 
L 274.809351 295.482035 
L 278.674286 295.482026 
L 282.539221 295.482034 
L 286.404156 295.482042 
L 290.269091 295.482035 
L 294.134026 295.482038 
L 297.998961 295.48204 
L 301.863896 295.482052 
L 305.728831 295.482023 
L 309.593766 295.482061 
L 313.458701 295.482047 
L 317.323636 295.482055 
L 321.188571 295.482043 
L 325.053506 295.482029 
L 328.918442 295.482082 
L 332.783377 295.482041 
L 336.648312 295.482058 
L 340.513247 295.482069 
L 344.378182 295.482037 
L 348.243117 295.482094 
L 352.108052 295.482043 
L 355.972987 295.482057 
L 359.837922 295.482074 
L 363.702857 295.482066 
L 367.567792 295.482071 
L 371.432727 295.482055 
L 375.297662 295.48211 
L 379.162597 295.48206 
L 383.027532 295.482083 
L 386.892468 295.482083 
L 390.757403 295.482062 
L 394.622338 295.482124 
L 398.487273 295.482064 
" clip-path="url(#p6fa6a40228)" style="fill: none; stroke: #2ca02c; stroke-width: 1.5; stroke-linecap: square"/>
   </g>
   <g id="line2d_19">
    <path d="M 73.832727 295.482532 
L 77.697662 295.481849 
L 81.562597 295.483727 
L 85.427532 295.481325 
L 89.292468 295.482708 
L 93.157403 295.482611 
L 97.022338 295.482155 
L 100.887273 295.484288 
L 104.752208 295.482447 
L 108.617143 295.484041 
L 112.482078 295.483275 
L 116.347013 295.483169 
L 120.211948 295.483016 
L 124.076883 295.48348 
L 127.941818 295.481844 
L 131.806753 295.485907 
L 135.671688 295.480939 
L 139.536623 295.483996 
L 143.401558 295.48251 
L 147.266494 295.480706 
L 151.131429 295.483863 
L 154.996364 295.482204 
L 158.861299 295.481856 
L 162.726234 295.483474 
L 166.591169 295.483067 
L 170.456104 295.484271 
L 174.321039 295.480877 
L 178.185974 295.48661 
L 182.050909 295.481683 
L 185.915844 295.485154 
L 189.780779 295.483813 
L 193.645714 295.482757 
L 197.510649 295.484663 
L 201.375584 295.482995 
L 205.240519 295.485256 
L 209.105455 295.482352 
L 212.97039 295.482952 
L 216.835325 295.484255 
L 220.70026 295.482607 
L 224.565195 295.485269 
L 228.43013 295.482414 
L 232.295065 295.483378 
L 236.16 295.482945 
L 240.024935 295.48376 
L 243.88987 295.484265 
L 247.754805 295.484178 
L 251.61974 295.485566 
L 255.484675 295.4827 
L 259.34961 295.485955 
L 263.214545 295.480361 
L 267.079481 295.483952 
L 270.944416 295.485337 
L 274.809351 295.484271 
L 278.674286 295.483187 
L 282.539221 295.485164 
L 286.404156 295.483015 
L 290.269091 295.48549 
L 294.134026 295.480903 
L 297.998961 295.487035 
L 301.863896 295.480511 
L 305.728831 295.48441 
L 309.593766 295.483891 
L 313.458701 295.480935 
L 317.323636 295.485224 
L 321.188571 295.479987 
L 325.053506 295.48536 
L 328.918442 295.483284 
L 332.783377 295.480224 
L 336.648312 295.486284 
L 340.513247 295.479819 
L 344.378182 295.4838 
L 348.243117 295.484792 
L 352.108052 295.478991 
L 355.972987 295.488 
L 359.837922 295.479372 
L 363.702857 295.487083 
L 367.567792 295.480044 
L 371.432727 295.485222 
L 375.297662 295.481648 
L 379.162597 295.479921 
L 383.027532 295.486635 
L 386.892468 295.478966 
L 390.757403 295.484977 
L 394.622338 295.482639 
L 398.487273 295.479769 
" clip-path="url(#p6fa6a40228)" style="fill: none; stroke: #d62728; stroke-width: 1.5; stroke-linecap: square"/>
   </g>
   <g id="line2d_20">
    <path d="M 73.832727 294.796546 
L 77.697662 294.723054 
L 81.562597 294.568281 
L 85.427532 294.437595 
L 89.292468 294.362082 
L 93.157403 294.188086 
L 97.022338 294.116689 
L 100.887273 293.993568 
L 104.752208 293.850316 
L 108.617143 293.765031 
L 112.482078 293.617278 
L 116.347013 293.554887 
L 120.211948 293.422197 
L 124.076883 293.32086 
L 127.941818 293.259957 
L 131.806753 293.136764 
L 135.671688 292.992024 
L 139.536623 292.991792 
L 143.401558 292.817404 
L 147.266494 292.735151 
L 151.131429 292.663895 
L 154.996364 292.575202 
L 158.861299 292.487092 
L 162.726234 292.411654 
L 166.591169 292.350379 
L 170.456104 292.219616 
L 174.321039 292.218066 
L 178.185974 292.153054 
L 182.050909 292.006837 
L 185.915844 292.114711 
L 189.780779 291.923231 
L 193.645714 291.898748 
L 197.510649 291.830629 
L 201.375584 291.822263 
L 205.240519 291.720083 
L 209.105455 291.682713 
L 212.97039 291.714438 
L 216.835325 291.688391 
L 220.70026 291.711456 
L 224.565195 291.674134 
L 228.43013 291.582669 
L 232.295065 291.665265 
L 236.16 291.596959 
L 240.024935 291.56296 
L 243.88987 291.553145 
L 247.754805 291.587294 
L 251.61974 291.610841 
L 255.484675 291.598215 
L 259.34961 291.534262 
L 263.214545 291.619386 
L 267.079481 291.586996 
L 270.944416 291.63118 
L 274.809351 291.696687 
L 278.674286 291.716276 
L 282.539221 291.674639 
L 286.404156 291.801063 
L 290.269091 291.778068 
L 294.134026 291.891929 
L 297.998961 291.884467 
L 301.863896 291.914458 
L 305.728831 292.080849 
L 309.593766 291.969495 
L 313.458701 292.16797 
L 317.323636 292.197863 
L 321.188571 292.23423 
L 325.053506 292.428863 
L 328.918442 292.281037 
L 332.783377 292.581154 
L 336.648312 292.590329 
L 340.513247 292.624601 
L 344.378182 292.887099 
L 348.243117 292.759516 
L 352.108052 293.023811 
L 355.972987 292.991556 
L 359.837922 293.127544 
L 363.702857 293.235304 
L 367.567792 293.28656 
L 371.432727 293.536747 
L 375.297662 293.389624 
L 379.162597 293.763335 
L 383.027532 293.713914 
L 386.892468 293.832768 
L 390.757403 294.095244 
L 394.622338 293.939503 
L 398.487273 294.334325 
" clip-path="url(#p6fa6a40228)" style="fill: none; stroke: #9467bd; stroke-width: 1.5; stroke-linecap: square"/>
   </g>
   <g id="line2d_21">
    <path d="M 73.832727 248.012899 
L 77.697662 246.739015 
L 81.562597 230.006785 
L 85.427532 234.237713 
L 89.292468 221.216796 
L 93.157403 212.028999 
L 97.022338 210.606155 
L 100.887273 196.589644 
L 104.752208 200.116077 
L 108.617143 184.694954 
L 112.482078 185.4761 
L 116.347013 171.841537 
L 120.211948 177.620102 
L 124.076883 159.299069 
L 127.941818 167.905883 
L 131.806753 151.922095 
L 135.671688 164.332782 
L 139.536623 140.054543 
L 143.401558 128.940615 
L 147.266494 133.696797 
L 151.131429 126.306914 
L 154.996364 128.82055 
L 158.861299 115.861939 
L 162.726234 115.710767 
L 166.591169 112.654373 
L 170.456104 96.531969 
L 174.321039 115.943539 
L 178.185974 75.91636 
L 182.050909 103.490716 
L 185.915844 89.642528 
L 189.780779 82.190396 
L 193.645714 86.4078 
L 197.510649 75.312973 
L 201.375584 86.69103 
L 205.240519 78.039699 
L 209.105455 79.385889 
L 212.97039 75.156608 
L 216.835325 71.737405 
L 220.70026 67.256854 
L 224.565195 73.447872 
L 228.43013 67.987884 
L 232.295065 73.889655 
L 236.16 53.568 
L 240.024935 72.947308 
L 243.88987 63.760532 
L 247.754805 63.751386 
L 251.61974 61.250492 
L 255.484675 67.765456 
L 259.34961 59.207165 
L 263.214545 69.222633 
L 267.079481 64.35365 
L 270.944416 79.24913 
L 274.809351 69.993556 
L 278.674286 89.622348 
L 282.539221 65.721341 
L 286.404156 94.865068 
L 290.269091 77.422051 
L 294.134026 100.056296 
L 297.998961 83.815671 
L 301.863896 111.997028 
L 305.728831 96.06202 
L 309.593766 101.064757 
L 313.458701 110.058138 
L 317.323636 102.241081 
L 321.188571 120.450272 
L 325.053506 103.849937 
L 328.918442 120.283352 
L 332.783377 132.084225 
L 336.648312 111.239895 
L 340.513247 151.87806 
L 344.378182 135.976172 
L 348.243117 141.98014 
L 352.108052 167.60216 
L 355.972987 135.710896 
L 359.837922 184.780348 
L 363.702857 149.145574 
L 367.567792 199.138502 
L 371.432727 168.129884 
L 375.297662 189.665355 
L 379.162597 205.430368 
L 383.027532 179.209697 
L 386.892468 227.218549 
L 390.757403 200.827054 
L 394.622338 220.511825 
L 398.487273 243.449781 
" clip-path="url(#p6fa6a40228)" style="fill: none; stroke: #8c564b; stroke-width: 1.5; stroke-linecap: square"/>
   </g>
   <g id="patch_3">
    <path d="M 57.6 307.584 
L 57.6 41.472 
" style="fill: none; stroke: #000000; stroke-width: 0.8; stroke-linejoin: miter; stroke-linecap: square"/>
   </g>
   <g id="patch_4">
    <path d="M 414.72 307.584 
L 414.72 41.472 
" style="fill: none; stroke: #000000; stroke-width: 0.8; stroke-linejoin: miter; stroke-linecap: square"/>
   </g>
   <g id="patch_5">
    <path d="M 57.6 307.584 
L 414.72 307.584 
" style="fill: none; stroke: #000000; stroke-width: 0.8; stroke-linejoin: miter; stroke-linecap: square"/>
   </g>
   <g id="patch_6">
    <path d="M 57.6 41.472 
L 414.72 41.472 
" style="fill: none; stroke: #000000; stroke-width: 0.8; stroke-linejoin: miter; stroke-linecap: square"/>
   </g>
   <g id="legend_1">
    <g id="patch_7">
     <path d="M 237.043437 302.584 
L 407.72 302.584 
Q 409.72 302.584 409.72 300.584 
L 409.72 213.51525 
Q 409.72 211.51525 407.72 211.51525 
L 237.043437 211.51525 
Q 235.043437 211.51525 235.043437 213.51525 
L 235.043437 300.584 
Q 235.043437 302.584 237.043437 302.584 
z
" style="fill: #ffffff; opacity: 0.8; stroke: #cccccc; stroke-linejoin: miter"/>
    </g>
    <g id="line2d_22">
     <path d="M 239.043437 219.613687 
L 249.043437 219.613687 
L 259.043437 219.613687 
" style="fill: none; stroke: #1f77b4; stroke-width: 1.5; stroke-linecap: square"/>
    </g>
    <g id="text_18">
     <!-- écart sur la dérivée  1-ième -->
     <g transform="translate(267.043437 223.113687)scale(0.1 -0.1)">
      <defs>
       <path id="DejaVuSans-e9" d="M 3597 1894 
L 3597 1613 
L 953 1613 
Q 991 1019 1311 708 
Q 1631 397 2203 397 
Q 2534 397 2845 478 
Q 3156 559 3463 722 
L 3463 178 
Q 3153 47 2828 -22 
Q 2503 -91 2169 -91 
Q 1331 -91 842 396 
Q 353 884 353 1716 
Q 353 2575 817 3079 
Q 1281 3584 2069 3584 
Q 2775 3584 3186 3129 
Q 3597 2675 3597 1894 
z
M 3022 2063 
Q 3016 2534 2758 2815 
Q 2500 3097 2075 3097 
Q 1594 3097 1305 2825 
Q 1016 2553 972 2059 
L 3022 2063 
z
M 2469 5119 
L 3091 5119 
L 2072 3944 
L 1594 3944 
L 2469 5119 
z
" transform="scale(0.015625)"/>
       <path id="DejaVuSans-63" d="M 3122 3366 
L 3122 2828 
Q 2878 2963 2633 3030 
Q 2388 3097 2138 3097 
Q 1578 3097 1268 2742 
Q 959 2388 959 1747 
Q 959 1106 1268 751 
Q 1578 397 2138 397 
Q 2388 397 2633 464 
Q 2878 531 3122 666 
L 3122 134 
Q 2881 22 2623 -34 
Q 2366 -91 2075 -91 
Q 1284 -91 818 406 
Q 353 903 353 1747 
Q 353 2603 823 3093 
Q 1294 3584 2113 3584 
Q 2378 3584 2631 3529 
Q 2884 3475 3122 3366 
z
" transform="scale(0.015625)"/>
       <path id="DejaVuSans-61" d="M 2194 1759 
Q 1497 1759 1228 1600 
Q 959 1441 959 1056 
Q 959 750 1161 570 
Q 1363 391 1709 391 
Q 2188 391 2477 730 
Q 2766 1069 2766 1631 
L 2766 1759 
L 2194 1759 
z
M 3341 1997 
L 3341 0 
L 2766 0 
L 2766 531 
Q 2569 213 2275 61 
Q 1981 -91 1556 -91 
Q 1019 -91 701 211 
Q 384 513 384 1019 
Q 384 1609 779 1909 
Q 1175 2209 1959 2209 
L 2766 2209 
L 2766 2266 
Q 2766 2663 2505 2880 
Q 2244 3097 1772 3097 
Q 1472 3097 1187 3025 
Q 903 2953 641 2809 
L 641 3341 
Q 956 3463 1253 3523 
Q 1550 3584 1831 3584 
Q 2591 3584 2966 3190 
Q 3341 2797 3341 1997 
z
" transform="scale(0.015625)"/>
       <path id="DejaVuSans-74" d="M 1172 4494 
L 1172 3500 
L 2356 3500 
L 2356 3053 
L 1172 3053 
L 1172 1153 
Q 1172 725 1289 603 
Q 1406 481 1766 481 
L 2356 481 
L 2356 0 
L 1766 0 
Q 1100 0 847 248 
Q 594 497 594 1153 
L 594 3053 
L 172 3053 
L 172 3500 
L 594 3500 
L 594 4494 
L 1172 4494 
z
" transform="scale(0.015625)"/>
       <path id="DejaVuSans-73" d="M 2834 3397 
L 2834 2853 
Q 2591 2978 2328 3040 
Q 2066 3103 1784 3103 
Q 1356 3103 1142 2972 
Q 928 2841 928 2578 
Q 928 2378 1081 2264 
Q 1234 2150 1697 2047 
L 1894 2003 
Q 2506 1872 2764 1633 
Q 3022 1394 3022 966 
Q 3022 478 2636 193 
Q 2250 -91 1575 -91 
Q 1294 -91 989 -36 
Q 684 19 347 128 
L 347 722 
Q 666 556 975 473 
Q 1284 391 1588 391 
Q 1994 391 2212 530 
Q 2431 669 2431 922 
Q 2431 1156 2273 1281 
Q 2116 1406 1581 1522 
L 1381 1569 
Q 847 1681 609 1914 
Q 372 2147 372 2553 
Q 372 3047 722 3315 
Q 1072 3584 1716 3584 
Q 2034 3584 2315 3537 
Q 2597 3491 2834 3397 
z
" transform="scale(0.015625)"/>
       <path id="DejaVuSans-6c" d="M 603 4863 
L 1178 4863 
L 1178 0 
L 603 0 
L 603 4863 
z
" transform="scale(0.015625)"/>
       <path id="DejaVuSans-64" d="M 2906 2969 
L 2906 4863 
L 3481 4863 
L 3481 0 
L 2906 0 
L 2906 525 
Q 2725 213 2448 61 
Q 2172 -91 1784 -91 
Q 1150 -91 751 415 
Q 353 922 353 1747 
Q 353 2572 751 3078 
Q 1150 3584 1784 3584 
Q 2172 3584 2448 3432 
Q 2725 3281 2906 2969 
z
M 947 1747 
Q 947 1113 1208 752 
Q 1469 391 1925 391 
Q 2381 391 2643 752 
Q 2906 1113 2906 1747 
Q 2906 2381 2643 2742 
Q 2381 3103 1925 3103 
Q 1469 3103 1208 2742 
Q 947 2381 947 1747 
z
" transform="scale(0.015625)"/>
       <path id="DejaVuSans-69" d="M 603 3500 
L 1178 3500 
L 1178 0 
L 603 0 
L 603 3500 
z
M 603 4863 
L 1178 4863 
L 1178 4134 
L 603 4134 
L 603 4863 
z
" transform="scale(0.015625)"/>
       <path id="DejaVuSans-76" d="M 191 3500 
L 800 3500 
L 1894 563 
L 2988 3500 
L 3597 3500 
L 2284 0 
L 1503 0 
L 191 3500 
z
" transform="scale(0.015625)"/>
       <path id="DejaVuSans-65" d="M 3597 1894 
L 3597 1613 
L 953 1613 
Q 991 1019 1311 708 
Q 1631 397 2203 397 
Q 2534 397 2845 478 
Q 3156 559 3463 722 
L 3463 178 
Q 3153 47 2828 -22 
Q 2503 -91 2169 -91 
Q 1331 -91 842 396 
Q 353 884 353 1716 
Q 353 2575 817 3079 
Q 1281 3584 2069 3584 
Q 2775 3584 3186 3129 
Q 3597 2675 3597 1894 
z
M 3022 2063 
Q 3016 2534 2758 2815 
Q 2500 3097 2075 3097 
Q 1594 3097 1305 2825 
Q 1016 2553 972 2059 
L 3022 2063 
z
" transform="scale(0.015625)"/>
       <path id="DejaVuSans-2d" d="M 313 2009 
L 1997 2009 
L 1997 1497 
L 313 1497 
L 313 2009 
z
" transform="scale(0.015625)"/>
       <path id="DejaVuSans-e8" d="M 3597 1894 
L 3597 1613 
L 953 1613 
Q 991 1019 1311 708 
Q 1631 397 2203 397 
Q 2534 397 2845 478 
Q 3156 559 3463 722 
L 3463 178 
Q 3153 47 2828 -22 
Q 2503 -91 2169 -91 
Q 1331 -91 842 396 
Q 353 884 353 1716 
Q 353 2575 817 3079 
Q 1281 3584 2069 3584 
Q 2775 3584 3186 3129 
Q 3597 2675 3597 1894 
z
M 3022 2063 
Q 3016 2534 2758 2815 
Q 2500 3097 2075 3097 
Q 1594 3097 1305 2825 
Q 1016 2553 972 2059 
L 3022 2063 
z
M 1581 5119 
L 2463 3950 
L 1984 3950 
L 966 5119 
L 1581 5119 
z
" transform="scale(0.015625)"/>
       <path id="DejaVuSans-6d" d="M 3328 2828 
Q 3544 3216 3844 3400 
Q 4144 3584 4550 3584 
Q 5097 3584 5394 3201 
Q 5691 2819 5691 2113 
L 5691 0 
L 5113 0 
L 5113 2094 
Q 5113 2597 4934 2840 
Q 4756 3084 4391 3084 
Q 3944 3084 3684 2787 
Q 3425 2491 3425 1978 
L 3425 0 
L 2847 0 
L 2847 2094 
Q 2847 2600 2669 2842 
Q 2491 3084 2119 3084 
Q 1678 3084 1418 2786 
Q 1159 2488 1159 1978 
L 1159 0 
L 581 0 
L 581 3500 
L 1159 3500 
L 1159 2956 
Q 1356 3278 1631 3431 
Q 1906 3584 2284 3584 
Q 2666 3584 2933 3390 
Q 3200 3197 3328 2828 
z
" transform="scale(0.015625)"/>
      </defs>
      <use xlink:href="#DejaVuSans-e9"/>
      <use xlink:href="#DejaVuSans-63" x="61.523438"/>
      <use xlink:href="#DejaVuSans-61" x="116.503906"/>
      <use xlink:href="#DejaVuSans-72" x="177.783203"/>
      <use xlink:href="#DejaVuSans-74" x="218.896484"/>
      <use xlink:href="#DejaVuSans-20" x="258.105469"/>
      <use xlink:href="#DejaVuSans-73" x="289.892578"/>
      <use xlink:href="#DejaVuSans-75" x="341.992188"/>
      <use xlink:href="#DejaVuSans-72" x="405.371094"/>
      <use xlink:href="#DejaVuSans-20" x="446.484375"/>
      <use xlink:href="#DejaVuSans-6c" x="478.271484"/>
      <use xlink:href="#DejaVuSans-61" x="506.054688"/>
      <use xlink:href="#DejaVuSans-20" x="567.333984"/>
      <use xlink:href="#DejaVuSans-64" x="599.121094"/>
      <use xlink:href="#DejaVuSans-e9" x="662.597656"/>
      <use xlink:href="#DejaVuSans-72" x="724.121094"/>
      <use xlink:href="#DejaVuSans-69" x="765.234375"/>
      <use xlink:href="#DejaVuSans-76" x="793.017578"/>
      <use xlink:href="#DejaVuSans-e9" x="852.197266"/>
      <use xlink:href="#DejaVuSans-65" x="913.720703"/>
      <use xlink:href="#DejaVuSans-20" x="975.244141"/>
      <use xlink:href="#DejaVuSans-20" x="1007.03125"/>
      <use xlink:href="#DejaVuSans-31" x="1038.818359"/>
      <use xlink:href="#DejaVuSans-2d" x="1102.441406"/>
      <use xlink:href="#DejaVuSans-69" x="1138.525391"/>
      <use xlink:href="#DejaVuSans-e8" x="1166.308594"/>
      <use xlink:href="#DejaVuSans-6d" x="1227.832031"/>
      <use xlink:href="#DejaVuSans-65" x="1325.244141"/>
     </g>
    </g>
    <g id="line2d_23">
     <path d="M 239.043437 234.291812 
L 249.043437 234.291812 
L 259.043437 234.291812 
" style="fill: none; stroke: #ff7f0e; stroke-width: 1.5; stroke-linecap: square"/>
    </g>
    <g id="text_19">
     <!-- écart sur la dérivée  2-ième -->
     <g transform="translate(267.043437 237.791812)scale(0.1 -0.1)">
      <use xlink:href="#DejaVuSans-e9"/>
      <use xlink:href="#DejaVuSans-63" x="61.523438"/>
      <use xlink:href="#DejaVuSans-61" x="116.503906"/>
      <use xlink:href="#DejaVuSans-72" x="177.783203"/>
      <use xlink:href="#DejaVuSans-74" x="218.896484"/>
      <use xlink:href="#DejaVuSans-20" x="258.105469"/>
      <use xlink:href="#DejaVuSans-73" x="289.892578"/>
      <use xlink:href="#DejaVuSans-75" x="341.992188"/>
      <use xlink:href="#DejaVuSans-72" x="405.371094"/>
      <use xlink:href="#DejaVuSans-20" x="446.484375"/>
      <use xlink:href="#DejaVuSans-6c" x="478.271484"/>
      <use xlink:href="#DejaVuSans-61" x="506.054688"/>
      <use xlink:href="#DejaVuSans-20" x="567.333984"/>
      <use xlink:href="#DejaVuSans-64" x="599.121094"/>
      <use xlink:href="#DejaVuSans-e9" x="662.597656"/>
      <use xlink:href="#DejaVuSans-72" x="724.121094"/>
      <use xlink:href="#DejaVuSans-69" x="765.234375"/>
      <use xlink:href="#DejaVuSans-76" x="793.017578"/>
      <use xlink:href="#DejaVuSans-e9" x="852.197266"/>
      <use xlink:href="#DejaVuSans-65" x="913.720703"/>
      <use xlink:href="#DejaVuSans-20" x="975.244141"/>
      <use xlink:href="#DejaVuSans-20" x="1007.03125"/>
      <use xlink:href="#DejaVuSans-32" x="1038.818359"/>
      <use xlink:href="#DejaVuSans-2d" x="1102.441406"/>
      <use xlink:href="#DejaVuSans-69" x="1138.525391"/>
      <use xlink:href="#DejaVuSans-e8" x="1166.308594"/>
      <use xlink:href="#DejaVuSans-6d" x="1227.832031"/>
      <use xlink:href="#DejaVuSans-65" x="1325.244141"/>
     </g>
    </g>
    <g id="line2d_24">
     <path d="M 239.043437 248.969937 
L 249.043437 248.969937 
L 259.043437 248.969937 
" style="fill: none; stroke: #2ca02c; stroke-width: 1.5; stroke-linecap: square"/>
    </g>
    <g id="text_20">
     <!-- écart sur la dérivée  3-ième -->
     <g transform="translate(267.043437 252.469937)scale(0.1 -0.1)">
      <use xlink:href="#DejaVuSans-e9"/>
      <use xlink:href="#DejaVuSans-63" x="61.523438"/>
      <use xlink:href="#DejaVuSans-61" x="116.503906"/>
      <use xlink:href="#DejaVuSans-72" x="177.783203"/>
      <use xlink:href="#DejaVuSans-74" x="218.896484"/>
      <use xlink:href="#DejaVuSans-20" x="258.105469"/>
      <use xlink:href="#DejaVuSans-73" x="289.892578"/>
      <use xlink:href="#DejaVuSans-75" x="341.992188"/>
      <use xlink:href="#DejaVuSans-72" x="405.371094"/>
      <use xlink:href="#DejaVuSans-20" x="446.484375"/>
      <use xlink:href="#DejaVuSans-6c" x="478.271484"/>
      <use xlink:href="#DejaVuSans-61" x="506.054688"/>
      <use xlink:href="#DejaVuSans-20" x="567.333984"/>
      <use xlink:href="#DejaVuSans-64" x="599.121094"/>
      <use xlink:href="#DejaVuSans-e9" x="662.597656"/>
      <use xlink:href="#DejaVuSans-72" x="724.121094"/>
      <use xlink:href="#DejaVuSans-69" x="765.234375"/>
      <use xlink:href="#DejaVuSans-76" x="793.017578"/>
      <use xlink:href="#DejaVuSans-e9" x="852.197266"/>
      <use xlink:href="#DejaVuSans-65" x="913.720703"/>
      <use xlink:href="#DejaVuSans-20" x="975.244141"/>
      <use xlink:href="#DejaVuSans-20" x="1007.03125"/>
      <use xlink:href="#DejaVuSans-33" x="1038.818359"/>
      <use xlink:href="#DejaVuSans-2d" x="1102.441406"/>
      <use xlink:href="#DejaVuSans-69" x="1138.525391"/>
      <use xlink:href="#DejaVuSans-e8" x="1166.308594"/>
      <use xlink:href="#DejaVuSans-6d" x="1227.832031"/>
      <use xlink:href="#DejaVuSans-65" x="1325.244141"/>
     </g>
    </g>
    <g id="line2d_25">
     <path d="M 239.043437 263.648062 
L 249.043437 263.648062 
L 259.043437 263.648062 
" style="fill: none; stroke: #d62728; stroke-width: 1.5; stroke-linecap: square"/>
    </g>
    <g id="text_21">
     <!-- écart sur la dérivée  4-ième -->
     <g transform="translate(267.043437 267.148062)scale(0.1 -0.1)">
      <defs>
       <path id="DejaVuSans-34" d="M 2419 4116 
L 825 1625 
L 2419 1625 
L 2419 4116 
z
M 2253 4666 
L 3047 4666 
L 3047 1625 
L 3713 1625 
L 3713 1100 
L 3047 1100 
L 3047 0 
L 2419 0 
L 2419 1100 
L 313 1100 
L 313 1709 
L 2253 4666 
z
" transform="scale(0.015625)"/>
      </defs>
      <use xlink:href="#DejaVuSans-e9"/>
      <use xlink:href="#DejaVuSans-63" x="61.523438"/>
      <use xlink:href="#DejaVuSans-61" x="116.503906"/>
      <use xlink:href="#DejaVuSans-72" x="177.783203"/>
      <use xlink:href="#DejaVuSans-74" x="218.896484"/>
      <use xlink:href="#DejaVuSans-20" x="258.105469"/>
      <use xlink:href="#DejaVuSans-73" x="289.892578"/>
      <use xlink:href="#DejaVuSans-75" x="341.992188"/>
      <use xlink:href="#DejaVuSans-72" x="405.371094"/>
      <use xlink:href="#DejaVuSans-20" x="446.484375"/>
      <use xlink:href="#DejaVuSans-6c" x="478.271484"/>
      <use xlink:href="#DejaVuSans-61" x="506.054688"/>
      <use xlink:href="#DejaVuSans-20" x="567.333984"/>
      <use xlink:href="#DejaVuSans-64" x="599.121094"/>
      <use xlink:href="#DejaVuSans-e9" x="662.597656"/>
      <use xlink:href="#DejaVuSans-72" x="724.121094"/>
      <use xlink:href="#DejaVuSans-69" x="765.234375"/>
      <use xlink:href="#DejaVuSans-76" x="793.017578"/>
      <use xlink:href="#DejaVuSans-e9" x="852.197266"/>
      <use xlink:href="#DejaVuSans-65" x="913.720703"/>
      <use xlink:href="#DejaVuSans-20" x="975.244141"/>
      <use xlink:href="#DejaVuSans-20" x="1007.03125"/>
      <use xlink:href="#DejaVuSans-34" x="1038.818359"/>
      <use xlink:href="#DejaVuSans-2d" x="1102.441406"/>
      <use xlink:href="#DejaVuSans-69" x="1138.525391"/>
      <use xlink:href="#DejaVuSans-e8" x="1166.308594"/>
      <use xlink:href="#DejaVuSans-6d" x="1227.832031"/>
      <use xlink:href="#DejaVuSans-65" x="1325.244141"/>
     </g>
    </g>
    <g id="line2d_26">
     <path d="M 239.043437 278.326188 
L 249.043437 278.326188 
L 259.043437 278.326188 
" style="fill: none; stroke: #9467bd; stroke-width: 1.5; stroke-linecap: square"/>
    </g>
    <g id="text_22">
     <!-- écart sur la dérivée  5-ième -->
     <g transform="translate(267.043437 281.826188)scale(0.1 -0.1)">
      <use xlink:href="#DejaVuSans-e9"/>
      <use xlink:href="#DejaVuSans-63" x="61.523438"/>
      <use xlink:href="#DejaVuSans-61" x="116.503906"/>
      <use xlink:href="#DejaVuSans-72" x="177.783203"/>
      <use xlink:href="#DejaVuSans-74" x="218.896484"/>
      <use xlink:href="#DejaVuSans-20" x="258.105469"/>
      <use xlink:href="#DejaVuSans-73" x="289.892578"/>
      <use xlink:href="#DejaVuSans-75" x="341.992188"/>
      <use xlink:href="#DejaVuSans-72" x="405.371094"/>
      <use xlink:href="#DejaVuSans-20" x="446.484375"/>
      <use xlink:href="#DejaVuSans-6c" x="478.271484"/>
      <use xlink:href="#DejaVuSans-61" x="506.054688"/>
      <use xlink:href="#DejaVuSans-20" x="567.333984"/>
      <use xlink:href="#DejaVuSans-64" x="599.121094"/>
      <use xlink:href="#DejaVuSans-e9" x="662.597656"/>
      <use xlink:href="#DejaVuSans-72" x="724.121094"/>
      <use xlink:href="#DejaVuSans-69" x="765.234375"/>
      <use xlink:href="#DejaVuSans-76" x="793.017578"/>
      <use xlink:href="#DejaVuSans-e9" x="852.197266"/>
      <use xlink:href="#DejaVuSans-65" x="913.720703"/>
      <use xlink:href="#DejaVuSans-20" x="975.244141"/>
      <use xlink:href="#DejaVuSans-20" x="1007.03125"/>
      <use xlink:href="#DejaVuSans-35" x="1038.818359"/>
      <use xlink:href="#DejaVuSans-2d" x="1102.441406"/>
      <use xlink:href="#DejaVuSans-69" x="1138.525391"/>
      <use xlink:href="#DejaVuSans-e8" x="1166.308594"/>
      <use xlink:href="#DejaVuSans-6d" x="1227.832031"/>
      <use xlink:href="#DejaVuSans-65" x="1325.244141"/>
     </g>
    </g>
    <g id="line2d_27">
     <path d="M 239.043437 293.004312 
L 249.043437 293.004312 
L 259.043437 293.004312 
" style="fill: none; stroke: #8c564b; stroke-width: 1.5; stroke-linecap: square"/>
    </g>
    <g id="text_23">
     <!-- écart sur la dérivée  6-ième -->
     <g transform="translate(267.043437 296.504312)scale(0.1 -0.1)">
      <defs>
       <path id="DejaVuSans-36" d="M 2113 2584 
Q 1688 2584 1439 2293 
Q 1191 2003 1191 1497 
Q 1191 994 1439 701 
Q 1688 409 2113 409 
Q 2538 409 2786 701 
Q 3034 994 3034 1497 
Q 3034 2003 2786 2293 
Q 2538 2584 2113 2584 
z
M 3366 4563 
L 3366 3988 
Q 3128 4100 2886 4159 
Q 2644 4219 2406 4219 
Q 1781 4219 1451 3797 
Q 1122 3375 1075 2522 
Q 1259 2794 1537 2939 
Q 1816 3084 2150 3084 
Q 2853 3084 3261 2657 
Q 3669 2231 3669 1497 
Q 3669 778 3244 343 
Q 2819 -91 2113 -91 
Q 1303 -91 875 529 
Q 447 1150 447 2328 
Q 447 3434 972 4092 
Q 1497 4750 2381 4750 
Q 2619 4750 2861 4703 
Q 3103 4656 3366 4563 
z
" transform="scale(0.015625)"/>
      </defs>
      <use xlink:href="#DejaVuSans-e9"/>
      <use xlink:href="#DejaVuSans-63" x="61.523438"/>
      <use xlink:href="#DejaVuSans-61" x="116.503906"/>
      <use xlink:href="#DejaVuSans-72" x="177.783203"/>
      <use xlink:href="#DejaVuSans-74" x="218.896484"/>
      <use xlink:href="#DejaVuSans-20" x="258.105469"/>
      <use xlink:href="#DejaVuSans-73" x="289.892578"/>
      <use xlink:href="#DejaVuSans-75" x="341.992188"/>
      <use xlink:href="#DejaVuSans-72" x="405.371094"/>
      <use xlink:href="#DejaVuSans-20" x="446.484375"/>
      <use xlink:href="#DejaVuSans-6c" x="478.271484"/>
      <use xlink:href="#DejaVuSans-61" x="506.054688"/>
      <use xlink:href="#DejaVuSans-20" x="567.333984"/>
      <use xlink:href="#DejaVuSans-64" x="599.121094"/>
      <use xlink:href="#DejaVuSans-e9" x="662.597656"/>
      <use xlink:href="#DejaVuSans-72" x="724.121094"/>
      <use xlink:href="#DejaVuSans-69" x="765.234375"/>
      <use xlink:href="#DejaVuSans-76" x="793.017578"/>
      <use xlink:href="#DejaVuSans-e9" x="852.197266"/>
      <use xlink:href="#DejaVuSans-65" x="913.720703"/>
      <use xlink:href="#DejaVuSans-20" x="975.244141"/>
      <use xlink:href="#DejaVuSans-20" x="1007.03125"/>
      <use xlink:href="#DejaVuSans-36" x="1038.818359"/>
      <use xlink:href="#DejaVuSans-2d" x="1102.441406"/>
      <use xlink:href="#DejaVuSans-69" x="1138.525391"/>
      <use xlink:href="#DejaVuSans-e8" x="1166.308594"/>
      <use xlink:href="#DejaVuSans-6d" x="1227.832031"/>
      <use xlink:href="#DejaVuSans-65" x="1325.244141"/>
     </g>
    </g>
   </g>
  </g>
 </g>
 <defs>
  <clipPath id="p6fa6a40228">
   <rect x="57.6" y="41.472" width="357.12" height="266.112"/>
  </clipPath>
 </defs>
</svg>
